<?xml version="1.0" encoding="UTF-8"?>
<svg xmlns="http://www.w3.org/2000/svg" xmlns:xlink="http://www.w3.org/1999/xlink" width="504" height="288" viewBox="0 0 504 288">
<defs>
<g>
<g id="glyph-0-0">
<path d="M 0.359375 0 L 0.359375 -8.03125 L 6.734375 -8.03125 L 6.734375 0 Z M 5.734375 -1 L 5.734375 -7.03125 L 1.375 -7.03125 L 1.375 -1 Z M 5.734375 -1 "/>
</g>
<g id="glyph-0-1">
<path d="M 3.03125 -7.828125 C 4.039062 -7.828125 4.773438 -7.410156 5.234375 -6.578125 C 5.578125 -5.929688 5.75 -5.046875 5.75 -3.921875 C 5.75 -2.859375 5.59375 -1.976562 5.28125 -1.28125 C 4.820312 -0.28125 4.070312 0.21875 3.03125 0.21875 C 2.082031 0.21875 1.378906 -0.191406 0.921875 -1.015625 C 0.535156 -1.691406 0.34375 -2.609375 0.34375 -3.765625 C 0.34375 -4.648438 0.457031 -5.410156 0.6875 -6.046875 C 1.125 -7.234375 1.90625 -7.828125 3.03125 -7.828125 Z M 3.015625 -0.6875 C 3.523438 -0.6875 3.929688 -0.910156 4.234375 -1.359375 C 4.535156 -1.816406 4.6875 -2.660156 4.6875 -3.890625 C 4.6875 -4.773438 4.578125 -5.503906 4.359375 -6.078125 C 4.140625 -6.660156 3.71875 -6.953125 3.09375 -6.953125 C 2.507812 -6.953125 2.082031 -6.675781 1.8125 -6.125 C 1.550781 -5.582031 1.421875 -4.78125 1.421875 -3.71875 C 1.421875 -2.914062 1.503906 -2.273438 1.671875 -1.796875 C 1.929688 -1.054688 2.378906 -0.6875 3.015625 -0.6875 Z M 3.015625 -0.6875 "/>
</g>
<g id="glyph-0-2">
<path d="M 0.953125 -1.1875 L 2.09375 -1.1875 L 2.09375 0 L 0.953125 0 Z M 0.953125 -1.1875 "/>
</g>
<g id="glyph-0-3">
<path d="M 0.34375 0 C 0.382812 -0.675781 0.523438 -1.265625 0.765625 -1.765625 C 1.003906 -2.265625 1.476562 -2.71875 2.1875 -3.125 L 3.234375 -3.734375 C 3.703125 -4.003906 4.035156 -4.238281 4.234375 -4.4375 C 4.523438 -4.738281 4.671875 -5.082031 4.671875 -5.46875 C 4.671875 -5.925781 4.535156 -6.285156 4.265625 -6.546875 C 3.992188 -6.816406 3.628906 -6.953125 3.171875 -6.953125 C 2.492188 -6.953125 2.023438 -6.695312 1.765625 -6.1875 C 1.628906 -5.914062 1.554688 -5.535156 1.546875 -5.046875 L 0.546875 -5.046875 C 0.554688 -5.734375 0.679688 -6.289062 0.921875 -6.71875 C 1.347656 -7.476562 2.097656 -7.859375 3.171875 -7.859375 C 4.078125 -7.859375 4.734375 -7.613281 5.140625 -7.125 C 5.554688 -6.644531 5.765625 -6.109375 5.765625 -5.515625 C 5.765625 -4.890625 5.546875 -4.351562 5.109375 -3.90625 C 4.847656 -3.644531 4.390625 -3.332031 3.734375 -2.96875 L 2.984375 -2.546875 C 2.617188 -2.347656 2.335938 -2.160156 2.140625 -1.984375 C 1.773438 -1.671875 1.546875 -1.320312 1.453125 -0.9375 L 5.734375 -0.9375 L 5.734375 0 Z M 0.34375 0 "/>
</g>
<g id="glyph-0-4">
<path d="M 1.390625 -2 C 1.453125 -1.4375 1.710938 -1.046875 2.171875 -0.828125 C 2.398438 -0.722656 2.664062 -0.671875 2.96875 -0.671875 C 3.550781 -0.671875 3.984375 -0.851562 4.265625 -1.21875 C 4.546875 -1.59375 4.6875 -2.007812 4.6875 -2.46875 C 4.6875 -3.007812 4.519531 -3.425781 4.1875 -3.71875 C 3.851562 -4.019531 3.457031 -4.171875 3 -4.171875 C 2.65625 -4.171875 2.359375 -4.101562 2.109375 -3.96875 C 1.867188 -3.84375 1.664062 -3.664062 1.5 -3.4375 L 0.640625 -3.484375 L 1.234375 -7.703125 L 5.3125 -7.703125 L 5.3125 -6.75 L 1.984375 -6.75 L 1.640625 -4.578125 C 1.828125 -4.710938 2.003906 -4.816406 2.171875 -4.890625 C 2.460938 -5.003906 2.796875 -5.0625 3.171875 -5.0625 C 3.890625 -5.0625 4.5 -4.828125 5 -4.359375 C 5.5 -3.898438 5.75 -3.316406 5.75 -2.609375 C 5.75 -1.867188 5.519531 -1.210938 5.0625 -0.640625 C 4.601562 -0.078125 3.875 0.203125 2.875 0.203125 C 2.238281 0.203125 1.675781 0.0234375 1.1875 -0.328125 C 0.695312 -0.691406 0.421875 -1.25 0.359375 -2 Z M 1.390625 -2 "/>
</g>
<g id="glyph-0-5">
<path d="M 5.859375 -7.703125 L 5.859375 -6.84375 C 5.609375 -6.601562 5.273438 -6.175781 4.859375 -5.5625 C 4.441406 -4.957031 4.070312 -4.304688 3.75 -3.609375 C 3.425781 -2.929688 3.1875 -2.3125 3.03125 -1.75 C 2.914062 -1.382812 2.773438 -0.800781 2.609375 0 L 1.53125 0 C 1.769531 -1.5 2.316406 -2.988281 3.171875 -4.46875 C 3.671875 -5.332031 4.195312 -6.082031 4.75 -6.71875 L 0.40625 -6.71875 L 0.40625 -7.703125 Z M 5.859375 -7.703125 "/>
</g>
<g id="glyph-0-6">
<path d="M 1.078125 -5.546875 L 1.078125 -6.296875 C 1.785156 -6.367188 2.28125 -6.484375 2.5625 -6.640625 C 2.84375 -6.804688 3.050781 -7.191406 3.1875 -7.796875 L 3.96875 -7.796875 L 3.96875 0 L 2.921875 0 L 2.921875 -5.546875 Z M 1.078125 -5.546875 "/>
</g>
<g id="glyph-1-0">
<path d="M 0.453125 0 L 0.453125 -10.046875 L 8.421875 -10.046875 L 8.421875 0 Z M 7.171875 -1.265625 L 7.171875 -8.78125 L 1.703125 -8.78125 L 1.703125 -1.265625 Z M 7.171875 -1.265625 "/>
</g>
<g id="glyph-1-1">
<path d="M 0.203125 -7.328125 L 1.796875 -7.328125 L 3.484375 -4.75 L 5.1875 -7.328125 L 6.671875 -7.28125 L 4.21875 -3.75 L 6.78125 0 L 5.21875 0 L 3.390625 -2.75 L 1.640625 0 L 0.078125 0 L 2.65625 -3.75 Z M 0.203125 -7.328125 "/>
</g>
<g id="glyph-2-0">
<path d="M 0 -0.453125 L -10.046875 -0.453125 L -10.046875 -8.421875 L 0 -8.421875 Z M -1.265625 -7.171875 L -8.78125 -7.171875 L -8.78125 -1.703125 L -1.265625 -1.703125 Z M -1.265625 -7.171875 "/>
</g>
<g id="glyph-2-1">
<path d="M -7.328125 -5.46875 L -7.328125 -6.84375 C -6.859375 -6.664062 -5.785156 -6.28125 -4.109375 -5.6875 C -2.847656 -5.238281 -1.820312 -4.863281 -1.03125 -4.5625 C 0.832031 -3.851562 1.96875 -3.351562 2.375 -3.0625 C 2.789062 -2.769531 3 -2.265625 3 -1.546875 C 3 -1.378906 2.988281 -1.25 2.96875 -1.15625 C 2.957031 -1.0625 2.9375 -0.945312 2.90625 -0.8125 L 1.78125 -0.8125 C 1.84375 -1.019531 1.878906 -1.171875 1.890625 -1.265625 C 1.910156 -1.367188 1.921875 -1.457031 1.921875 -1.53125 C 1.921875 -1.75 1.878906 -1.910156 1.796875 -2.015625 C 1.722656 -2.128906 1.632812 -2.222656 1.53125 -2.296875 C 1.488281 -2.316406 1.296875 -2.394531 0.953125 -2.53125 C 0.617188 -2.675781 0.375 -2.78125 0.21875 -2.84375 L -7.328125 -0.140625 L -7.328125 -1.53125 L -1.359375 -3.5 Z M -7.5 -3.5 Z M -7.5 -3.5 "/>
</g>
</g>
<clipPath id="clip-0">
<path clip-rule="nonzero" d="M 52.738281 6.972656 L 497.027344 6.972656 L 497.027344 244.261719 L 52.738281 244.261719 Z M 52.738281 6.972656 "/>
</clipPath>
<clipPath id="clip-1">
<path clip-rule="nonzero" d="M 52.738281 206 L 497.027344 206 L 497.027344 207 L 52.738281 207 Z M 52.738281 206 "/>
</clipPath>
<clipPath id="clip-2">
<path clip-rule="nonzero" d="M 52.738281 152 L 497.027344 152 L 497.027344 153 L 52.738281 153 Z M 52.738281 152 "/>
</clipPath>
<clipPath id="clip-3">
<path clip-rule="nonzero" d="M 52.738281 98 L 497.027344 98 L 497.027344 99 L 52.738281 99 Z M 52.738281 98 "/>
</clipPath>
<clipPath id="clip-4">
<path clip-rule="nonzero" d="M 52.738281 44 L 497.027344 44 L 497.027344 46 L 52.738281 46 Z M 52.738281 44 "/>
</clipPath>
<clipPath id="clip-5">
<path clip-rule="nonzero" d="M 123 6.972656 L 124 6.972656 L 124 244.261719 L 123 244.261719 Z M 123 6.972656 "/>
</clipPath>
<clipPath id="clip-6">
<path clip-rule="nonzero" d="M 224 6.972656 L 225 6.972656 L 225 244.261719 L 224 244.261719 Z M 224 6.972656 "/>
</clipPath>
<clipPath id="clip-7">
<path clip-rule="nonzero" d="M 325 6.972656 L 326 6.972656 L 326 244.261719 L 325 244.261719 Z M 325 6.972656 "/>
</clipPath>
<clipPath id="clip-8">
<path clip-rule="nonzero" d="M 426 6.972656 L 427 6.972656 L 427 244.261719 L 426 244.261719 Z M 426 6.972656 "/>
</clipPath>
<clipPath id="clip-9">
<path clip-rule="nonzero" d="M 52.738281 232 L 497.027344 232 L 497.027344 235 L 52.738281 235 Z M 52.738281 232 "/>
</clipPath>
<clipPath id="clip-10">
<path clip-rule="nonzero" d="M 52.738281 178 L 497.027344 178 L 497.027344 181 L 52.738281 181 Z M 52.738281 178 "/>
</clipPath>
<clipPath id="clip-11">
<path clip-rule="nonzero" d="M 52.738281 124 L 497.027344 124 L 497.027344 127 L 52.738281 127 Z M 52.738281 124 "/>
</clipPath>
<clipPath id="clip-12">
<path clip-rule="nonzero" d="M 52.738281 71 L 497.027344 71 L 497.027344 73 L 52.738281 73 Z M 52.738281 71 "/>
</clipPath>
<clipPath id="clip-13">
<path clip-rule="nonzero" d="M 52.738281 17 L 497.027344 17 L 497.027344 19 L 52.738281 19 Z M 52.738281 17 "/>
</clipPath>
<clipPath id="clip-14">
<path clip-rule="nonzero" d="M 72 6.972656 L 74 6.972656 L 74 244.261719 L 72 244.261719 Z M 72 6.972656 "/>
</clipPath>
<clipPath id="clip-15">
<path clip-rule="nonzero" d="M 173 6.972656 L 175 6.972656 L 175 244.261719 L 173 244.261719 Z M 173 6.972656 "/>
</clipPath>
<clipPath id="clip-16">
<path clip-rule="nonzero" d="M 274 6.972656 L 276 6.972656 L 276 244.261719 L 274 244.261719 Z M 274 6.972656 "/>
</clipPath>
<clipPath id="clip-17">
<path clip-rule="nonzero" d="M 375 6.972656 L 377 6.972656 L 377 244.261719 L 375 244.261719 Z M 375 6.972656 "/>
</clipPath>
<clipPath id="clip-18">
<path clip-rule="nonzero" d="M 476 6.972656 L 478 6.972656 L 478 244.261719 L 476 244.261719 Z M 476 6.972656 "/>
</clipPath>
<clipPath id="clip-19">
<path clip-rule="nonzero" d="M 52.738281 6.972656 L 497.027344 6.972656 L 497.027344 244.261719 L 52.738281 244.261719 Z M 52.738281 6.972656 "/>
</clipPath>
</defs>
<rect x="-50.4" y="-28.8" width="604.8" height="345.6" fill="rgb(100%, 100%, 100%)" fill-opacity="1"/>
<rect x="-50.4" y="-28.8" width="604.8" height="345.6" fill="rgb(100%, 100%, 100%)" fill-opacity="1"/>
<path fill="none" stroke-width="1.357972" stroke-linecap="round" stroke-linejoin="round" stroke="rgb(100%, 100%, 100%)" stroke-opacity="1" stroke-miterlimit="10" d="M 0 288 L 504 288 L 504 0 L 0 0 Z M 0 288 "/>
<g clip-path="url(#clip-0)">
<path fill-rule="nonzero" fill="rgb(100%, 100%, 100%)" fill-opacity="1" d="M 52.738281 244.261719 L 497.027344 244.261719 L 497.027344 6.972656 L 52.738281 6.972656 Z M 52.738281 244.261719 "/>
</g>
<g clip-path="url(#clip-1)">
<path fill="none" stroke-width="0.678986" stroke-linecap="butt" stroke-linejoin="round" stroke="rgb(92.156863%, 92.156863%, 92.156863%)" stroke-opacity="1" stroke-miterlimit="10" d="M 52.738281 206.511719 L 497.027344 206.511719 "/>
</g>
<g clip-path="url(#clip-2)">
<path fill="none" stroke-width="0.678986" stroke-linecap="butt" stroke-linejoin="round" stroke="rgb(92.156863%, 92.156863%, 92.156863%)" stroke-opacity="1" stroke-miterlimit="10" d="M 52.738281 152.582031 L 497.027344 152.582031 "/>
</g>
<g clip-path="url(#clip-3)">
<path fill="none" stroke-width="0.678986" stroke-linecap="butt" stroke-linejoin="round" stroke="rgb(92.156863%, 92.156863%, 92.156863%)" stroke-opacity="1" stroke-miterlimit="10" d="M 52.738281 98.652344 L 497.027344 98.652344 "/>
</g>
<g clip-path="url(#clip-4)">
<path fill="none" stroke-width="0.678986" stroke-linecap="butt" stroke-linejoin="round" stroke="rgb(92.156863%, 92.156863%, 92.156863%)" stroke-opacity="1" stroke-miterlimit="10" d="M 52.738281 44.722656 L 497.027344 44.722656 "/>
</g>
<g clip-path="url(#clip-5)">
<path fill="none" stroke-width="0.678986" stroke-linecap="butt" stroke-linejoin="round" stroke="rgb(92.156863%, 92.156863%, 92.156863%)" stroke-opacity="1" stroke-miterlimit="10" d="M 123.417969 244.261719 L 123.417969 6.972656 "/>
</g>
<g clip-path="url(#clip-6)">
<path fill="none" stroke-width="0.678986" stroke-linecap="butt" stroke-linejoin="round" stroke="rgb(92.156863%, 92.156863%, 92.156863%)" stroke-opacity="1" stroke-miterlimit="10" d="M 224.394531 244.261719 L 224.394531 6.972656 "/>
</g>
<g clip-path="url(#clip-7)">
<path fill="none" stroke-width="0.678986" stroke-linecap="butt" stroke-linejoin="round" stroke="rgb(92.156863%, 92.156863%, 92.156863%)" stroke-opacity="1" stroke-miterlimit="10" d="M 325.367188 244.261719 L 325.367188 6.972656 "/>
</g>
<g clip-path="url(#clip-8)">
<path fill="none" stroke-width="0.678986" stroke-linecap="butt" stroke-linejoin="round" stroke="rgb(92.156863%, 92.156863%, 92.156863%)" stroke-opacity="1" stroke-miterlimit="10" d="M 426.34375 244.261719 L 426.34375 6.972656 "/>
</g>
<g clip-path="url(#clip-9)">
<path fill="none" stroke-width="1.357972" stroke-linecap="butt" stroke-linejoin="round" stroke="rgb(92.156863%, 92.156863%, 92.156863%)" stroke-opacity="1" stroke-miterlimit="10" d="M 52.738281 233.476562 L 497.027344 233.476562 "/>
</g>
<g clip-path="url(#clip-10)">
<path fill="none" stroke-width="1.357972" stroke-linecap="butt" stroke-linejoin="round" stroke="rgb(92.156863%, 92.156863%, 92.156863%)" stroke-opacity="1" stroke-miterlimit="10" d="M 52.738281 179.546875 L 497.027344 179.546875 "/>
</g>
<g clip-path="url(#clip-11)">
<path fill="none" stroke-width="1.357972" stroke-linecap="butt" stroke-linejoin="round" stroke="rgb(92.156863%, 92.156863%, 92.156863%)" stroke-opacity="1" stroke-miterlimit="10" d="M 52.738281 125.617188 L 497.027344 125.617188 "/>
</g>
<g clip-path="url(#clip-12)">
<path fill="none" stroke-width="1.357972" stroke-linecap="butt" stroke-linejoin="round" stroke="rgb(92.156863%, 92.156863%, 92.156863%)" stroke-opacity="1" stroke-miterlimit="10" d="M 52.738281 71.6875 L 497.027344 71.6875 "/>
</g>
<g clip-path="url(#clip-13)">
<path fill="none" stroke-width="1.357972" stroke-linecap="butt" stroke-linejoin="round" stroke="rgb(92.156863%, 92.156863%, 92.156863%)" stroke-opacity="1" stroke-miterlimit="10" d="M 52.738281 17.757812 L 497.027344 17.757812 "/>
</g>
<g clip-path="url(#clip-14)">
<path fill="none" stroke-width="1.357972" stroke-linecap="butt" stroke-linejoin="round" stroke="rgb(92.156863%, 92.156863%, 92.156863%)" stroke-opacity="1" stroke-miterlimit="10" d="M 72.933594 244.261719 L 72.933594 6.972656 "/>
</g>
<g clip-path="url(#clip-15)">
<path fill="none" stroke-width="1.357972" stroke-linecap="butt" stroke-linejoin="round" stroke="rgb(92.156863%, 92.156863%, 92.156863%)" stroke-opacity="1" stroke-miterlimit="10" d="M 173.90625 244.261719 L 173.90625 6.972656 "/>
</g>
<g clip-path="url(#clip-16)">
<path fill="none" stroke-width="1.357972" stroke-linecap="butt" stroke-linejoin="round" stroke="rgb(92.156863%, 92.156863%, 92.156863%)" stroke-opacity="1" stroke-miterlimit="10" d="M 274.882812 244.261719 L 274.882812 6.972656 "/>
</g>
<g clip-path="url(#clip-17)">
<path fill="none" stroke-width="1.357972" stroke-linecap="butt" stroke-linejoin="round" stroke="rgb(92.156863%, 92.156863%, 92.156863%)" stroke-opacity="1" stroke-miterlimit="10" d="M 375.855469 244.261719 L 375.855469 6.972656 "/>
</g>
<g clip-path="url(#clip-18)">
<path fill="none" stroke-width="1.357972" stroke-linecap="butt" stroke-linejoin="round" stroke="rgb(92.156863%, 92.156863%, 92.156863%)" stroke-opacity="1" stroke-miterlimit="10" d="M 476.832031 244.261719 L 476.832031 6.972656 "/>
</g>
<path fill-rule="nonzero" fill="rgb(0%, 0%, 0%)" fill-opacity="1" stroke-width="0.901933" stroke-linecap="round" stroke-linejoin="round" stroke="rgb(0%, 0%, 0%)" stroke-opacity="1" stroke-miterlimit="10" d="M 186.734375 174.027344 C 186.734375 177.34375 181.757812 177.34375 181.757812 174.027344 C 181.757812 170.707031 186.734375 170.707031 186.734375 174.027344 "/>
<path fill-rule="nonzero" fill="rgb(0%, 0%, 0%)" fill-opacity="1" stroke-width="0.901933" stroke-linecap="round" stroke-linejoin="round" stroke="rgb(0%, 0%, 0%)" stroke-opacity="1" stroke-miterlimit="10" d="M 141.113281 198.390625 C 141.113281 201.707031 136.136719 201.707031 136.136719 198.390625 C 136.136719 195.074219 141.113281 195.074219 141.113281 198.390625 "/>
<path fill-rule="nonzero" fill="rgb(0%, 0%, 0%)" fill-opacity="1" stroke-width="0.901933" stroke-linecap="round" stroke-linejoin="round" stroke="rgb(0%, 0%, 0%)" stroke-opacity="1" stroke-miterlimit="10" d="M 117.3125 211.101562 C 117.3125 214.421875 112.335938 214.421875 112.335938 211.101562 C 112.335938 207.785156 117.3125 207.785156 117.3125 211.101562 "/>
<path fill-rule="nonzero" fill="rgb(0%, 0%, 0%)" fill-opacity="1" stroke-width="0.901933" stroke-linecap="round" stroke-linejoin="round" stroke="rgb(0%, 0%, 0%)" stroke-opacity="1" stroke-miterlimit="10" d="M 112.808594 213.507812 C 112.808594 216.824219 107.832031 216.824219 107.832031 213.507812 C 107.832031 210.191406 112.808594 210.191406 112.808594 213.507812 "/>
<path fill-rule="nonzero" fill="rgb(0%, 0%, 0%)" fill-opacity="1" stroke-width="0.901933" stroke-linecap="round" stroke-linejoin="round" stroke="rgb(0%, 0%, 0%)" stroke-opacity="1" stroke-miterlimit="10" d="M 80.503906 230.761719 C 80.503906 234.078125 75.53125 234.078125 75.53125 230.761719 C 75.53125 227.445312 80.503906 227.445312 80.503906 230.761719 "/>
<path fill-rule="nonzero" fill="rgb(0%, 0%, 0%)" fill-opacity="1" stroke-width="0.901933" stroke-linecap="round" stroke-linejoin="round" stroke="rgb(0%, 0%, 0%)" stroke-opacity="1" stroke-miterlimit="10" d="M 456.273438 30.070312 C 456.273438 33.386719 451.296875 33.386719 451.296875 30.070312 C 451.296875 26.75 456.273438 26.75 456.273438 30.070312 "/>
<path fill-rule="nonzero" fill="rgb(0%, 0%, 0%)" fill-opacity="1" stroke-width="0.901933" stroke-linecap="round" stroke-linejoin="round" stroke="rgb(0%, 0%, 0%)" stroke-opacity="1" stroke-miterlimit="10" d="M 460.394531 27.867188 C 460.394531 31.183594 455.417969 31.183594 455.417969 27.867188 C 455.417969 24.550781 460.394531 24.550781 460.394531 27.867188 "/>
<path fill-rule="nonzero" fill="rgb(0%, 0%, 0%)" fill-opacity="1" stroke-width="0.901933" stroke-linecap="round" stroke-linejoin="round" stroke="rgb(0%, 0%, 0%)" stroke-opacity="1" stroke-miterlimit="10" d="M 138.847656 199.601562 C 138.847656 202.917969 133.871094 202.917969 133.871094 199.601562 C 133.871094 196.285156 138.847656 196.285156 138.847656 199.601562 "/>
<path fill-rule="nonzero" fill="rgb(0%, 0%, 0%)" fill-opacity="1" stroke-width="0.901933" stroke-linecap="round" stroke-linejoin="round" stroke="rgb(0%, 0%, 0%)" stroke-opacity="1" stroke-miterlimit="10" d="M 76.101562 233.113281 C 76.101562 236.429688 71.125 236.429688 71.125 233.113281 C 71.125 229.796875 76.101562 229.796875 76.101562 233.113281 "/>
<path fill-rule="nonzero" fill="rgb(0%, 0%, 0%)" fill-opacity="1" stroke-width="0.901933" stroke-linecap="round" stroke-linejoin="round" stroke="rgb(0%, 0%, 0%)" stroke-opacity="1" stroke-miterlimit="10" d="M 260.292969 134.738281 C 260.292969 138.054688 255.320312 138.054688 255.320312 134.738281 C 255.320312 131.421875 260.292969 131.421875 260.292969 134.738281 "/>
<path fill-rule="nonzero" fill="rgb(0%, 0%, 0%)" fill-opacity="1" stroke-width="0.901933" stroke-linecap="round" stroke-linejoin="round" stroke="rgb(0%, 0%, 0%)" stroke-opacity="1" stroke-miterlimit="10" d="M 450.605469 33.09375 C 450.605469 36.410156 445.628906 36.410156 445.628906 33.09375 C 445.628906 29.777344 450.605469 29.777344 450.605469 33.09375 "/>
<path fill-rule="nonzero" fill="rgb(0%, 0%, 0%)" fill-opacity="1" stroke-width="0.901933" stroke-linecap="round" stroke-linejoin="round" stroke="rgb(0%, 0%, 0%)" stroke-opacity="1" stroke-miterlimit="10" d="M 265.359375 132.03125 C 265.359375 135.351562 260.382812 135.351562 260.382812 132.03125 C 260.382812 128.714844 265.359375 128.714844 265.359375 132.03125 "/>
<path fill-rule="nonzero" fill="rgb(0%, 0%, 0%)" fill-opacity="1" stroke-width="0.901933" stroke-linecap="round" stroke-linejoin="round" stroke="rgb(0%, 0%, 0%)" stroke-opacity="1" stroke-miterlimit="10" d="M 344.078125 89.992188 C 344.078125 93.308594 339.101562 93.308594 339.101562 89.992188 C 339.101562 86.671875 344.078125 86.671875 344.078125 89.992188 "/>
<path fill-rule="nonzero" fill="rgb(0%, 0%, 0%)" fill-opacity="1" stroke-width="0.901933" stroke-linecap="round" stroke-linejoin="round" stroke="rgb(0%, 0%, 0%)" stroke-opacity="1" stroke-miterlimit="10" d="M 262.410156 133.609375 C 262.410156 136.925781 257.433594 136.925781 257.433594 133.609375 C 257.433594 130.289062 262.410156 130.289062 262.410156 133.609375 "/>
<path fill-rule="nonzero" fill="rgb(0%, 0%, 0%)" fill-opacity="1" stroke-width="0.901933" stroke-linecap="round" stroke-linejoin="round" stroke="rgb(0%, 0%, 0%)" stroke-opacity="1" stroke-miterlimit="10" d="M 255.953125 137.054688 C 255.953125 140.375 250.980469 140.375 250.980469 137.054688 C 250.980469 133.738281 255.953125 133.738281 255.953125 137.054688 "/>
<path fill-rule="nonzero" fill="rgb(0%, 0%, 0%)" fill-opacity="1" stroke-width="0.901933" stroke-linecap="round" stroke-linejoin="round" stroke="rgb(0%, 0%, 0%)" stroke-opacity="1" stroke-miterlimit="10" d="M 285.851562 121.085938 C 285.851562 124.40625 280.875 124.40625 280.875 121.085938 C 280.875 117.769531 285.851562 117.769531 285.851562 121.085938 "/>
<path fill-rule="nonzero" fill="rgb(0%, 0%, 0%)" fill-opacity="1" stroke-width="0.901933" stroke-linecap="round" stroke-linejoin="round" stroke="rgb(0%, 0%, 0%)" stroke-opacity="1" stroke-miterlimit="10" d="M 320.207031 102.738281 C 320.207031 106.054688 315.230469 106.054688 315.230469 102.738281 C 315.230469 99.421875 320.207031 99.421875 320.207031 102.738281 "/>
<path fill-rule="nonzero" fill="rgb(0%, 0%, 0%)" fill-opacity="1" stroke-width="0.901933" stroke-linecap="round" stroke-linejoin="round" stroke="rgb(0%, 0%, 0%)" stroke-opacity="1" stroke-miterlimit="10" d="M 332.679688 96.078125 C 332.679688 99.394531 327.703125 99.394531 327.703125 96.078125 C 327.703125 92.761719 332.679688 92.761719 332.679688 96.078125 "/>
<path fill-rule="nonzero" fill="rgb(0%, 0%, 0%)" fill-opacity="1" stroke-width="0.901933" stroke-linecap="round" stroke-linejoin="round" stroke="rgb(0%, 0%, 0%)" stroke-opacity="1" stroke-miterlimit="10" d="M 341.367188 91.4375 C 341.367188 94.757812 336.390625 94.757812 336.390625 91.4375 C 336.390625 88.121094 341.367188 88.121094 341.367188 91.4375 "/>
<path fill-rule="nonzero" fill="rgb(0%, 0%, 0%)" fill-opacity="1" stroke-width="0.901933" stroke-linecap="round" stroke-linejoin="round" stroke="rgb(0%, 0%, 0%)" stroke-opacity="1" stroke-miterlimit="10" d="M 409.421875 55.089844 C 409.421875 58.40625 404.445312 58.40625 404.445312 55.089844 C 404.445312 51.773438 409.421875 51.773438 409.421875 55.089844 "/>
<path fill-rule="nonzero" fill="rgb(0%, 0%, 0%)" fill-opacity="1" stroke-width="0.901933" stroke-linecap="round" stroke-linejoin="round" stroke="rgb(0%, 0%, 0%)" stroke-opacity="1" stroke-miterlimit="10" d="M 79.964844 231.050781 C 79.964844 234.367188 74.988281 234.367188 74.988281 231.050781 C 74.988281 227.730469 79.964844 227.730469 79.964844 231.050781 "/>
<path fill-rule="nonzero" fill="rgb(0%, 0%, 0%)" fill-opacity="1" stroke-width="0.901933" stroke-linecap="round" stroke-linejoin="round" stroke="rgb(0%, 0%, 0%)" stroke-opacity="1" stroke-miterlimit="10" d="M 226.246094 152.921875 C 226.246094 156.242188 221.269531 156.242188 221.269531 152.921875 C 221.269531 149.605469 226.246094 149.605469 226.246094 152.921875 "/>
<path fill-rule="nonzero" fill="rgb(0%, 0%, 0%)" fill-opacity="1" stroke-width="0.901933" stroke-linecap="round" stroke-linejoin="round" stroke="rgb(0%, 0%, 0%)" stroke-opacity="1" stroke-miterlimit="10" d="M 281.910156 123.191406 C 281.910156 126.511719 276.933594 126.511719 276.933594 123.191406 C 276.933594 119.875 281.910156 119.875 281.910156 123.191406 "/>
<path fill-rule="nonzero" fill="rgb(0%, 0%, 0%)" fill-opacity="1" stroke-width="0.901933" stroke-linecap="round" stroke-linejoin="round" stroke="rgb(0%, 0%, 0%)" stroke-opacity="1" stroke-miterlimit="10" d="M 346.523438 88.683594 C 346.523438 92 341.546875 92 341.546875 88.683594 C 341.546875 85.367188 346.523438 85.367188 346.523438 88.683594 "/>
<path fill-rule="nonzero" fill="rgb(0%, 0%, 0%)" fill-opacity="1" stroke-width="0.901933" stroke-linecap="round" stroke-linejoin="round" stroke="rgb(0%, 0%, 0%)" stroke-opacity="1" stroke-miterlimit="10" d="M 405.800781 57.023438 C 405.800781 60.339844 400.828125 60.339844 400.828125 57.023438 C 400.828125 53.707031 405.800781 53.707031 405.800781 57.023438 "/>
<path fill-rule="nonzero" fill="rgb(0%, 0%, 0%)" fill-opacity="1" stroke-width="0.901933" stroke-linecap="round" stroke-linejoin="round" stroke="rgb(0%, 0%, 0%)" stroke-opacity="1" stroke-miterlimit="10" d="M 344.882812 89.558594 C 344.882812 92.878906 339.90625 92.878906 339.90625 89.558594 C 339.90625 86.242188 344.882812 86.242188 344.882812 89.558594 "/>
<path fill-rule="nonzero" fill="rgb(0%, 0%, 0%)" fill-opacity="1" stroke-width="0.901933" stroke-linecap="round" stroke-linejoin="round" stroke="rgb(0%, 0%, 0%)" stroke-opacity="1" stroke-miterlimit="10" d="M 300.945312 113.027344 C 300.945312 116.34375 295.96875 116.34375 295.96875 113.027344 C 295.96875 109.710938 300.945312 109.710938 300.945312 113.027344 "/>
<path fill-rule="nonzero" fill="rgb(0%, 0%, 0%)" fill-opacity="1" stroke-width="0.901933" stroke-linecap="round" stroke-linejoin="round" stroke="rgb(0%, 0%, 0%)" stroke-opacity="1" stroke-miterlimit="10" d="M 388.289062 66.378906 C 388.289062 69.695312 383.3125 69.695312 383.3125 66.378906 C 383.3125 63.0625 388.289062 63.0625 388.289062 66.378906 "/>
<path fill-rule="nonzero" fill="rgb(0%, 0%, 0%)" fill-opacity="1" stroke-width="0.901933" stroke-linecap="round" stroke-linejoin="round" stroke="rgb(0%, 0%, 0%)" stroke-opacity="1" stroke-miterlimit="10" d="M 441.40625 38.007812 C 441.40625 41.324219 436.429688 41.324219 436.429688 38.007812 C 436.429688 34.691406 441.40625 34.691406 441.40625 38.007812 "/>
<path fill-rule="nonzero" fill="rgb(0%, 0%, 0%)" fill-opacity="1" stroke-width="0.901933" stroke-linecap="round" stroke-linejoin="round" stroke="rgb(0%, 0%, 0%)" stroke-opacity="1" stroke-miterlimit="10" d="M 264.796875 132.332031 C 264.796875 135.652344 259.820312 135.652344 259.820312 132.332031 C 259.820312 129.015625 264.796875 129.015625 264.796875 132.332031 "/>
<path fill-rule="nonzero" fill="rgb(0%, 0%, 0%)" fill-opacity="1" stroke-width="0.901933" stroke-linecap="round" stroke-linejoin="round" stroke="rgb(0%, 0%, 0%)" stroke-opacity="1" stroke-miterlimit="10" d="M 78.875 231.632812 C 78.875 234.949219 73.898438 234.949219 73.898438 231.632812 C 73.898438 228.3125 78.875 228.3125 78.875 231.632812 "/>
<path fill-rule="nonzero" fill="rgb(0%, 0%, 0%)" fill-opacity="1" stroke-width="0.901933" stroke-linecap="round" stroke-linejoin="round" stroke="rgb(0%, 0%, 0%)" stroke-opacity="1" stroke-miterlimit="10" d="M 365.296875 78.65625 C 365.296875 81.976562 360.320312 81.976562 360.320312 78.65625 C 360.320312 75.339844 365.296875 75.339844 365.296875 78.65625 "/>
<path fill-rule="nonzero" fill="rgb(0%, 0%, 0%)" fill-opacity="1" stroke-width="0.901933" stroke-linecap="round" stroke-linejoin="round" stroke="rgb(0%, 0%, 0%)" stroke-opacity="1" stroke-miterlimit="10" d="M 320.65625 102.5 C 320.65625 105.816406 315.683594 105.816406 315.683594 102.5 C 315.683594 99.179688 320.65625 99.179688 320.65625 102.5 "/>
<path fill-rule="nonzero" fill="rgb(0%, 0%, 0%)" fill-opacity="1" stroke-width="0.901933" stroke-linecap="round" stroke-linejoin="round" stroke="rgb(0%, 0%, 0%)" stroke-opacity="1" stroke-miterlimit="10" d="M 469.511719 22.996094 C 469.511719 26.316406 464.535156 26.316406 464.535156 22.996094 C 464.535156 19.679688 469.511719 19.679688 469.511719 22.996094 "/>
<path fill-rule="nonzero" fill="rgb(0%, 0%, 0%)" fill-opacity="1" stroke-width="0.901933" stroke-linecap="round" stroke-linejoin="round" stroke="rgb(0%, 0%, 0%)" stroke-opacity="1" stroke-miterlimit="10" d="M 208.4375 162.433594 C 208.4375 165.753906 203.460938 165.753906 203.460938 162.433594 C 203.460938 159.117188 208.4375 159.117188 208.4375 162.433594 "/>
<path fill-rule="nonzero" fill="rgb(0%, 0%, 0%)" fill-opacity="1" stroke-width="0.901933" stroke-linecap="round" stroke-linejoin="round" stroke="rgb(0%, 0%, 0%)" stroke-opacity="1" stroke-miterlimit="10" d="M 465.9375 24.90625 C 465.9375 28.222656 460.960938 28.222656 460.960938 24.90625 C 460.960938 21.589844 465.9375 21.589844 465.9375 24.90625 "/>
<path fill-rule="nonzero" fill="rgb(0%, 0%, 0%)" fill-opacity="1" stroke-width="0.901933" stroke-linecap="round" stroke-linejoin="round" stroke="rgb(0%, 0%, 0%)" stroke-opacity="1" stroke-miterlimit="10" d="M 374.152344 73.929688 C 374.152344 77.246094 369.175781 77.246094 369.175781 73.929688 C 369.175781 70.609375 374.152344 70.609375 374.152344 73.929688 "/>
<path fill-rule="nonzero" fill="rgb(0%, 0%, 0%)" fill-opacity="1" stroke-width="0.901933" stroke-linecap="round" stroke-linejoin="round" stroke="rgb(0%, 0%, 0%)" stroke-opacity="1" stroke-miterlimit="10" d="M 223.558594 154.359375 C 223.558594 157.675781 218.582031 157.675781 218.582031 154.359375 C 218.582031 151.042969 223.558594 151.042969 223.558594 154.359375 "/>
<path fill-rule="nonzero" fill="rgb(0%, 0%, 0%)" fill-opacity="1" stroke-width="0.901933" stroke-linecap="round" stroke-linejoin="round" stroke="rgb(0%, 0%, 0%)" stroke-opacity="1" stroke-miterlimit="10" d="M 255.445312 137.328125 C 255.445312 140.644531 250.46875 140.644531 250.46875 137.328125 C 250.46875 134.011719 255.445312 134.011719 255.445312 137.328125 "/>
<path fill-rule="nonzero" fill="rgb(0%, 0%, 0%)" fill-opacity="1" stroke-width="0.901933" stroke-linecap="round" stroke-linejoin="round" stroke="rgb(0%, 0%, 0%)" stroke-opacity="1" stroke-miterlimit="10" d="M 385.257812 67.996094 C 385.257812 71.3125 380.285156 71.3125 380.285156 67.996094 C 380.285156 64.679688 385.257812 64.679688 385.257812 67.996094 "/>
<path fill-rule="nonzero" fill="rgb(0%, 0%, 0%)" fill-opacity="1" stroke-width="0.901933" stroke-linecap="round" stroke-linejoin="round" stroke="rgb(0%, 0%, 0%)" stroke-opacity="1" stroke-miterlimit="10" d="M 353.617188 84.894531 C 353.617188 88.210938 348.644531 88.210938 348.644531 84.894531 C 348.644531 81.578125 353.617188 81.578125 353.617188 84.894531 "/>
<path fill-rule="nonzero" fill="rgb(0%, 0%, 0%)" fill-opacity="1" stroke-width="0.901933" stroke-linecap="round" stroke-linejoin="round" stroke="rgb(0%, 0%, 0%)" stroke-opacity="1" stroke-miterlimit="10" d="M 231.863281 149.921875 C 231.863281 153.238281 226.890625 153.238281 226.890625 149.921875 C 226.890625 146.605469 231.863281 146.605469 231.863281 149.921875 "/>
<path fill-rule="nonzero" fill="rgb(0%, 0%, 0%)" fill-opacity="1" stroke-width="0.901933" stroke-linecap="round" stroke-linejoin="round" stroke="rgb(0%, 0%, 0%)" stroke-opacity="1" stroke-miterlimit="10" d="M 474.925781 20.105469 C 474.925781 23.421875 469.949219 23.421875 469.949219 20.105469 C 469.949219 16.789062 474.925781 16.789062 474.925781 20.105469 "/>
<path fill-rule="nonzero" fill="rgb(0%, 0%, 0%)" fill-opacity="1" stroke-width="0.901933" stroke-linecap="round" stroke-linejoin="round" stroke="rgb(0%, 0%, 0%)" stroke-opacity="1" stroke-miterlimit="10" d="M 446.035156 35.535156 C 446.035156 38.851562 441.058594 38.851562 441.058594 35.535156 C 441.058594 32.21875 446.035156 32.21875 446.035156 35.535156 "/>
<path fill-rule="nonzero" fill="rgb(0%, 0%, 0%)" fill-opacity="1" stroke-width="0.901933" stroke-linecap="round" stroke-linejoin="round" stroke="rgb(0%, 0%, 0%)" stroke-opacity="1" stroke-miterlimit="10" d="M 460.105469 28.019531 C 460.105469 31.339844 455.128906 31.339844 455.128906 28.019531 C 455.128906 24.703125 460.105469 24.703125 460.105469 28.019531 "/>
<path fill-rule="nonzero" fill="rgb(0%, 0%, 0%)" fill-opacity="1" stroke-width="0.901933" stroke-linecap="round" stroke-linejoin="round" stroke="rgb(0%, 0%, 0%)" stroke-opacity="1" stroke-miterlimit="10" d="M 226.710938 152.675781 C 226.710938 155.992188 221.734375 155.992188 221.734375 152.675781 C 221.734375 149.359375 226.710938 149.359375 226.710938 152.675781 "/>
<path fill-rule="nonzero" fill="rgb(0%, 0%, 0%)" fill-opacity="1" stroke-width="0.901933" stroke-linecap="round" stroke-linejoin="round" stroke="rgb(0%, 0%, 0%)" stroke-opacity="1" stroke-miterlimit="10" d="M 158.898438 188.894531 C 158.898438 192.210938 153.921875 192.210938 153.921875 188.894531 C 153.921875 185.574219 158.898438 185.574219 158.898438 188.894531 "/>
<path fill-rule="nonzero" fill="rgb(0%, 0%, 0%)" fill-opacity="1" stroke-width="0.901933" stroke-linecap="round" stroke-linejoin="round" stroke="rgb(0%, 0%, 0%)" stroke-opacity="1" stroke-miterlimit="10" d="M 170.429688 182.734375 C 170.429688 186.050781 165.453125 186.050781 165.453125 182.734375 C 165.453125 179.417969 170.429688 179.417969 170.429688 182.734375 "/>
<path fill-rule="nonzero" fill="rgb(0%, 0%, 0%)" fill-opacity="1" stroke-width="0.901933" stroke-linecap="round" stroke-linejoin="round" stroke="rgb(0%, 0%, 0%)" stroke-opacity="1" stroke-miterlimit="10" d="M 352.355469 85.570312 C 352.355469 88.886719 347.378906 88.886719 347.378906 85.570312 C 347.378906 82.253906 352.355469 82.253906 352.355469 85.570312 "/>
<path fill-rule="nonzero" fill="rgb(0%, 0%, 0%)" fill-opacity="1" stroke-width="0.901933" stroke-linecap="round" stroke-linejoin="round" stroke="rgb(0%, 0%, 0%)" stroke-opacity="1" stroke-miterlimit="10" d="M 225.828125 153.148438 C 225.828125 156.464844 220.851562 156.464844 220.851562 153.148438 C 220.851562 149.828125 225.828125 149.828125 225.828125 153.148438 "/>
<g clip-path="url(#clip-19)">
<path fill="none" stroke-width="1.357972" stroke-linecap="round" stroke-linejoin="round" stroke="rgb(20%, 20%, 20%)" stroke-opacity="1" stroke-miterlimit="10" d="M 52.738281 244.261719 L 497.027344 244.261719 L 497.027344 6.972656 L 52.738281 6.972656 Z M 52.738281 244.261719 "/>
</g>
<g fill="rgb(30.196078%, 30.196078%, 30.196078%)" fill-opacity="1">
<use xlink:href="#glyph-0-1" x="25.460938" y="237.600586"/>
<use xlink:href="#glyph-0-2" x="31.460938" y="237.600586"/>
<use xlink:href="#glyph-0-1" x="34.460938" y="237.600586"/>
<use xlink:href="#glyph-0-1" x="40.460938" y="237.600586"/>
</g>
<g fill="rgb(30.196078%, 30.196078%, 30.196078%)" fill-opacity="1">
<use xlink:href="#glyph-0-1" x="25.460938" y="183.670898"/>
<use xlink:href="#glyph-0-2" x="31.460938" y="183.670898"/>
<use xlink:href="#glyph-0-3" x="34.460938" y="183.670898"/>
<use xlink:href="#glyph-0-4" x="40.460938" y="183.670898"/>
</g>
<g fill="rgb(30.196078%, 30.196078%, 30.196078%)" fill-opacity="1">
<use xlink:href="#glyph-0-1" x="25.460938" y="129.741211"/>
<use xlink:href="#glyph-0-2" x="31.460938" y="129.741211"/>
<use xlink:href="#glyph-0-4" x="34.460938" y="129.741211"/>
<use xlink:href="#glyph-0-1" x="40.460938" y="129.741211"/>
</g>
<g fill="rgb(30.196078%, 30.196078%, 30.196078%)" fill-opacity="1">
<use xlink:href="#glyph-0-1" x="25.460938" y="75.811523"/>
<use xlink:href="#glyph-0-2" x="31.460938" y="75.811523"/>
<use xlink:href="#glyph-0-5" x="34.460938" y="75.811523"/>
<use xlink:href="#glyph-0-4" x="40.460938" y="75.811523"/>
</g>
<g fill="rgb(30.196078%, 30.196078%, 30.196078%)" fill-opacity="1">
<use xlink:href="#glyph-0-6" x="25.460938" y="21.881836"/>
<use xlink:href="#glyph-0-2" x="31.460938" y="21.881836"/>
<use xlink:href="#glyph-0-1" x="34.460938" y="21.881836"/>
<use xlink:href="#glyph-0-1" x="40.460938" y="21.881836"/>
</g>
<path fill="none" stroke-width="1.357972" stroke-linecap="butt" stroke-linejoin="round" stroke="rgb(20%, 20%, 20%)" stroke-opacity="1" stroke-miterlimit="10" d="M 49.25 233.476562 L 52.738281 233.476562 "/>
<path fill="none" stroke-width="1.357972" stroke-linecap="butt" stroke-linejoin="round" stroke="rgb(20%, 20%, 20%)" stroke-opacity="1" stroke-miterlimit="10" d="M 49.25 179.546875 L 52.738281 179.546875 "/>
<path fill="none" stroke-width="1.357972" stroke-linecap="butt" stroke-linejoin="round" stroke="rgb(20%, 20%, 20%)" stroke-opacity="1" stroke-miterlimit="10" d="M 49.25 125.617188 L 52.738281 125.617188 "/>
<path fill="none" stroke-width="1.357972" stroke-linecap="butt" stroke-linejoin="round" stroke="rgb(20%, 20%, 20%)" stroke-opacity="1" stroke-miterlimit="10" d="M 49.25 71.6875 L 52.738281 71.6875 "/>
<path fill="none" stroke-width="1.357972" stroke-linecap="butt" stroke-linejoin="round" stroke="rgb(20%, 20%, 20%)" stroke-opacity="1" stroke-miterlimit="10" d="M 49.25 17.757812 L 52.738281 17.757812 "/>
<path fill="none" stroke-width="1.357972" stroke-linecap="butt" stroke-linejoin="round" stroke="rgb(20%, 20%, 20%)" stroke-opacity="1" stroke-miterlimit="10" d="M 72.933594 247.75 L 72.933594 244.261719 "/>
<path fill="none" stroke-width="1.357972" stroke-linecap="butt" stroke-linejoin="round" stroke="rgb(20%, 20%, 20%)" stroke-opacity="1" stroke-miterlimit="10" d="M 173.90625 247.75 L 173.90625 244.261719 "/>
<path fill="none" stroke-width="1.357972" stroke-linecap="butt" stroke-linejoin="round" stroke="rgb(20%, 20%, 20%)" stroke-opacity="1" stroke-miterlimit="10" d="M 274.882812 247.75 L 274.882812 244.261719 "/>
<path fill="none" stroke-width="1.357972" stroke-linecap="butt" stroke-linejoin="round" stroke="rgb(20%, 20%, 20%)" stroke-opacity="1" stroke-miterlimit="10" d="M 375.855469 247.75 L 375.855469 244.261719 "/>
<path fill="none" stroke-width="1.357972" stroke-linecap="butt" stroke-linejoin="round" stroke="rgb(20%, 20%, 20%)" stroke-opacity="1" stroke-miterlimit="10" d="M 476.832031 247.75 L 476.832031 244.261719 "/>
<g fill="rgb(30.196078%, 30.196078%, 30.196078%)" fill-opacity="1">
<use xlink:href="#glyph-0-1" x="62.433594" y="259.163086"/>
<use xlink:href="#glyph-0-2" x="68.433594" y="259.163086"/>
<use xlink:href="#glyph-0-1" x="71.433594" y="259.163086"/>
<use xlink:href="#glyph-0-1" x="77.433594" y="259.163086"/>
</g>
<g fill="rgb(30.196078%, 30.196078%, 30.196078%)" fill-opacity="1">
<use xlink:href="#glyph-0-1" x="163.40625" y="259.163086"/>
<use xlink:href="#glyph-0-2" x="169.40625" y="259.163086"/>
<use xlink:href="#glyph-0-3" x="172.40625" y="259.163086"/>
<use xlink:href="#glyph-0-4" x="178.40625" y="259.163086"/>
</g>
<g fill="rgb(30.196078%, 30.196078%, 30.196078%)" fill-opacity="1">
<use xlink:href="#glyph-0-1" x="264.382812" y="259.163086"/>
<use xlink:href="#glyph-0-2" x="270.382812" y="259.163086"/>
<use xlink:href="#glyph-0-4" x="273.382812" y="259.163086"/>
<use xlink:href="#glyph-0-1" x="279.382812" y="259.163086"/>
</g>
<g fill="rgb(30.196078%, 30.196078%, 30.196078%)" fill-opacity="1">
<use xlink:href="#glyph-0-1" x="365.355469" y="259.163086"/>
<use xlink:href="#glyph-0-2" x="371.355469" y="259.163086"/>
<use xlink:href="#glyph-0-5" x="374.355469" y="259.163086"/>
<use xlink:href="#glyph-0-4" x="380.355469" y="259.163086"/>
</g>
<g fill="rgb(30.196078%, 30.196078%, 30.196078%)" fill-opacity="1">
<use xlink:href="#glyph-0-6" x="466.332031" y="259.163086"/>
<use xlink:href="#glyph-0-2" x="472.332031" y="259.163086"/>
<use xlink:href="#glyph-0-1" x="475.332031" y="259.163086"/>
<use xlink:href="#glyph-0-1" x="481.332031" y="259.163086"/>
</g>
<g fill="rgb(0%, 0%, 0%)" fill-opacity="1">
<use xlink:href="#glyph-1-1" x="271.382812" y="276.807617"/>
</g>
<g fill="rgb(0%, 0%, 0%)" fill-opacity="1">
<use xlink:href="#glyph-2-1" x="17.75293" y="129.117188"/>
</g>
</svg>
