<?xml version="1.0" encoding="UTF-8"?>
<svg xmlns="http://www.w3.org/2000/svg" xmlns:xlink="http://www.w3.org/1999/xlink" width="432" height="252" viewBox="0 0 432 252">
<defs>
<g>
<g id="glyph-0-0">
<path d="M 0.65625 2.328125 L 0.65625 -9.3125 L 7.265625 -9.3125 L 7.265625 2.328125 Z M 1.40625 1.59375 L 6.53125 1.59375 L 6.53125 -8.5625 L 1.40625 -8.5625 Z M 1.40625 1.59375 "/>
</g>
<g id="glyph-0-1">
<path d="M 6 -3.6875 C 6 -4.550781 5.820312 -5.21875 5.46875 -5.6875 C 5.113281 -6.164062 4.613281 -6.40625 3.96875 -6.40625 C 3.332031 -6.40625 2.835938 -6.164062 2.484375 -5.6875 C 2.128906 -5.21875 1.953125 -4.550781 1.953125 -3.6875 C 1.953125 -2.832031 2.128906 -2.171875 2.484375 -1.703125 C 2.835938 -1.234375 3.332031 -1 3.96875 -1 C 4.613281 -1 5.113281 -1.234375 5.46875 -1.703125 C 5.820312 -2.171875 6 -2.832031 6 -3.6875 Z M 7.1875 -0.890625 C 7.1875 0.335938 6.910156 1.25 6.359375 1.84375 C 5.816406 2.445312 4.984375 2.75 3.859375 2.75 C 3.441406 2.75 3.046875 2.71875 2.671875 2.65625 C 2.304688 2.59375 1.945312 2.492188 1.59375 2.359375 L 1.59375 1.21875 C 1.945312 1.40625 2.289062 1.539062 2.625 1.625 C 2.96875 1.71875 3.316406 1.765625 3.671875 1.765625 C 4.441406 1.765625 5.019531 1.5625 5.40625 1.15625 C 5.800781 0.75 6 0.132812 6 -0.6875 L 6 -1.265625 C 5.75 -0.835938 5.429688 -0.519531 5.046875 -0.3125 C 4.671875 -0.101562 4.21875 0 3.6875 0 C 2.800781 0 2.085938 -0.335938 1.546875 -1.015625 C 1.003906 -1.691406 0.734375 -2.582031 0.734375 -3.6875 C 0.734375 -4.8125 1.003906 -5.707031 1.546875 -6.375 C 2.085938 -7.050781 2.800781 -7.390625 3.6875 -7.390625 C 4.21875 -7.390625 4.671875 -7.285156 5.046875 -7.078125 C 5.429688 -6.867188 5.75 -6.550781 6 -6.125 L 6 -7.21875 L 7.1875 -7.21875 Z M 7.1875 -0.890625 "/>
</g>
<g id="glyph-0-2">
<path d="M 7.421875 -3.90625 L 7.421875 -3.328125 L 1.96875 -3.328125 C 2.019531 -2.515625 2.265625 -1.890625 2.703125 -1.453125 C 3.140625 -1.023438 3.753906 -0.8125 4.546875 -0.8125 C 5.003906 -0.8125 5.445312 -0.867188 5.875 -0.984375 C 6.300781 -1.097656 6.722656 -1.265625 7.140625 -1.484375 L 7.140625 -0.375 C 6.710938 -0.1875 6.273438 -0.0429688 5.828125 0.046875 C 5.378906 0.140625 4.925781 0.1875 4.46875 0.1875 C 3.320312 0.1875 2.410156 -0.144531 1.734375 -0.8125 C 1.066406 -1.488281 0.734375 -2.398438 0.734375 -3.546875 C 0.734375 -4.722656 1.050781 -5.65625 1.6875 -6.34375 C 2.320312 -7.039062 3.179688 -7.390625 4.265625 -7.390625 C 5.234375 -7.390625 6 -7.078125 6.5625 -6.453125 C 7.132812 -5.828125 7.421875 -4.976562 7.421875 -3.90625 Z M 6.234375 -4.25 C 6.222656 -4.90625 6.039062 -5.425781 5.6875 -5.8125 C 5.332031 -6.195312 4.863281 -6.390625 4.28125 -6.390625 C 3.613281 -6.390625 3.082031 -6.203125 2.6875 -5.828125 C 2.289062 -5.453125 2.0625 -4.925781 2 -4.25 Z M 6.234375 -4.25 "/>
</g>
<g id="glyph-0-3">
<path d="M 4.046875 -6.390625 C 3.410156 -6.390625 2.90625 -6.140625 2.53125 -5.640625 C 2.164062 -5.148438 1.984375 -4.472656 1.984375 -3.609375 C 1.984375 -2.742188 2.164062 -2.0625 2.53125 -1.5625 C 2.894531 -1.0625 3.398438 -0.8125 4.046875 -0.8125 C 4.671875 -0.8125 5.164062 -1.0625 5.53125 -1.5625 C 5.90625 -2.0625 6.09375 -2.742188 6.09375 -3.609375 C 6.09375 -4.460938 5.90625 -5.140625 5.53125 -5.640625 C 5.164062 -6.140625 4.671875 -6.390625 4.046875 -6.390625 Z M 4.046875 -7.390625 C 5.078125 -7.390625 5.882812 -7.054688 6.46875 -6.390625 C 7.0625 -5.722656 7.359375 -4.796875 7.359375 -3.609375 C 7.359375 -2.421875 7.0625 -1.488281 6.46875 -0.8125 C 5.882812 -0.144531 5.078125 0.1875 4.046875 0.1875 C 3.003906 0.1875 2.191406 -0.144531 1.609375 -0.8125 C 1.023438 -1.488281 0.734375 -2.421875 0.734375 -3.609375 C 0.734375 -4.796875 1.023438 -5.722656 1.609375 -6.390625 C 2.191406 -7.054688 3.003906 -7.390625 4.046875 -7.390625 Z M 4.046875 -7.390625 "/>
</g>
<g id="glyph-0-4">
<path d="M 6.859375 -5.828125 C 7.160156 -6.367188 7.515625 -6.765625 7.921875 -7.015625 C 8.335938 -7.265625 8.828125 -7.390625 9.390625 -7.390625 C 10.140625 -7.390625 10.71875 -7.125 11.125 -6.59375 C 11.53125 -6.070312 11.734375 -5.328125 11.734375 -4.359375 L 11.734375 0 L 10.546875 0 L 10.546875 -4.3125 C 10.546875 -5.007812 10.421875 -5.523438 10.171875 -5.859375 C 9.929688 -6.191406 9.5625 -6.359375 9.0625 -6.359375 C 8.445312 -6.359375 7.957031 -6.15625 7.59375 -5.75 C 7.238281 -5.34375 7.0625 -4.785156 7.0625 -4.078125 L 7.0625 0 L 5.875 0 L 5.875 -4.3125 C 5.875 -5.007812 5.75 -5.523438 5.5 -5.859375 C 5.257812 -6.191406 4.882812 -6.359375 4.375 -6.359375 C 3.769531 -6.359375 3.285156 -6.148438 2.921875 -5.734375 C 2.566406 -5.328125 2.390625 -4.773438 2.390625 -4.078125 L 2.390625 0 L 1.203125 0 L 1.203125 -7.21875 L 2.390625 -7.21875 L 2.390625 -6.09375 C 2.660156 -6.539062 2.984375 -6.867188 3.359375 -7.078125 C 3.742188 -7.285156 4.195312 -7.390625 4.71875 -7.390625 C 5.238281 -7.390625 5.679688 -7.253906 6.046875 -6.984375 C 6.421875 -6.722656 6.691406 -6.335938 6.859375 -5.828125 Z M 6.859375 -5.828125 "/>
</g>
<g id="glyph-0-5">
<path d="M 6.734375 2.1875 L 6.734375 3.109375 L -0.125 3.109375 L -0.125 2.1875 Z M 6.734375 2.1875 "/>
</g>
<g id="glyph-0-6">
<path d="M 2.390625 -1.078125 L 2.390625 2.75 L 1.203125 2.75 L 1.203125 -7.21875 L 2.390625 -7.21875 L 2.390625 -6.125 C 2.640625 -6.550781 2.953125 -6.867188 3.328125 -7.078125 C 3.710938 -7.285156 4.171875 -7.390625 4.703125 -7.390625 C 5.578125 -7.390625 6.285156 -7.039062 6.828125 -6.34375 C 7.378906 -5.65625 7.65625 -4.742188 7.65625 -3.609375 C 7.65625 -2.472656 7.378906 -1.554688 6.828125 -0.859375 C 6.285156 -0.160156 5.578125 0.1875 4.703125 0.1875 C 4.171875 0.1875 3.710938 0.0820312 3.328125 -0.125 C 2.953125 -0.332031 2.640625 -0.648438 2.390625 -1.078125 Z M 6.421875 -3.609375 C 6.421875 -4.472656 6.238281 -5.15625 5.875 -5.65625 C 5.519531 -6.15625 5.03125 -6.40625 4.40625 -6.40625 C 3.78125 -6.40625 3.285156 -6.15625 2.921875 -5.65625 C 2.566406 -5.15625 2.390625 -4.472656 2.390625 -3.609375 C 2.390625 -2.734375 2.566406 -2.046875 2.921875 -1.546875 C 3.285156 -1.054688 3.78125 -0.8125 4.40625 -0.8125 C 5.03125 -0.8125 5.519531 -1.054688 5.875 -1.546875 C 6.238281 -2.046875 6.421875 -2.734375 6.421875 -3.609375 Z M 6.421875 -3.609375 "/>
</g>
<g id="glyph-0-7">
<path d="M 1.25 -7.21875 L 2.4375 -7.21875 L 2.4375 0 L 1.25 0 Z M 1.25 -10.03125 L 2.4375 -10.03125 L 2.4375 -8.53125 L 1.25 -8.53125 Z M 1.25 -10.03125 "/>
</g>
<g id="glyph-0-8">
<path d="M 7.25 -4.359375 L 7.25 0 L 6.0625 0 L 6.0625 -4.3125 C 6.0625 -5 5.925781 -5.507812 5.65625 -5.84375 C 5.394531 -6.1875 5 -6.359375 4.46875 -6.359375 C 3.820312 -6.359375 3.3125 -6.15625 2.9375 -5.75 C 2.570312 -5.34375 2.390625 -4.785156 2.390625 -4.078125 L 2.390625 0 L 1.203125 0 L 1.203125 -7.21875 L 2.390625 -7.21875 L 2.390625 -6.09375 C 2.671875 -6.53125 3.003906 -6.851562 3.390625 -7.0625 C 3.773438 -7.28125 4.21875 -7.390625 4.71875 -7.390625 C 5.550781 -7.390625 6.179688 -7.132812 6.609375 -6.625 C 7.035156 -6.113281 7.25 -5.359375 7.25 -4.359375 Z M 7.25 -4.359375 "/>
</g>
<g id="glyph-0-9">
<path d="M 2.421875 -9.265625 L 2.421875 -7.21875 L 4.859375 -7.21875 L 4.859375 -6.296875 L 2.421875 -6.296875 L 2.421875 -2.375 C 2.421875 -1.789062 2.5 -1.414062 2.65625 -1.25 C 2.820312 -1.082031 3.148438 -1 3.640625 -1 L 4.859375 -1 L 4.859375 0 L 3.640625 0 C 2.722656 0 2.085938 -0.171875 1.734375 -0.515625 C 1.390625 -0.859375 1.21875 -1.476562 1.21875 -2.375 L 1.21875 -6.296875 L 0.359375 -6.296875 L 0.359375 -7.21875 L 1.21875 -7.21875 L 1.21875 -9.265625 Z M 2.421875 -9.265625 "/>
</g>
<g id="glyph-0-10">
<path d="M 4.09375 -10.015625 C 3.519531 -9.023438 3.09375 -8.046875 2.8125 -7.078125 C 2.53125 -6.117188 2.390625 -5.140625 2.390625 -4.140625 C 2.390625 -3.148438 2.53125 -2.164062 2.8125 -1.1875 C 3.09375 -0.21875 3.519531 0.753906 4.09375 1.734375 L 3.0625 1.734375 C 2.414062 0.722656 1.929688 -0.265625 1.609375 -1.234375 C 1.296875 -2.210938 1.140625 -3.179688 1.140625 -4.140625 C 1.140625 -5.097656 1.296875 -6.0625 1.609375 -7.03125 C 1.929688 -8.007812 2.414062 -9.003906 3.0625 -10.015625 Z M 4.09375 -10.015625 "/>
</g>
<g id="glyph-0-11">
<path d="M 1.0625 -10.015625 L 2.09375 -10.015625 C 2.738281 -9.003906 3.21875 -8.007812 3.53125 -7.03125 C 3.851562 -6.0625 4.015625 -5.097656 4.015625 -4.140625 C 4.015625 -3.179688 3.851562 -2.210938 3.53125 -1.234375 C 3.21875 -0.265625 2.738281 0.722656 2.09375 1.734375 L 1.0625 1.734375 C 1.632812 0.753906 2.0625 -0.21875 2.34375 -1.1875 C 2.625 -2.164062 2.765625 -3.148438 2.765625 -4.140625 C 2.765625 -5.140625 2.625 -6.117188 2.34375 -7.078125 C 2.0625 -8.046875 1.632812 -9.023438 1.0625 -10.015625 Z M 1.0625 -10.015625 "/>
</g>
<g id="glyph-0-12">
<path d="M 1.25 -10.03125 L 2.4375 -10.03125 L 2.4375 0 L 1.25 0 Z M 1.25 -10.03125 "/>
</g>
<g id="glyph-0-13">
<path d="M 6.4375 -6.9375 L 6.4375 -5.828125 C 6.101562 -6.015625 5.765625 -6.15625 5.421875 -6.25 C 5.085938 -6.34375 4.75 -6.390625 4.40625 -6.390625 C 3.632812 -6.390625 3.035156 -6.144531 2.609375 -5.65625 C 2.191406 -5.164062 1.984375 -4.484375 1.984375 -3.609375 C 1.984375 -2.722656 2.191406 -2.035156 2.609375 -1.546875 C 3.035156 -1.054688 3.632812 -0.8125 4.40625 -0.8125 C 4.75 -0.8125 5.085938 -0.859375 5.421875 -0.953125 C 5.765625 -1.046875 6.101562 -1.1875 6.4375 -1.375 L 6.4375 -0.28125 C 6.101562 -0.125 5.757812 -0.0078125 5.40625 0.0625 C 5.050781 0.144531 4.675781 0.1875 4.28125 0.1875 C 3.195312 0.1875 2.332031 -0.148438 1.6875 -0.828125 C 1.050781 -1.515625 0.734375 -2.441406 0.734375 -3.609375 C 0.734375 -4.785156 1.054688 -5.707031 1.703125 -6.375 C 2.347656 -7.050781 3.234375 -7.390625 4.359375 -7.390625 C 4.722656 -7.390625 5.078125 -7.351562 5.421875 -7.28125 C 5.773438 -7.207031 6.113281 -7.09375 6.4375 -6.9375 Z M 6.4375 -6.9375 "/>
</g>
<g id="glyph-0-14">
<path d="M 6.421875 -3.609375 C 6.421875 -4.472656 6.238281 -5.15625 5.875 -5.65625 C 5.519531 -6.15625 5.03125 -6.40625 4.40625 -6.40625 C 3.78125 -6.40625 3.285156 -6.15625 2.921875 -5.65625 C 2.566406 -5.15625 2.390625 -4.472656 2.390625 -3.609375 C 2.390625 -2.734375 2.566406 -2.046875 2.921875 -1.546875 C 3.285156 -1.054688 3.78125 -0.8125 4.40625 -0.8125 C 5.03125 -0.8125 5.519531 -1.054688 5.875 -1.546875 C 6.238281 -2.046875 6.421875 -2.734375 6.421875 -3.609375 Z M 2.390625 -6.125 C 2.640625 -6.550781 2.953125 -6.867188 3.328125 -7.078125 C 3.710938 -7.285156 4.171875 -7.390625 4.703125 -7.390625 C 5.578125 -7.390625 6.285156 -7.039062 6.828125 -6.34375 C 7.378906 -5.65625 7.65625 -4.742188 7.65625 -3.609375 C 7.65625 -2.472656 7.378906 -1.554688 6.828125 -0.859375 C 6.285156 -0.160156 5.578125 0.1875 4.703125 0.1875 C 4.171875 0.1875 3.710938 0.0820312 3.328125 -0.125 C 2.953125 -0.332031 2.640625 -0.648438 2.390625 -1.078125 L 2.390625 0 L 1.203125 0 L 1.203125 -10.03125 L 2.390625 -10.03125 Z M 2.390625 -6.125 "/>
</g>
<g id="glyph-0-15">
<path d="M 7.25 -7.21875 L 4.640625 -3.703125 L 7.375 0 L 5.984375 0 L 3.875 -2.84375 L 1.78125 0 L 0.375 0 L 3.1875 -3.78125 L 0.625 -7.21875 L 2.015625 -7.21875 L 3.9375 -4.640625 L 5.84375 -7.21875 Z M 7.25 -7.21875 "/>
</g>
<g id="glyph-0-16">
<path d="M 7.25 -4.359375 L 7.25 0 L 6.0625 0 L 6.0625 -4.3125 C 6.0625 -5 5.925781 -5.507812 5.65625 -5.84375 C 5.394531 -6.1875 5 -6.359375 4.46875 -6.359375 C 3.820312 -6.359375 3.3125 -6.15625 2.9375 -5.75 C 2.570312 -5.34375 2.390625 -4.785156 2.390625 -4.078125 L 2.390625 0 L 1.203125 0 L 1.203125 -10.03125 L 2.390625 -10.03125 L 2.390625 -6.09375 C 2.671875 -6.53125 3.003906 -6.851562 3.390625 -7.0625 C 3.773438 -7.28125 4.21875 -7.390625 4.71875 -7.390625 C 5.550781 -7.390625 6.179688 -7.132812 6.609375 -6.625 C 7.035156 -6.113281 7.25 -5.359375 7.25 -4.359375 Z M 7.25 -4.359375 "/>
</g>
<g id="glyph-0-17">
<path d="M 5.84375 -7 L 5.84375 -5.890625 C 5.507812 -6.054688 5.160156 -6.179688 4.796875 -6.265625 C 4.441406 -6.359375 4.070312 -6.40625 3.6875 -6.40625 C 3.09375 -6.40625 2.648438 -6.3125 2.359375 -6.125 C 2.066406 -5.945312 1.921875 -5.675781 1.921875 -5.3125 C 1.921875 -5.039062 2.023438 -4.828125 2.234375 -4.671875 C 2.441406 -4.515625 2.863281 -4.363281 3.5 -4.21875 L 3.90625 -4.125 C 4.75 -3.945312 5.347656 -3.691406 5.703125 -3.359375 C 6.054688 -3.035156 6.234375 -2.578125 6.234375 -1.984375 C 6.234375 -1.316406 5.96875 -0.785156 5.4375 -0.390625 C 4.90625 -0.00390625 4.175781 0.1875 3.25 0.1875 C 2.863281 0.1875 2.457031 0.148438 2.03125 0.078125 C 1.613281 0.00390625 1.175781 -0.109375 0.71875 -0.265625 L 0.71875 -1.484375 C 1.15625 -1.253906 1.585938 -1.082031 2.015625 -0.96875 C 2.441406 -0.863281 2.863281 -0.8125 3.28125 -0.8125 C 3.832031 -0.8125 4.257812 -0.90625 4.5625 -1.09375 C 4.863281 -1.28125 5.015625 -1.550781 5.015625 -1.90625 C 5.015625 -2.226562 4.90625 -2.472656 4.6875 -2.640625 C 4.46875 -2.816406 3.992188 -2.984375 3.265625 -3.140625 L 2.84375 -3.234375 C 2.113281 -3.390625 1.582031 -3.625 1.25 -3.9375 C 0.925781 -4.257812 0.765625 -4.703125 0.765625 -5.265625 C 0.765625 -5.941406 1.003906 -6.460938 1.484375 -6.828125 C 1.972656 -7.203125 2.660156 -7.390625 3.546875 -7.390625 C 3.984375 -7.390625 4.394531 -7.359375 4.78125 -7.296875 C 5.164062 -7.234375 5.519531 -7.132812 5.84375 -7 Z M 5.84375 -7 "/>
</g>
<g id="glyph-0-18">
<path d="M 5.421875 -6.109375 C 5.296875 -6.191406 5.148438 -6.25 4.984375 -6.28125 C 4.828125 -6.320312 4.65625 -6.34375 4.46875 -6.34375 C 3.800781 -6.34375 3.285156 -6.125 2.921875 -5.6875 C 2.566406 -5.25 2.390625 -4.617188 2.390625 -3.796875 L 2.390625 0 L 1.203125 0 L 1.203125 -7.21875 L 2.390625 -7.21875 L 2.390625 -6.09375 C 2.640625 -6.53125 2.960938 -6.851562 3.359375 -7.0625 C 3.765625 -7.28125 4.253906 -7.390625 4.828125 -7.390625 C 4.898438 -7.390625 4.984375 -7.382812 5.078125 -7.375 C 5.179688 -7.363281 5.296875 -7.347656 5.421875 -7.328125 Z M 5.421875 -6.109375 "/>
</g>
<g id="glyph-0-19">
<path d="M 4.53125 -3.625 C 3.570312 -3.625 2.90625 -3.515625 2.53125 -3.296875 C 2.164062 -3.078125 1.984375 -2.703125 1.984375 -2.171875 C 1.984375 -1.753906 2.117188 -1.421875 2.390625 -1.171875 C 2.671875 -0.929688 3.050781 -0.8125 3.53125 -0.8125 C 4.1875 -0.8125 4.710938 -1.039062 5.109375 -1.5 C 5.503906 -1.96875 5.703125 -2.585938 5.703125 -3.359375 L 5.703125 -3.625 Z M 6.890625 -4.125 L 6.890625 0 L 5.703125 0 L 5.703125 -1.09375 C 5.429688 -0.65625 5.09375 -0.332031 4.6875 -0.125 C 4.289062 0.0820312 3.796875 0.1875 3.203125 0.1875 C 2.472656 0.1875 1.890625 -0.0195312 1.453125 -0.4375 C 1.015625 -0.851562 0.796875 -1.410156 0.796875 -2.109375 C 0.796875 -2.910156 1.066406 -3.519531 1.609375 -3.9375 C 2.148438 -4.351562 2.960938 -4.5625 4.046875 -4.5625 L 5.703125 -4.5625 L 5.703125 -4.671875 C 5.703125 -5.222656 5.519531 -5.644531 5.15625 -5.9375 C 4.800781 -6.238281 4.300781 -6.390625 3.65625 -6.390625 C 3.238281 -6.390625 2.832031 -6.335938 2.4375 -6.234375 C 2.050781 -6.140625 1.679688 -5.992188 1.328125 -5.796875 L 1.328125 -6.890625 C 1.753906 -7.054688 2.171875 -7.179688 2.578125 -7.265625 C 2.992188 -7.347656 3.394531 -7.390625 3.78125 -7.390625 C 4.820312 -7.390625 5.597656 -7.117188 6.109375 -6.578125 C 6.628906 -6.035156 6.890625 -5.21875 6.890625 -4.125 Z M 6.890625 -4.125 "/>
</g>
<g id="glyph-0-20">
<path d="M 6 -6.125 L 6 -10.03125 L 7.1875 -10.03125 L 7.1875 0 L 6 0 L 6 -1.078125 C 5.75 -0.648438 5.429688 -0.332031 5.046875 -0.125 C 4.671875 0.0820312 4.21875 0.1875 3.6875 0.1875 C 2.8125 0.1875 2.097656 -0.160156 1.546875 -0.859375 C 1.003906 -1.554688 0.734375 -2.472656 0.734375 -3.609375 C 0.734375 -4.742188 1.003906 -5.65625 1.546875 -6.34375 C 2.097656 -7.039062 2.8125 -7.390625 3.6875 -7.390625 C 4.21875 -7.390625 4.671875 -7.285156 5.046875 -7.078125 C 5.429688 -6.867188 5.75 -6.550781 6 -6.125 Z M 1.953125 -3.609375 C 1.953125 -2.734375 2.128906 -2.046875 2.484375 -1.546875 C 2.847656 -1.054688 3.34375 -0.8125 3.96875 -0.8125 C 4.59375 -0.8125 5.085938 -1.054688 5.453125 -1.546875 C 5.816406 -2.046875 6 -2.734375 6 -3.609375 C 6 -4.472656 5.816406 -5.15625 5.453125 -5.65625 C 5.085938 -6.15625 4.59375 -6.40625 3.96875 -6.40625 C 3.34375 -6.40625 2.847656 -6.15625 2.484375 -5.65625 C 2.128906 -5.15625 1.953125 -4.472656 1.953125 -3.609375 Z M 1.953125 -3.609375 "/>
</g>
<g id="glyph-0-21">
<path d="M 4.25 0.671875 C 3.914062 1.523438 3.585938 2.082031 3.265625 2.34375 C 2.953125 2.613281 2.523438 2.75 1.984375 2.75 L 1.046875 2.75 L 1.046875 1.75 L 1.734375 1.75 C 2.066406 1.75 2.320312 1.671875 2.5 1.515625 C 2.675781 1.367188 2.875 1.003906 3.09375 0.421875 L 3.3125 -0.109375 L 0.390625 -7.21875 L 1.65625 -7.21875 L 3.90625 -1.578125 L 6.15625 -7.21875 L 7.421875 -7.21875 Z M 4.25 0.671875 "/>
</g>
</g>
<clipPath id="clip-0">
<path clip-rule="nonzero" d="M 5.480469 20.957031 L 138.523438 20.957031 L 138.523438 120.519531 L 5.480469 120.519531 Z M 5.480469 20.957031 "/>
</clipPath>
<clipPath id="clip-1">
<path clip-rule="nonzero" d="M 149.480469 20.957031 L 282.523438 20.957031 L 282.523438 120.519531 L 149.480469 120.519531 Z M 149.480469 20.957031 "/>
</clipPath>
<clipPath id="clip-2">
<path clip-rule="nonzero" d="M 293.480469 20.957031 L 426.523438 20.957031 L 426.523438 120.519531 L 293.480469 120.519531 Z M 293.480469 20.957031 "/>
</clipPath>
<clipPath id="clip-3">
<path clip-rule="nonzero" d="M 5.480469 146.957031 L 138.523438 146.957031 L 138.523438 246.519531 L 5.480469 246.519531 Z M 5.480469 146.957031 "/>
</clipPath>
<clipPath id="clip-4">
<path clip-rule="nonzero" d="M 149.480469 146.957031 L 282.523438 146.957031 L 282.523438 246.519531 L 149.480469 246.519531 Z M 149.480469 146.957031 "/>
</clipPath>
<clipPath id="clip-5">
<path clip-rule="nonzero" d="M 293.480469 146.957031 L 426.523438 146.957031 L 426.523438 246.519531 L 293.480469 246.519531 Z M 293.480469 146.957031 "/>
</clipPath>
</defs>
<rect x="-43.2" y="-25.2" width="518.4" height="302.4" fill="rgb(100%, 100%, 100%)" fill-opacity="1"/>
<path fill-rule="nonzero" fill="rgb(100%, 100%, 100%)" fill-opacity="1" d="M 0 126 L 144 126 L 144 0 L 0 0 Z M 0 126 "/>
<g clip-path="url(#clip-0)">
<path fill-rule="nonzero" fill="rgb(100%, 100%, 100%)" fill-opacity="1" d="M 5.480469 120.519531 L 138.523438 120.519531 L 138.523438 20.957031 L 5.480469 20.957031 Z M 5.480469 120.519531 "/>
</g>
<path fill-rule="nonzero" fill="rgb(0%, 0%, 0%)" fill-opacity="1" stroke-width="0.708661" stroke-linecap="round" stroke-linejoin="round" stroke="rgb(0%, 0%, 0%)" stroke-opacity="1" stroke-miterlimit="10" d="M 13.480469 25.484375 C 13.480469 28.089844 9.570312 28.089844 9.570312 25.484375 C 9.570312 22.878906 13.480469 22.878906 13.480469 25.484375 "/>
<path fill-rule="nonzero" fill="rgb(0%, 0%, 0%)" fill-opacity="1" stroke-width="0.708661" stroke-linecap="round" stroke-linejoin="round" stroke="rgb(0%, 0%, 0%)" stroke-opacity="1" stroke-miterlimit="10" d="M 26.921875 89.269531 C 26.921875 91.875 23.011719 91.875 23.011719 89.269531 C 23.011719 86.664062 26.921875 86.664062 26.921875 89.269531 "/>
<path fill-rule="nonzero" fill="rgb(0%, 0%, 0%)" fill-opacity="1" stroke-width="0.708661" stroke-linecap="round" stroke-linejoin="round" stroke="rgb(0%, 0%, 0%)" stroke-opacity="1" stroke-miterlimit="10" d="M 40.359375 61.675781 C 40.359375 64.285156 36.449219 64.285156 36.449219 61.675781 C 36.449219 59.070312 40.359375 59.070312 40.359375 61.675781 "/>
<path fill-rule="nonzero" fill="rgb(0%, 0%, 0%)" fill-opacity="1" stroke-width="0.708661" stroke-linecap="round" stroke-linejoin="round" stroke="rgb(0%, 0%, 0%)" stroke-opacity="1" stroke-miterlimit="10" d="M 53.796875 53.269531 C 53.796875 55.875 49.886719 55.875 49.886719 53.269531 C 49.886719 50.664062 53.796875 50.664062 53.796875 53.269531 "/>
<path fill-rule="nonzero" fill="rgb(0%, 0%, 0%)" fill-opacity="1" stroke-width="0.708661" stroke-linecap="round" stroke-linejoin="round" stroke="rgb(0%, 0%, 0%)" stroke-opacity="1" stroke-miterlimit="10" d="M 67.234375 64.175781 C 67.234375 66.78125 63.324219 66.78125 63.324219 64.175781 C 63.324219 61.570312 67.234375 61.570312 67.234375 64.175781 "/>
<path fill-rule="nonzero" fill="rgb(0%, 0%, 0%)" fill-opacity="1" stroke-width="0.708661" stroke-linecap="round" stroke-linejoin="round" stroke="rgb(0%, 0%, 0%)" stroke-opacity="1" stroke-miterlimit="10" d="M 80.675781 94.574219 C 80.675781 97.179688 76.765625 97.179688 76.765625 94.574219 C 76.765625 91.964844 80.675781 91.964844 80.675781 94.574219 "/>
<path fill-rule="nonzero" fill="rgb(0%, 0%, 0%)" fill-opacity="1" stroke-width="0.708661" stroke-linecap="round" stroke-linejoin="round" stroke="rgb(0%, 0%, 0%)" stroke-opacity="1" stroke-miterlimit="10" d="M 94.113281 115.996094 C 94.113281 118.601562 90.203125 118.601562 90.203125 115.996094 C 90.203125 113.386719 94.113281 113.386719 94.113281 115.996094 "/>
<path fill-rule="nonzero" fill="rgb(0%, 0%, 0%)" fill-opacity="1" stroke-width="0.708661" stroke-linecap="round" stroke-linejoin="round" stroke="rgb(0%, 0%, 0%)" stroke-opacity="1" stroke-miterlimit="10" d="M 107.550781 55.410156 C 107.550781 58.015625 103.640625 58.015625 103.640625 55.410156 C 103.640625 52.800781 107.550781 52.800781 107.550781 55.410156 "/>
<path fill-rule="nonzero" fill="rgb(0%, 0%, 0%)" fill-opacity="1" stroke-width="0.708661" stroke-linecap="round" stroke-linejoin="round" stroke="rgb(0%, 0%, 0%)" stroke-opacity="1" stroke-miterlimit="10" d="M 120.988281 91.269531 C 120.988281 93.875 117.078125 93.875 117.078125 91.269531 C 117.078125 88.664062 120.988281 88.664062 120.988281 91.269531 "/>
<path fill-rule="nonzero" fill="rgb(0%, 0%, 0%)" fill-opacity="1" stroke-width="0.708661" stroke-linecap="round" stroke-linejoin="round" stroke="rgb(0%, 0%, 0%)" stroke-opacity="1" stroke-miterlimit="10" d="M 134.429688 77.449219 C 134.429688 80.054688 130.519531 80.054688 130.519531 77.449219 C 130.519531 74.84375 134.429688 74.84375 134.429688 77.449219 "/>
<g fill="rgb(0%, 0%, 0%)" fill-opacity="1">
<use xlink:href="#glyph-0-1" x="28.5" y="14.732422"/>
<use xlink:href="#glyph-0-2" x="36.5" y="14.732422"/>
<use xlink:href="#glyph-0-3" x="44.5" y="14.732422"/>
<use xlink:href="#glyph-0-4" x="52.5" y="14.732422"/>
<use xlink:href="#glyph-0-5" x="65.5" y="14.732422"/>
<use xlink:href="#glyph-0-6" x="72.5" y="14.732422"/>
<use xlink:href="#glyph-0-3" x="80.5" y="14.732422"/>
<use xlink:href="#glyph-0-7" x="88.5" y="14.732422"/>
<use xlink:href="#glyph-0-8" x="92.5" y="14.732422"/>
<use xlink:href="#glyph-0-9" x="100.5" y="14.732422"/>
<use xlink:href="#glyph-0-10" x="105.5" y="14.732422"/>
<use xlink:href="#glyph-0-11" x="110.5" y="14.732422"/>
</g>
<path fill-rule="nonzero" fill="rgb(100%, 100%, 100%)" fill-opacity="1" d="M 144 126 L 288 126 L 288 0 L 144 0 Z M 144 126 "/>
<g clip-path="url(#clip-1)">
<path fill-rule="nonzero" fill="rgb(100%, 100%, 100%)" fill-opacity="1" d="M 149.480469 120.519531 L 282.523438 120.519531 L 282.523438 20.957031 L 149.480469 20.957031 Z M 149.480469 120.519531 "/>
</g>
<path fill="none" stroke-width="1.066978" stroke-linecap="butt" stroke-linejoin="round" stroke="rgb(0%, 0%, 0%)" stroke-opacity="1" stroke-miterlimit="10" d="M 155.527344 25.484375 L 168.964844 89.269531 L 182.402344 61.675781 L 195.84375 53.269531 L 209.28125 64.175781 L 222.71875 94.574219 L 236.15625 115.996094 L 249.597656 55.410156 L 263.035156 91.269531 L 276.472656 77.449219 "/>
<g fill="rgb(0%, 0%, 0%)" fill-opacity="1">
<use xlink:href="#glyph-0-1" x="177" y="14.732422"/>
<use xlink:href="#glyph-0-2" x="185" y="14.732422"/>
<use xlink:href="#glyph-0-3" x="193" y="14.732422"/>
<use xlink:href="#glyph-0-4" x="201" y="14.732422"/>
<use xlink:href="#glyph-0-5" x="214" y="14.732422"/>
<use xlink:href="#glyph-0-12" x="221" y="14.732422"/>
<use xlink:href="#glyph-0-7" x="225" y="14.732422"/>
<use xlink:href="#glyph-0-8" x="229" y="14.732422"/>
<use xlink:href="#glyph-0-2" x="237" y="14.732422"/>
<use xlink:href="#glyph-0-10" x="245" y="14.732422"/>
<use xlink:href="#glyph-0-11" x="250" y="14.732422"/>
</g>
<path fill-rule="nonzero" fill="rgb(100%, 100%, 100%)" fill-opacity="1" d="M 288 126 L 432 126 L 432 0 L 288 0 Z M 288 126 "/>
<g clip-path="url(#clip-2)">
<path fill-rule="nonzero" fill="rgb(100%, 100%, 100%)" fill-opacity="1" d="M 293.480469 120.519531 L 426.523438 120.519531 L 426.523438 20.957031 L 293.480469 20.957031 Z M 293.480469 120.519531 "/>
</g>
<path fill-rule="nonzero" fill="rgb(34.901961%, 34.901961%, 34.901961%)" fill-opacity="1" d="M 299.527344 73.230469 L 310.523438 73.230469 L 310.523438 25.484375 L 299.527344 25.484375 Z M 299.527344 73.230469 "/>
<path fill-rule="nonzero" fill="rgb(34.901961%, 34.901961%, 34.901961%)" fill-opacity="1" d="M 311.742188 89.269531 L 322.738281 89.269531 L 322.738281 73.230469 L 311.742188 73.230469 Z M 311.742188 89.269531 "/>
<path fill-rule="nonzero" fill="rgb(34.901961%, 34.901961%, 34.901961%)" fill-opacity="1" d="M 323.960938 73.230469 L 334.957031 73.230469 L 334.957031 61.679688 L 323.960938 61.679688 Z M 323.960938 73.230469 "/>
<path fill-rule="nonzero" fill="rgb(34.901961%, 34.901961%, 34.901961%)" fill-opacity="1" d="M 336.175781 73.230469 L 347.171875 73.230469 L 347.171875 53.269531 L 336.175781 53.269531 Z M 336.175781 73.230469 "/>
<path fill-rule="nonzero" fill="rgb(34.901961%, 34.901961%, 34.901961%)" fill-opacity="1" d="M 348.394531 73.230469 L 359.390625 73.230469 L 359.390625 64.175781 L 348.394531 64.175781 Z M 348.394531 73.230469 "/>
<path fill-rule="nonzero" fill="rgb(34.901961%, 34.901961%, 34.901961%)" fill-opacity="1" d="M 360.609375 94.574219 L 371.605469 94.574219 L 371.605469 73.230469 L 360.609375 73.230469 Z M 360.609375 94.574219 "/>
<path fill-rule="nonzero" fill="rgb(34.901961%, 34.901961%, 34.901961%)" fill-opacity="1" d="M 372.828125 115.996094 L 383.824219 115.996094 L 383.824219 73.230469 L 372.828125 73.230469 Z M 372.828125 115.996094 "/>
<path fill-rule="nonzero" fill="rgb(34.901961%, 34.901961%, 34.901961%)" fill-opacity="1" d="M 385.042969 73.230469 L 396.039062 73.230469 L 396.039062 55.410156 L 385.042969 55.410156 Z M 385.042969 73.230469 "/>
<path fill-rule="nonzero" fill="rgb(34.901961%, 34.901961%, 34.901961%)" fill-opacity="1" d="M 397.261719 91.269531 L 408.257812 91.269531 L 408.257812 73.230469 L 397.261719 73.230469 Z M 397.261719 91.269531 "/>
<path fill-rule="nonzero" fill="rgb(34.901961%, 34.901961%, 34.901961%)" fill-opacity="1" d="M 409.476562 77.449219 L 420.472656 77.449219 L 420.472656 73.230469 L 409.476562 73.230469 Z M 409.476562 77.449219 "/>
<g fill="rgb(0%, 0%, 0%)" fill-opacity="1">
<use xlink:href="#glyph-0-1" x="323.5" y="14.732422"/>
<use xlink:href="#glyph-0-2" x="331.5" y="14.732422"/>
<use xlink:href="#glyph-0-3" x="339.5" y="14.732422"/>
<use xlink:href="#glyph-0-4" x="347.5" y="14.732422"/>
<use xlink:href="#glyph-0-5" x="360.5" y="14.732422"/>
<use xlink:href="#glyph-0-13" x="367.5" y="14.732422"/>
<use xlink:href="#glyph-0-3" x="374.5" y="14.732422"/>
<use xlink:href="#glyph-0-12" x="382.5" y="14.732422"/>
<use xlink:href="#glyph-0-10" x="386.5" y="14.732422"/>
<use xlink:href="#glyph-0-11" x="391.5" y="14.732422"/>
</g>
<path fill-rule="nonzero" fill="rgb(100%, 100%, 100%)" fill-opacity="1" d="M 0 252 L 144 252 L 144 126 L 0 126 Z M 0 252 "/>
<g clip-path="url(#clip-3)">
<path fill-rule="nonzero" fill="rgb(100%, 100%, 100%)" fill-opacity="1" d="M 5.480469 246.519531 L 138.523438 246.519531 L 138.523438 146.957031 L 5.480469 146.957031 Z M 5.480469 246.519531 "/>
</g>
<path fill="none" stroke-width="1.066978" stroke-linecap="butt" stroke-linejoin="round" stroke="rgb(20%, 20%, 20%)" stroke-opacity="1" stroke-miterlimit="10" d="M 72 182.976562 L 72 151.484375 "/>
<path fill="none" stroke-width="1.066978" stroke-linecap="butt" stroke-linejoin="round" stroke="rgb(20%, 20%, 20%)" stroke-opacity="1" stroke-miterlimit="10" d="M 72 216.769531 L 72 241.996094 "/>
<path fill-rule="nonzero" fill="rgb(100%, 100%, 100%)" fill-opacity="1" stroke-width="1.066978" stroke-linecap="butt" stroke-linejoin="miter" stroke="rgb(20%, 20%, 20%)" stroke-opacity="1" stroke-miterlimit="10" d="M 11.527344 182.976562 L 11.527344 216.769531 L 132.472656 216.769531 L 132.472656 182.976562 Z M 11.527344 182.976562 "/>
<path fill="none" stroke-width="2.133957" stroke-linecap="butt" stroke-linejoin="miter" stroke="rgb(20%, 20%, 20%)" stroke-opacity="1" stroke-miterlimit="10" d="M 11.527344 196.8125 L 132.472656 196.8125 "/>
<g fill="rgb(0%, 0%, 0%)" fill-opacity="1">
<use xlink:href="#glyph-0-1" x="20.5" y="140.732422"/>
<use xlink:href="#glyph-0-2" x="28.5" y="140.732422"/>
<use xlink:href="#glyph-0-3" x="36.5" y="140.732422"/>
<use xlink:href="#glyph-0-4" x="44.5" y="140.732422"/>
<use xlink:href="#glyph-0-5" x="57.5" y="140.732422"/>
<use xlink:href="#glyph-0-14" x="64.5" y="140.732422"/>
<use xlink:href="#glyph-0-3" x="72.5" y="140.732422"/>
<use xlink:href="#glyph-0-15" x="80.5" y="140.732422"/>
<use xlink:href="#glyph-0-6" x="88.5" y="140.732422"/>
<use xlink:href="#glyph-0-12" x="96.5" y="140.732422"/>
<use xlink:href="#glyph-0-3" x="100.5" y="140.732422"/>
<use xlink:href="#glyph-0-9" x="108.5" y="140.732422"/>
<use xlink:href="#glyph-0-10" x="113.5" y="140.732422"/>
<use xlink:href="#glyph-0-11" x="118.5" y="140.732422"/>
</g>
<path fill-rule="nonzero" fill="rgb(100%, 100%, 100%)" fill-opacity="1" d="M 144 252 L 288 252 L 288 126 L 144 126 Z M 144 252 "/>
<g clip-path="url(#clip-4)">
<path fill-rule="nonzero" fill="rgb(100%, 100%, 100%)" fill-opacity="1" d="M 149.480469 246.519531 L 282.523438 246.519531 L 282.523438 146.957031 L 149.480469 146.957031 Z M 149.480469 246.519531 "/>
</g>
<path fill-rule="nonzero" fill="rgb(34.901961%, 34.901961%, 34.901961%)" fill-opacity="1" d="M 155.527344 241.996094 L 179.714844 241.996094 L 179.714844 211.824219 L 155.527344 211.824219 Z M 155.527344 241.996094 "/>
<path fill-rule="nonzero" fill="rgb(34.901961%, 34.901961%, 34.901961%)" fill-opacity="1" d="M 179.714844 241.996094 L 203.902344 241.996094 L 203.902344 151.484375 L 179.714844 151.484375 Z M 179.714844 241.996094 "/>
<path fill-rule="nonzero" fill="rgb(34.901961%, 34.901961%, 34.901961%)" fill-opacity="1" d="M 203.90625 241.996094 L 228.09375 241.996094 L 228.09375 181.65625 L 203.90625 181.65625 Z M 203.90625 241.996094 "/>
<path fill-rule="nonzero" fill="rgb(34.901961%, 34.901961%, 34.901961%)" fill-opacity="1" d="M 228.09375 241.996094 L 252.28125 241.996094 L 252.28125 151.484375 L 228.09375 151.484375 Z M 228.09375 241.996094 "/>
<path fill-rule="nonzero" fill="rgb(34.901961%, 34.901961%, 34.901961%)" fill-opacity="1" d="M 252.285156 241.996094 L 276.472656 241.996094 L 276.472656 211.824219 L 252.285156 211.824219 Z M 252.285156 241.996094 "/>
<g fill="rgb(0%, 0%, 0%)" fill-opacity="1">
<use xlink:href="#glyph-0-1" x="156" y="140.732422"/>
<use xlink:href="#glyph-0-2" x="164" y="140.732422"/>
<use xlink:href="#glyph-0-3" x="172" y="140.732422"/>
<use xlink:href="#glyph-0-4" x="180" y="140.732422"/>
<use xlink:href="#glyph-0-5" x="193" y="140.732422"/>
<use xlink:href="#glyph-0-16" x="200" y="140.732422"/>
<use xlink:href="#glyph-0-7" x="208" y="140.732422"/>
<use xlink:href="#glyph-0-17" x="212" y="140.732422"/>
<use xlink:href="#glyph-0-9" x="219" y="140.732422"/>
<use xlink:href="#glyph-0-3" x="224" y="140.732422"/>
<use xlink:href="#glyph-0-1" x="232" y="140.732422"/>
<use xlink:href="#glyph-0-18" x="240" y="140.732422"/>
<use xlink:href="#glyph-0-19" x="245" y="140.732422"/>
<use xlink:href="#glyph-0-4" x="253" y="140.732422"/>
<use xlink:href="#glyph-0-10" x="266" y="140.732422"/>
<use xlink:href="#glyph-0-11" x="271" y="140.732422"/>
</g>
<path fill-rule="nonzero" fill="rgb(100%, 100%, 100%)" fill-opacity="1" d="M 288 252 L 432 252 L 432 126 L 288 126 Z M 288 252 "/>
<g clip-path="url(#clip-5)">
<path fill-rule="nonzero" fill="rgb(100%, 100%, 100%)" fill-opacity="1" d="M 293.480469 246.519531 L 426.523438 246.519531 L 426.523438 146.957031 L 293.480469 146.957031 Z M 293.480469 246.519531 "/>
</g>
<path fill-rule="nonzero" fill="rgb(40%, 40%, 40%)" fill-opacity="0.25098" d="M 299.527344 241.824219 L 299.761719 241.8125 L 300 241.796875 L 300.238281 241.785156 L 300.472656 241.769531 L 300.710938 241.75 L 300.945312 241.734375 L 301.421875 241.695312 L 301.65625 241.671875 L 301.894531 241.652344 L 302.128906 241.625 L 302.367188 241.601562 L 302.605469 241.574219 L 302.839844 241.546875 L 303.078125 241.515625 L 303.3125 241.484375 L 303.789062 241.414062 L 304.023438 241.378906 L 304.261719 241.335938 L 304.496094 241.296875 L 304.734375 241.25 L 304.96875 241.203125 L 305.207031 241.15625 L 305.445312 241.105469 L 305.679688 241.050781 L 305.917969 240.992188 L 306.152344 240.933594 L 306.390625 240.871094 L 306.628906 240.804688 L 306.863281 240.734375 L 307.101562 240.664062 L 307.335938 240.585938 L 307.574219 240.507812 L 307.8125 240.425781 L 308.046875 240.339844 L 308.285156 240.25 L 308.519531 240.152344 L 308.757812 240.058594 L 308.996094 239.953125 L 309.230469 239.847656 L 309.46875 239.738281 L 309.703125 239.621094 L 309.941406 239.5 L 310.175781 239.375 L 310.414062 239.246094 L 310.652344 239.113281 L 310.886719 238.96875 L 311.125 238.828125 L 311.359375 238.675781 L 311.597656 238.519531 L 311.835938 238.359375 L 312.070312 238.191406 L 312.308594 238.023438 L 312.542969 237.84375 L 312.78125 237.660156 L 313.019531 237.472656 L 313.253906 237.277344 L 313.492188 237.078125 L 313.726562 236.871094 L 313.964844 236.65625 L 314.203125 236.4375 L 314.4375 236.210938 L 314.675781 235.980469 L 314.910156 235.742188 L 315.148438 235.5 L 315.382812 235.25 L 315.621094 234.992188 L 315.859375 234.730469 L 316.09375 234.460938 L 316.332031 234.1875 L 316.566406 233.90625 L 316.804688 233.617188 L 317.042969 233.324219 L 317.277344 233.023438 L 317.515625 232.714844 L 317.75 232.40625 L 318.226562 231.757812 L 318.460938 231.425781 L 318.699219 231.089844 L 318.933594 230.75 L 319.171875 230.398438 L 319.410156 230.042969 L 319.644531 229.679688 L 319.882812 229.3125 L 320.117188 228.941406 L 320.355469 228.5625 L 320.59375 228.179688 L 320.828125 227.792969 L 321.066406 227.394531 L 321.300781 226.996094 L 321.539062 226.589844 L 321.773438 226.179688 L 322.011719 225.765625 L 322.25 225.34375 L 322.484375 224.921875 L 322.722656 224.488281 L 322.957031 224.050781 L 323.195312 223.613281 L 323.433594 223.167969 L 323.667969 222.71875 L 323.90625 222.261719 L 324.140625 221.804688 L 324.378906 221.339844 L 324.617188 220.871094 L 324.851562 220.398438 L 325.089844 219.921875 L 325.324219 219.4375 L 325.5625 218.953125 L 325.800781 218.460938 L 326.035156 217.96875 L 326.273438 217.464844 L 326.507812 216.960938 L 326.746094 216.453125 L 326.980469 215.9375 L 327.21875 215.421875 L 327.457031 214.898438 L 327.691406 214.371094 L 327.929688 213.839844 L 328.164062 213.304688 L 328.402344 212.761719 L 328.640625 212.214844 L 328.875 211.664062 L 329.113281 211.109375 L 329.347656 210.546875 L 329.585938 209.984375 L 329.824219 209.410156 L 330.058594 208.835938 L 330.296875 208.253906 L 330.53125 207.667969 L 330.769531 207.078125 L 331.007812 206.476562 L 331.242188 205.875 L 331.480469 205.269531 L 331.714844 204.65625 L 331.953125 204.039062 L 332.1875 203.414062 L 332.425781 202.785156 L 332.664062 202.152344 L 332.898438 201.507812 L 333.136719 200.867188 L 333.371094 200.214844 L 333.609375 199.558594 L 333.847656 198.898438 L 334.082031 198.234375 L 334.320312 197.5625 L 334.554688 196.886719 L 334.792969 196.207031 L 335.03125 195.523438 L 335.265625 194.835938 L 335.503906 194.140625 L 335.738281 193.445312 L 335.976562 192.746094 L 336.214844 192.042969 L 336.449219 191.335938 L 336.6875 190.625 L 336.921875 189.914062 L 337.398438 188.484375 L 337.632812 187.765625 L 337.871094 187.046875 L 338.105469 186.328125 L 338.34375 185.609375 L 338.578125 184.886719 L 339.054688 183.449219 L 339.289062 182.734375 L 339.527344 182.019531 L 339.761719 181.304688 L 340 180.59375 L 340.238281 179.886719 L 340.472656 179.183594 L 340.710938 178.488281 L 340.945312 177.792969 L 341.183594 177.105469 L 341.421875 176.421875 L 341.65625 175.746094 L 341.894531 175.078125 L 342.128906 174.410156 L 342.605469 173.113281 L 342.839844 172.476562 L 343.078125 171.847656 L 343.3125 171.226562 L 343.550781 170.621094 L 343.785156 170.019531 L 344.023438 169.429688 L 344.261719 168.855469 L 344.496094 168.289062 L 344.734375 167.738281 L 344.96875 167.195312 L 345.207031 166.664062 L 345.445312 166.152344 L 345.679688 165.644531 L 345.917969 165.15625 L 346.152344 164.679688 L 346.390625 164.214844 L 346.628906 163.765625 L 346.863281 163.324219 L 347.101562 162.90625 L 347.335938 162.496094 L 347.574219 162.097656 L 347.8125 161.71875 L 348.046875 161.34375 L 348.285156 160.992188 L 348.519531 160.648438 L 348.757812 160.316406 L 348.992188 160.003906 L 349.230469 159.695312 L 349.46875 159.40625 L 349.703125 159.125 L 349.941406 158.855469 L 350.175781 158.601562 L 350.414062 158.355469 L 350.652344 158.121094 L 350.886719 157.894531 L 351.125 157.679688 L 351.359375 157.476562 L 351.597656 157.28125 L 351.835938 157.09375 L 352.070312 156.914062 L 352.308594 156.742188 L 352.542969 156.582031 L 352.78125 156.421875 L 353.019531 156.273438 L 353.253906 156.128906 L 353.492188 155.988281 L 353.726562 155.851562 L 353.964844 155.722656 L 354.203125 155.597656 L 354.4375 155.472656 L 354.675781 155.355469 L 354.910156 155.238281 L 355.148438 155.125 L 355.382812 155.011719 L 355.859375 154.792969 L 356.09375 154.683594 L 356.332031 154.578125 L 356.566406 154.46875 L 356.804688 154.363281 L 357.042969 154.253906 L 357.277344 154.148438 L 357.515625 154.042969 L 357.75 153.933594 L 357.988281 153.828125 L 358.226562 153.71875 L 358.460938 153.609375 L 358.699219 153.5 L 358.933594 153.390625 L 359.410156 153.171875 L 359.644531 153.0625 L 359.882812 152.957031 L 360.117188 152.847656 L 360.355469 152.738281 L 360.589844 152.632812 L 361.066406 152.429688 L 361.300781 152.328125 L 361.539062 152.230469 L 361.773438 152.136719 L 362.25 151.964844 L 362.484375 151.882812 L 362.722656 151.808594 L 362.957031 151.738281 L 363.195312 151.679688 L 363.433594 151.625 L 363.667969 151.578125 L 363.90625 151.539062 L 364.140625 151.507812 L 364.378906 151.492188 L 364.617188 151.484375 L 364.851562 151.484375 L 365.089844 151.503906 L 365.324219 151.527344 L 365.5625 151.570312 L 365.796875 151.625 L 366.035156 151.691406 L 366.273438 151.777344 L 366.507812 151.871094 L 366.746094 151.988281 L 366.980469 152.121094 L 367.21875 152.265625 L 367.457031 152.4375 L 367.691406 152.617188 L 367.929688 152.820312 L 368.164062 153.042969 L 368.402344 153.28125 L 368.640625 153.546875 L 368.875 153.820312 L 369.113281 154.125 L 369.347656 154.445312 L 369.585938 154.78125 L 369.824219 155.148438 L 370.058594 155.527344 L 370.296875 155.933594 L 370.53125 156.355469 L 370.769531 156.796875 L 371.007812 157.265625 L 371.242188 157.75 L 371.480469 158.257812 L 371.714844 158.785156 L 371.953125 159.328125 L 372.1875 159.898438 L 372.425781 160.476562 L 372.664062 161.082031 L 372.898438 161.707031 L 373.136719 162.34375 L 373.371094 163.003906 L 373.609375 163.675781 L 373.847656 164.367188 L 374.082031 165.074219 L 374.320312 165.792969 L 374.554688 166.53125 L 374.792969 167.277344 L 375.03125 168.042969 L 375.265625 168.816406 L 375.503906 169.597656 L 375.738281 170.398438 L 375.976562 171.203125 L 376.214844 172.019531 L 376.449219 172.84375 L 376.6875 173.671875 L 376.921875 174.507812 L 377.160156 175.351562 L 377.394531 176.199219 L 377.871094 177.902344 L 378.105469 178.757812 L 378.34375 179.617188 L 378.578125 180.472656 L 378.816406 181.332031 L 379.054688 182.1875 L 379.289062 183.042969 L 379.527344 183.890625 L 379.761719 184.738281 L 380 185.582031 L 380.238281 186.421875 L 380.472656 187.25 L 380.710938 188.078125 L 380.945312 188.894531 L 381.183594 189.707031 L 381.421875 190.511719 L 381.65625 191.300781 L 381.894531 192.085938 L 382.128906 192.859375 L 382.367188 193.621094 L 382.601562 194.375 L 382.839844 195.113281 L 383.078125 195.84375 L 383.3125 196.5625 L 383.550781 197.265625 L 383.785156 197.964844 L 384.023438 198.640625 L 384.261719 199.308594 L 384.496094 199.964844 L 384.734375 200.605469 L 384.96875 201.238281 L 385.207031 201.851562 L 385.445312 202.453125 L 385.679688 203.042969 L 385.917969 203.621094 L 386.152344 204.1875 L 386.390625 204.734375 L 386.628906 205.273438 L 386.863281 205.800781 L 387.101562 206.3125 L 387.335938 206.820312 L 387.574219 207.308594 L 387.8125 207.789062 L 388.046875 208.257812 L 388.285156 208.710938 L 388.519531 209.164062 L 388.757812 209.597656 L 388.992188 210.027344 L 389.230469 210.445312 L 389.46875 210.851562 L 389.703125 211.253906 L 389.941406 211.648438 L 390.175781 212.03125 L 390.414062 212.414062 L 390.652344 212.78125 L 390.886719 213.148438 L 391.125 213.507812 L 391.359375 213.859375 L 391.597656 214.207031 L 391.835938 214.550781 L 392.070312 214.890625 L 392.308594 215.226562 L 392.542969 215.558594 L 392.78125 215.886719 L 393.019531 216.210938 L 393.253906 216.535156 L 393.492188 216.855469 L 393.726562 217.171875 L 393.964844 217.492188 L 394.199219 217.804688 L 394.4375 218.121094 L 394.675781 218.433594 L 394.910156 218.75 L 395.148438 219.0625 L 395.382812 219.375 L 395.859375 220 L 396.09375 220.3125 L 396.332031 220.628906 L 396.566406 220.941406 L 397.042969 221.574219 L 397.277344 221.890625 L 397.515625 222.207031 L 397.75 222.523438 L 398.226562 223.164062 L 398.460938 223.480469 L 398.699219 223.804688 L 398.933594 224.125 L 399.171875 224.445312 L 399.40625 224.769531 L 399.644531 225.09375 L 399.882812 225.414062 L 400.117188 225.738281 L 400.355469 226.0625 L 400.589844 226.382812 L 401.066406 227.03125 L 401.300781 227.351562 L 401.539062 227.671875 L 401.773438 227.992188 L 402.011719 228.3125 L 402.25 228.628906 L 402.484375 228.945312 L 402.722656 229.257812 L 402.957031 229.570312 L 403.195312 229.882812 L 403.433594 230.191406 L 403.667969 230.496094 L 403.90625 230.800781 L 404.140625 231.101562 L 404.378906 231.398438 L 404.617188 231.691406 L 404.851562 231.984375 L 405.089844 232.269531 L 405.324219 232.554688 L 405.5625 232.835938 L 405.796875 233.113281 L 406.273438 233.652344 L 406.507812 233.917969 L 406.746094 234.175781 L 406.980469 234.433594 L 407.21875 234.683594 L 407.457031 234.929688 L 407.691406 235.171875 L 407.929688 235.40625 L 408.164062 235.640625 L 408.402344 235.867188 L 408.640625 236.089844 L 408.875 236.308594 L 409.113281 236.519531 L 409.347656 236.726562 L 409.824219 237.125 L 410.058594 237.316406 L 410.296875 237.5 L 410.53125 237.683594 L 410.769531 237.859375 L 411.003906 238.03125 L 411.242188 238.195312 L 411.480469 238.355469 L 411.714844 238.515625 L 411.953125 238.664062 L 412.1875 238.8125 L 412.425781 238.953125 L 412.664062 239.089844 L 412.898438 239.222656 L 413.136719 239.351562 L 413.371094 239.472656 L 413.609375 239.59375 L 413.847656 239.707031 L 414.082031 239.816406 L 414.320312 239.921875 L 414.554688 240.023438 L 414.792969 240.125 L 415.03125 240.21875 L 415.265625 240.308594 L 415.503906 240.394531 L 415.738281 240.476562 L 415.976562 240.558594 L 416.210938 240.632812 L 416.449219 240.707031 L 416.6875 240.777344 L 416.921875 240.839844 L 417.160156 240.90625 L 417.394531 240.964844 L 417.632812 241.023438 L 417.871094 241.078125 L 418.105469 241.128906 L 418.34375 241.179688 L 418.578125 241.226562 L 418.816406 241.273438 L 419.054688 241.316406 L 419.289062 241.355469 L 419.527344 241.394531 L 419.761719 241.429688 L 420.238281 241.5 L 420.472656 241.53125 L 420.472656 241.996094 L 299.527344 241.996094 Z M 299.527344 241.824219 "/>
<path fill="none" stroke-width="1.066978" stroke-linecap="butt" stroke-linejoin="round" stroke="rgb(0%, 0%, 0%)" stroke-opacity="1" stroke-miterlimit="10" d="M 299.527344 241.824219 L 299.761719 241.8125 L 300 241.796875 L 300.238281 241.785156 L 300.472656 241.769531 L 300.710938 241.75 L 300.945312 241.734375 L 301.421875 241.695312 L 301.65625 241.671875 L 301.894531 241.652344 L 302.128906 241.625 L 302.367188 241.601562 L 302.605469 241.574219 L 302.839844 241.546875 L 303.078125 241.515625 L 303.3125 241.484375 L 303.789062 241.414062 L 304.023438 241.378906 L 304.261719 241.335938 L 304.496094 241.296875 L 304.734375 241.25 L 304.96875 241.203125 L 305.207031 241.15625 L 305.445312 241.105469 L 305.679688 241.050781 L 305.917969 240.992188 L 306.152344 240.933594 L 306.390625 240.871094 L 306.628906 240.804688 L 306.863281 240.734375 L 307.101562 240.664062 L 307.335938 240.585938 L 307.574219 240.507812 L 307.8125 240.425781 L 308.046875 240.339844 L 308.285156 240.25 L 308.519531 240.152344 L 308.757812 240.058594 L 308.996094 239.953125 L 309.230469 239.847656 L 309.46875 239.738281 L 309.703125 239.621094 L 309.941406 239.5 L 310.175781 239.375 L 310.414062 239.246094 L 310.652344 239.113281 L 310.886719 238.96875 L 311.125 238.828125 L 311.359375 238.675781 L 311.597656 238.519531 L 311.835938 238.359375 L 312.070312 238.191406 L 312.308594 238.023438 L 312.542969 237.84375 L 312.78125 237.660156 L 313.019531 237.472656 L 313.253906 237.277344 L 313.492188 237.078125 L 313.726562 236.871094 L 313.964844 236.65625 L 314.203125 236.4375 L 314.4375 236.210938 L 314.675781 235.980469 L 314.910156 235.742188 L 315.148438 235.5 L 315.382812 235.25 L 315.621094 234.992188 L 315.859375 234.730469 L 316.09375 234.460938 L 316.332031 234.1875 L 316.566406 233.90625 L 316.804688 233.617188 L 317.042969 233.324219 L 317.277344 233.023438 L 317.515625 232.714844 L 317.75 232.40625 L 318.226562 231.757812 L 318.460938 231.425781 L 318.699219 231.089844 L 318.933594 230.75 L 319.171875 230.398438 L 319.410156 230.042969 L 319.644531 229.679688 L 319.882812 229.3125 L 320.117188 228.941406 L 320.355469 228.5625 L 320.59375 228.179688 L 320.828125 227.792969 L 321.066406 227.394531 L 321.300781 226.996094 L 321.539062 226.589844 L 321.773438 226.179688 L 322.011719 225.765625 L 322.25 225.34375 L 322.484375 224.921875 L 322.722656 224.488281 L 322.957031 224.050781 L 323.195312 223.613281 L 323.433594 223.167969 L 323.667969 222.71875 L 323.90625 222.261719 L 324.140625 221.804688 L 324.378906 221.339844 L 324.617188 220.871094 L 324.851562 220.398438 L 325.089844 219.921875 L 325.324219 219.4375 L 325.5625 218.953125 L 325.800781 218.460938 L 326.035156 217.96875 L 326.273438 217.464844 L 326.507812 216.960938 L 326.746094 216.453125 L 326.980469 215.9375 L 327.21875 215.421875 L 327.457031 214.898438 L 327.691406 214.371094 L 327.929688 213.839844 L 328.164062 213.304688 L 328.402344 212.761719 L 328.640625 212.214844 L 328.875 211.664062 L 329.113281 211.109375 L 329.347656 210.546875 L 329.585938 209.984375 L 329.824219 209.410156 L 330.058594 208.835938 L 330.296875 208.253906 L 330.53125 207.667969 L 330.769531 207.078125 L 331.007812 206.476562 L 331.242188 205.875 L 331.480469 205.269531 L 331.714844 204.65625 L 331.953125 204.039062 L 332.1875 203.414062 L 332.425781 202.785156 L 332.664062 202.152344 L 332.898438 201.507812 L 333.136719 200.867188 L 333.371094 200.214844 L 333.609375 199.558594 L 333.847656 198.898438 L 334.082031 198.234375 L 334.320312 197.5625 L 334.554688 196.886719 L 334.792969 196.207031 L 335.03125 195.523438 L 335.265625 194.835938 L 335.503906 194.140625 L 335.738281 193.445312 L 335.976562 192.746094 L 336.214844 192.042969 L 336.449219 191.335938 L 336.6875 190.625 L 336.921875 189.914062 L 337.398438 188.484375 L 337.632812 187.765625 L 337.871094 187.046875 L 338.105469 186.328125 L 338.34375 185.609375 L 338.578125 184.886719 L 339.054688 183.449219 L 339.289062 182.734375 L 339.527344 182.019531 L 339.761719 181.304688 L 340 180.59375 L 340.238281 179.886719 L 340.472656 179.183594 L 340.710938 178.488281 L 340.945312 177.792969 L 341.183594 177.105469 L 341.421875 176.421875 L 341.65625 175.746094 L 341.894531 175.078125 L 342.128906 174.410156 L 342.605469 173.113281 L 342.839844 172.476562 L 343.078125 171.847656 L 343.3125 171.226562 L 343.550781 170.621094 L 343.785156 170.019531 L 344.023438 169.429688 L 344.261719 168.855469 L 344.496094 168.289062 L 344.734375 167.738281 L 344.96875 167.195312 L 345.207031 166.664062 L 345.445312 166.152344 L 345.679688 165.644531 L 345.917969 165.15625 L 346.152344 164.679688 L 346.390625 164.214844 L 346.628906 163.765625 L 346.863281 163.324219 L 347.101562 162.90625 L 347.335938 162.496094 L 347.574219 162.097656 L 347.8125 161.71875 L 348.046875 161.34375 L 348.285156 160.992188 L 348.519531 160.648438 L 348.757812 160.316406 L 348.992188 160.003906 L 349.230469 159.695312 L 349.46875 159.40625 L 349.703125 159.125 L 349.941406 158.855469 L 350.175781 158.601562 L 350.414062 158.355469 L 350.652344 158.121094 L 350.886719 157.894531 L 351.125 157.679688 L 351.359375 157.476562 L 351.597656 157.28125 L 351.835938 157.09375 L 352.070312 156.914062 L 352.308594 156.742188 L 352.542969 156.582031 L 352.78125 156.421875 L 353.019531 156.273438 L 353.253906 156.128906 L 353.492188 155.988281 L 353.726562 155.851562 L 353.964844 155.722656 L 354.203125 155.597656 L 354.4375 155.472656 L 354.675781 155.355469 L 354.910156 155.238281 L 355.148438 155.125 L 355.382812 155.011719 L 355.859375 154.792969 L 356.09375 154.683594 L 356.332031 154.578125 L 356.566406 154.46875 L 356.804688 154.363281 L 357.042969 154.253906 L 357.277344 154.148438 L 357.515625 154.042969 L 357.75 153.933594 L 357.988281 153.828125 L 358.226562 153.71875 L 358.460938 153.609375 L 358.699219 153.5 L 358.933594 153.390625 L 359.410156 153.171875 L 359.644531 153.0625 L 359.882812 152.957031 L 360.117188 152.847656 L 360.355469 152.738281 L 360.589844 152.632812 L 361.066406 152.429688 L 361.300781 152.328125 L 361.539062 152.230469 L 361.773438 152.136719 L 362.25 151.964844 L 362.484375 151.882812 L 362.722656 151.808594 L 362.957031 151.738281 L 363.195312 151.679688 L 363.433594 151.625 L 363.667969 151.578125 L 363.90625 151.539062 L 364.140625 151.507812 L 364.378906 151.492188 L 364.617188 151.484375 L 364.851562 151.484375 L 365.089844 151.503906 L 365.324219 151.527344 L 365.5625 151.570312 L 365.796875 151.625 L 366.035156 151.691406 L 366.273438 151.777344 L 366.507812 151.871094 L 366.746094 151.988281 L 366.980469 152.121094 L 367.21875 152.265625 L 367.457031 152.4375 L 367.691406 152.617188 L 367.929688 152.820312 L 368.164062 153.042969 L 368.402344 153.28125 L 368.640625 153.546875 L 368.875 153.820312 L 369.113281 154.125 L 369.347656 154.445312 L 369.585938 154.78125 L 369.824219 155.148438 L 370.058594 155.527344 L 370.296875 155.933594 L 370.53125 156.355469 L 370.769531 156.796875 L 371.007812 157.265625 L 371.242188 157.75 L 371.480469 158.257812 L 371.714844 158.785156 L 371.953125 159.328125 L 372.1875 159.898438 L 372.425781 160.476562 L 372.664062 161.082031 L 372.898438 161.707031 L 373.136719 162.34375 L 373.371094 163.003906 L 373.609375 163.675781 L 373.847656 164.367188 L 374.082031 165.074219 L 374.320312 165.792969 L 374.554688 166.53125 L 374.792969 167.277344 L 375.03125 168.042969 L 375.265625 168.816406 L 375.503906 169.597656 L 375.738281 170.398438 L 375.976562 171.203125 L 376.214844 172.019531 L 376.449219 172.84375 L 376.6875 173.671875 L 376.921875 174.507812 L 377.160156 175.351562 L 377.394531 176.199219 L 377.871094 177.902344 L 378.105469 178.757812 L 378.34375 179.617188 L 378.578125 180.472656 L 378.816406 181.332031 L 379.054688 182.1875 L 379.289062 183.042969 L 379.527344 183.890625 L 379.761719 184.738281 L 380 185.582031 L 380.238281 186.421875 L 380.472656 187.25 L 380.710938 188.078125 L 380.945312 188.894531 L 381.183594 189.707031 L 381.421875 190.511719 L 381.65625 191.300781 L 381.894531 192.085938 L 382.128906 192.859375 L 382.367188 193.621094 L 382.601562 194.375 L 382.839844 195.113281 L 383.078125 195.84375 L 383.3125 196.5625 L 383.550781 197.265625 L 383.785156 197.964844 L 384.023438 198.640625 L 384.261719 199.308594 L 384.496094 199.964844 L 384.734375 200.605469 L 384.96875 201.238281 L 385.207031 201.851562 L 385.445312 202.453125 L 385.679688 203.042969 L 385.917969 203.621094 L 386.152344 204.1875 L 386.390625 204.734375 L 386.628906 205.273438 L 386.863281 205.800781 L 387.101562 206.3125 L 387.335938 206.820312 L 387.574219 207.308594 L 387.8125 207.789062 L 388.046875 208.257812 L 388.285156 208.710938 L 388.519531 209.164062 L 388.757812 209.597656 L 388.992188 210.027344 L 389.230469 210.445312 L 389.46875 210.851562 L 389.703125 211.253906 L 389.941406 211.648438 L 390.175781 212.03125 L 390.414062 212.414062 L 390.652344 212.78125 L 390.886719 213.148438 L 391.125 213.507812 L 391.359375 213.859375 L 391.597656 214.207031 L 391.835938 214.550781 L 392.070312 214.890625 L 392.308594 215.226562 L 392.542969 215.558594 L 392.78125 215.886719 L 393.019531 216.210938 L 393.253906 216.535156 L 393.492188 216.855469 L 393.726562 217.171875 L 393.964844 217.492188 L 394.199219 217.804688 L 394.4375 218.121094 L 394.675781 218.433594 L 394.910156 218.75 L 395.148438 219.0625 L 395.382812 219.375 L 395.859375 220 L 396.09375 220.3125 L 396.332031 220.628906 L 396.566406 220.941406 L 397.042969 221.574219 L 397.277344 221.890625 L 397.515625 222.207031 L 397.75 222.523438 L 398.226562 223.164062 L 398.460938 223.480469 L 398.699219 223.804688 L 398.933594 224.125 L 399.171875 224.445312 L 399.40625 224.769531 L 399.644531 225.09375 L 399.882812 225.414062 L 400.117188 225.738281 L 400.355469 226.0625 L 400.589844 226.382812 L 401.066406 227.03125 L 401.300781 227.351562 L 401.539062 227.671875 L 401.773438 227.992188 L 402.011719 228.3125 L 402.25 228.628906 L 402.484375 228.945312 L 402.722656 229.257812 L 402.957031 229.570312 L 403.195312 229.882812 L 403.433594 230.191406 L 403.667969 230.496094 L 403.90625 230.800781 L 404.140625 231.101562 L 404.378906 231.398438 L 404.617188 231.691406 L 404.851562 231.984375 L 405.089844 232.269531 L 405.324219 232.554688 L 405.5625 232.835938 L 405.796875 233.113281 L 406.273438 233.652344 L 406.507812 233.917969 L 406.746094 234.175781 L 406.980469 234.433594 L 407.21875 234.683594 L 407.457031 234.929688 L 407.691406 235.171875 L 407.929688 235.40625 L 408.164062 235.640625 L 408.402344 235.867188 L 408.640625 236.089844 L 408.875 236.308594 L 409.113281 236.519531 L 409.347656 236.726562 L 409.824219 237.125 L 410.058594 237.316406 L 410.296875 237.5 L 410.53125 237.683594 L 410.769531 237.859375 L 411.003906 238.03125 L 411.242188 238.195312 L 411.480469 238.355469 L 411.714844 238.515625 L 411.953125 238.664062 L 412.1875 238.8125 L 412.425781 238.953125 L 412.664062 239.089844 L 412.898438 239.222656 L 413.136719 239.351562 L 413.371094 239.472656 L 413.609375 239.59375 L 413.847656 239.707031 L 414.082031 239.816406 L 414.320312 239.921875 L 414.554688 240.023438 L 414.792969 240.125 L 415.03125 240.21875 L 415.265625 240.308594 L 415.503906 240.394531 L 415.738281 240.476562 L 415.976562 240.558594 L 416.210938 240.632812 L 416.449219 240.707031 L 416.6875 240.777344 L 416.921875 240.839844 L 417.160156 240.90625 L 417.394531 240.964844 L 417.632812 241.023438 L 417.871094 241.078125 L 418.105469 241.128906 L 418.34375 241.179688 L 418.578125 241.226562 L 418.816406 241.273438 L 419.054688 241.316406 L 419.289062 241.355469 L 419.527344 241.394531 L 419.761719 241.429688 L 420.238281 241.5 L 420.472656 241.53125 "/>
<g fill="rgb(0%, 0%, 0%)" fill-opacity="1">
<use xlink:href="#glyph-0-1" x="309" y="140.732422"/>
<use xlink:href="#glyph-0-2" x="317" y="140.732422"/>
<use xlink:href="#glyph-0-3" x="325" y="140.732422"/>
<use xlink:href="#glyph-0-4" x="333" y="140.732422"/>
<use xlink:href="#glyph-0-5" x="346" y="140.732422"/>
<use xlink:href="#glyph-0-20" x="353" y="140.732422"/>
<use xlink:href="#glyph-0-2" x="361" y="140.732422"/>
<use xlink:href="#glyph-0-8" x="369" y="140.732422"/>
<use xlink:href="#glyph-0-17" x="377" y="140.732422"/>
<use xlink:href="#glyph-0-7" x="384" y="140.732422"/>
<use xlink:href="#glyph-0-9" x="388" y="140.732422"/>
<use xlink:href="#glyph-0-21" x="393" y="140.732422"/>
<use xlink:href="#glyph-0-10" x="401" y="140.732422"/>
<use xlink:href="#glyph-0-11" x="406" y="140.732422"/>
</g>
</svg>
