<?xml version="1.0" encoding="UTF-8"?>
<svg xmlns="http://www.w3.org/2000/svg" xmlns:xlink="http://www.w3.org/1999/xlink" width="756" height="360" viewBox="0 0 756 360">
<defs>
<g>
<g id="glyph-0-0">
<path d="M 0.28125 0 L 0.28125 -6.3125 L 5.296875 -6.3125 L 5.296875 0 Z M 4.5 -0.796875 L 4.5 -5.515625 L 1.078125 -5.515625 L 1.078125 -0.796875 Z M 4.5 -0.796875 "/>
</g>
<g id="glyph-0-1">
<path d="M 2.375 -6.15625 C 3.175781 -6.15625 3.753906 -5.828125 4.109375 -5.171875 C 4.378906 -4.660156 4.515625 -3.960938 4.515625 -3.078125 C 4.515625 -2.242188 4.390625 -1.554688 4.140625 -1.015625 C 3.785156 -0.222656 3.195312 0.171875 2.375 0.171875 C 1.632812 0.171875 1.082031 -0.148438 0.71875 -0.796875 C 0.425781 -1.328125 0.28125 -2.046875 0.28125 -2.953125 C 0.28125 -3.648438 0.367188 -4.25 0.546875 -4.75 C 0.878906 -5.6875 1.488281 -6.15625 2.375 -6.15625 Z M 2.375 -0.53125 C 2.769531 -0.53125 3.085938 -0.707031 3.328125 -1.0625 C 3.566406 -1.425781 3.6875 -2.085938 3.6875 -3.046875 C 3.6875 -3.753906 3.597656 -4.332031 3.421875 -4.78125 C 3.253906 -5.226562 2.921875 -5.453125 2.421875 -5.453125 C 1.972656 -5.453125 1.640625 -5.238281 1.421875 -4.8125 C 1.210938 -4.382812 1.109375 -3.753906 1.109375 -2.921875 C 1.109375 -2.296875 1.175781 -1.789062 1.3125 -1.40625 C 1.519531 -0.820312 1.875 -0.53125 2.375 -0.53125 Z M 2.375 -0.53125 "/>
</g>
<g id="glyph-0-2">
<path d="M 0.75 -0.9375 L 1.65625 -0.9375 L 1.65625 0 L 0.75 0 Z M 0.75 -0.9375 "/>
</g>
<g id="glyph-0-3">
<path d="M 0.28125 0 C 0.300781 -0.53125 0.40625 -0.988281 0.59375 -1.375 C 0.789062 -1.769531 1.164062 -2.128906 1.71875 -2.453125 L 2.546875 -2.921875 C 2.910156 -3.140625 3.164062 -3.328125 3.3125 -3.484375 C 3.550781 -3.710938 3.671875 -3.984375 3.671875 -4.296875 C 3.671875 -4.648438 3.5625 -4.929688 3.34375 -5.140625 C 3.132812 -5.359375 2.847656 -5.46875 2.484375 -5.46875 C 1.960938 -5.46875 1.597656 -5.265625 1.390625 -4.859375 C 1.285156 -4.648438 1.226562 -4.351562 1.21875 -3.96875 L 0.421875 -3.96875 C 0.429688 -4.5 0.53125 -4.9375 0.71875 -5.28125 C 1.050781 -5.875 1.644531 -6.171875 2.5 -6.171875 C 3.195312 -6.171875 3.707031 -5.976562 4.03125 -5.59375 C 4.363281 -5.21875 4.53125 -4.796875 4.53125 -4.328125 C 4.53125 -3.835938 4.351562 -3.414062 4 -3.0625 C 3.800781 -2.863281 3.441406 -2.617188 2.921875 -2.328125 L 2.34375 -2 C 2.0625 -1.84375 1.835938 -1.695312 1.671875 -1.5625 C 1.390625 -1.3125 1.210938 -1.035156 1.140625 -0.734375 L 4.5 -0.734375 L 4.5 0 Z M 0.28125 0 "/>
</g>
<g id="glyph-0-4">
<path d="M 1.09375 -1.5625 C 1.132812 -1.125 1.335938 -0.820312 1.703125 -0.65625 C 1.878906 -0.570312 2.09375 -0.53125 2.34375 -0.53125 C 2.800781 -0.53125 3.140625 -0.675781 3.359375 -0.96875 C 3.578125 -1.257812 3.6875 -1.582031 3.6875 -1.9375 C 3.6875 -2.363281 3.554688 -2.691406 3.296875 -2.921875 C 3.035156 -3.160156 2.71875 -3.28125 2.34375 -3.28125 C 2.082031 -3.28125 1.851562 -3.226562 1.65625 -3.125 C 1.46875 -3.019531 1.304688 -2.878906 1.171875 -2.703125 L 0.5 -2.734375 L 0.96875 -6.046875 L 4.171875 -6.046875 L 4.171875 -5.296875 L 1.5625 -5.296875 L 1.296875 -3.59375 C 1.429688 -3.695312 1.566406 -3.773438 1.703125 -3.828125 C 1.929688 -3.929688 2.195312 -3.984375 2.5 -3.984375 C 3.0625 -3.984375 3.535156 -3.800781 3.921875 -3.4375 C 4.316406 -3.070312 4.515625 -2.609375 4.515625 -2.046875 C 4.515625 -1.460938 4.332031 -0.945312 3.96875 -0.5 C 3.613281 -0.0625 3.046875 0.15625 2.265625 0.15625 C 1.753906 0.15625 1.304688 0.0117188 0.921875 -0.265625 C 0.546875 -0.546875 0.332031 -0.976562 0.28125 -1.5625 Z M 1.09375 -1.5625 "/>
</g>
<g id="glyph-0-5">
<path d="M 4.59375 -6.046875 L 4.59375 -5.375 C 4.394531 -5.175781 4.128906 -4.835938 3.796875 -4.359375 C 3.472656 -3.890625 3.1875 -3.378906 2.9375 -2.828125 C 2.6875 -2.296875 2.5 -1.8125 2.375 -1.375 C 2.289062 -1.082031 2.179688 -0.625 2.046875 0 L 1.203125 0 C 1.390625 -1.175781 1.816406 -2.34375 2.484375 -3.5 C 2.878906 -4.1875 3.289062 -4.773438 3.71875 -5.265625 L 0.328125 -5.265625 L 0.328125 -6.046875 Z M 4.59375 -6.046875 "/>
</g>
<g id="glyph-0-6">
<path d="M 0.84375 -4.359375 L 0.84375 -4.953125 C 1.394531 -5.003906 1.78125 -5.09375 2 -5.21875 C 2.226562 -5.34375 2.394531 -5.644531 2.5 -6.125 L 3.109375 -6.125 L 3.109375 0 L 2.296875 0 L 2.296875 -4.359375 Z M 0.84375 -4.359375 "/>
</g>
<g id="glyph-1-0">
<path d="M 0.359375 0 L 0.359375 -7.890625 L 6.625 -7.890625 L 6.625 0 Z M 5.625 -0.984375 L 5.625 -6.90625 L 1.34375 -6.90625 L 1.34375 -0.984375 Z M 5.625 -0.984375 "/>
</g>
<g id="glyph-1-1">
<path d="M 3.875 -0.90625 C 4.226562 -0.90625 4.523438 -0.945312 4.765625 -1.03125 C 5.171875 -1.164062 5.507812 -1.429688 5.78125 -1.828125 C 5.988281 -2.148438 6.140625 -2.5625 6.234375 -3.0625 C 6.285156 -3.351562 6.3125 -3.628906 6.3125 -3.890625 C 6.3125 -4.859375 6.117188 -5.613281 5.734375 -6.15625 C 5.347656 -6.695312 4.722656 -6.96875 3.859375 -6.96875 L 1.953125 -6.96875 L 1.953125 -0.90625 Z M 0.890625 -7.890625 L 4.078125 -7.890625 C 5.160156 -7.890625 6.003906 -7.503906 6.609375 -6.734375 C 7.140625 -6.035156 7.40625 -5.144531 7.40625 -4.0625 C 7.40625 -3.226562 7.25 -2.472656 6.9375 -1.796875 C 6.382812 -0.597656 5.429688 0 4.078125 0 L 0.890625 0 Z M 0.890625 -7.890625 "/>
</g>
<g id="glyph-1-2">
<path d="M 3.109375 -5.875 C 3.515625 -5.875 3.90625 -5.78125 4.28125 -5.59375 C 4.664062 -5.40625 4.960938 -5.15625 5.171875 -4.84375 C 5.359375 -4.5625 5.484375 -4.222656 5.546875 -3.828125 C 5.609375 -3.566406 5.640625 -3.144531 5.640625 -2.5625 L 1.421875 -2.5625 C 1.441406 -1.976562 1.578125 -1.507812 1.828125 -1.15625 C 2.085938 -0.8125 2.488281 -0.640625 3.03125 -0.640625 C 3.539062 -0.640625 3.945312 -0.804688 4.25 -1.140625 C 4.414062 -1.328125 4.535156 -1.550781 4.609375 -1.8125 L 5.5625 -1.8125 C 5.53125 -1.59375 5.441406 -1.351562 5.296875 -1.09375 C 5.160156 -0.832031 5.003906 -0.625 4.828125 -0.46875 C 4.535156 -0.175781 4.175781 0.0195312 3.75 0.125 C 3.507812 0.175781 3.242188 0.203125 2.953125 0.203125 C 2.234375 0.203125 1.625 -0.0546875 1.125 -0.578125 C 0.632812 -1.097656 0.390625 -1.828125 0.390625 -2.765625 C 0.390625 -3.691406 0.640625 -4.441406 1.140625 -5.015625 C 1.640625 -5.585938 2.296875 -5.875 3.109375 -5.875 Z M 4.640625 -3.328125 C 4.609375 -3.753906 4.519531 -4.09375 4.375 -4.34375 C 4.101562 -4.800781 3.660156 -5.03125 3.046875 -5.03125 C 2.597656 -5.03125 2.222656 -4.867188 1.921875 -4.546875 C 1.628906 -4.234375 1.472656 -3.828125 1.453125 -3.328125 Z M 3.015625 -5.890625 Z M 3.015625 -5.890625 "/>
</g>
<g id="glyph-1-3">
<path d="M 0.734375 -7.890625 L 1.703125 -7.890625 L 1.703125 0 L 0.734375 0 Z M 0.734375 -7.890625 "/>
</g>
<g id="glyph-1-4">
<path d="M 0.90625 -7.359375 L 1.875 -7.359375 L 1.875 -5.75 L 2.796875 -5.75 L 2.796875 -4.96875 L 1.875 -4.96875 L 1.875 -1.203125 C 1.875 -1.003906 1.941406 -0.875 2.078125 -0.8125 C 2.160156 -0.769531 2.285156 -0.75 2.453125 -0.75 C 2.503906 -0.75 2.554688 -0.75 2.609375 -0.75 C 2.660156 -0.75 2.722656 -0.753906 2.796875 -0.765625 L 2.796875 0 C 2.679688 0.03125 2.5625 0.0507812 2.4375 0.0625 C 2.320312 0.0820312 2.195312 0.09375 2.0625 0.09375 C 1.613281 0.09375 1.304688 -0.0195312 1.140625 -0.25 C 0.984375 -0.488281 0.90625 -0.789062 0.90625 -1.15625 L 0.90625 -4.96875 L 0.125 -4.96875 L 0.125 -5.75 L 0.90625 -5.75 Z M 0.90625 -7.359375 "/>
</g>
<g id="glyph-1-5">
<path d="M 1.453125 -1.53125 C 1.453125 -1.25 1.550781 -1.023438 1.75 -0.859375 C 1.957031 -0.703125 2.203125 -0.625 2.484375 -0.625 C 2.816406 -0.625 3.144531 -0.703125 3.46875 -0.859375 C 4.007812 -1.117188 4.28125 -1.550781 4.28125 -2.15625 L 4.28125 -2.921875 C 4.15625 -2.847656 4 -2.785156 3.8125 -2.734375 C 3.632812 -2.691406 3.453125 -2.65625 3.265625 -2.625 L 2.6875 -2.5625 C 2.332031 -2.507812 2.066406 -2.4375 1.890625 -2.34375 C 1.597656 -2.164062 1.453125 -1.894531 1.453125 -1.53125 Z M 3.796875 -3.484375 C 4.015625 -3.515625 4.160156 -3.609375 4.234375 -3.765625 C 4.273438 -3.847656 4.296875 -3.972656 4.296875 -4.140625 C 4.296875 -4.460938 4.175781 -4.695312 3.9375 -4.84375 C 3.707031 -5 3.375 -5.078125 2.9375 -5.078125 C 2.4375 -5.078125 2.082031 -4.941406 1.875 -4.671875 C 1.75 -4.515625 1.671875 -4.289062 1.640625 -4 L 0.734375 -4 C 0.753906 -4.707031 0.984375 -5.195312 1.421875 -5.46875 C 1.867188 -5.75 2.382812 -5.890625 2.96875 -5.890625 C 3.644531 -5.890625 4.191406 -5.757812 4.609375 -5.5 C 5.035156 -5.25 5.25 -4.847656 5.25 -4.296875 L 5.25 -0.984375 C 5.25 -0.890625 5.265625 -0.8125 5.296875 -0.75 C 5.335938 -0.6875 5.425781 -0.65625 5.5625 -0.65625 C 5.601562 -0.65625 5.648438 -0.65625 5.703125 -0.65625 C 5.765625 -0.664062 5.820312 -0.675781 5.875 -0.6875 L 5.875 0.03125 C 5.726562 0.0703125 5.613281 0.0976562 5.53125 0.109375 C 5.457031 0.117188 5.351562 0.125 5.21875 0.125 C 4.882812 0.125 4.640625 0.00390625 4.484375 -0.234375 C 4.410156 -0.359375 4.359375 -0.535156 4.328125 -0.765625 C 4.128906 -0.503906 3.84375 -0.28125 3.46875 -0.09375 C 3.101562 0.0898438 2.695312 0.1875 2.25 0.1875 C 1.71875 0.1875 1.28125 0.0234375 0.9375 -0.296875 C 0.601562 -0.617188 0.4375 -1.023438 0.4375 -1.515625 C 0.4375 -2.046875 0.601562 -2.457031 0.9375 -2.75 C 1.269531 -3.039062 1.707031 -3.222656 2.25 -3.296875 Z M 2.984375 -5.890625 Z M 2.984375 -5.890625 "/>
</g>
<g id="glyph-1-6">
</g>
<g id="glyph-1-7">
<path d="M 4.296875 -5.75 L 5.375 -5.75 C 5.238281 -5.382812 4.9375 -4.546875 4.46875 -3.234375 C 4.113281 -2.242188 3.816406 -1.4375 3.578125 -0.8125 C 3.023438 0.652344 2.632812 1.550781 2.40625 1.875 C 2.175781 2.195312 1.78125 2.359375 1.21875 2.359375 C 1.082031 2.359375 0.976562 2.351562 0.90625 2.34375 C 0.832031 2.332031 0.742188 2.3125 0.640625 2.28125 L 0.640625 1.40625 C 0.804688 1.445312 0.925781 1.472656 1 1.484375 C 1.070312 1.492188 1.140625 1.5 1.203125 1.5 C 1.378906 1.5 1.507812 1.46875 1.59375 1.40625 C 1.675781 1.351562 1.75 1.285156 1.8125 1.203125 C 1.820312 1.171875 1.882812 1.019531 2 0.75 C 2.113281 0.488281 2.191406 0.296875 2.234375 0.171875 L 0.109375 -5.75 L 1.203125 -5.75 L 2.75 -1.0625 Z M 2.75 -5.890625 Z M 2.75 -5.890625 "/>
</g>
<g id="glyph-1-8">
<path d="M 2.5 -7.890625 L 3.3125 -7.890625 L 0.8125 0 L 0 0 Z M 2.5 -7.890625 "/>
</g>
<g id="glyph-1-9">
<path d="M 2.96875 -7.6875 C 3.96875 -7.6875 4.691406 -7.28125 5.140625 -6.46875 C 5.484375 -5.832031 5.65625 -4.960938 5.65625 -3.859375 C 5.65625 -2.804688 5.5 -1.941406 5.1875 -1.265625 C 4.726562 -0.285156 3.988281 0.203125 2.96875 0.203125 C 2.039062 0.203125 1.351562 -0.195312 0.90625 -1 C 0.53125 -1.664062 0.34375 -2.5625 0.34375 -3.6875 C 0.34375 -4.5625 0.457031 -5.3125 0.6875 -5.9375 C 1.101562 -7.101562 1.863281 -7.6875 2.96875 -7.6875 Z M 2.96875 -0.671875 C 3.46875 -0.671875 3.863281 -0.890625 4.15625 -1.328125 C 4.457031 -1.773438 4.609375 -2.601562 4.609375 -3.8125 C 4.609375 -4.6875 4.5 -5.40625 4.28125 -5.96875 C 4.070312 -6.539062 3.65625 -6.828125 3.03125 -6.828125 C 2.46875 -6.828125 2.050781 -6.554688 1.78125 -6.015625 C 1.519531 -5.484375 1.390625 -4.695312 1.390625 -3.65625 C 1.390625 -2.863281 1.472656 -2.234375 1.640625 -1.765625 C 1.898438 -1.035156 2.34375 -0.671875 2.96875 -0.671875 Z M 2.96875 -0.671875 "/>
</g>
<g id="glyph-2-0">
<path d="M 0 -0.359375 L -7.890625 -0.359375 L -7.890625 -6.625 L 0 -6.625 Z M -0.984375 -5.625 L -6.90625 -5.625 L -6.90625 -1.34375 L -0.984375 -1.34375 Z M -0.984375 -5.625 "/>
</g>
<g id="glyph-2-1">
<path d="M -5.75 -4.296875 L -5.75 -5.375 C -5.382812 -5.238281 -4.546875 -4.9375 -3.234375 -4.46875 C -2.242188 -4.113281 -1.4375 -3.816406 -0.8125 -3.578125 C 0.652344 -3.023438 1.550781 -2.632812 1.875 -2.40625 C 2.195312 -2.175781 2.359375 -1.78125 2.359375 -1.21875 C 2.359375 -1.082031 2.351562 -0.976562 2.34375 -0.90625 C 2.332031 -0.832031 2.3125 -0.742188 2.28125 -0.640625 L 1.40625 -0.640625 C 1.445312 -0.804688 1.472656 -0.925781 1.484375 -1 C 1.492188 -1.070312 1.5 -1.140625 1.5 -1.203125 C 1.5 -1.378906 1.46875 -1.507812 1.40625 -1.59375 C 1.351562 -1.675781 1.285156 -1.75 1.203125 -1.8125 C 1.171875 -1.820312 1.019531 -1.882812 0.75 -2 C 0.488281 -2.113281 0.296875 -2.191406 0.171875 -2.234375 L -5.75 -0.109375 L -5.75 -1.203125 L -1.0625 -2.75 Z M -5.890625 -2.75 Z M -5.890625 -2.75 "/>
</g>
</g>
<clipPath id="clip-0">
<path clip-rule="nonzero" d="M 41.152344 5.480469 L 750.523438 5.480469 L 750.523438 326.851562 L 41.152344 326.851562 Z M 41.152344 5.480469 "/>
</clipPath>
<clipPath id="clip-1">
<path clip-rule="nonzero" d="M 41.152344 275 L 750.523438 275 L 750.523438 276 L 41.152344 276 Z M 41.152344 275 "/>
</clipPath>
<clipPath id="clip-2">
<path clip-rule="nonzero" d="M 41.152344 202 L 750.523438 202 L 750.523438 203 L 41.152344 203 Z M 41.152344 202 "/>
</clipPath>
<clipPath id="clip-3">
<path clip-rule="nonzero" d="M 41.152344 129 L 750.523438 129 L 750.523438 130 L 41.152344 130 Z M 41.152344 129 "/>
</clipPath>
<clipPath id="clip-4">
<path clip-rule="nonzero" d="M 41.152344 56 L 750.523438 56 L 750.523438 57 L 41.152344 57 Z M 41.152344 56 "/>
</clipPath>
<clipPath id="clip-5">
<path clip-rule="nonzero" d="M 153 5.480469 L 155 5.480469 L 155 326.851562 L 153 326.851562 Z M 153 5.480469 "/>
</clipPath>
<clipPath id="clip-6">
<path clip-rule="nonzero" d="M 314 5.480469 L 316 5.480469 L 316 326.851562 L 314 326.851562 Z M 314 5.480469 "/>
</clipPath>
<clipPath id="clip-7">
<path clip-rule="nonzero" d="M 476 5.480469 L 477 5.480469 L 477 326.851562 L 476 326.851562 Z M 476 5.480469 "/>
</clipPath>
<clipPath id="clip-8">
<path clip-rule="nonzero" d="M 637 5.480469 L 638 5.480469 L 638 326.851562 L 637 326.851562 Z M 637 5.480469 "/>
</clipPath>
<clipPath id="clip-9">
<path clip-rule="nonzero" d="M 41.152344 311 L 750.523438 311 L 750.523438 313 L 41.152344 313 Z M 41.152344 311 "/>
</clipPath>
<clipPath id="clip-10">
<path clip-rule="nonzero" d="M 41.152344 238 L 750.523438 238 L 750.523438 240 L 41.152344 240 Z M 41.152344 238 "/>
</clipPath>
<clipPath id="clip-11">
<path clip-rule="nonzero" d="M 41.152344 165 L 750.523438 165 L 750.523438 167 L 41.152344 167 Z M 41.152344 165 "/>
</clipPath>
<clipPath id="clip-12">
<path clip-rule="nonzero" d="M 41.152344 92 L 750.523438 92 L 750.523438 94 L 41.152344 94 Z M 41.152344 92 "/>
</clipPath>
<clipPath id="clip-13">
<path clip-rule="nonzero" d="M 41.152344 19 L 750.523438 19 L 750.523438 21 L 41.152344 21 Z M 41.152344 19 "/>
</clipPath>
<clipPath id="clip-14">
<path clip-rule="nonzero" d="M 72 5.480469 L 74 5.480469 L 74 326.851562 L 72 326.851562 Z M 72 5.480469 "/>
</clipPath>
<clipPath id="clip-15">
<path clip-rule="nonzero" d="M 234 5.480469 L 236 5.480469 L 236 326.851562 L 234 326.851562 Z M 234 5.480469 "/>
</clipPath>
<clipPath id="clip-16">
<path clip-rule="nonzero" d="M 395 5.480469 L 397 5.480469 L 397 326.851562 L 395 326.851562 Z M 395 5.480469 "/>
</clipPath>
<clipPath id="clip-17">
<path clip-rule="nonzero" d="M 556 5.480469 L 558 5.480469 L 558 326.851562 L 556 326.851562 Z M 556 5.480469 "/>
</clipPath>
<clipPath id="clip-18">
<path clip-rule="nonzero" d="M 717 5.480469 L 719 5.480469 L 719 326.851562 L 717 326.851562 Z M 717 5.480469 "/>
</clipPath>
<clipPath id="clip-19">
<path clip-rule="nonzero" d="M 41.152344 5.480469 L 750.523438 5.480469 L 750.523438 326.851562 L 41.152344 326.851562 Z M 41.152344 5.480469 "/>
</clipPath>
</defs>
<rect x="-75.6" y="-36" width="907.2" height="432" fill="rgb(100%, 100%, 100%)" fill-opacity="1"/>
<rect x="-75.6" y="-36" width="907.2" height="432" fill="rgb(100%, 100%, 100%)" fill-opacity="1"/>
<path fill="none" stroke-width="1.066978" stroke-linecap="round" stroke-linejoin="round" stroke="rgb(100%, 100%, 100%)" stroke-opacity="1" stroke-miterlimit="10" d="M 0 360 L 756 360 L 756 0 L 0 0 Z M 0 360 "/>
<g clip-path="url(#clip-0)">
<path fill-rule="nonzero" fill="rgb(100%, 100%, 100%)" fill-opacity="1" d="M 41.152344 326.847656 L 750.523438 326.847656 L 750.523438 5.476562 L 41.152344 5.476562 Z M 41.152344 326.847656 "/>
</g>
<g clip-path="url(#clip-1)">
<path fill="none" stroke-width="0.533489" stroke-linecap="butt" stroke-linejoin="round" stroke="rgb(92.156863%, 92.156863%, 92.156863%)" stroke-opacity="1" stroke-miterlimit="10" d="M 41.152344 275.722656 L 750.519531 275.722656 "/>
</g>
<g clip-path="url(#clip-2)">
<path fill="none" stroke-width="0.533489" stroke-linecap="butt" stroke-linejoin="round" stroke="rgb(92.156863%, 92.156863%, 92.156863%)" stroke-opacity="1" stroke-miterlimit="10" d="M 41.152344 202.683594 L 750.519531 202.683594 "/>
</g>
<g clip-path="url(#clip-3)">
<path fill="none" stroke-width="0.533489" stroke-linecap="butt" stroke-linejoin="round" stroke="rgb(92.156863%, 92.156863%, 92.156863%)" stroke-opacity="1" stroke-miterlimit="10" d="M 41.152344 129.644531 L 750.519531 129.644531 "/>
</g>
<g clip-path="url(#clip-4)">
<path fill="none" stroke-width="0.533489" stroke-linecap="butt" stroke-linejoin="round" stroke="rgb(92.156863%, 92.156863%, 92.156863%)" stroke-opacity="1" stroke-miterlimit="10" d="M 41.152344 56.605469 L 750.519531 56.605469 "/>
</g>
<g clip-path="url(#clip-5)">
<path fill="none" stroke-width="0.533489" stroke-linecap="butt" stroke-linejoin="round" stroke="rgb(92.156863%, 92.156863%, 92.156863%)" stroke-opacity="1" stroke-miterlimit="10" d="M 154.003906 326.847656 L 154.003906 5.480469 "/>
</g>
<g clip-path="url(#clip-6)">
<path fill="none" stroke-width="0.533489" stroke-linecap="butt" stroke-linejoin="round" stroke="rgb(92.156863%, 92.156863%, 92.156863%)" stroke-opacity="1" stroke-miterlimit="10" d="M 315.226562 326.847656 L 315.226562 5.480469 "/>
</g>
<g clip-path="url(#clip-7)">
<path fill="none" stroke-width="0.533489" stroke-linecap="butt" stroke-linejoin="round" stroke="rgb(92.156863%, 92.156863%, 92.156863%)" stroke-opacity="1" stroke-miterlimit="10" d="M 476.445312 326.847656 L 476.445312 5.480469 "/>
</g>
<g clip-path="url(#clip-8)">
<path fill="none" stroke-width="0.533489" stroke-linecap="butt" stroke-linejoin="round" stroke="rgb(92.156863%, 92.156863%, 92.156863%)" stroke-opacity="1" stroke-miterlimit="10" d="M 637.667969 326.847656 L 637.667969 5.480469 "/>
</g>
<g clip-path="url(#clip-9)">
<path fill="none" stroke-width="1.066978" stroke-linecap="butt" stroke-linejoin="round" stroke="rgb(92.156863%, 92.156863%, 92.156863%)" stroke-opacity="1" stroke-miterlimit="10" d="M 41.152344 312.242188 L 750.519531 312.242188 "/>
</g>
<g clip-path="url(#clip-10)">
<path fill="none" stroke-width="1.066978" stroke-linecap="butt" stroke-linejoin="round" stroke="rgb(92.156863%, 92.156863%, 92.156863%)" stroke-opacity="1" stroke-miterlimit="10" d="M 41.152344 239.203125 L 750.519531 239.203125 "/>
</g>
<g clip-path="url(#clip-11)">
<path fill="none" stroke-width="1.066978" stroke-linecap="butt" stroke-linejoin="round" stroke="rgb(92.156863%, 92.156863%, 92.156863%)" stroke-opacity="1" stroke-miterlimit="10" d="M 41.152344 166.164062 L 750.519531 166.164062 "/>
</g>
<g clip-path="url(#clip-12)">
<path fill="none" stroke-width="1.066978" stroke-linecap="butt" stroke-linejoin="round" stroke="rgb(92.156863%, 92.156863%, 92.156863%)" stroke-opacity="1" stroke-miterlimit="10" d="M 41.152344 93.125 L 750.519531 93.125 "/>
</g>
<g clip-path="url(#clip-13)">
<path fill="none" stroke-width="1.066978" stroke-linecap="butt" stroke-linejoin="round" stroke="rgb(92.156863%, 92.156863%, 92.156863%)" stroke-opacity="1" stroke-miterlimit="10" d="M 41.152344 20.085938 L 750.519531 20.085938 "/>
</g>
<g clip-path="url(#clip-14)">
<path fill="none" stroke-width="1.066978" stroke-linecap="butt" stroke-linejoin="round" stroke="rgb(92.156863%, 92.156863%, 92.156863%)" stroke-opacity="1" stroke-miterlimit="10" d="M 73.394531 326.847656 L 73.394531 5.480469 "/>
</g>
<g clip-path="url(#clip-15)">
<path fill="none" stroke-width="1.066978" stroke-linecap="butt" stroke-linejoin="round" stroke="rgb(92.156863%, 92.156863%, 92.156863%)" stroke-opacity="1" stroke-miterlimit="10" d="M 234.613281 326.847656 L 234.613281 5.480469 "/>
</g>
<g clip-path="url(#clip-16)">
<path fill="none" stroke-width="1.066978" stroke-linecap="butt" stroke-linejoin="round" stroke="rgb(92.156863%, 92.156863%, 92.156863%)" stroke-opacity="1" stroke-miterlimit="10" d="M 395.835938 326.847656 L 395.835938 5.480469 "/>
</g>
<g clip-path="url(#clip-17)">
<path fill="none" stroke-width="1.066978" stroke-linecap="butt" stroke-linejoin="round" stroke="rgb(92.156863%, 92.156863%, 92.156863%)" stroke-opacity="1" stroke-miterlimit="10" d="M 557.054688 326.847656 L 557.054688 5.480469 "/>
</g>
<g clip-path="url(#clip-18)">
<path fill="none" stroke-width="1.066978" stroke-linecap="butt" stroke-linejoin="round" stroke="rgb(92.156863%, 92.156863%, 92.156863%)" stroke-opacity="1" stroke-miterlimit="10" d="M 718.277344 326.847656 L 718.277344 5.480469 "/>
</g>
<path fill="none" stroke-width="1.066978" stroke-linecap="butt" stroke-linejoin="round" stroke="rgb(0%, 0%, 0%)" stroke-opacity="1" stroke-miterlimit="10" d="M 73.394531 312.242188 L 79.84375 309.335938 L 86.292969 306.457031 L 92.742188 303.605469 L 99.191406 300.78125 L 105.640625 297.988281 L 112.085938 295.21875 L 118.535156 292.476562 L 124.984375 289.757812 L 131.433594 287.0625 L 137.882812 284.394531 L 144.332031 281.753906 L 150.78125 279.132812 L 157.230469 276.535156 L 163.679688 273.960938 L 170.128906 271.410156 L 176.574219 268.878906 L 183.023438 266.371094 L 189.472656 263.886719 L 195.921875 261.421875 L 202.371094 258.976562 L 208.820312 256.550781 L 215.269531 254.144531 L 221.71875 251.761719 L 228.167969 249.394531 L 234.613281 247.050781 L 241.0625 244.722656 L 247.511719 242.410156 L 253.960938 240.121094 L 260.410156 237.847656 L 266.859375 235.589844 L 273.308594 233.351562 L 279.757812 231.128906 L 286.207031 228.925781 L 292.65625 226.738281 L 299.101562 224.566406 L 305.550781 222.410156 L 312 220.269531 L 318.449219 218.144531 L 324.898438 216.035156 L 331.347656 213.941406 L 337.796875 211.859375 L 344.246094 209.796875 L 350.695312 207.746094 L 357.144531 205.710938 L 363.589844 203.6875 L 370.039062 201.679688 L 376.488281 199.683594 L 382.9375 197.703125 L 389.386719 195.738281 L 395.835938 193.78125 L 402.285156 191.84375 L 408.734375 189.914062 L 415.183594 187.996094 L 421.632812 186.09375 L 428.078125 184.203125 L 434.527344 182.324219 L 440.976562 180.457031 L 447.425781 178.601562 L 453.875 176.757812 L 460.324219 174.929688 L 466.773438 173.109375 L 473.222656 171.296875 L 479.671875 169.5 L 486.117188 167.714844 L 492.566406 165.9375 L 499.015625 164.171875 L 505.464844 162.417969 L 511.914062 160.671875 L 518.363281 158.941406 L 524.8125 157.214844 L 531.261719 155.503906 L 537.710938 153.800781 L 544.160156 152.105469 L 550.605469 150.421875 L 557.054688 148.746094 L 563.503906 147.082031 L 569.953125 145.425781 L 576.402344 143.78125 L 582.851562 142.144531 L 589.300781 140.515625 L 595.75 138.898438 L 602.199219 137.289062 L 608.648438 135.6875 L 615.09375 134.097656 L 621.542969 132.511719 L 627.992188 130.9375 L 634.441406 129.371094 L 640.890625 127.8125 L 647.339844 126.261719 L 653.789062 124.722656 L 660.238281 123.1875 L 666.6875 121.660156 L 673.132812 120.144531 L 679.582031 118.632812 L 686.03125 117.132812 L 692.480469 115.636719 L 698.929688 114.152344 L 705.378906 112.671875 L 711.828125 111.199219 L 718.277344 109.734375 "/>
<path fill="none" stroke-width="1.066978" stroke-linecap="butt" stroke-linejoin="round" stroke="rgb(0%, 0%, 0%)" stroke-opacity="1" stroke-dasharray="4.267913 4.267913" stroke-miterlimit="10" d="M 73.394531 312.242188 L 105.640625 297.632812 L 112.085938 294.710938 L 118.535156 291.789062 L 124.984375 288.871094 L 170.128906 268.417969 L 176.574219 265.496094 L 195.921875 256.730469 L 202.371094 253.8125 L 228.167969 242.125 L 234.613281 239.203125 L 273.308594 221.671875 L 279.757812 218.753906 L 292.65625 212.910156 L 299.101562 209.988281 L 350.695312 186.613281 L 357.144531 183.695312 L 363.589844 180.773438 L 421.632812 154.476562 L 428.078125 151.558594 L 479.671875 128.183594 L 486.117188 125.261719 L 499.015625 119.417969 L 505.464844 116.5 L 544.160156 98.96875 L 550.605469 96.046875 L 576.402344 84.359375 L 582.851562 81.441406 L 608.648438 69.753906 L 615.09375 66.832031 L 653.789062 49.300781 L 660.238281 46.382812 L 666.6875 43.460938 L 673.132812 40.539062 L 718.277344 20.085938 "/>
<g clip-path="url(#clip-19)">
<path fill="none" stroke-width="1.066978" stroke-linecap="round" stroke-linejoin="round" stroke="rgb(20%, 20%, 20%)" stroke-opacity="1" stroke-miterlimit="10" d="M 41.152344 326.847656 L 750.523438 326.847656 L 750.523438 5.476562 L 41.152344 5.476562 Z M 41.152344 326.847656 "/>
</g>
<g fill="rgb(30.196078%, 30.196078%, 30.196078%)" fill-opacity="1">
<use xlink:href="#glyph-0-1" x="19.21875" y="315.518555"/>
<use xlink:href="#glyph-0-2" x="24.21875" y="315.518555"/>
<use xlink:href="#glyph-0-1" x="26.21875" y="315.518555"/>
<use xlink:href="#glyph-0-1" x="31.21875" y="315.518555"/>
</g>
<g fill="rgb(30.196078%, 30.196078%, 30.196078%)" fill-opacity="1">
<use xlink:href="#glyph-0-1" x="19.21875" y="242.479492"/>
<use xlink:href="#glyph-0-2" x="24.21875" y="242.479492"/>
<use xlink:href="#glyph-0-3" x="26.21875" y="242.479492"/>
<use xlink:href="#glyph-0-4" x="31.21875" y="242.479492"/>
</g>
<g fill="rgb(30.196078%, 30.196078%, 30.196078%)" fill-opacity="1">
<use xlink:href="#glyph-0-1" x="19.21875" y="169.44043"/>
<use xlink:href="#glyph-0-2" x="24.21875" y="169.44043"/>
<use xlink:href="#glyph-0-4" x="26.21875" y="169.44043"/>
<use xlink:href="#glyph-0-1" x="31.21875" y="169.44043"/>
</g>
<g fill="rgb(30.196078%, 30.196078%, 30.196078%)" fill-opacity="1">
<use xlink:href="#glyph-0-1" x="19.21875" y="96.401367"/>
<use xlink:href="#glyph-0-2" x="24.21875" y="96.401367"/>
<use xlink:href="#glyph-0-5" x="26.21875" y="96.401367"/>
<use xlink:href="#glyph-0-4" x="31.21875" y="96.401367"/>
</g>
<g fill="rgb(30.196078%, 30.196078%, 30.196078%)" fill-opacity="1">
<use xlink:href="#glyph-0-6" x="19.21875" y="23.362305"/>
<use xlink:href="#glyph-0-2" x="24.21875" y="23.362305"/>
<use xlink:href="#glyph-0-1" x="26.21875" y="23.362305"/>
<use xlink:href="#glyph-0-1" x="31.21875" y="23.362305"/>
</g>
<path fill="none" stroke-width="1.066978" stroke-linecap="butt" stroke-linejoin="round" stroke="rgb(20%, 20%, 20%)" stroke-opacity="1" stroke-miterlimit="10" d="M 38.410156 312.242188 L 41.152344 312.242188 "/>
<path fill="none" stroke-width="1.066978" stroke-linecap="butt" stroke-linejoin="round" stroke="rgb(20%, 20%, 20%)" stroke-opacity="1" stroke-miterlimit="10" d="M 38.410156 239.203125 L 41.152344 239.203125 "/>
<path fill="none" stroke-width="1.066978" stroke-linecap="butt" stroke-linejoin="round" stroke="rgb(20%, 20%, 20%)" stroke-opacity="1" stroke-miterlimit="10" d="M 38.410156 166.164062 L 41.152344 166.164062 "/>
<path fill="none" stroke-width="1.066978" stroke-linecap="butt" stroke-linejoin="round" stroke="rgb(20%, 20%, 20%)" stroke-opacity="1" stroke-miterlimit="10" d="M 38.410156 93.125 L 41.152344 93.125 "/>
<path fill="none" stroke-width="1.066978" stroke-linecap="butt" stroke-linejoin="round" stroke="rgb(20%, 20%, 20%)" stroke-opacity="1" stroke-miterlimit="10" d="M 38.410156 20.085938 L 41.152344 20.085938 "/>
<path fill="none" stroke-width="1.066978" stroke-linecap="butt" stroke-linejoin="round" stroke="rgb(20%, 20%, 20%)" stroke-opacity="1" stroke-miterlimit="10" d="M 73.394531 329.589844 L 73.394531 326.847656 "/>
<path fill="none" stroke-width="1.066978" stroke-linecap="butt" stroke-linejoin="round" stroke="rgb(20%, 20%, 20%)" stroke-opacity="1" stroke-miterlimit="10" d="M 234.613281 329.589844 L 234.613281 326.847656 "/>
<path fill="none" stroke-width="1.066978" stroke-linecap="butt" stroke-linejoin="round" stroke="rgb(20%, 20%, 20%)" stroke-opacity="1" stroke-miterlimit="10" d="M 395.835938 329.589844 L 395.835938 326.847656 "/>
<path fill="none" stroke-width="1.066978" stroke-linecap="butt" stroke-linejoin="round" stroke="rgb(20%, 20%, 20%)" stroke-opacity="1" stroke-miterlimit="10" d="M 557.054688 329.589844 L 557.054688 326.847656 "/>
<path fill="none" stroke-width="1.066978" stroke-linecap="butt" stroke-linejoin="round" stroke="rgb(20%, 20%, 20%)" stroke-opacity="1" stroke-miterlimit="10" d="M 718.277344 329.589844 L 718.277344 326.847656 "/>
<g fill="rgb(30.196078%, 30.196078%, 30.196078%)" fill-opacity="1">
<use xlink:href="#glyph-0-1" x="64.894531" y="338.557617"/>
<use xlink:href="#glyph-0-2" x="69.894531" y="338.557617"/>
<use xlink:href="#glyph-0-1" x="71.894531" y="338.557617"/>
<use xlink:href="#glyph-0-1" x="76.894531" y="338.557617"/>
</g>
<g fill="rgb(30.196078%, 30.196078%, 30.196078%)" fill-opacity="1">
<use xlink:href="#glyph-0-1" x="226.113281" y="338.557617"/>
<use xlink:href="#glyph-0-2" x="231.113281" y="338.557617"/>
<use xlink:href="#glyph-0-3" x="233.113281" y="338.557617"/>
<use xlink:href="#glyph-0-4" x="238.113281" y="338.557617"/>
</g>
<g fill="rgb(30.196078%, 30.196078%, 30.196078%)" fill-opacity="1">
<use xlink:href="#glyph-0-1" x="387.335938" y="338.557617"/>
<use xlink:href="#glyph-0-2" x="392.335938" y="338.557617"/>
<use xlink:href="#glyph-0-4" x="394.335938" y="338.557617"/>
<use xlink:href="#glyph-0-1" x="399.335938" y="338.557617"/>
</g>
<g fill="rgb(30.196078%, 30.196078%, 30.196078%)" fill-opacity="1">
<use xlink:href="#glyph-0-1" x="548.554688" y="338.557617"/>
<use xlink:href="#glyph-0-2" x="553.554688" y="338.557617"/>
<use xlink:href="#glyph-0-5" x="555.554688" y="338.557617"/>
<use xlink:href="#glyph-0-4" x="560.554688" y="338.557617"/>
</g>
<g fill="rgb(30.196078%, 30.196078%, 30.196078%)" fill-opacity="1">
<use xlink:href="#glyph-0-6" x="709.777344" y="338.557617"/>
<use xlink:href="#glyph-0-2" x="714.777344" y="338.557617"/>
<use xlink:href="#glyph-0-1" x="716.777344" y="338.557617"/>
<use xlink:href="#glyph-0-1" x="721.777344" y="338.557617"/>
</g>
<g fill="rgb(0%, 0%, 0%)" fill-opacity="1">
<use xlink:href="#glyph-1-1" x="368.335938" y="350.990234"/>
<use xlink:href="#glyph-1-2" x="376.335938" y="350.990234"/>
<use xlink:href="#glyph-1-3" x="382.335938" y="350.990234"/>
<use xlink:href="#glyph-1-4" x="384.335938" y="350.990234"/>
<use xlink:href="#glyph-1-5" x="387.335938" y="350.990234"/>
<use xlink:href="#glyph-1-6" x="393.335938" y="350.990234"/>
<use xlink:href="#glyph-1-7" x="396.335938" y="350.990234"/>
<use xlink:href="#glyph-1-6" x="402.335938" y="350.990234"/>
<use xlink:href="#glyph-1-8" x="405.335938" y="350.990234"/>
<use xlink:href="#glyph-1-6" x="408.335938" y="350.990234"/>
<use xlink:href="#glyph-1-7" x="411.335938" y="350.990234"/>
<use xlink:href="#glyph-1-9" x="417.335938" y="350.990234"/>
</g>
<g fill="rgb(0%, 0%, 0%)" fill-opacity="1">
<use xlink:href="#glyph-2-1" x="12.951172" y="169.164062"/>
</g>
</svg>
