<?xml version="1.0" encoding="UTF-8"?>
<svg xmlns="http://www.w3.org/2000/svg" xmlns:xlink="http://www.w3.org/1999/xlink" width="576" height="360" viewBox="0 0 576 360">
<defs>
<g>
<g id="glyph-0-0">
<path d="M 0.859375 -8.1875 L 7.453125 -8.1875 L 7.453125 0 L 0.859375 0 Z M 6.421875 -1.015625 L 6.421875 -7.171875 L 1.875 -7.171875 L 1.875 -1.015625 Z M 6.421875 -1.015625 "/>
</g>
<g id="glyph-0-1">
<path d="M 5.65625 -1.6875 L 2.640625 -1.6875 L 2.078125 0 L 0.28125 0 L 3.203125 -8.1875 L 5.140625 -8.1875 L 8.046875 0 L 6.1875 0 Z M 5.1875 -3.09375 L 4.15625 -6.3125 L 3.109375 -3.09375 Z M 5.1875 -3.09375 "/>
</g>
<g id="glyph-0-2">
<path d="M 4.609375 0 L 0.890625 0 L 0.890625 -8.1875 L 4.875 -8.1875 C 5.875 -8.175781 6.582031 -7.882812 7 -7.3125 C 7.25 -6.96875 7.375 -6.550781 7.375 -6.0625 C 7.375 -5.5625 7.25 -5.160156 7 -4.859375 C 6.863281 -4.691406 6.65625 -4.535156 6.375 -4.390625 C 6.800781 -4.242188 7.117188 -4.003906 7.328125 -3.671875 C 7.535156 -3.335938 7.640625 -2.9375 7.640625 -2.46875 C 7.640625 -1.988281 7.519531 -1.554688 7.28125 -1.171875 C 7.125 -0.910156 6.929688 -0.691406 6.703125 -0.515625 C 6.429688 -0.316406 6.117188 -0.179688 5.765625 -0.109375 C 5.410156 -0.0351562 5.023438 0 4.609375 0 Z M 4.5625 -3.609375 L 2.53125 -3.609375 L 2.53125 -1.421875 L 4.53125 -1.421875 C 4.894531 -1.421875 5.175781 -1.46875 5.375 -1.5625 C 5.738281 -1.738281 5.921875 -2.082031 5.921875 -2.59375 C 5.921875 -3.019531 5.742188 -3.3125 5.390625 -3.46875 C 5.191406 -3.550781 4.914062 -3.597656 4.5625 -3.609375 Z M 5.421875 -5.171875 C 5.640625 -5.296875 5.75 -5.53125 5.75 -5.875 C 5.75 -6.257812 5.597656 -6.515625 5.296875 -6.640625 C 5.046875 -6.722656 4.722656 -6.765625 4.328125 -6.765625 L 2.53125 -6.765625 L 2.53125 -4.953125 L 4.53125 -4.953125 C 4.894531 -4.953125 5.191406 -5.023438 5.421875 -5.171875 Z M 5.421875 -5.171875 "/>
</g>
<g id="glyph-0-3">
<path d="M 4.390625 0 L 0.859375 0 L 0.859375 -8.1875 L 4.390625 -8.1875 C 4.898438 -8.175781 5.320312 -8.117188 5.65625 -8.015625 C 6.226562 -7.816406 6.691406 -7.46875 7.046875 -6.96875 C 7.335938 -6.5625 7.535156 -6.117188 7.640625 -5.640625 C 7.742188 -5.171875 7.796875 -4.722656 7.796875 -4.296875 C 7.796875 -3.203125 7.578125 -2.28125 7.140625 -1.53125 C 6.546875 -0.507812 5.628906 0 4.390625 0 Z M 5.671875 -6.09375 C 5.398438 -6.539062 4.878906 -6.765625 4.109375 -6.765625 L 2.53125 -6.765625 L 2.53125 -1.421875 L 4.109375 -1.421875 C 4.910156 -1.421875 5.472656 -1.816406 5.796875 -2.609375 C 5.960938 -3.046875 6.046875 -3.566406 6.046875 -4.171875 C 6.046875 -5.003906 5.921875 -5.644531 5.671875 -6.09375 Z M 5.671875 -6.09375 "/>
</g>
<g id="glyph-0-4">
<path d="M 3.84375 -1.1875 C 4.238281 -1.1875 4.566406 -1.226562 4.828125 -1.3125 C 5.296875 -1.488281 5.53125 -1.804688 5.53125 -2.265625 C 5.53125 -2.535156 5.414062 -2.742188 5.1875 -2.890625 C 4.945312 -3.035156 4.570312 -3.164062 4.0625 -3.28125 L 3.203125 -3.46875 C 2.347656 -3.664062 1.757812 -3.875 1.4375 -4.09375 C 0.882812 -4.476562 0.609375 -5.070312 0.609375 -5.875 C 0.609375 -6.601562 0.875 -7.207031 1.40625 -7.6875 C 1.9375 -8.175781 2.71875 -8.421875 3.75 -8.421875 C 4.613281 -8.421875 5.347656 -8.191406 5.953125 -7.734375 C 6.566406 -7.273438 6.890625 -6.613281 6.921875 -5.75 L 5.28125 -5.75 C 5.25 -6.238281 5.03125 -6.585938 4.625 -6.796875 C 4.363281 -6.929688 4.035156 -7 3.640625 -7 C 3.203125 -7 2.847656 -6.910156 2.578125 -6.734375 C 2.316406 -6.554688 2.1875 -6.3125 2.1875 -6 C 2.1875 -5.695312 2.316406 -5.476562 2.578125 -5.34375 C 2.742188 -5.238281 3.097656 -5.125 3.640625 -5 L 5.046875 -4.65625 C 5.671875 -4.507812 6.140625 -4.3125 6.453125 -4.0625 C 6.941406 -3.675781 7.1875 -3.117188 7.1875 -2.390625 C 7.1875 -1.640625 6.898438 -1.015625 6.328125 -0.515625 C 5.753906 -0.0234375 4.945312 0.21875 3.90625 0.21875 C 2.84375 0.21875 2.003906 -0.0234375 1.390625 -0.515625 C 0.773438 -1.003906 0.46875 -1.675781 0.46875 -2.53125 L 2.109375 -2.53125 C 2.160156 -2.15625 2.257812 -1.875 2.40625 -1.6875 C 2.6875 -1.351562 3.164062 -1.1875 3.84375 -1.1875 Z M 3.84375 -1.1875 "/>
</g>
<g id="glyph-0-5">
<path d="M 7.453125 0 L 5.375 0 L 3.8125 -2.78125 L 2.171875 0 L 0.1875 0 L 2.8125 -4.171875 L 0.3125 -8.1875 L 2.359375 -8.1875 L 3.8125 -5.53125 L 5.3125 -8.1875 L 7.296875 -8.1875 L 4.78125 -4.234375 Z M 7.453125 0 "/>
</g>
<g id="glyph-0-6">
<path d="M 7.46875 -8.1875 L 4.734375 -3.078125 L 4.734375 0 L 3.03125 0 L 3.03125 -3.078125 L 0.1875 -8.1875 L 2.203125 -8.1875 L 3.90625 -4.625 L 5.53125 -8.1875 Z M 7.46875 -8.1875 "/>
</g>
<g id="glyph-1-0">
<path d="M 0.75 -7.15625 L 6.515625 -7.15625 L 6.515625 0 L 0.75 0 Z M 5.625 -0.890625 L 5.625 -6.265625 L 1.640625 -6.265625 L 1.640625 -0.890625 Z M 5.625 -0.890625 "/>
</g>
<g id="glyph-1-1">
<path d="M 4.953125 -1.46875 L 2.3125 -1.46875 L 1.8125 0 L 0.25 0 L 2.8125 -7.15625 L 4.5 -7.15625 L 7.03125 0 L 5.40625 0 Z M 4.53125 -2.703125 L 3.640625 -5.53125 L 2.71875 -2.703125 Z M 4.53125 -2.703125 "/>
</g>
<g id="glyph-1-2">
<path d="M 4.03125 0 L 0.78125 0 L 0.78125 -7.15625 L 4.265625 -7.15625 C 5.140625 -7.144531 5.757812 -6.894531 6.125 -6.40625 C 6.34375 -6.09375 6.453125 -5.726562 6.453125 -5.3125 C 6.453125 -4.875 6.34375 -4.519531 6.125 -4.25 C 6 -4.101562 5.816406 -3.96875 5.578125 -3.84375 C 5.953125 -3.707031 6.226562 -3.492188 6.40625 -3.203125 C 6.59375 -2.921875 6.6875 -2.570312 6.6875 -2.15625 C 6.6875 -1.738281 6.582031 -1.359375 6.375 -1.015625 C 6.238281 -0.796875 6.066406 -0.609375 5.859375 -0.453125 C 5.628906 -0.273438 5.359375 -0.15625 5.046875 -0.09375 C 4.734375 -0.03125 4.394531 0 4.03125 0 Z M 4 -3.15625 L 2.21875 -3.15625 L 2.21875 -1.25 L 3.96875 -1.25 C 4.28125 -1.25 4.523438 -1.289062 4.703125 -1.375 C 5.023438 -1.53125 5.1875 -1.828125 5.1875 -2.265625 C 5.1875 -2.640625 5.03125 -2.894531 4.71875 -3.03125 C 4.550781 -3.113281 4.3125 -3.15625 4 -3.15625 Z M 4.734375 -4.515625 C 4.929688 -4.628906 5.03125 -4.835938 5.03125 -5.140625 C 5.03125 -5.472656 4.898438 -5.695312 4.640625 -5.8125 C 4.421875 -5.882812 4.132812 -5.921875 3.78125 -5.921875 L 2.21875 -5.921875 L 2.21875 -4.34375 L 3.96875 -4.34375 C 4.28125 -4.34375 4.535156 -4.398438 4.734375 -4.515625 Z M 4.734375 -4.515625 "/>
</g>
<g id="glyph-1-3">
<path d="M 3.84375 0 L 0.765625 0 L 0.765625 -7.15625 L 3.84375 -7.15625 C 4.289062 -7.15625 4.660156 -7.109375 4.953125 -7.015625 C 5.453125 -6.847656 5.859375 -6.539062 6.171875 -6.09375 C 6.421875 -5.738281 6.585938 -5.351562 6.671875 -4.9375 C 6.765625 -4.53125 6.8125 -4.132812 6.8125 -3.75 C 6.8125 -2.800781 6.625 -2 6.25 -1.34375 C 5.726562 -0.445312 4.925781 0 3.84375 0 Z M 4.953125 -5.34375 C 4.722656 -5.726562 4.269531 -5.921875 3.59375 -5.921875 L 2.21875 -5.921875 L 2.21875 -1.25 L 3.59375 -1.25 C 4.300781 -1.25 4.789062 -1.59375 5.0625 -2.28125 C 5.21875 -2.664062 5.296875 -3.125 5.296875 -3.65625 C 5.296875 -4.382812 5.179688 -4.945312 4.953125 -5.34375 Z M 4.953125 -5.34375 "/>
</g>
<g id="glyph-1-4">
<path d="M 3.359375 -1.03125 C 3.710938 -1.03125 4 -1.070312 4.21875 -1.15625 C 4.632812 -1.300781 4.84375 -1.578125 4.84375 -1.984375 C 4.84375 -2.222656 4.738281 -2.40625 4.53125 -2.53125 C 4.320312 -2.65625 4 -2.769531 3.5625 -2.875 L 2.796875 -3.03125 C 2.054688 -3.207031 1.539062 -3.394531 1.25 -3.59375 C 0.769531 -3.914062 0.53125 -4.429688 0.53125 -5.140625 C 0.53125 -5.773438 0.757812 -6.304688 1.21875 -6.734375 C 1.6875 -7.160156 2.375 -7.375 3.28125 -7.375 C 4.039062 -7.375 4.6875 -7.171875 5.21875 -6.765625 C 5.75 -6.367188 6.03125 -5.789062 6.0625 -5.03125 L 4.609375 -5.03125 C 4.585938 -5.457031 4.398438 -5.765625 4.046875 -5.953125 C 3.816406 -6.066406 3.53125 -6.125 3.1875 -6.125 C 2.800781 -6.125 2.492188 -6.046875 2.265625 -5.890625 C 2.035156 -5.734375 1.921875 -5.519531 1.921875 -5.25 C 1.921875 -4.988281 2.03125 -4.796875 2.25 -4.671875 C 2.394531 -4.585938 2.707031 -4.488281 3.1875 -4.375 L 4.421875 -4.078125 C 4.960938 -3.953125 5.367188 -3.78125 5.640625 -3.5625 C 6.066406 -3.21875 6.28125 -2.726562 6.28125 -2.09375 C 6.28125 -1.4375 6.03125 -0.890625 5.53125 -0.453125 C 5.03125 -0.0234375 4.328125 0.1875 3.421875 0.1875 C 2.484375 0.1875 1.742188 -0.0234375 1.203125 -0.453125 C 0.671875 -0.878906 0.40625 -1.46875 0.40625 -2.21875 L 1.84375 -2.21875 C 1.882812 -1.882812 1.972656 -1.640625 2.109375 -1.484375 C 2.347656 -1.179688 2.765625 -1.03125 3.359375 -1.03125 Z M 3.359375 -1.03125 "/>
</g>
<g id="glyph-1-5">
<path d="M 6.515625 0 L 4.703125 0 L 3.34375 -2.4375 L 1.90625 0 L 0.15625 0 L 2.46875 -3.65625 L 0.265625 -7.15625 L 2.0625 -7.15625 L 3.34375 -4.828125 L 4.65625 -7.15625 L 6.375 -7.15625 L 4.1875 -3.703125 Z M 6.515625 0 "/>
</g>
<g id="glyph-1-6">
<path d="M 6.546875 -7.15625 L 4.140625 -2.6875 L 4.140625 0 L 2.65625 0 L 2.65625 -2.6875 L 0.171875 -7.15625 L 1.9375 -7.15625 L 3.421875 -4.046875 L 4.84375 -7.15625 Z M 6.546875 -7.15625 "/>
</g>
<g id="glyph-2-0">
<path d="M 0.390625 0 L 0.390625 -8.609375 L 7.21875 -8.609375 L 7.21875 0 Z M 6.140625 -1.078125 L 6.140625 -7.53125 L 1.46875 -7.53125 L 1.46875 -1.078125 Z M 6.140625 -1.078125 "/>
</g>
<g id="glyph-2-1">
<path d="M 0.921875 -8.609375 L 2.296875 -8.609375 L 6.640625 -1.640625 L 6.640625 -8.609375 L 7.75 -8.609375 L 7.75 0 L 6.4375 0 L 2.03125 -6.96875 L 2.03125 0 L 0.921875 0 Z M 4.25 -8.609375 Z M 4.25 -8.609375 "/>
</g>
<g id="glyph-2-2">
<path d="M 3.265625 -0.6875 C 3.960938 -0.6875 4.441406 -0.945312 4.703125 -1.46875 C 4.960938 -2 5.09375 -2.585938 5.09375 -3.234375 C 5.09375 -3.828125 5 -4.304688 4.8125 -4.671875 C 4.507812 -5.242188 4 -5.53125 3.28125 -5.53125 C 2.632812 -5.53125 2.164062 -5.285156 1.875 -4.796875 C 1.582031 -4.304688 1.4375 -3.710938 1.4375 -3.015625 C 1.4375 -2.347656 1.582031 -1.789062 1.875 -1.34375 C 2.164062 -0.90625 2.628906 -0.6875 3.265625 -0.6875 Z M 3.3125 -6.453125 C 4.113281 -6.453125 4.789062 -6.179688 5.34375 -5.640625 C 5.90625 -5.109375 6.1875 -4.316406 6.1875 -3.265625 C 6.1875 -2.253906 5.941406 -1.414062 5.453125 -0.75 C 4.960938 -0.09375 4.203125 0.234375 3.171875 0.234375 C 2.304688 0.234375 1.617188 -0.0546875 1.109375 -0.640625 C 0.597656 -1.234375 0.34375 -2.019531 0.34375 -3 C 0.34375 -4.050781 0.609375 -4.890625 1.140625 -5.515625 C 1.679688 -6.140625 2.40625 -6.453125 3.3125 -6.453125 Z M 3.265625 -6.421875 Z M 3.265625 -6.421875 "/>
</g>
<g id="glyph-2-3">
<path d="M 1.4375 -3.0625 C 1.4375 -2.394531 1.578125 -1.832031 1.859375 -1.375 C 2.148438 -0.925781 2.609375 -0.703125 3.234375 -0.703125 C 3.722656 -0.703125 4.125 -0.910156 4.4375 -1.328125 C 4.757812 -1.742188 4.921875 -2.347656 4.921875 -3.140625 C 4.921875 -3.929688 4.753906 -4.515625 4.421875 -4.890625 C 4.097656 -5.273438 3.703125 -5.46875 3.234375 -5.46875 C 2.703125 -5.46875 2.269531 -5.265625 1.9375 -4.859375 C 1.601562 -4.453125 1.4375 -3.851562 1.4375 -3.0625 Z M 3.03125 -6.390625 C 3.507812 -6.390625 3.910156 -6.285156 4.234375 -6.078125 C 4.421875 -5.960938 4.632812 -5.757812 4.875 -5.46875 L 4.875 -8.640625 L 5.890625 -8.640625 L 5.890625 0 L 4.9375 0 L 4.9375 -0.875 C 4.695312 -0.488281 4.40625 -0.207031 4.0625 -0.03125 C 3.726562 0.132812 3.34375 0.21875 2.90625 0.21875 C 2.207031 0.21875 1.601562 -0.0703125 1.09375 -0.65625 C 0.582031 -1.25 0.328125 -2.03125 0.328125 -3 C 0.328125 -3.914062 0.5625 -4.707031 1.03125 -5.375 C 1.5 -6.050781 2.164062 -6.390625 3.03125 -6.390625 Z M 3.03125 -6.390625 "/>
</g>
<g id="glyph-2-4">
<path d="M 3.390625 -6.421875 C 3.835938 -6.421875 4.269531 -6.316406 4.6875 -6.109375 C 5.101562 -5.898438 5.421875 -5.628906 5.640625 -5.296875 C 5.847656 -4.972656 5.988281 -4.601562 6.0625 -4.1875 C 6.125 -3.894531 6.15625 -3.429688 6.15625 -2.796875 L 1.546875 -2.796875 C 1.566406 -2.160156 1.71875 -1.648438 2 -1.265625 C 2.28125 -0.878906 2.71875 -0.6875 3.3125 -0.6875 C 3.863281 -0.6875 4.300781 -0.867188 4.625 -1.234375 C 4.8125 -1.441406 4.945312 -1.6875 5.03125 -1.96875 L 6.0625 -1.96875 C 6.039062 -1.738281 5.953125 -1.484375 5.796875 -1.203125 C 5.640625 -0.921875 5.46875 -0.6875 5.28125 -0.5 C 4.957031 -0.1875 4.554688 0.0195312 4.078125 0.125 C 3.828125 0.1875 3.539062 0.21875 3.21875 0.21875 C 2.4375 0.21875 1.773438 -0.0625 1.234375 -0.625 C 0.691406 -1.195312 0.421875 -1.992188 0.421875 -3.015625 C 0.421875 -4.023438 0.691406 -4.84375 1.234375 -5.46875 C 1.785156 -6.101562 2.503906 -6.421875 3.390625 -6.421875 Z M 5.0625 -3.640625 C 5.019531 -4.097656 4.921875 -4.460938 4.765625 -4.734375 C 4.484375 -5.242188 4.003906 -5.5 3.328125 -5.5 C 2.835938 -5.5 2.425781 -5.320312 2.09375 -4.96875 C 1.769531 -4.625 1.597656 -4.179688 1.578125 -3.640625 Z M 3.28125 -6.421875 Z M 3.28125 -6.421875 "/>
</g>
<g id="glyph-2-5">
</g>
<g id="glyph-2-6">
<path d="M 7.171875 -8.609375 L 7.171875 -7.578125 L 4.28125 -7.578125 L 4.28125 0 L 3.09375 0 L 3.09375 -7.578125 L 0.1875 -7.578125 L 0.1875 -8.609375 Z M 7.171875 -8.609375 "/>
</g>
<g id="glyph-2-7">
<path d="M 4.6875 -6.28125 L 5.859375 -6.28125 C 5.710938 -5.875 5.382812 -4.953125 4.875 -3.515625 C 4.488281 -2.441406 4.164062 -1.566406 3.90625 -0.890625 C 3.300781 0.710938 2.875 1.691406 2.625 2.046875 C 2.375 2.398438 1.941406 2.578125 1.328125 2.578125 C 1.179688 2.578125 1.066406 2.566406 0.984375 2.546875 C 0.910156 2.535156 0.8125 2.515625 0.6875 2.484375 L 0.6875 1.53125 C 0.875 1.582031 1.007812 1.613281 1.09375 1.625 C 1.175781 1.632812 1.25 1.640625 1.3125 1.640625 C 1.5 1.640625 1.640625 1.609375 1.734375 1.546875 C 1.828125 1.484375 1.90625 1.40625 1.96875 1.3125 C 1.988281 1.28125 2.054688 1.117188 2.171875 0.828125 C 2.296875 0.535156 2.382812 0.320312 2.4375 0.1875 L 0.125 -6.28125 L 1.3125 -6.28125 L 3 -1.171875 Z M 3 -6.421875 Z M 3 -6.421875 "/>
</g>
<g id="glyph-2-8">
<path d="M 3.421875 -0.703125 C 3.910156 -0.703125 4.316406 -0.910156 4.640625 -1.328125 C 4.972656 -1.742188 5.140625 -2.359375 5.140625 -3.171875 C 5.140625 -3.671875 5.066406 -4.101562 4.921875 -4.46875 C 4.648438 -5.15625 4.148438 -5.5 3.421875 -5.5 C 2.691406 -5.5 2.191406 -5.132812 1.921875 -4.40625 C 1.773438 -4.019531 1.703125 -3.523438 1.703125 -2.921875 C 1.703125 -2.429688 1.773438 -2.019531 1.921875 -1.6875 C 2.191406 -1.03125 2.691406 -0.703125 3.421875 -0.703125 Z M 0.6875 -6.25 L 1.71875 -6.25 L 1.71875 -5.421875 C 1.925781 -5.703125 2.15625 -5.921875 2.40625 -6.078125 C 2.757812 -6.304688 3.175781 -6.421875 3.65625 -6.421875 C 4.375 -6.421875 4.976562 -6.148438 5.46875 -5.609375 C 5.96875 -5.066406 6.21875 -4.289062 6.21875 -3.28125 C 6.21875 -1.90625 5.859375 -0.925781 5.140625 -0.34375 C 4.691406 0.0273438 4.164062 0.21875 3.5625 0.21875 C 3.09375 0.21875 2.695312 0.113281 2.375 -0.09375 C 2.1875 -0.21875 1.976562 -0.421875 1.75 -0.703125 L 1.75 2.5 L 0.6875 2.5 Z M 0.6875 -6.25 "/>
</g>
<g id="glyph-2-9">
<path d="M 1.03125 -8.609375 L 7 -8.609375 L 7 -7.546875 L 2.1875 -7.546875 L 2.1875 -4.9375 L 6.421875 -4.9375 L 6.421875 -3.921875 L 2.1875 -3.921875 L 2.1875 0 L 1.03125 0 Z M 1.03125 -8.609375 "/>
</g>
<g id="glyph-2-10">
<path d="M 0.796875 -6.28125 L 1.8125 -6.28125 L 1.8125 -5.1875 C 1.882812 -5.40625 2.082031 -5.664062 2.40625 -5.96875 C 2.726562 -6.269531 3.097656 -6.421875 3.515625 -6.421875 C 3.535156 -6.421875 3.566406 -6.414062 3.609375 -6.40625 C 3.660156 -6.40625 3.742188 -6.398438 3.859375 -6.390625 L 3.859375 -5.28125 C 3.796875 -5.289062 3.738281 -5.296875 3.6875 -5.296875 C 3.632812 -5.296875 3.578125 -5.296875 3.515625 -5.296875 C 2.984375 -5.296875 2.570312 -5.125 2.28125 -4.78125 C 2 -4.445312 1.859375 -4.054688 1.859375 -3.609375 L 1.859375 0 L 0.796875 0 Z M 0.796875 -6.28125 "/>
</g>
<g id="glyph-2-11">
<path d="M 0.75 -8.609375 L 1.765625 -8.609375 L 1.765625 -3.609375 L 4.46875 -6.28125 L 5.8125 -6.28125 L 3.421875 -3.921875 L 5.953125 0 L 4.609375 0 L 2.65625 -3.171875 L 1.765625 -2.359375 L 1.765625 0 L 0.75 0 Z M 0.75 -8.609375 "/>
</g>
<g id="glyph-2-12">
<path d="M 1.40625 -1.96875 C 1.4375 -1.613281 1.523438 -1.34375 1.671875 -1.15625 C 1.929688 -0.820312 2.390625 -0.65625 3.046875 -0.65625 C 3.441406 -0.65625 3.785156 -0.738281 4.078125 -0.90625 C 4.378906 -1.070312 4.53125 -1.332031 4.53125 -1.6875 C 4.53125 -1.957031 4.410156 -2.164062 4.171875 -2.3125 C 4.015625 -2.394531 3.710938 -2.492188 3.265625 -2.609375 L 2.421875 -2.8125 C 1.890625 -2.945312 1.5 -3.097656 1.25 -3.265625 C 0.789062 -3.546875 0.5625 -3.941406 0.5625 -4.453125 C 0.5625 -5.046875 0.773438 -5.523438 1.203125 -5.890625 C 1.628906 -6.253906 2.207031 -6.4375 2.9375 -6.4375 C 3.875 -6.4375 4.550781 -6.160156 4.96875 -5.609375 C 5.238281 -5.253906 5.367188 -4.875 5.359375 -4.46875 L 4.359375 -4.46875 C 4.335938 -4.707031 4.253906 -4.925781 4.109375 -5.125 C 3.867188 -5.394531 3.445312 -5.53125 2.84375 -5.53125 C 2.445312 -5.53125 2.144531 -5.453125 1.9375 -5.296875 C 1.738281 -5.148438 1.640625 -4.953125 1.640625 -4.703125 C 1.640625 -4.429688 1.773438 -4.210938 2.046875 -4.046875 C 2.203125 -3.953125 2.429688 -3.867188 2.734375 -3.796875 L 3.421875 -3.625 C 4.179688 -3.4375 4.691406 -3.257812 4.953125 -3.09375 C 5.359375 -2.820312 5.5625 -2.394531 5.5625 -1.8125 C 5.5625 -1.257812 5.347656 -0.78125 4.921875 -0.375 C 4.503906 0.0273438 3.863281 0.234375 3 0.234375 C 2.0625 0.234375 1.394531 0.0234375 1 -0.390625 C 0.613281 -0.816406 0.410156 -1.34375 0.390625 -1.96875 Z M 2.953125 -6.421875 Z M 2.953125 -6.421875 "/>
</g>
<g id="glyph-2-13">
<path d="M 1.578125 -1.671875 C 1.578125 -1.367188 1.6875 -1.128906 1.90625 -0.953125 C 2.132812 -0.773438 2.398438 -0.6875 2.703125 -0.6875 C 3.078125 -0.6875 3.4375 -0.769531 3.78125 -0.9375 C 4.375 -1.226562 4.671875 -1.695312 4.671875 -2.34375 L 4.671875 -3.1875 C 4.535156 -3.113281 4.363281 -3.046875 4.15625 -2.984375 C 3.957031 -2.929688 3.757812 -2.894531 3.5625 -2.875 L 2.9375 -2.796875 C 2.550781 -2.742188 2.257812 -2.660156 2.0625 -2.546875 C 1.738281 -2.367188 1.578125 -2.078125 1.578125 -1.671875 Z M 4.140625 -3.796875 C 4.378906 -3.828125 4.539062 -3.929688 4.625 -4.109375 C 4.664062 -4.203125 4.6875 -4.335938 4.6875 -4.515625 C 4.6875 -4.867188 4.554688 -5.125 4.296875 -5.28125 C 4.046875 -5.445312 3.6875 -5.53125 3.21875 -5.53125 C 2.664062 -5.53125 2.273438 -5.382812 2.046875 -5.09375 C 1.910156 -4.925781 1.820312 -4.679688 1.78125 -4.359375 L 0.796875 -4.359375 C 0.816406 -5.128906 1.066406 -5.664062 1.546875 -5.96875 C 2.035156 -6.269531 2.597656 -6.421875 3.234375 -6.421875 C 3.972656 -6.421875 4.570312 -6.28125 5.03125 -6 C 5.488281 -5.71875 5.71875 -5.28125 5.71875 -4.6875 L 5.71875 -1.078125 C 5.71875 -0.972656 5.738281 -0.882812 5.78125 -0.8125 C 5.832031 -0.75 5.929688 -0.71875 6.078125 -0.71875 C 6.117188 -0.71875 6.164062 -0.71875 6.21875 -0.71875 C 6.28125 -0.726562 6.347656 -0.738281 6.421875 -0.75 L 6.421875 0.03125 C 6.253906 0.0703125 6.125 0.0976562 6.03125 0.109375 C 5.945312 0.128906 5.832031 0.140625 5.6875 0.140625 C 5.320312 0.140625 5.0625 0.0078125 4.90625 -0.25 C 4.8125 -0.382812 4.75 -0.578125 4.71875 -0.828125 C 4.5 -0.546875 4.1875 -0.300781 3.78125 -0.09375 C 3.382812 0.113281 2.945312 0.21875 2.46875 0.21875 C 1.882812 0.21875 1.40625 0.0390625 1.03125 -0.3125 C 0.664062 -0.664062 0.484375 -1.109375 0.484375 -1.640625 C 0.484375 -2.222656 0.664062 -2.675781 1.03125 -3 C 1.394531 -3.320312 1.867188 -3.519531 2.453125 -3.59375 Z M 3.265625 -6.421875 Z M 3.265625 -6.421875 "/>
</g>
<g id="glyph-2-14">
<path d="M 4.546875 -8.84375 C 5.628906 -8.84375 6.472656 -8.554688 7.078125 -7.984375 C 7.679688 -7.410156 8.015625 -6.757812 8.078125 -6.03125 L 6.9375 -6.03125 C 6.8125 -6.582031 6.554688 -7.019531 6.171875 -7.34375 C 5.785156 -7.664062 5.242188 -7.828125 4.546875 -7.828125 C 3.703125 -7.828125 3.019531 -7.53125 2.5 -6.9375 C 1.976562 -6.34375 1.71875 -5.429688 1.71875 -4.203125 C 1.71875 -3.191406 1.953125 -2.367188 2.421875 -1.734375 C 2.890625 -1.109375 3.59375 -0.796875 4.53125 -0.796875 C 5.382812 -0.796875 6.039062 -1.128906 6.5 -1.796875 C 6.726562 -2.140625 6.90625 -2.597656 7.03125 -3.171875 L 8.15625 -3.171875 C 8.0625 -2.265625 7.726562 -1.503906 7.15625 -0.890625 C 6.46875 -0.148438 5.546875 0.21875 4.390625 0.21875 C 3.390625 0.21875 2.550781 -0.0820312 1.875 -0.6875 C 0.976562 -1.488281 0.53125 -2.722656 0.53125 -4.390625 C 0.53125 -5.660156 0.863281 -6.703125 1.53125 -7.515625 C 2.257812 -8.398438 3.265625 -8.84375 4.546875 -8.84375 Z M 4.3125 -8.84375 Z M 4.3125 -8.84375 "/>
</g>
<g id="glyph-2-15">
<path d="M 0.78125 -6.28125 L 1.78125 -6.28125 L 1.78125 -5.390625 C 2.070312 -5.753906 2.382812 -6.015625 2.71875 -6.171875 C 3.050781 -6.335938 3.421875 -6.421875 3.828125 -6.421875 C 4.710938 -6.421875 5.3125 -6.109375 5.625 -5.484375 C 5.800781 -5.140625 5.890625 -4.65625 5.890625 -4.03125 L 5.890625 0 L 4.8125 0 L 4.8125 -3.953125 C 4.8125 -4.335938 4.753906 -4.644531 4.640625 -4.875 C 4.453125 -5.269531 4.113281 -5.46875 3.625 -5.46875 C 3.375 -5.46875 3.171875 -5.441406 3.015625 -5.390625 C 2.722656 -5.304688 2.46875 -5.132812 2.25 -4.875 C 2.070312 -4.664062 1.957031 -4.453125 1.90625 -4.234375 C 1.851562 -4.015625 1.828125 -3.695312 1.828125 -3.28125 L 1.828125 0 L 0.78125 0 Z M 3.25 -6.421875 Z M 3.25 -6.421875 "/>
</g>
<g id="glyph-2-16">
<path d="M 1.03125 -7.234375 C 1.050781 -7.671875 1.128906 -7.988281 1.265625 -8.1875 C 1.515625 -8.550781 1.988281 -8.734375 2.6875 -8.734375 C 2.757812 -8.734375 2.828125 -8.726562 2.890625 -8.71875 C 2.960938 -8.71875 3.046875 -8.710938 3.140625 -8.703125 L 3.140625 -7.75 C 3.023438 -7.757812 2.941406 -7.765625 2.890625 -7.765625 C 2.847656 -7.765625 2.804688 -7.765625 2.765625 -7.765625 C 2.441406 -7.765625 2.25 -7.679688 2.1875 -7.515625 C 2.125 -7.347656 2.09375 -6.925781 2.09375 -6.25 L 3.140625 -6.25 L 3.140625 -5.421875 L 2.078125 -5.421875 L 2.078125 0 L 1.03125 0 L 1.03125 -5.421875 L 0.171875 -5.421875 L 0.171875 -6.25 L 1.03125 -6.25 Z M 1.03125 -7.234375 "/>
</g>
<g id="glyph-2-17">
<path d="M 1.828125 -6.28125 L 1.828125 -2.109375 C 1.828125 -1.785156 1.878906 -1.523438 1.984375 -1.328125 C 2.171875 -0.953125 2.519531 -0.765625 3.03125 -0.765625 C 3.757812 -0.765625 4.257812 -1.09375 4.53125 -1.75 C 4.675781 -2.101562 4.75 -2.582031 4.75 -3.1875 L 4.75 -6.28125 L 5.796875 -6.28125 L 5.796875 0 L 4.8125 0 L 4.8125 -0.921875 C 4.675781 -0.679688 4.507812 -0.484375 4.3125 -0.328125 C 3.90625 0.00390625 3.414062 0.171875 2.84375 0.171875 C 1.945312 0.171875 1.335938 -0.128906 1.015625 -0.734375 C 0.835938 -1.046875 0.75 -1.472656 0.75 -2.015625 L 0.75 -6.28125 Z M 3.28125 -6.421875 Z M 3.28125 -6.421875 "/>
</g>
<g id="glyph-2-18">
<path d="M 3.546875 -8.75 C 2.929688 -7.5625 2.535156 -6.6875 2.359375 -6.125 C 2.078125 -5.257812 1.9375 -4.269531 1.9375 -3.15625 C 1.9375 -2.019531 2.097656 -0.984375 2.421875 -0.046875 C 2.609375 0.535156 2.988281 1.367188 3.5625 2.453125 L 2.859375 2.453125 C 2.285156 1.554688 1.929688 0.984375 1.796875 0.734375 C 1.660156 0.492188 1.515625 0.160156 1.359375 -0.265625 C 1.140625 -0.835938 0.984375 -1.453125 0.890625 -2.109375 C 0.847656 -2.453125 0.828125 -2.773438 0.828125 -3.078125 C 0.828125 -4.234375 1.007812 -5.265625 1.375 -6.171875 C 1.601562 -6.742188 2.082031 -7.601562 2.8125 -8.75 Z M 3.546875 -8.75 "/>
</g>
<g id="glyph-2-19">
<path d="M 4.640625 -8.828125 C 5.441406 -8.828125 6.140625 -8.671875 6.734375 -8.359375 C 7.585938 -7.910156 8.109375 -7.125 8.296875 -6 L 7.15625 -6 C 7.007812 -6.625 6.710938 -7.082031 6.265625 -7.375 C 5.828125 -7.664062 5.273438 -7.8125 4.609375 -7.8125 C 3.804688 -7.8125 3.132812 -7.507812 2.59375 -6.90625 C 2.050781 -6.3125 1.78125 -5.421875 1.78125 -4.234375 C 1.78125 -3.210938 2.003906 -2.378906 2.453125 -1.734375 C 2.898438 -1.097656 3.628906 -0.78125 4.640625 -0.78125 C 5.421875 -0.78125 6.066406 -1.003906 6.578125 -1.453125 C 7.085938 -1.898438 7.347656 -2.628906 7.359375 -3.640625 L 4.671875 -3.640625 L 4.671875 -4.609375 L 8.4375 -4.609375 L 8.4375 0 L 7.6875 0 L 7.40625 -1.109375 C 7.019531 -0.671875 6.671875 -0.367188 6.359375 -0.203125 C 5.847656 0.0859375 5.195312 0.234375 4.40625 0.234375 C 3.394531 0.234375 2.519531 -0.0976562 1.78125 -0.765625 C 0.976562 -1.585938 0.578125 -2.722656 0.578125 -4.171875 C 0.578125 -5.609375 0.96875 -6.753906 1.75 -7.609375 C 2.488281 -8.421875 3.453125 -8.828125 4.640625 -8.828125 Z M 4.4375 -8.84375 Z M 4.4375 -8.84375 "/>
</g>
<g id="glyph-2-20">
<path d="M 0.421875 2.453125 C 1.035156 1.242188 1.4375 0.355469 1.625 -0.203125 C 1.894531 -1.035156 2.03125 -2.019531 2.03125 -3.15625 C 2.03125 -4.28125 1.867188 -5.3125 1.546875 -6.25 C 1.359375 -6.832031 0.976562 -7.664062 0.40625 -8.75 L 1.109375 -8.75 C 1.710938 -7.789062 2.078125 -7.195312 2.203125 -6.96875 C 2.328125 -6.75 2.460938 -6.441406 2.609375 -6.046875 C 2.796875 -5.554688 2.929688 -5.070312 3.015625 -4.59375 C 3.097656 -4.113281 3.140625 -3.65625 3.140625 -3.21875 C 3.140625 -2.0625 2.953125 -1.03125 2.578125 -0.125 C 2.347656 0.457031 1.875 1.316406 1.15625 2.453125 Z M 0.421875 2.453125 "/>
</g>
<g id="glyph-2-21">
<path d="M 1.03125 -1.28125 L 2.25 -1.28125 L 2.25 0 L 1.03125 0 Z M 1.03125 -1.28125 "/>
</g>
<g id="glyph-2-22">
<path d="M 1.65625 0 L 0.25 0 L 3.328125 -4.40625 L 0.4375 -8.609375 L 1.90625 -8.609375 L 4.09375 -5.3125 L 6.28125 -8.609375 L 7.671875 -8.609375 L 4.78125 -4.40625 L 7.8125 0 L 6.359375 0 L 4.03125 -3.546875 Z M 1.65625 0 "/>
</g>
<g id="glyph-2-23">
<path d="M 0.78125 -6.25 L 1.84375 -6.25 L 1.84375 0 L 0.78125 0 Z M 0.78125 -8.609375 L 1.84375 -8.609375 L 1.84375 -7.40625 L 0.78125 -7.40625 Z M 0.78125 -8.609375 "/>
</g>
<g id="glyph-2-24">
<path d="M 4.15625 -4.96875 C 4.644531 -4.96875 5.023438 -5.035156 5.296875 -5.171875 C 5.722656 -5.390625 5.9375 -5.773438 5.9375 -6.328125 C 5.9375 -6.890625 5.707031 -7.269531 5.25 -7.46875 C 5 -7.582031 4.617188 -7.640625 4.109375 -7.640625 L 2.03125 -7.640625 L 2.03125 -4.96875 Z M 4.546875 -1 C 5.253906 -1 5.765625 -1.207031 6.078125 -1.625 C 6.265625 -1.882812 6.359375 -2.195312 6.359375 -2.5625 C 6.359375 -3.1875 6.078125 -3.613281 5.515625 -3.84375 C 5.222656 -3.96875 4.832031 -4.03125 4.34375 -4.03125 L 2.03125 -4.03125 L 2.03125 -1 Z M 0.890625 -8.609375 L 4.578125 -8.609375 C 5.585938 -8.609375 6.304688 -8.304688 6.734375 -7.703125 C 6.984375 -7.347656 7.109375 -6.9375 7.109375 -6.46875 C 7.109375 -5.925781 6.953125 -5.484375 6.640625 -5.140625 C 6.484375 -4.953125 6.253906 -4.785156 5.953125 -4.640625 C 6.390625 -4.472656 6.71875 -4.28125 6.9375 -4.0625 C 7.332031 -3.6875 7.53125 -3.171875 7.53125 -2.515625 C 7.53125 -1.960938 7.351562 -1.460938 7 -1.015625 C 6.476562 -0.335938 5.65625 0 4.53125 0 L 0.890625 0 Z M 0.890625 -8.609375 "/>
</g>
<g id="glyph-2-25">
<path d="M 0.796875 -8.609375 L 1.859375 -8.609375 L 1.859375 0 L 0.796875 0 Z M 0.796875 -8.609375 "/>
</g>
<g id="glyph-2-26">
<path d="M 1 1.21875 C 1.269531 1.175781 1.457031 0.988281 1.5625 0.65625 C 1.625 0.476562 1.65625 0.304688 1.65625 0.140625 C 1.65625 0.117188 1.648438 0.0976562 1.640625 0.078125 C 1.640625 0.0546875 1.640625 0.03125 1.640625 0 L 1 0 L 1 -1.28125 L 2.25 -1.28125 L 2.25 -0.09375 C 2.25 0.375 2.15625 0.78125 1.96875 1.125 C 1.78125 1.476562 1.457031 1.695312 1 1.78125 Z M 1 1.21875 "/>
</g>
<g id="glyph-2-27">
<path d="M 0.25 -8.609375 L 1.609375 -8.609375 L 4.078125 -4.46875 L 6.546875 -8.609375 L 7.921875 -8.609375 L 4.671875 -3.46875 L 4.671875 0 L 3.5 0 L 3.5 -3.46875 Z M 4.09375 -8.609375 Z M 4.09375 -8.609375 "/>
</g>
<g id="glyph-2-28">
<path d="M 4.921875 -4.671875 C 5.460938 -4.671875 5.890625 -4.78125 6.203125 -5 C 6.523438 -5.21875 6.6875 -5.609375 6.6875 -6.171875 C 6.6875 -6.785156 6.46875 -7.207031 6.03125 -7.4375 C 5.789062 -7.550781 5.46875 -7.609375 5.0625 -7.609375 L 2.21875 -7.609375 L 2.21875 -4.671875 Z M 1.0625 -8.609375 L 5.046875 -8.609375 C 5.703125 -8.609375 6.238281 -8.515625 6.65625 -8.328125 C 7.46875 -7.953125 7.875 -7.269531 7.875 -6.28125 C 7.875 -5.769531 7.765625 -5.347656 7.546875 -5.015625 C 7.335938 -4.691406 7.039062 -4.429688 6.65625 -4.234375 C 7 -4.097656 7.253906 -3.914062 7.421875 -3.6875 C 7.585938 -3.46875 7.679688 -3.109375 7.703125 -2.609375 L 7.75 -1.453125 C 7.757812 -1.128906 7.785156 -0.882812 7.828125 -0.71875 C 7.898438 -0.445312 8.023438 -0.269531 8.203125 -0.1875 L 8.203125 0 L 6.78125 0 C 6.738281 -0.0703125 6.703125 -0.164062 6.671875 -0.28125 C 6.648438 -0.40625 6.632812 -0.632812 6.625 -0.96875 L 6.546875 -2.40625 C 6.523438 -2.96875 6.316406 -3.34375 5.921875 -3.53125 C 5.703125 -3.632812 5.351562 -3.6875 4.875 -3.6875 L 2.21875 -3.6875 L 2.21875 0 L 1.0625 0 Z M 1.0625 -8.609375 "/>
</g>
<g id="glyph-3-0">
<path d="M 0.3125 0 L 0.3125 -6.875 L 5.765625 -6.875 L 5.765625 0 Z M 4.90625 -0.859375 L 4.90625 -6.015625 L 1.171875 -6.015625 L 1.171875 -0.859375 Z M 4.90625 -0.859375 "/>
</g>
<g id="glyph-3-1">
<path d="M 3.625 -7.0625 C 4.5 -7.0625 5.175781 -6.832031 5.65625 -6.375 C 6.132812 -5.914062 6.398438 -5.394531 6.453125 -4.8125 L 5.546875 -4.8125 C 5.441406 -5.257812 5.234375 -5.613281 4.921875 -5.875 C 4.617188 -6.132812 4.191406 -6.265625 3.640625 -6.265625 C 2.960938 -6.265625 2.414062 -6.023438 2 -5.546875 C 1.582031 -5.066406 1.375 -4.335938 1.375 -3.359375 C 1.375 -2.546875 1.5625 -1.890625 1.9375 -1.390625 C 2.3125 -0.890625 2.875 -0.640625 3.625 -0.640625 C 4.3125 -0.640625 4.832031 -0.90625 5.1875 -1.4375 C 5.375 -1.707031 5.515625 -2.070312 5.609375 -2.53125 L 6.53125 -2.53125 C 6.445312 -1.800781 6.175781 -1.191406 5.71875 -0.703125 C 5.175781 -0.117188 4.441406 0.171875 3.515625 0.171875 C 2.710938 0.171875 2.039062 -0.0664062 1.5 -0.546875 C 0.78125 -1.191406 0.421875 -2.179688 0.421875 -3.515625 C 0.421875 -4.523438 0.691406 -5.359375 1.234375 -6.015625 C 1.804688 -6.710938 2.601562 -7.0625 3.625 -7.0625 Z M 3.4375 -7.0625 Z M 3.4375 -7.0625 "/>
</g>
<g id="glyph-3-2">
<path d="M 2.609375 -0.546875 C 3.171875 -0.546875 3.554688 -0.753906 3.765625 -1.171875 C 3.972656 -1.597656 4.078125 -2.070312 4.078125 -2.59375 C 4.078125 -3.0625 4 -3.441406 3.84375 -3.734375 C 3.601562 -4.191406 3.195312 -4.421875 2.625 -4.421875 C 2.101562 -4.421875 1.722656 -4.222656 1.484375 -3.828125 C 1.253906 -3.441406 1.140625 -2.96875 1.140625 -2.40625 C 1.140625 -1.875 1.253906 -1.429688 1.484375 -1.078125 C 1.722656 -0.722656 2.097656 -0.546875 2.609375 -0.546875 Z M 2.640625 -5.15625 C 3.285156 -5.15625 3.832031 -4.941406 4.28125 -4.515625 C 4.726562 -4.085938 4.953125 -3.453125 4.953125 -2.609375 C 4.953125 -1.804688 4.753906 -1.140625 4.359375 -0.609375 C 3.960938 -0.078125 3.351562 0.1875 2.53125 0.1875 C 1.84375 0.1875 1.296875 -0.046875 0.890625 -0.515625 C 0.484375 -0.984375 0.28125 -1.613281 0.28125 -2.40625 C 0.28125 -3.238281 0.492188 -3.90625 0.921875 -4.40625 C 1.347656 -4.90625 1.921875 -5.15625 2.640625 -5.15625 Z M 2.609375 -5.140625 Z M 2.609375 -5.140625 "/>
</g>
<g id="glyph-3-3">
<path d="M 0.625 -5.015625 L 1.421875 -5.015625 L 1.421875 -4.3125 C 1.660156 -4.601562 1.910156 -4.8125 2.171875 -4.9375 C 2.441406 -5.0625 2.738281 -5.125 3.0625 -5.125 C 3.769531 -5.125 4.25 -4.878906 4.5 -4.390625 C 4.632812 -4.117188 4.703125 -3.726562 4.703125 -3.21875 L 4.703125 0 L 3.84375 0 L 3.84375 -3.15625 C 3.84375 -3.46875 3.800781 -3.71875 3.71875 -3.90625 C 3.5625 -4.21875 3.289062 -4.375 2.90625 -4.375 C 2.695312 -4.375 2.53125 -4.351562 2.40625 -4.3125 C 2.175781 -4.238281 1.972656 -4.097656 1.796875 -3.890625 C 1.660156 -3.734375 1.570312 -3.566406 1.53125 -3.390625 C 1.488281 -3.210938 1.46875 -2.957031 1.46875 -2.625 L 1.46875 0 L 0.625 0 Z M 2.59375 -5.140625 Z M 2.59375 -5.140625 "/>
</g>
<g id="glyph-3-4">
<path d="M 0.828125 -5.78125 C 0.835938 -6.132812 0.898438 -6.390625 1.015625 -6.546875 C 1.210938 -6.835938 1.59375 -6.984375 2.15625 -6.984375 C 2.207031 -6.984375 2.257812 -6.976562 2.3125 -6.96875 C 2.375 -6.96875 2.4375 -6.96875 2.5 -6.96875 L 2.5 -6.1875 C 2.414062 -6.195312 2.351562 -6.203125 2.3125 -6.203125 C 2.28125 -6.203125 2.242188 -6.203125 2.203125 -6.203125 C 1.953125 -6.203125 1.800781 -6.132812 1.75 -6 C 1.695312 -5.875 1.671875 -5.539062 1.671875 -5 L 2.5 -5 L 2.5 -4.328125 L 1.65625 -4.328125 L 1.65625 0 L 0.828125 0 L 0.828125 -4.328125 L 0.125 -4.328125 L 0.125 -5 L 0.828125 -5 Z M 0.828125 -5.78125 "/>
</g>
<g id="glyph-3-5">
<path d="M 1.46875 -5.015625 L 1.46875 -1.6875 C 1.46875 -1.425781 1.503906 -1.21875 1.578125 -1.0625 C 1.734375 -0.757812 2.015625 -0.609375 2.421875 -0.609375 C 3.003906 -0.609375 3.40625 -0.867188 3.625 -1.390625 C 3.738281 -1.671875 3.796875 -2.054688 3.796875 -2.546875 L 3.796875 -5.015625 L 4.640625 -5.015625 L 4.640625 0 L 3.84375 0 L 3.84375 -0.734375 C 3.738281 -0.546875 3.601562 -0.382812 3.4375 -0.25 C 3.113281 0.0078125 2.722656 0.140625 2.265625 0.140625 C 1.554688 0.140625 1.070312 -0.0976562 0.8125 -0.578125 C 0.664062 -0.835938 0.59375 -1.179688 0.59375 -1.609375 L 0.59375 -5.015625 Z M 2.625 -5.140625 Z M 2.625 -5.140625 "/>
</g>
<g id="glyph-3-6">
<path d="M 1.15625 -2.453125 C 1.15625 -1.910156 1.269531 -1.457031 1.5 -1.09375 C 1.726562 -0.738281 2.09375 -0.5625 2.59375 -0.5625 C 2.976562 -0.5625 3.296875 -0.726562 3.546875 -1.0625 C 3.804688 -1.394531 3.9375 -1.875 3.9375 -2.5 C 3.9375 -3.132812 3.804688 -3.601562 3.546875 -3.90625 C 3.285156 -4.21875 2.960938 -4.375 2.578125 -4.375 C 2.148438 -4.375 1.804688 -4.207031 1.546875 -3.875 C 1.285156 -3.550781 1.15625 -3.078125 1.15625 -2.453125 Z M 2.421875 -5.109375 C 2.804688 -5.109375 3.128906 -5.023438 3.390625 -4.859375 C 3.535156 -4.765625 3.703125 -4.601562 3.890625 -4.375 L 3.890625 -6.90625 L 4.703125 -6.90625 L 4.703125 0 L 3.953125 0 L 3.953125 -0.703125 C 3.753906 -0.390625 3.519531 -0.164062 3.25 -0.03125 C 2.976562 0.101562 2.671875 0.171875 2.328125 0.171875 C 1.765625 0.171875 1.28125 -0.0625 0.875 -0.53125 C 0.46875 -1 0.265625 -1.625 0.265625 -2.40625 C 0.265625 -3.132812 0.445312 -3.765625 0.8125 -4.296875 C 1.1875 -4.835938 1.722656 -5.109375 2.421875 -5.109375 Z M 2.421875 -5.109375 "/>
</g>
<g id="glyph-3-7">
<path d="M 2.703125 -5.125 C 3.054688 -5.125 3.398438 -5.039062 3.734375 -4.875 C 4.078125 -4.707031 4.332031 -4.492188 4.5 -4.234375 C 4.675781 -3.972656 4.789062 -3.675781 4.84375 -3.34375 C 4.894531 -3.113281 4.921875 -2.742188 4.921875 -2.234375 L 1.234375 -2.234375 C 1.253906 -1.722656 1.375 -1.3125 1.59375 -1 C 1.820312 -0.695312 2.171875 -0.546875 2.640625 -0.546875 C 3.085938 -0.546875 3.441406 -0.691406 3.703125 -0.984375 C 3.847656 -1.148438 3.953125 -1.347656 4.015625 -1.578125 L 4.84375 -1.578125 C 4.820312 -1.390625 4.75 -1.179688 4.625 -0.953125 C 4.507812 -0.734375 4.375 -0.550781 4.21875 -0.40625 C 3.957031 -0.15625 3.640625 0.015625 3.265625 0.109375 C 3.054688 0.148438 2.828125 0.171875 2.578125 0.171875 C 1.953125 0.171875 1.421875 -0.0507812 0.984375 -0.5 C 0.554688 -0.957031 0.34375 -1.59375 0.34375 -2.40625 C 0.34375 -3.21875 0.5625 -3.875 1 -4.375 C 1.4375 -4.875 2.003906 -5.125 2.703125 -5.125 Z M 4.046875 -2.90625 C 4.015625 -3.269531 3.9375 -3.5625 3.8125 -3.78125 C 3.582031 -4.1875 3.195312 -4.390625 2.65625 -4.390625 C 2.269531 -4.390625 1.941406 -4.25 1.671875 -3.96875 C 1.410156 -3.695312 1.273438 -3.34375 1.265625 -2.90625 Z M 2.625 -5.140625 Z M 2.625 -5.140625 "/>
</g>
<g id="glyph-3-8">
<path d="M 0.640625 -5.015625 L 1.4375 -5.015625 L 1.4375 -4.15625 C 1.507812 -4.320312 1.671875 -4.523438 1.921875 -4.765625 C 2.179688 -5.003906 2.476562 -5.125 2.8125 -5.125 C 2.820312 -5.125 2.847656 -5.125 2.890625 -5.125 C 2.929688 -5.125 2.992188 -5.117188 3.078125 -5.109375 L 3.078125 -4.21875 C 3.023438 -4.226562 2.976562 -4.234375 2.9375 -4.234375 C 2.894531 -4.234375 2.851562 -4.234375 2.8125 -4.234375 C 2.382812 -4.234375 2.054688 -4.097656 1.828125 -3.828125 C 1.597656 -3.554688 1.484375 -3.242188 1.484375 -2.890625 L 1.484375 0 L 0.640625 0 Z M 0.640625 -5.015625 "/>
</g>
<g id="glyph-3-9">
<path d="M 0.8125 -6.875 L 5.84375 -6.875 L 5.84375 -6.03125 L 1.734375 -6.03125 L 1.734375 -3.953125 L 5.53125 -3.953125 L 5.53125 -3.15625 L 1.734375 -3.15625 L 1.734375 -0.8125 L 5.90625 -0.8125 L 5.90625 0 L 0.8125 0 Z M 3.359375 -6.875 Z M 3.359375 -6.875 "/>
</g>
<g id="glyph-3-10">
<path d="M 0.140625 -5.015625 L 1.234375 -5.015625 L 2.390625 -3.25 L 3.546875 -5.015625 L 4.578125 -5 L 2.890625 -2.578125 L 4.65625 0 L 3.578125 0 L 2.328125 -1.890625 L 1.125 0 L 0.046875 0 L 1.8125 -2.578125 Z M 0.140625 -5.015625 "/>
</g>
<g id="glyph-3-11">
<path d="M 2.734375 -0.5625 C 3.128906 -0.5625 3.457031 -0.726562 3.71875 -1.0625 C 3.976562 -1.394531 4.109375 -1.882812 4.109375 -2.53125 C 4.109375 -2.9375 4.050781 -3.28125 3.9375 -3.5625 C 3.71875 -4.125 3.316406 -4.40625 2.734375 -4.40625 C 2.148438 -4.40625 1.75 -4.109375 1.53125 -3.515625 C 1.414062 -3.203125 1.359375 -2.804688 1.359375 -2.328125 C 1.359375 -1.941406 1.414062 -1.613281 1.53125 -1.34375 C 1.75 -0.820312 2.148438 -0.5625 2.734375 -0.5625 Z M 0.546875 -5 L 1.375 -5 L 1.375 -4.328125 C 1.539062 -4.554688 1.722656 -4.734375 1.921875 -4.859375 C 2.210938 -5.046875 2.546875 -5.140625 2.921875 -5.140625 C 3.492188 -5.140625 3.976562 -4.921875 4.375 -4.484375 C 4.769531 -4.046875 4.96875 -3.425781 4.96875 -2.625 C 4.96875 -1.53125 4.679688 -0.75 4.109375 -0.28125 C 3.742188 0.0195312 3.320312 0.171875 2.84375 0.171875 C 2.46875 0.171875 2.148438 0.0859375 1.890625 -0.078125 C 1.742188 -0.171875 1.578125 -0.332031 1.390625 -0.5625 L 1.390625 2 L 0.546875 2 Z M 0.546875 -5 "/>
</g>
<g id="glyph-3-12">
<path d="M 1.125 -1.578125 C 1.144531 -1.296875 1.210938 -1.078125 1.328125 -0.921875 C 1.546875 -0.648438 1.914062 -0.515625 2.4375 -0.515625 C 2.75 -0.515625 3.019531 -0.582031 3.25 -0.71875 C 3.488281 -0.851562 3.609375 -1.066406 3.609375 -1.359375 C 3.609375 -1.566406 3.515625 -1.726562 3.328125 -1.84375 C 3.203125 -1.914062 2.960938 -1.992188 2.609375 -2.078125 L 1.9375 -2.25 C 1.507812 -2.351562 1.195312 -2.472656 1 -2.609375 C 0.632812 -2.835938 0.453125 -3.15625 0.453125 -3.5625 C 0.453125 -4.03125 0.617188 -4.410156 0.953125 -4.703125 C 1.296875 -4.992188 1.757812 -5.140625 2.34375 -5.140625 C 3.09375 -5.140625 3.640625 -4.921875 3.984375 -4.484375 C 4.191406 -4.203125 4.289062 -3.898438 4.28125 -3.578125 L 3.484375 -3.578125 C 3.472656 -3.765625 3.40625 -3.9375 3.28125 -4.09375 C 3.09375 -4.3125 2.757812 -4.421875 2.28125 -4.421875 C 1.957031 -4.421875 1.710938 -4.359375 1.546875 -4.234375 C 1.390625 -4.117188 1.3125 -3.960938 1.3125 -3.765625 C 1.3125 -3.546875 1.414062 -3.367188 1.625 -3.234375 C 1.75 -3.160156 1.9375 -3.09375 2.1875 -3.03125 L 2.734375 -2.890625 C 3.347656 -2.742188 3.753906 -2.601562 3.953125 -2.46875 C 4.285156 -2.25 4.453125 -1.910156 4.453125 -1.453125 C 4.453125 -1.003906 4.28125 -0.617188 3.9375 -0.296875 C 3.601562 0.0234375 3.085938 0.1875 2.390625 0.1875 C 1.648438 0.1875 1.125 0.0195312 0.8125 -0.3125 C 0.5 -0.65625 0.332031 -1.078125 0.3125 -1.578125 Z M 2.359375 -5.140625 Z M 2.359375 -5.140625 "/>
</g>
<g id="glyph-3-13">
</g>
<g id="glyph-3-14">
<path d="M 2.84375 -7 C 2.351562 -6.039062 2.035156 -5.335938 1.890625 -4.890625 C 1.660156 -4.203125 1.546875 -3.410156 1.546875 -2.515625 C 1.546875 -1.609375 1.675781 -0.78125 1.9375 -0.03125 C 2.09375 0.425781 2.398438 1.085938 2.859375 1.953125 L 2.28125 1.953125 C 1.832031 1.242188 1.550781 0.789062 1.4375 0.59375 C 1.332031 0.394531 1.210938 0.128906 1.078125 -0.203125 C 0.898438 -0.671875 0.78125 -1.164062 0.71875 -1.6875 C 0.6875 -1.957031 0.671875 -2.21875 0.671875 -2.46875 C 0.671875 -3.382812 0.8125 -4.207031 1.09375 -4.9375 C 1.28125 -5.394531 1.664062 -6.082031 2.25 -7 Z M 2.84375 -7 "/>
</g>
<g id="glyph-3-15">
<path d="M 1.328125 0 L 0.203125 0 L 2.65625 -3.53125 L 0.34375 -6.875 L 1.515625 -6.875 L 3.28125 -4.25 L 5.015625 -6.875 L 6.125 -6.875 L 3.8125 -3.53125 L 6.234375 0 L 5.078125 0 L 3.234375 -2.828125 Z M 1.328125 0 "/>
</g>
<g id="glyph-3-16">
<path d="M 0.328125 1.953125 C 0.828125 0.984375 1.148438 0.28125 1.296875 -0.15625 C 1.515625 -0.832031 1.625 -1.617188 1.625 -2.515625 C 1.625 -3.421875 1.492188 -4.25 1.234375 -5 C 1.078125 -5.457031 0.769531 -6.125 0.3125 -7 L 0.890625 -7 C 1.367188 -6.226562 1.65625 -5.75 1.75 -5.5625 C 1.851562 -5.382812 1.96875 -5.140625 2.09375 -4.828125 C 2.238281 -4.441406 2.34375 -4.054688 2.40625 -3.671875 C 2.46875 -3.285156 2.5 -2.921875 2.5 -2.578125 C 2.5 -1.648438 2.351562 -0.820312 2.0625 -0.09375 C 1.882812 0.363281 1.503906 1.046875 0.921875 1.953125 Z M 0.328125 1.953125 "/>
</g>
<g id="glyph-3-17">
<path d="M 3.703125 -7.0625 C 4.910156 -7.0625 5.8125 -6.671875 6.40625 -5.890625 C 6.851562 -5.285156 7.078125 -4.507812 7.078125 -3.5625 C 7.078125 -2.53125 6.816406 -1.675781 6.296875 -1 C 5.679688 -0.195312 4.8125 0.203125 3.6875 0.203125 C 2.625 0.203125 1.789062 -0.144531 1.1875 -0.84375 C 0.644531 -1.519531 0.375 -2.375 0.375 -3.40625 C 0.375 -4.332031 0.601562 -5.128906 1.0625 -5.796875 C 1.65625 -6.640625 2.535156 -7.0625 3.703125 -7.0625 Z M 3.796875 -0.625 C 4.617188 -0.625 5.210938 -0.921875 5.578125 -1.515625 C 5.941406 -2.109375 6.125 -2.785156 6.125 -3.546875 C 6.125 -4.359375 5.910156 -5.007812 5.484375 -5.5 C 5.066406 -5.988281 4.488281 -6.234375 3.75 -6.234375 C 3.039062 -6.234375 2.460938 -5.988281 2.015625 -5.5 C 1.566406 -5.019531 1.34375 -4.300781 1.34375 -3.34375 C 1.34375 -2.582031 1.535156 -1.9375 1.921875 -1.40625 C 2.304688 -0.882812 2.929688 -0.625 3.796875 -0.625 Z M 3.734375 -7.0625 Z M 3.734375 -7.0625 "/>
</g>
<g id="glyph-3-18">
<path d="M 0.78125 -6.421875 L 1.640625 -6.421875 L 1.640625 -5.015625 L 2.4375 -5.015625 L 2.4375 -4.328125 L 1.640625 -4.328125 L 1.640625 -1.046875 C 1.640625 -0.878906 1.695312 -0.765625 1.8125 -0.703125 C 1.882812 -0.671875 1.992188 -0.65625 2.140625 -0.65625 C 2.179688 -0.65625 2.222656 -0.65625 2.265625 -0.65625 C 2.316406 -0.65625 2.375 -0.660156 2.4375 -0.671875 L 2.4375 0 C 2.34375 0.03125 2.242188 0.0507812 2.140625 0.0625 C 2.035156 0.0703125 1.921875 0.078125 1.796875 0.078125 C 1.398438 0.078125 1.128906 -0.0195312 0.984375 -0.21875 C 0.847656 -0.425781 0.78125 -0.6875 0.78125 -1 L 0.78125 -4.328125 L 0.109375 -4.328125 L 0.109375 -5.015625 L 0.78125 -5.015625 Z M 0.78125 -6.421875 "/>
</g>
<g id="glyph-3-19">
<path d="M 2.546875 -5.15625 C 3.117188 -5.15625 3.582031 -5.019531 3.9375 -4.75 C 4.289062 -4.476562 4.503906 -4.003906 4.578125 -3.328125 L 3.75 -3.328125 C 3.695312 -3.640625 3.582031 -3.894531 3.40625 -4.09375 C 3.226562 -4.300781 2.941406 -4.40625 2.546875 -4.40625 C 2.015625 -4.40625 1.632812 -4.144531 1.40625 -3.625 C 1.25 -3.28125 1.171875 -2.859375 1.171875 -2.359375 C 1.171875 -1.859375 1.273438 -1.4375 1.484375 -1.09375 C 1.703125 -0.75 2.039062 -0.578125 2.5 -0.578125 C 2.84375 -0.578125 3.117188 -0.679688 3.328125 -0.890625 C 3.535156 -1.109375 3.675781 -1.40625 3.75 -1.78125 L 4.578125 -1.78125 C 4.484375 -1.113281 4.25 -0.625 3.875 -0.3125 C 3.5 -0.0078125 3.019531 0.140625 2.4375 0.140625 C 1.78125 0.140625 1.253906 -0.0976562 0.859375 -0.578125 C 0.472656 -1.054688 0.28125 -1.65625 0.28125 -2.375 C 0.28125 -3.25 0.492188 -3.929688 0.921875 -4.421875 C 1.347656 -4.910156 1.890625 -5.15625 2.546875 -5.15625 Z M 2.421875 -5.140625 Z M 2.421875 -5.140625 "/>
</g>
<g id="glyph-3-20">
<path d="M 0.625 -5.015625 L 1.453125 -5.015625 L 1.453125 -4.3125 C 1.648438 -4.550781 1.832031 -4.726562 2 -4.84375 C 2.269531 -5.03125 2.582031 -5.125 2.9375 -5.125 C 3.34375 -5.125 3.664062 -5.023438 3.90625 -4.828125 C 4.039062 -4.722656 4.164062 -4.5625 4.28125 -4.34375 C 4.46875 -4.601562 4.6875 -4.796875 4.9375 -4.921875 C 5.195312 -5.054688 5.484375 -5.125 5.796875 -5.125 C 6.472656 -5.125 6.929688 -4.882812 7.171875 -4.40625 C 7.304688 -4.132812 7.375 -3.78125 7.375 -3.34375 L 7.375 0 L 6.5 0 L 6.5 -3.484375 C 6.5 -3.816406 6.410156 -4.046875 6.234375 -4.171875 C 6.066406 -4.296875 5.863281 -4.359375 5.625 -4.359375 C 5.300781 -4.359375 5.019531 -4.25 4.78125 -4.03125 C 4.539062 -3.8125 4.421875 -3.441406 4.421875 -2.921875 L 4.421875 0 L 3.5625 0 L 3.5625 -3.28125 C 3.5625 -3.613281 3.519531 -3.859375 3.4375 -4.015625 C 3.3125 -4.253906 3.070312 -4.375 2.71875 -4.375 C 2.40625 -4.375 2.117188 -4.25 1.859375 -4 C 1.597656 -3.75 1.46875 -3.300781 1.46875 -2.65625 L 1.46875 0 L 0.625 0 Z M 0.625 -5.015625 "/>
</g>
<g id="glyph-3-21">
<path d="M 0.203125 -6.875 L 1.28125 -6.875 L 3.265625 -3.578125 L 5.234375 -6.875 L 6.328125 -6.875 L 3.734375 -2.765625 L 3.734375 0 L 2.796875 0 L 2.796875 -2.765625 Z M 3.28125 -6.875 Z M 3.28125 -6.875 "/>
</g>
<g id="glyph-4-0">
<path d="M 0.46875 0 L 0.46875 -10.328125 L 8.671875 -10.328125 L 8.671875 0 Z M 7.375 -1.296875 L 7.375 -9.046875 L 1.765625 -9.046875 L 1.765625 -1.296875 Z M 7.375 -1.296875 "/>
</g>
<g id="glyph-4-1">
<path d="M 5.453125 -10.609375 C 6.765625 -10.609375 7.78125 -10.265625 8.5 -9.578125 C 9.21875 -8.890625 9.617188 -8.109375 9.703125 -7.234375 L 8.328125 -7.234375 C 8.179688 -7.898438 7.875 -8.425781 7.40625 -8.8125 C 6.945312 -9.195312 6.300781 -9.390625 5.46875 -9.390625 C 4.445312 -9.390625 3.625 -9.03125 3 -8.3125 C 2.375 -7.601562 2.0625 -6.507812 2.0625 -5.03125 C 2.0625 -3.820312 2.34375 -2.84375 2.90625 -2.09375 C 3.46875 -1.34375 4.3125 -0.96875 5.4375 -0.96875 C 6.46875 -0.96875 7.253906 -1.363281 7.796875 -2.15625 C 8.078125 -2.570312 8.289062 -3.117188 8.4375 -3.796875 L 9.796875 -3.796875 C 9.671875 -2.710938 9.269531 -1.800781 8.59375 -1.0625 C 7.769531 -0.175781 6.660156 0.265625 5.265625 0.265625 C 4.066406 0.265625 3.0625 -0.0976562 2.25 -0.828125 C 1.175781 -1.785156 0.640625 -3.269531 0.640625 -5.28125 C 0.640625 -6.800781 1.039062 -8.050781 1.84375 -9.03125 C 2.71875 -10.082031 3.921875 -10.609375 5.453125 -10.609375 Z M 5.171875 -10.609375 Z M 5.171875 -10.609375 "/>
</g>
<g id="glyph-4-2">
<path d="M 1.90625 -2 C 1.90625 -1.632812 2.035156 -1.347656 2.296875 -1.140625 C 2.566406 -0.929688 2.882812 -0.828125 3.25 -0.828125 C 3.695312 -0.828125 4.128906 -0.925781 4.546875 -1.125 C 5.242188 -1.46875 5.59375 -2.03125 5.59375 -2.8125 L 5.59375 -3.828125 C 5.4375 -3.734375 5.238281 -3.648438 5 -3.578125 C 4.757812 -3.515625 4.519531 -3.472656 4.28125 -3.453125 L 3.515625 -3.34375 C 3.054688 -3.28125 2.710938 -3.1875 2.484375 -3.0625 C 2.097656 -2.84375 1.90625 -2.488281 1.90625 -2 Z M 4.96875 -4.5625 C 5.257812 -4.601562 5.453125 -4.726562 5.546875 -4.9375 C 5.609375 -5.039062 5.640625 -5.203125 5.640625 -5.421875 C 5.640625 -5.847656 5.484375 -6.15625 5.171875 -6.34375 C 4.867188 -6.539062 4.429688 -6.640625 3.859375 -6.640625 C 3.191406 -6.640625 2.722656 -6.460938 2.453125 -6.109375 C 2.296875 -5.910156 2.191406 -5.617188 2.140625 -5.234375 L 0.96875 -5.234375 C 0.988281 -6.160156 1.285156 -6.804688 1.859375 -7.171875 C 2.441406 -7.535156 3.117188 -7.71875 3.890625 -7.71875 C 4.773438 -7.71875 5.492188 -7.546875 6.046875 -7.203125 C 6.585938 -6.867188 6.859375 -6.347656 6.859375 -5.640625 L 6.859375 -1.296875 C 6.859375 -1.160156 6.882812 -1.050781 6.9375 -0.96875 C 7 -0.894531 7.113281 -0.859375 7.28125 -0.859375 C 7.34375 -0.859375 7.40625 -0.859375 7.46875 -0.859375 C 7.539062 -0.867188 7.617188 -0.882812 7.703125 -0.90625 L 7.703125 0.03125 C 7.503906 0.09375 7.351562 0.128906 7.25 0.140625 C 7.144531 0.148438 7.003906 0.15625 6.828125 0.15625 C 6.390625 0.15625 6.070312 0.00390625 5.875 -0.296875 C 5.769531 -0.460938 5.695312 -0.695312 5.65625 -1 C 5.40625 -0.664062 5.035156 -0.375 4.546875 -0.125 C 4.066406 0.121094 3.535156 0.25 2.953125 0.25 C 2.253906 0.25 1.679688 0.0390625 1.234375 -0.375 C 0.796875 -0.800781 0.578125 -1.335938 0.578125 -1.984375 C 0.578125 -2.679688 0.796875 -3.21875 1.234375 -3.59375 C 1.671875 -3.976562 2.242188 -4.21875 2.953125 -4.3125 Z M 3.921875 -7.71875 Z M 3.921875 -7.71875 "/>
</g>
<g id="glyph-4-3">
<path d="M 2.1875 -7.53125 L 2.1875 -2.53125 C 2.1875 -2.144531 2.25 -1.832031 2.375 -1.59375 C 2.601562 -1.144531 3.023438 -0.921875 3.640625 -0.921875 C 4.515625 -0.921875 5.113281 -1.3125 5.4375 -2.09375 C 5.613281 -2.519531 5.703125 -3.097656 5.703125 -3.828125 L 5.703125 -7.53125 L 6.96875 -7.53125 L 6.96875 0 L 5.765625 0 L 5.78125 -1.109375 C 5.613281 -0.828125 5.410156 -0.585938 5.171875 -0.390625 C 4.691406 0.00390625 4.101562 0.203125 3.40625 0.203125 C 2.332031 0.203125 1.601562 -0.15625 1.21875 -0.875 C 1.007812 -1.257812 0.90625 -1.769531 0.90625 -2.40625 L 0.90625 -7.53125 Z M 3.9375 -7.71875 Z M 3.9375 -7.71875 "/>
</g>
<g id="glyph-4-4">
<path d="M 1.6875 -2.359375 C 1.71875 -1.941406 1.820312 -1.617188 2 -1.390625 C 2.3125 -0.984375 2.863281 -0.78125 3.65625 -0.78125 C 4.125 -0.78125 4.535156 -0.878906 4.890625 -1.078125 C 5.253906 -1.285156 5.4375 -1.601562 5.4375 -2.03125 C 5.4375 -2.351562 5.289062 -2.597656 5 -2.765625 C 4.820312 -2.867188 4.460938 -2.988281 3.921875 -3.125 L 2.90625 -3.390625 C 2.269531 -3.546875 1.796875 -3.722656 1.484375 -3.921875 C 0.941406 -4.265625 0.671875 -4.738281 0.671875 -5.34375 C 0.671875 -6.050781 0.925781 -6.625 1.4375 -7.0625 C 1.957031 -7.507812 2.648438 -7.734375 3.515625 -7.734375 C 4.648438 -7.734375 5.46875 -7.398438 5.96875 -6.734375 C 6.28125 -6.304688 6.429688 -5.847656 6.421875 -5.359375 L 5.234375 -5.359375 C 5.210938 -5.648438 5.113281 -5.910156 4.9375 -6.140625 C 4.644531 -6.472656 4.140625 -6.640625 3.421875 -6.640625 C 2.941406 -6.640625 2.578125 -6.546875 2.328125 -6.359375 C 2.085938 -6.179688 1.96875 -5.945312 1.96875 -5.65625 C 1.96875 -5.320312 2.128906 -5.054688 2.453125 -4.859375 C 2.640625 -4.742188 2.914062 -4.640625 3.28125 -4.546875 L 4.109375 -4.34375 C 5.023438 -4.125 5.632812 -3.910156 5.9375 -3.703125 C 6.4375 -3.378906 6.6875 -2.875 6.6875 -2.1875 C 6.6875 -1.507812 6.429688 -0.925781 5.921875 -0.4375 C 5.410156 0.0390625 4.632812 0.28125 3.59375 0.28125 C 2.46875 0.28125 1.671875 0.0273438 1.203125 -0.46875 C 0.742188 -0.976562 0.5 -1.609375 0.46875 -2.359375 Z M 3.546875 -7.71875 Z M 3.546875 -7.71875 "/>
</g>
<g id="glyph-4-5">
<path d="M 0.96875 -10.328125 L 2.234375 -10.328125 L 2.234375 0 L 0.96875 0 Z M 0.96875 -10.328125 "/>
</g>
<g id="glyph-4-6">
</g>
<g id="glyph-4-7">
<path d="M 2.015625 -3.328125 C 2.046875 -2.742188 2.179688 -2.269531 2.421875 -1.90625 C 2.890625 -1.21875 3.707031 -0.875 4.875 -0.875 C 5.40625 -0.875 5.882812 -0.953125 6.3125 -1.109375 C 7.144531 -1.398438 7.5625 -1.921875 7.5625 -2.671875 C 7.5625 -3.234375 7.390625 -3.632812 7.046875 -3.875 C 6.679688 -4.101562 6.117188 -4.304688 5.359375 -4.484375 L 3.96875 -4.796875 C 3.050781 -5.003906 2.40625 -5.234375 2.03125 -5.484375 C 1.375 -5.910156 1.046875 -6.554688 1.046875 -7.421875 C 1.046875 -8.347656 1.363281 -9.109375 2 -9.703125 C 2.644531 -10.296875 3.554688 -10.59375 4.734375 -10.59375 C 5.816406 -10.59375 6.734375 -10.332031 7.484375 -9.8125 C 8.242188 -9.289062 8.625 -8.453125 8.625 -7.296875 L 7.3125 -7.296875 C 7.238281 -7.847656 7.085938 -8.273438 6.859375 -8.578125 C 6.429688 -9.117188 5.707031 -9.390625 4.6875 -9.390625 C 3.863281 -9.390625 3.269531 -9.210938 2.90625 -8.859375 C 2.550781 -8.515625 2.375 -8.113281 2.375 -7.65625 C 2.375 -7.144531 2.582031 -6.773438 3 -6.546875 C 3.28125 -6.390625 3.90625 -6.203125 4.875 -5.984375 L 6.328125 -5.65625 C 7.023438 -5.488281 7.566406 -5.269531 7.953125 -5 C 8.609375 -4.507812 8.9375 -3.804688 8.9375 -2.890625 C 8.9375 -1.742188 8.519531 -0.925781 7.6875 -0.4375 C 6.851562 0.0507812 5.882812 0.296875 4.78125 0.296875 C 3.5 0.296875 2.492188 -0.03125 1.765625 -0.6875 C 1.035156 -1.332031 0.679688 -2.210938 0.703125 -3.328125 Z M 4.84375 -10.609375 Z M 4.84375 -10.609375 "/>
</g>
<g id="glyph-4-8">
<path d="M 1.1875 -9.640625 L 2.46875 -9.640625 L 2.46875 -7.53125 L 3.671875 -7.53125 L 3.671875 -6.5 L 2.46875 -6.5 L 2.46875 -1.578125 C 2.46875 -1.316406 2.554688 -1.144531 2.734375 -1.0625 C 2.828125 -1.007812 2.988281 -0.984375 3.21875 -0.984375 C 3.28125 -0.984375 3.347656 -0.984375 3.421875 -0.984375 C 3.492188 -0.984375 3.578125 -0.988281 3.671875 -1 L 3.671875 0 C 3.523438 0.0390625 3.367188 0.0703125 3.203125 0.09375 C 3.046875 0.113281 2.878906 0.125 2.703125 0.125 C 2.109375 0.125 1.707031 -0.0234375 1.5 -0.328125 C 1.289062 -0.628906 1.1875 -1.023438 1.1875 -1.515625 L 1.1875 -6.5 L 0.15625 -6.5 L 0.15625 -7.53125 L 1.1875 -7.53125 Z M 1.1875 -9.640625 "/>
</g>
<g id="glyph-4-9">
<path d="M 0.96875 -7.53125 L 2.171875 -7.53125 L 2.171875 -6.234375 C 2.265625 -6.484375 2.503906 -6.789062 2.890625 -7.15625 C 3.273438 -7.519531 3.71875 -7.703125 4.21875 -7.703125 C 4.238281 -7.703125 4.273438 -7.695312 4.328125 -7.6875 C 4.390625 -7.6875 4.488281 -7.679688 4.625 -7.671875 L 4.625 -6.328125 C 4.550781 -6.347656 4.484375 -6.359375 4.421875 -6.359375 C 4.359375 -6.359375 4.289062 -6.359375 4.21875 -6.359375 C 3.570312 -6.359375 3.078125 -6.15625 2.734375 -5.75 C 2.398438 -5.34375 2.234375 -4.867188 2.234375 -4.328125 L 2.234375 0 L 0.96875 0 Z M 0.96875 -7.53125 "/>
</g>
<g id="glyph-4-10">
<path d="M 3.828125 -7.75 C 4.679688 -7.75 5.375 -7.539062 5.90625 -7.125 C 6.4375 -6.71875 6.753906 -6.007812 6.859375 -5 L 5.640625 -5 C 5.554688 -5.46875 5.378906 -5.851562 5.109375 -6.15625 C 4.847656 -6.46875 4.421875 -6.625 3.828125 -6.625 C 3.023438 -6.625 2.453125 -6.226562 2.109375 -5.4375 C 1.878906 -4.925781 1.765625 -4.296875 1.765625 -3.546875 C 1.765625 -2.785156 1.921875 -2.144531 2.234375 -1.625 C 2.554688 -1.113281 3.0625 -0.859375 3.75 -0.859375 C 4.269531 -0.859375 4.679688 -1.019531 4.984375 -1.34375 C 5.296875 -1.664062 5.515625 -2.109375 5.640625 -2.671875 L 6.859375 -2.671875 C 6.722656 -1.671875 6.375 -0.9375 5.8125 -0.46875 C 5.25 -0.0078125 4.53125 0.21875 3.65625 0.21875 C 2.664062 0.21875 1.878906 -0.140625 1.296875 -0.859375 C 0.710938 -1.578125 0.421875 -2.476562 0.421875 -3.5625 C 0.421875 -4.882812 0.738281 -5.910156 1.375 -6.640625 C 2.019531 -7.378906 2.835938 -7.75 3.828125 -7.75 Z M 3.640625 -7.71875 Z M 3.640625 -7.71875 "/>
</g>
<g id="glyph-4-11">
<path d="M 4.0625 -7.703125 C 4.601562 -7.703125 5.125 -7.578125 5.625 -7.328125 C 6.125 -7.078125 6.503906 -6.753906 6.765625 -6.359375 C 7.015625 -5.972656 7.1875 -5.523438 7.28125 -5.015625 C 7.351562 -4.671875 7.390625 -4.117188 7.390625 -3.359375 L 1.859375 -3.359375 C 1.890625 -2.597656 2.070312 -1.984375 2.40625 -1.515625 C 2.738281 -1.054688 3.257812 -0.828125 3.96875 -0.828125 C 4.632812 -0.828125 5.164062 -1.046875 5.5625 -1.484375 C 5.78125 -1.734375 5.9375 -2.023438 6.03125 -2.359375 L 7.28125 -2.359375 C 7.25 -2.085938 7.140625 -1.78125 6.953125 -1.4375 C 6.765625 -1.09375 6.554688 -0.816406 6.328125 -0.609375 C 5.941406 -0.234375 5.46875 0.0195312 4.90625 0.15625 C 4.601562 0.226562 4.257812 0.265625 3.875 0.265625 C 2.9375 0.265625 2.140625 -0.0703125 1.484375 -0.75 C 0.828125 -1.4375 0.5 -2.394531 0.5 -3.625 C 0.5 -4.832031 0.828125 -5.8125 1.484375 -6.5625 C 2.140625 -7.320312 3 -7.703125 4.0625 -7.703125 Z M 6.078125 -4.375 C 6.023438 -4.914062 5.90625 -5.351562 5.71875 -5.6875 C 5.375 -6.289062 4.796875 -6.59375 3.984375 -6.59375 C 3.398438 -6.59375 2.910156 -6.382812 2.515625 -5.96875 C 2.128906 -5.550781 1.925781 -5.019531 1.90625 -4.375 Z M 3.953125 -7.71875 Z M 3.953125 -7.71875 "/>
</g>
<g id="glyph-4-12">
<path d="M 1.59375 -7.4375 L 3.0625 -7.4375 L 3.0625 -5.90625 L 1.59375 -5.90625 Z M 1.59375 -1.53125 L 3.0625 -1.53125 L 3.0625 0 L 1.59375 0 Z M 1.59375 -1.53125 "/>
</g>
<g id="glyph-4-13">
<path d="M 1.234375 -10.328125 L 8.765625 -10.328125 L 8.765625 -9.0625 L 2.59375 -9.0625 L 2.59375 -5.9375 L 8.296875 -5.9375 L 8.296875 -4.734375 L 2.59375 -4.734375 L 2.59375 -1.234375 L 8.875 -1.234375 L 8.875 0 L 1.234375 0 Z M 5.046875 -10.328125 Z M 5.046875 -10.328125 "/>
</g>
<g id="glyph-4-14">
<path d="M 0.21875 -7.53125 L 1.84375 -7.53125 L 3.578125 -4.875 L 5.328125 -7.53125 L 6.875 -7.5 L 4.328125 -3.859375 L 6.984375 0 L 5.359375 0 L 3.5 -2.828125 L 1.6875 0 L 0.078125 0 L 2.734375 -3.859375 Z M 0.21875 -7.53125 "/>
</g>
<g id="glyph-4-15">
<path d="M 0.921875 -7.5 L 2.21875 -7.5 L 2.21875 0 L 0.921875 0 Z M 0.921875 -10.328125 L 2.21875 -10.328125 L 2.21875 -8.890625 L 0.921875 -8.890625 Z M 0.921875 -10.328125 "/>
</g>
<g id="glyph-4-16">
<path d="M 4.265625 -10.5 C 3.523438 -9.070312 3.046875 -8.019531 2.828125 -7.34375 C 2.492188 -6.3125 2.328125 -5.125 2.328125 -3.78125 C 2.328125 -2.425781 2.515625 -1.1875 2.890625 -0.0625 C 3.128906 0.632812 3.59375 1.632812 4.28125 2.9375 L 3.4375 2.9375 C 2.75 1.875 2.320312 1.191406 2.15625 0.890625 C 1.988281 0.597656 1.8125 0.195312 1.625 -0.3125 C 1.363281 -1 1.179688 -1.738281 1.078125 -2.53125 C 1.023438 -2.9375 1 -3.328125 1 -3.703125 C 1 -5.085938 1.21875 -6.320312 1.65625 -7.40625 C 1.925781 -8.09375 2.503906 -9.125 3.390625 -10.5 Z M 4.265625 -10.5 "/>
</g>
<g id="glyph-4-17">
<path d="M 1.984375 0 L 0.296875 0 L 4 -5.296875 L 0.53125 -10.328125 L 2.28125 -10.328125 L 4.921875 -6.375 L 7.53125 -10.328125 L 9.203125 -10.328125 L 5.734375 -5.296875 L 9.375 0 L 7.625 0 L 4.84375 -4.25 Z M 1.984375 0 "/>
</g>
<g id="glyph-4-18">
<path d="M 0.5 2.9375 C 1.25 1.488281 1.726562 0.429688 1.9375 -0.234375 C 2.269531 -1.242188 2.4375 -2.425781 2.4375 -3.78125 C 2.4375 -5.132812 2.242188 -6.375 1.859375 -7.5 C 1.628906 -8.195312 1.171875 -9.195312 0.484375 -10.5 L 1.328125 -10.5 C 2.046875 -9.34375 2.484375 -8.628906 2.640625 -8.359375 C 2.796875 -8.097656 2.960938 -7.726562 3.140625 -7.25 C 3.359375 -6.664062 3.515625 -6.085938 3.609375 -5.515625 C 3.710938 -4.941406 3.765625 -4.390625 3.765625 -3.859375 C 3.765625 -2.472656 3.546875 -1.234375 3.109375 -0.140625 C 2.828125 0.554688 2.25 1.582031 1.375 2.9375 Z M 0.5 2.9375 "/>
</g>
<g id="glyph-4-19">
<path d="M 0.921875 -7.53125 L 2.125 -7.53125 L 2.125 -6.46875 C 2.488281 -6.90625 2.867188 -7.21875 3.265625 -7.40625 C 3.660156 -7.601562 4.101562 -7.703125 4.59375 -7.703125 C 5.664062 -7.703125 6.390625 -7.328125 6.765625 -6.578125 C 6.960938 -6.171875 7.0625 -5.585938 7.0625 -4.828125 L 7.0625 0 L 5.78125 0 L 5.78125 -4.75 C 5.78125 -5.207031 5.710938 -5.578125 5.578125 -5.859375 C 5.347656 -6.328125 4.941406 -6.5625 4.359375 -6.5625 C 4.054688 -6.5625 3.804688 -6.53125 3.609375 -6.46875 C 3.265625 -6.363281 2.960938 -6.160156 2.703125 -5.859375 C 2.492188 -5.609375 2.351562 -5.347656 2.28125 -5.078125 C 2.21875 -4.816406 2.1875 -4.441406 2.1875 -3.953125 L 2.1875 0 L 0.921875 0 Z M 3.90625 -7.71875 Z M 3.90625 -7.71875 "/>
</g>
<g id="glyph-4-20">
<path d="M 1.734375 -3.671875 C 1.734375 -2.867188 1.898438 -2.195312 2.234375 -1.65625 C 2.578125 -1.113281 3.128906 -0.84375 3.890625 -0.84375 C 4.472656 -0.84375 4.953125 -1.09375 5.328125 -1.59375 C 5.710938 -2.09375 5.90625 -2.816406 5.90625 -3.765625 C 5.90625 -4.710938 5.707031 -5.414062 5.3125 -5.875 C 4.925781 -6.332031 4.445312 -6.5625 3.875 -6.5625 C 3.238281 -6.5625 2.722656 -6.316406 2.328125 -5.828125 C 1.929688 -5.335938 1.734375 -4.617188 1.734375 -3.671875 Z M 3.640625 -7.671875 C 4.210938 -7.671875 4.691406 -7.546875 5.078125 -7.296875 C 5.304688 -7.160156 5.566406 -6.914062 5.859375 -6.5625 L 5.859375 -10.375 L 7.0625 -10.375 L 7.0625 0 L 5.9375 0 L 5.9375 -1.046875 C 5.632812 -0.585938 5.28125 -0.253906 4.875 -0.046875 C 4.476562 0.160156 4.019531 0.265625 3.5 0.265625 C 2.65625 0.265625 1.925781 -0.0820312 1.3125 -0.78125 C 0.695312 -1.488281 0.390625 -2.429688 0.390625 -3.609375 C 0.390625 -4.703125 0.671875 -5.648438 1.234375 -6.453125 C 1.796875 -7.265625 2.597656 -7.671875 3.640625 -7.671875 Z M 3.640625 -7.671875 "/>
</g>
<g id="glyph-4-21">
<path d="M 4.984375 -5.96875 C 5.566406 -5.96875 6.023438 -6.050781 6.359375 -6.21875 C 6.867188 -6.46875 7.125 -6.929688 7.125 -7.609375 C 7.125 -8.273438 6.851562 -8.726562 6.3125 -8.96875 C 6 -9.101562 5.539062 -9.171875 4.9375 -9.171875 L 2.4375 -9.171875 L 2.4375 -5.96875 Z M 5.453125 -1.203125 C 6.304688 -1.203125 6.914062 -1.445312 7.28125 -1.9375 C 7.507812 -2.25 7.625 -2.628906 7.625 -3.078125 C 7.625 -3.828125 7.289062 -4.335938 6.625 -4.609375 C 6.269531 -4.753906 5.800781 -4.828125 5.21875 -4.828125 L 2.4375 -4.828125 L 2.4375 -1.203125 Z M 1.0625 -10.328125 L 5.5 -10.328125 C 6.707031 -10.328125 7.566406 -9.96875 8.078125 -9.25 C 8.378906 -8.820312 8.53125 -8.328125 8.53125 -7.765625 C 8.53125 -7.117188 8.347656 -6.585938 7.984375 -6.171875 C 7.785156 -5.953125 7.503906 -5.75 7.140625 -5.5625 C 7.671875 -5.363281 8.066406 -5.132812 8.328125 -4.875 C 8.796875 -4.425781 9.03125 -3.804688 9.03125 -3.015625 C 9.03125 -2.347656 8.820312 -1.742188 8.40625 -1.203125 C 7.78125 -0.398438 6.789062 0 5.4375 0 L 1.0625 0 Z M 1.0625 -10.328125 "/>
</g>
<g id="glyph-4-22">
<path d="M 3.921875 -0.8125 C 4.753906 -0.8125 5.328125 -1.128906 5.640625 -1.765625 C 5.953125 -2.398438 6.109375 -3.109375 6.109375 -3.890625 C 6.109375 -4.585938 6 -5.160156 5.78125 -5.609375 C 5.414062 -6.296875 4.800781 -6.640625 3.9375 -6.640625 C 3.15625 -6.640625 2.585938 -6.34375 2.234375 -5.75 C 1.890625 -5.164062 1.71875 -4.457031 1.71875 -3.625 C 1.71875 -2.820312 1.890625 -2.148438 2.234375 -1.609375 C 2.585938 -1.078125 3.148438 -0.8125 3.921875 -0.8125 Z M 3.96875 -7.75 C 4.9375 -7.75 5.753906 -7.425781 6.421875 -6.78125 C 7.097656 -6.132812 7.4375 -5.179688 7.4375 -3.921875 C 7.4375 -2.710938 7.140625 -1.707031 6.546875 -0.90625 C 5.953125 -0.113281 5.035156 0.28125 3.796875 0.28125 C 2.765625 0.28125 1.941406 -0.0664062 1.328125 -0.765625 C 0.722656 -1.472656 0.421875 -2.421875 0.421875 -3.609375 C 0.421875 -4.867188 0.738281 -5.875 1.375 -6.625 C 2.019531 -7.375 2.882812 -7.75 3.96875 -7.75 Z M 3.921875 -7.71875 Z M 3.921875 -7.71875 "/>
</g>
<g id="glyph-4-23">
<path d="M 1.234375 -10.328125 L 5.875 -10.328125 C 6.800781 -10.328125 7.546875 -10.066406 8.109375 -9.546875 C 8.671875 -9.035156 8.953125 -8.3125 8.953125 -7.375 C 8.953125 -6.5625 8.695312 -5.859375 8.1875 -5.265625 C 7.6875 -4.671875 6.914062 -4.375 5.875 -4.375 L 2.625 -4.375 L 2.625 0 L 1.234375 0 Z M 7.53125 -7.359375 C 7.53125 -8.117188 7.25 -8.632812 6.6875 -8.90625 C 6.375 -9.050781 5.953125 -9.125 5.421875 -9.125 L 2.625 -9.125 L 2.625 -5.546875 L 5.421875 -5.546875 C 6.046875 -5.546875 6.550781 -5.679688 6.9375 -5.953125 C 7.332031 -6.222656 7.53125 -6.691406 7.53125 -7.359375 Z M 7.53125 -7.359375 "/>
</g>
<g id="glyph-4-24">
<path d="M 0.296875 -10.328125 L 1.921875 -10.328125 L 4.890625 -5.359375 L 7.859375 -10.328125 L 9.5 -10.328125 L 5.59375 -4.171875 L 5.59375 0 L 4.203125 0 L 4.203125 -4.171875 Z M 4.921875 -10.328125 Z M 4.921875 -10.328125 "/>
</g>
</g>
</defs>
<rect x="-57.6" y="-36" width="691.2" height="432" fill="rgb(100%, 100%, 100%)" fill-opacity="1"/>
<rect x="-57.6" y="-36" width="691.2" height="432" fill="rgb(100%, 100%, 100%)" fill-opacity="1"/>
<path fill="none" stroke-width="1.280374" stroke-linecap="butt" stroke-linejoin="round" stroke="rgb(0%, 0%, 0%)" stroke-opacity="1" stroke-miterlimit="1" d="M 383.355469 237.15625 L 382.6875 236.90625 L 380.699219 236.148438 L 378.714844 235.390625 L 376.726562 234.632812 L 374.738281 233.878906 L 372.753906 233.121094 L 370.765625 232.363281 L 368.777344 231.609375 L 366.789062 230.851562 L 364.804688 230.09375 L 362.816406 229.339844 L 360.828125 228.582031 L 358.84375 227.824219 L 356.855469 227.070312 L 354.867188 226.3125 L 352.882812 225.554688 L 350.894531 224.796875 L 348.90625 224.042969 L 346.917969 223.285156 L 344.933594 222.527344 L 342.945312 221.773438 L 340.957031 221.015625 L 338.972656 220.257812 L 336.984375 219.503906 L 333.007812 217.988281 L 331.023438 217.234375 L 327.046875 215.71875 L 325.0625 214.960938 L 323.074219 214.207031 L 321.085938 213.449219 L 319.101562 212.691406 L 317.113281 211.9375 L 313.136719 210.421875 L 311.152344 209.667969 L 307.175781 208.152344 L 305.191406 207.398438 L 299.226562 205.125 L 297.242188 204.371094 L 293.265625 202.855469 L 291.28125 202.101562 L 287.304688 200.585938 L 285.316406 199.832031 L 283.332031 199.074219 L 281.34375 198.316406 L 279.355469 197.5625 L 277.371094 196.804688 L 273.394531 195.289062 L 271.410156 194.535156 L 267.433594 193.019531 L 265.445312 192.265625 L 263.460938 191.507812 L 261.472656 190.75 L 259.484375 189.996094 L 257.5 189.238281 L 255.511719 188.480469 L 253.523438 187.726562 L 251.535156 186.96875 L 249.550781 186.210938 L 247.5625 185.453125 L 245.574219 184.699219 L 243.589844 183.941406 L 241.601562 183.183594 L 239.613281 182.429688 L 237.625 181.671875 L 235.640625 180.914062 L 233.652344 180.160156 L 231.664062 179.402344 L 229.679688 178.644531 L 229.011719 178.390625 "/>
<path fill-rule="nonzero" fill="rgb(0%, 0%, 0%)" fill-opacity="1" stroke-width="1.280374" stroke-linecap="butt" stroke-linejoin="round" stroke="rgb(0%, 0%, 0%)" stroke-opacity="1" stroke-miterlimit="1" d="M 233.929688 177.597656 L 229.011719 178.390625 L 232.15625 182.253906 Z M 233.929688 177.597656 "/>
<path fill="none" stroke-width="1.280374" stroke-linecap="butt" stroke-linejoin="round" stroke="rgb(0%, 0%, 0%)" stroke-opacity="1" stroke-miterlimit="1" d="M 381.96875 243.113281 L 381.128906 243.035156 L 379.457031 242.875 L 377.78125 242.71875 L 371.09375 242.09375 L 369.417969 241.9375 L 364.402344 241.46875 L 362.730469 241.308594 L 361.054688 241.152344 L 356.039062 240.683594 L 354.363281 240.527344 L 349.347656 240.058594 L 347.675781 239.898438 L 346 239.742188 L 340.984375 239.273438 L 339.308594 239.117188 L 334.292969 238.648438 L 332.621094 238.488281 L 330.945312 238.332031 L 324.257812 237.707031 L 322.582031 237.550781 L 319.238281 237.238281 L 317.566406 237.078125 L 315.890625 236.921875 L 309.203125 236.296875 L 307.527344 236.140625 L 304.183594 235.828125 L 302.511719 235.667969 L 300.835938 235.511719 L 294.148438 234.886719 L 292.472656 234.730469 L 287.457031 234.261719 L 285.785156 234.101562 L 284.109375 233.945312 L 279.09375 233.476562 L 277.417969 233.320312 L 272.402344 232.851562 L 270.730469 232.691406 L 269.054688 232.535156 L 264.039062 232.066406 L 262.363281 231.910156 L 261.523438 231.832031 "/>
<path fill-rule="nonzero" fill="rgb(0%, 0%, 0%)" fill-opacity="1" stroke-width="1.280374" stroke-linecap="butt" stroke-linejoin="round" stroke="rgb(0%, 0%, 0%)" stroke-opacity="1" stroke-miterlimit="1" d="M 266.054688 229.753906 L 261.523438 231.832031 L 265.589844 234.714844 Z M 266.054688 229.753906 "/>
<path fill="none" stroke-width="1.280374" stroke-linecap="butt" stroke-linejoin="round" stroke="rgb(0%, 0%, 0%)" stroke-opacity="1" stroke-miterlimit="1" d="M 142.816406 307.765625 L 142.929688 307.523438 L 143.6875 305.929688 L 144.441406 304.335938 L 145.195312 302.738281 L 145.949219 301.144531 L 146.703125 299.546875 L 147.457031 297.953125 L 148.214844 296.359375 L 148.96875 294.761719 L 149.722656 293.167969 L 150.476562 291.570312 L 151.230469 289.976562 L 151.984375 288.378906 L 152.738281 286.785156 L 153.496094 285.191406 L 154.25 283.59375 L 155.003906 282 L 155.757812 280.402344 L 157.265625 277.214844 L 158.023438 275.617188 L 158.777344 274.023438 L 159.53125 272.425781 L 160.285156 270.832031 L 161.039062 269.234375 L 162.546875 266.046875 L 163.304688 264.449219 L 164.058594 262.855469 L 164.8125 261.257812 L 166.320312 258.070312 L 167.074219 256.472656 L 167.832031 254.878906 L 168.585938 253.28125 L 169.339844 251.6875 L 170.09375 250.089844 L 171.601562 246.902344 L 172.359375 245.304688 L 173.113281 243.710938 L 173.867188 242.113281 L 175.375 238.925781 L 176.128906 237.328125 L 176.882812 235.734375 L 177.640625 234.136719 L 178.394531 232.542969 L 179.148438 230.945312 L 180.65625 227.757812 L 181.410156 226.160156 L 182.167969 224.566406 L 182.921875 222.96875 L 184.429688 219.78125 L 185.183594 218.183594 L 185.9375 216.589844 L 186.691406 214.992188 L 187.449219 213.398438 L 188.203125 211.800781 L 189.710938 208.613281 L 190.464844 207.015625 L 191.21875 205.421875 L 191.976562 203.824219 L 193.484375 200.636719 L 194.238281 199.039062 L 194.992188 197.445312 L 195.746094 195.847656 L 196.503906 194.253906 L 197.257812 192.65625 L 198.011719 191.0625 L 198.125 190.824219 "/>
<path fill-rule="nonzero" fill="rgb(0%, 0%, 0%)" fill-opacity="1" stroke-width="1.280374" stroke-linecap="butt" stroke-linejoin="round" stroke="rgb(0%, 0%, 0%)" stroke-opacity="1" stroke-miterlimit="1" d="M 198.53125 195.789062 L 198.125 190.824219 L 194.027344 193.65625 Z M 198.53125 195.789062 "/>
<path fill="none" stroke-width="1.280374" stroke-linecap="butt" stroke-linejoin="round" stroke="rgb(0%, 0%, 0%)" stroke-opacity="1" stroke-miterlimit="1" d="M 149.71875 312.808594 L 150.226562 312.335938 L 151.292969 311.34375 L 153.433594 309.351562 L 154.5 308.355469 L 155.570312 307.359375 L 156.640625 306.367188 L 157.707031 305.371094 L 159.847656 303.378906 L 160.914062 302.382812 L 161.984375 301.386719 L 163.050781 300.394531 L 165.191406 298.402344 L 166.257812 297.40625 L 168.398438 295.414062 L 169.464844 294.421875 L 171.605469 292.429688 L 172.671875 291.433594 L 174.8125 289.441406 L 175.878906 288.449219 L 178.019531 286.457031 L 179.085938 285.460938 L 180.15625 284.464844 L 181.222656 283.46875 L 182.292969 282.476562 L 183.363281 281.480469 L 184.429688 280.484375 L 186.570312 278.492188 L 187.636719 277.496094 L 188.707031 276.503906 L 189.777344 275.507812 L 190.84375 274.511719 L 192.984375 272.519531 L 194.050781 271.523438 L 195.121094 270.53125 L 196.191406 269.535156 L 197.257812 268.539062 L 198.328125 267.542969 L 199.394531 266.546875 L 200.464844 265.550781 L 201.535156 264.558594 L 202.601562 263.5625 L 204.742188 261.570312 L 205.808594 260.574219 L 206.878906 259.578125 L 207.949219 258.585938 L 209.015625 257.589844 L 211.15625 255.597656 L 212.222656 254.601562 L 213.292969 253.605469 L 214.363281 252.613281 L 215.429688 251.617188 L 216.5 250.621094 L 217.566406 249.625 L 219.707031 247.632812 L 220.773438 246.640625 L 221.84375 245.644531 L 222.351562 245.171875 "/>
<path fill-rule="nonzero" fill="rgb(0%, 0%, 0%)" fill-opacity="1" stroke-width="1.280374" stroke-linecap="butt" stroke-linejoin="round" stroke="rgb(0%, 0%, 0%)" stroke-opacity="1" stroke-miterlimit="1" d="M 220.890625 249.933594 L 222.351562 245.171875 L 217.496094 246.289062 Z M 220.890625 249.933594 "/>
<path fill="none" stroke-width="1.280374" stroke-linecap="butt" stroke-linejoin="round" stroke="rgb(0%, 0%, 0%)" stroke-opacity="1" stroke-miterlimit="1" d="M 295.894531 86.339844 L 295.417969 86.792969 L 294.363281 87.800781 L 293.308594 88.804688 L 292.253906 89.8125 L 291.195312 90.816406 L 289.085938 92.832031 L 288.03125 93.835938 L 285.921875 95.851562 L 284.863281 96.855469 L 282.753906 98.871094 L 281.699219 99.875 L 280.644531 100.882812 L 279.585938 101.886719 L 277.476562 103.902344 L 276.421875 104.90625 L 275.367188 105.914062 L 274.308594 106.921875 L 273.253906 107.925781 L 272.199219 108.933594 L 271.144531 109.9375 L 269.035156 111.953125 L 267.976562 112.957031 L 265.867188 114.972656 L 264.8125 115.976562 L 263.757812 116.984375 L 262.699219 117.992188 L 261.644531 118.996094 L 260.589844 120.003906 L 259.535156 121.007812 L 257.425781 123.023438 L 256.367188 124.027344 L 254.257812 126.042969 L 253.203125 127.046875 L 252.148438 128.054688 L 251.089844 129.0625 L 250.035156 130.066406 L 248.980469 131.074219 L 247.925781 132.078125 L 245.816406 134.09375 L 244.757812 135.097656 L 242.648438 137.113281 L 241.59375 138.117188 L 240.539062 139.125 L 239.480469 140.132812 L 238.425781 141.136719 L 237.371094 142.144531 L 236.316406 143.148438 L 235.261719 144.15625 L 234.203125 145.164062 L 233.148438 146.167969 L 231.039062 148.183594 L 229.984375 149.1875 L 228.929688 150.195312 L 227.871094 151.203125 L 226.816406 152.207031 L 225.761719 153.214844 L 224.707031 154.21875 L 224.230469 154.671875 "/>
<path fill-rule="nonzero" fill="rgb(0%, 0%, 0%)" fill-opacity="1" stroke-width="1.280374" stroke-linecap="butt" stroke-linejoin="round" stroke="rgb(0%, 0%, 0%)" stroke-opacity="1" stroke-miterlimit="1" d="M 225.636719 149.894531 L 224.230469 154.671875 L 229.074219 153.5 Z M 225.636719 149.894531 "/>
<path fill="none" stroke-width="1.280374" stroke-linecap="butt" stroke-linejoin="round" stroke="rgb(0%, 0%, 0%)" stroke-opacity="1" stroke-miterlimit="1" d="M 302.804688 91.28125 L 302.671875 91.574219 L 301.929688 93.179688 L 301.191406 94.785156 L 299.707031 97.996094 L 298.96875 99.605469 L 297.484375 102.816406 L 296.746094 104.421875 L 296.003906 106.03125 L 294.519531 109.242188 L 293.78125 110.847656 L 293.039062 112.453125 L 292.296875 114.0625 L 291.558594 115.667969 L 290.074219 118.878906 L 289.335938 120.484375 L 288.59375 122.09375 L 287.851562 123.699219 L 287.113281 125.304688 L 286.371094 126.910156 L 285.628906 128.519531 L 284.886719 130.125 L 284.148438 131.730469 L 282.664062 134.941406 L 281.925781 136.550781 L 280.441406 139.761719 L 279.703125 141.367188 L 278.960938 142.976562 L 278.21875 144.582031 L 277.480469 146.1875 L 275.996094 149.398438 L 275.253906 151.007812 L 274.515625 152.613281 L 273.03125 155.824219 L 272.292969 157.433594 L 270.808594 160.644531 L 270.070312 162.25 L 269.328125 163.855469 L 268.585938 165.464844 L 267.84375 167.070312 L 267.105469 168.675781 L 265.621094 171.886719 L 264.882812 173.496094 L 263.398438 176.707031 L 262.660156 178.3125 L 261.917969 179.921875 L 261.175781 181.527344 L 260.4375 183.132812 L 258.953125 186.34375 L 258.210938 187.953125 L 257.472656 189.558594 L 255.988281 192.769531 L 255.25 194.378906 L 253.765625 197.589844 L 253.027344 199.195312 L 252.285156 200.800781 L 251.542969 202.410156 L 250.804688 204.015625 L 249.320312 207.226562 L 248.578125 208.835938 L 248.445312 209.125 "/>
<path fill-rule="nonzero" fill="rgb(0%, 0%, 0%)" fill-opacity="1" stroke-width="1.280374" stroke-linecap="butt" stroke-linejoin="round" stroke="rgb(0%, 0%, 0%)" stroke-opacity="1" stroke-miterlimit="1" d="M 247.992188 204.164062 L 248.445312 209.125 L 252.515625 206.25 Z M 247.992188 204.164062 "/>
<path fill="none" stroke-width="1.280374" stroke-linecap="butt" stroke-linejoin="round" stroke="rgb(0%, 0%, 0%)" stroke-opacity="1" stroke-miterlimit="1" d="M 64.769531 155.636719 L 65.628906 155.726562 L 67.304688 155.898438 L 68.976562 156.070312 L 70.648438 156.238281 L 72.320312 156.410156 L 73.996094 156.582031 L 79.011719 157.097656 L 80.6875 157.269531 L 85.703125 157.785156 L 87.378906 157.957031 L 92.394531 158.472656 L 94.070312 158.644531 L 100.757812 159.332031 L 102.433594 159.503906 L 107.449219 160.019531 L 109.125 160.191406 L 114.140625 160.707031 L 115.816406 160.878906 L 117.488281 161.050781 L 119.160156 161.21875 L 120.832031 161.390625 L 122.507812 161.5625 L 127.523438 162.078125 L 129.199219 162.25 L 134.214844 162.765625 L 135.890625 162.9375 L 142.578125 163.625 L 144.253906 163.796875 L 149.269531 164.3125 L 150.945312 164.484375 L 155.960938 165 L 157.636719 165.171875 L 162.652344 165.6875 L 164.328125 165.859375 L 166 166.03125 L 167.671875 166.199219 L 169.34375 166.371094 L 171.019531 166.542969 L 176.035156 167.058594 L 177.710938 167.230469 L 182.726562 167.746094 L 184.402344 167.917969 L 185.261719 168.007812 "/>
<path fill-rule="nonzero" fill="rgb(0%, 0%, 0%)" fill-opacity="1" stroke-width="1.280374" stroke-linecap="butt" stroke-linejoin="round" stroke="rgb(0%, 0%, 0%)" stroke-opacity="1" stroke-miterlimit="1" d="M 180.714844 170.042969 L 185.261719 168.007812 L 181.222656 165.089844 Z M 180.714844 170.042969 "/>
<path fill="none" stroke-width="1.280374" stroke-linecap="butt" stroke-linejoin="round" stroke="rgb(0%, 0%, 0%)" stroke-opacity="1" stroke-miterlimit="1" d="M 63.351562 161.53125 L 64.070312 161.808594 L 66.058594 162.582031 L 68.046875 163.351562 L 70.03125 164.125 L 72.019531 164.894531 L 74.007812 165.667969 L 75.992188 166.4375 L 77.980469 167.210938 L 79.96875 167.980469 L 81.957031 168.753906 L 83.941406 169.527344 L 85.929688 170.296875 L 87.917969 171.070312 L 89.90625 171.839844 L 91.890625 172.613281 L 93.878906 173.382812 L 95.867188 174.15625 L 97.855469 174.925781 L 99.839844 175.699219 L 101.828125 176.472656 L 103.816406 177.242188 L 105.800781 178.015625 L 107.789062 178.785156 L 109.777344 179.558594 L 111.765625 180.328125 L 113.75 181.101562 L 115.738281 181.871094 L 117.726562 182.644531 L 119.714844 183.414062 L 121.699219 184.1875 L 123.6875 184.960938 L 125.675781 185.730469 L 127.660156 186.503906 L 129.648438 187.273438 L 131.636719 188.046875 L 133.625 188.816406 L 135.609375 189.589844 L 137.597656 190.359375 L 139.585938 191.132812 L 141.574219 191.902344 L 143.558594 192.675781 L 145.546875 193.449219 L 147.535156 194.21875 L 149.523438 194.992188 L 151.507812 195.761719 L 153.496094 196.535156 L 155.484375 197.304688 L 157.46875 198.078125 L 159.457031 198.847656 L 163.433594 200.394531 L 165.417969 201.164062 L 167.40625 201.9375 L 169.394531 202.707031 L 171.382812 203.480469 L 173.367188 204.25 L 175.355469 205.023438 L 177.34375 205.792969 L 179.328125 206.566406 L 181.316406 207.335938 L 185.292969 208.882812 L 187.277344 209.652344 L 189.265625 210.425781 L 191.253906 211.195312 L 193.242188 211.96875 L 195.226562 212.738281 L 197.214844 213.511719 L 199.203125 214.28125 L 201.191406 215.054688 L 203.175781 215.824219 L 207.152344 217.371094 L 209.136719 218.140625 L 211.125 218.914062 L 213.113281 219.683594 L 215.101562 220.457031 L 217.085938 221.226562 L 217.808594 221.507812 "/>
<path fill-rule="nonzero" fill="rgb(0%, 0%, 0%)" fill-opacity="1" stroke-width="1.280374" stroke-linecap="butt" stroke-linejoin="round" stroke="rgb(0%, 0%, 0%)" stroke-opacity="1" stroke-miterlimit="1" d="M 212.882812 222.269531 L 217.808594 221.507812 L 214.6875 217.625 Z M 212.882812 222.269531 "/>
<path fill="none" stroke-width="1.280374" stroke-linecap="butt" stroke-linejoin="round" stroke="rgb(0%, 0%, 0%)" stroke-opacity="1" stroke-miterlimit="1" d="M 218.347656 190.410156 L 218.511719 190.71875 L 218.824219 191.320312 L 219.140625 191.921875 L 219.453125 192.519531 L 219.769531 193.121094 L 220.082031 193.71875 L 220.394531 194.320312 L 220.710938 194.921875 L 221.023438 195.519531 L 221.339844 196.121094 L 221.652344 196.71875 L 221.96875 197.320312 L 222.28125 197.917969 L 222.597656 198.519531 L 222.910156 199.121094 L 223.226562 199.71875 L 223.539062 200.320312 L 223.855469 200.917969 L 224.167969 201.519531 L 224.484375 202.121094 L 224.796875 202.71875 L 225.113281 203.320312 L 225.425781 203.917969 L 225.742188 204.519531 L 226.054688 205.117188 L 226.371094 205.71875 L 226.683594 206.320312 L 227 206.917969 L 227.3125 207.519531 L 227.628906 208.117188 L 227.941406 208.71875 L 228.257812 209.320312 L 228.421875 209.628906 "/>
<path fill-rule="nonzero" fill="rgb(0%, 0%, 0%)" fill-opacity="1" stroke-width="1.280374" stroke-linecap="butt" stroke-linejoin="round" stroke="rgb(0%, 0%, 0%)" stroke-opacity="1" stroke-miterlimit="1" d="M 224.210938 206.964844 L 228.421875 209.628906 L 228.625 204.652344 Z M 224.210938 206.964844 "/>
<path fill-rule="nonzero" fill="rgb(0%, 0%, 0%)" fill-opacity="1" stroke-width="0.708661" stroke-linecap="round" stroke-linejoin="round" stroke="rgb(0%, 0%, 0%)" stroke-opacity="1" stroke-miterlimit="10" d="M 415.570312 245.226562 C 415.570312 251.316406 410.636719 256.25 404.546875 256.25 C 398.457031 256.25 393.523438 251.316406 393.523438 245.226562 C 393.523438 239.136719 398.457031 234.203125 404.546875 234.203125 C 410.636719 234.203125 415.570312 239.136719 415.570312 245.226562 "/>
<path fill-rule="nonzero" fill="rgb(0%, 0%, 0%)" fill-opacity="1" stroke-width="0.708661" stroke-linecap="round" stroke-linejoin="round" stroke="rgb(0%, 0%, 0%)" stroke-opacity="1" stroke-miterlimit="10" d="M 144.148438 328.265625 C 144.148438 334.351562 139.210938 339.289062 133.121094 339.289062 C 127.035156 339.289062 122.097656 334.351562 122.097656 328.265625 C 122.097656 322.175781 127.035156 317.242188 133.121094 317.242188 C 139.210938 317.242188 144.148438 322.175781 144.148438 328.265625 "/>
<path fill-rule="nonzero" fill="rgb(0%, 0%, 0%)" fill-opacity="1" stroke-width="0.708661" stroke-linecap="round" stroke-linejoin="round" stroke="rgb(0%, 0%, 0%)" stroke-opacity="1" stroke-miterlimit="10" d="M 323.328125 70.691406 C 323.328125 76.777344 318.394531 81.714844 312.304688 81.714844 C 306.214844 81.714844 301.28125 76.777344 301.28125 70.691406 C 301.28125 64.601562 306.214844 59.667969 312.304688 59.667969 C 318.394531 59.667969 323.328125 64.601562 323.328125 70.691406 "/>
<path fill-rule="nonzero" fill="rgb(0%, 0%, 0%)" fill-opacity="1" stroke-width="0.708661" stroke-linecap="round" stroke-linejoin="round" stroke="rgb(0%, 0%, 0%)" stroke-opacity="1" stroke-miterlimit="10" d="M 53.234375 153.320312 C 53.234375 159.410156 48.300781 164.34375 42.210938 164.34375 C 36.121094 164.34375 31.1875 159.410156 31.1875 153.320312 C 31.1875 147.230469 36.121094 142.296875 42.210938 142.296875 C 48.300781 142.296875 53.234375 147.230469 53.234375 153.320312 "/>
<path fill-rule="nonzero" fill="rgb(0%, 0%, 0%)" fill-opacity="1" stroke-width="0.708661" stroke-linecap="round" stroke-linejoin="round" stroke="rgb(0%, 0%, 0%)" stroke-opacity="1" stroke-miterlimit="10" d="M 218.84375 170.324219 C 218.84375 176.410156 213.910156 181.347656 207.820312 181.347656 C 201.730469 181.347656 196.796875 176.410156 196.796875 170.324219 C 196.796875 164.234375 201.730469 159.296875 207.820312 159.296875 C 213.910156 159.296875 218.84375 164.234375 218.84375 170.324219 "/>
<path fill-rule="nonzero" fill="rgb(0%, 0%, 0%)" fill-opacity="1" stroke-width="0.708661" stroke-linecap="round" stroke-linejoin="round" stroke="rgb(0%, 0%, 0%)" stroke-opacity="1" stroke-miterlimit="10" d="M 249.972656 229.714844 C 249.972656 235.804688 245.035156 240.742188 238.945312 240.742188 C 232.859375 240.742188 227.921875 235.804688 227.921875 229.714844 C 227.921875 223.628906 232.859375 218.691406 238.945312 218.691406 C 245.035156 218.691406 249.972656 223.628906 249.972656 229.714844 "/>
<g fill="rgb(100%, 100%, 100%)" fill-opacity="1">
<use xlink:href="#glyph-0-1" x="400.546875" y="249.489258"/>
</g>
<g fill="rgb(100%, 100%, 100%)" fill-opacity="1">
<use xlink:href="#glyph-0-2" x="129.121094" y="332.52832"/>
</g>
<g fill="rgb(100%, 100%, 100%)" fill-opacity="1">
<use xlink:href="#glyph-0-3" x="308.304688" y="74.954102"/>
</g>
<g fill="rgb(100%, 100%, 100%)" fill-opacity="1">
<use xlink:href="#glyph-0-4" x="38.210938" y="157.583008"/>
</g>
<g fill="rgb(100%, 100%, 100%)" fill-opacity="1">
<use xlink:href="#glyph-0-5" x="203.820312" y="174.586914"/>
</g>
<g fill="rgb(100%, 100%, 100%)" fill-opacity="1">
<use xlink:href="#glyph-0-6" x="234.945312" y="233.977539"/>
</g>
<path fill-rule="nonzero" fill="rgb(70.196078%, 70.196078%, 70.196078%)" fill-opacity="1" stroke-width="0.708661" stroke-linecap="round" stroke-linejoin="round" stroke="rgb(70.196078%, 70.196078%, 70.196078%)" stroke-opacity="1" stroke-miterlimit="10" d="M 421.972656 245.226562 C 421.972656 254.851562 414.171875 262.652344 404.546875 262.652344 C 394.921875 262.652344 387.121094 254.851562 387.121094 245.226562 C 387.121094 235.601562 394.921875 227.800781 404.546875 227.800781 C 414.171875 227.800781 421.972656 235.601562 421.972656 245.226562 "/>
<path fill-rule="nonzero" fill="rgb(70.196078%, 70.196078%, 70.196078%)" fill-opacity="1" stroke-width="0.708661" stroke-linecap="round" stroke-linejoin="round" stroke="rgb(70.196078%, 70.196078%, 70.196078%)" stroke-opacity="1" stroke-miterlimit="10" d="M 150.546875 328.265625 C 150.546875 337.890625 142.746094 345.691406 133.121094 345.691406 C 123.5 345.691406 115.695312 337.890625 115.695312 328.265625 C 115.695312 318.640625 123.5 310.839844 133.121094 310.839844 C 142.746094 310.839844 150.546875 318.640625 150.546875 328.265625 "/>
<path fill-rule="nonzero" fill="rgb(70.196078%, 70.196078%, 70.196078%)" fill-opacity="1" stroke-width="0.708661" stroke-linecap="round" stroke-linejoin="round" stroke="rgb(70.196078%, 70.196078%, 70.196078%)" stroke-opacity="1" stroke-miterlimit="10" d="M 329.730469 70.691406 C 329.730469 80.3125 321.929688 88.117188 312.304688 88.117188 C 302.679688 88.117188 294.878906 80.3125 294.878906 70.691406 C 294.878906 61.066406 302.679688 53.265625 312.304688 53.265625 C 321.929688 53.265625 329.730469 61.066406 329.730469 70.691406 "/>
<path fill-rule="nonzero" fill="rgb(70.196078%, 70.196078%, 70.196078%)" fill-opacity="1" stroke-width="0.708661" stroke-linecap="round" stroke-linejoin="round" stroke="rgb(70.196078%, 70.196078%, 70.196078%)" stroke-opacity="1" stroke-miterlimit="10" d="M 59.636719 153.320312 C 59.636719 162.945312 51.835938 170.746094 42.210938 170.746094 C 32.585938 170.746094 24.785156 162.945312 24.785156 153.320312 C 24.785156 143.695312 32.585938 135.894531 42.210938 135.894531 C 51.835938 135.894531 59.636719 143.695312 59.636719 153.320312 "/>
<path fill-rule="nonzero" fill="rgb(0%, 44.705882%, 69.803922%)" fill-opacity="1" stroke-width="0.708661" stroke-linecap="round" stroke-linejoin="round" stroke="rgb(0%, 44.705882%, 69.803922%)" stroke-opacity="1" stroke-miterlimit="10" d="M 225.246094 170.324219 C 225.246094 179.945312 217.445312 187.75 207.820312 187.75 C 198.195312 187.75 190.394531 179.945312 190.394531 170.324219 C 190.394531 160.699219 198.195312 152.898438 207.820312 152.898438 C 217.445312 152.898438 225.246094 160.699219 225.246094 170.324219 "/>
<path fill-rule="nonzero" fill="rgb(83.529412%, 36.862745%, 0%)" fill-opacity="1" stroke-width="0.708661" stroke-linecap="round" stroke-linejoin="round" stroke="rgb(83.529412%, 36.862745%, 0%)" stroke-opacity="1" stroke-miterlimit="10" d="M 256.371094 229.714844 C 256.371094 239.339844 248.570312 247.140625 238.945312 247.140625 C 229.324219 247.140625 221.519531 239.339844 221.519531 229.714844 C 221.519531 220.09375 229.324219 212.289062 238.945312 212.289062 C 248.570312 212.289062 256.371094 220.09375 256.371094 229.714844 "/>
<g fill="rgb(0%, 0%, 0%)" fill-opacity="1">
<use xlink:href="#glyph-1-1" x="401.046875" y="248.894531"/>
</g>
<g fill="rgb(0%, 0%, 0%)" fill-opacity="1">
<use xlink:href="#glyph-1-2" x="129.621094" y="331.933594"/>
</g>
<g fill="rgb(0%, 0%, 0%)" fill-opacity="1">
<use xlink:href="#glyph-1-3" x="308.804688" y="74.359375"/>
</g>
<g fill="rgb(0%, 0%, 0%)" fill-opacity="1">
<use xlink:href="#glyph-1-4" x="38.710938" y="156.988281"/>
</g>
<g fill="rgb(0%, 0%, 0%)" fill-opacity="1">
<use xlink:href="#glyph-1-5" x="204.320312" y="173.992188"/>
</g>
<g fill="rgb(0%, 0%, 0%)" fill-opacity="1">
<use xlink:href="#glyph-1-6" x="235.445312" y="233.382812"/>
</g>
<g fill="rgb(0%, 0%, 0%)" fill-opacity="1">
<use xlink:href="#glyph-2-1" x="458.714844" y="132.197266"/>
<use xlink:href="#glyph-2-2" x="467.714844" y="132.197266"/>
<use xlink:href="#glyph-2-3" x="474.714844" y="132.197266"/>
<use xlink:href="#glyph-2-4" x="481.714844" y="132.197266"/>
<use xlink:href="#glyph-2-5" x="488.714844" y="132.197266"/>
<use xlink:href="#glyph-2-6" x="491.714844" y="132.197266"/>
<use xlink:href="#glyph-2-7" x="498.714844" y="132.197266"/>
<use xlink:href="#glyph-2-8" x="504.714844" y="132.197266"/>
<use xlink:href="#glyph-2-4" x="511.714844" y="132.197266"/>
</g>
<path fill-rule="nonzero" fill="rgb(70.196078%, 70.196078%, 70.196078%)" fill-opacity="1" stroke-width="0.708661" stroke-linecap="round" stroke-linejoin="round" stroke="rgb(70.196078%, 70.196078%, 70.196078%)" stroke-opacity="1" stroke-miterlimit="10" d="M 498.816406 163.113281 C 498.816406 172.734375 491.015625 180.539062 481.390625 180.539062 C 471.765625 180.539062 463.964844 172.734375 463.964844 163.113281 C 463.964844 153.488281 471.765625 145.6875 481.390625 145.6875 C 491.015625 145.6875 498.816406 153.488281 498.816406 163.113281 "/>
<path fill-rule="nonzero" fill="rgb(0%, 44.705882%, 69.803922%)" fill-opacity="1" stroke-width="0.708661" stroke-linecap="round" stroke-linejoin="round" stroke="rgb(0%, 44.705882%, 69.803922%)" stroke-opacity="1" stroke-miterlimit="10" d="M 498.816406 208.464844 C 498.816406 218.089844 491.015625 225.890625 481.390625 225.890625 C 471.765625 225.890625 463.964844 218.089844 463.964844 208.464844 C 463.964844 198.84375 471.765625 191.039062 481.390625 191.039062 C 491.015625 191.039062 498.816406 198.84375 498.816406 208.464844 "/>
<path fill-rule="nonzero" fill="rgb(83.529412%, 36.862745%, 0%)" fill-opacity="1" stroke-width="0.708661" stroke-linecap="round" stroke-linejoin="round" stroke="rgb(83.529412%, 36.862745%, 0%)" stroke-opacity="1" stroke-miterlimit="10" d="M 498.816406 253.820312 C 498.816406 263.445312 491.015625 271.246094 481.390625 271.246094 C 471.765625 271.246094 463.964844 263.445312 463.964844 253.820312 C 463.964844 244.195312 471.765625 236.394531 481.390625 236.394531 C 491.015625 236.394531 498.816406 244.195312 498.816406 253.820312 "/>
<g fill="rgb(0%, 0%, 0%)" fill-opacity="1">
<use xlink:href="#glyph-3-1" x="510.042969" y="166.004883"/>
<use xlink:href="#glyph-3-2" x="517.042969" y="166.004883"/>
<use xlink:href="#glyph-3-3" x="522.042969" y="166.004883"/>
<use xlink:href="#glyph-3-4" x="527.042969" y="166.004883"/>
<use xlink:href="#glyph-3-2" x="530.042969" y="166.004883"/>
<use xlink:href="#glyph-3-5" x="535.042969" y="166.004883"/>
<use xlink:href="#glyph-3-3" x="540.042969" y="166.004883"/>
<use xlink:href="#glyph-3-6" x="545.042969" y="166.004883"/>
<use xlink:href="#glyph-3-7" x="550.042969" y="166.004883"/>
<use xlink:href="#glyph-3-8" x="555.042969" y="166.004883"/>
</g>
<g fill="rgb(0%, 0%, 0%)" fill-opacity="1">
<use xlink:href="#glyph-3-9" x="510.042969" y="211.356445"/>
<use xlink:href="#glyph-3-10" x="516.042969" y="211.356445"/>
<use xlink:href="#glyph-3-11" x="521.042969" y="211.356445"/>
<use xlink:href="#glyph-3-2" x="526.042969" y="211.356445"/>
<use xlink:href="#glyph-3-12" x="531.042969" y="211.356445"/>
<use xlink:href="#glyph-3-5" x="536.042969" y="211.356445"/>
<use xlink:href="#glyph-3-8" x="541.042969" y="211.356445"/>
<use xlink:href="#glyph-3-7" x="544.042969" y="211.356445"/>
<use xlink:href="#glyph-3-13" x="549.042969" y="211.356445"/>
<use xlink:href="#glyph-3-14" x="552.042969" y="211.356445"/>
<use xlink:href="#glyph-3-15" x="555.042969" y="211.356445"/>
<use xlink:href="#glyph-3-16" x="561.042969" y="211.356445"/>
</g>
<g fill="rgb(0%, 0%, 0%)" fill-opacity="1">
<use xlink:href="#glyph-3-17" x="510.042969" y="256.711914"/>
<use xlink:href="#glyph-3-5" x="517.042969" y="256.711914"/>
<use xlink:href="#glyph-3-18" x="522.042969" y="256.711914"/>
<use xlink:href="#glyph-3-19" x="525.042969" y="256.711914"/>
<use xlink:href="#glyph-3-2" x="530.042969" y="256.711914"/>
<use xlink:href="#glyph-3-20" x="535.042969" y="256.711914"/>
<use xlink:href="#glyph-3-7" x="543.042969" y="256.711914"/>
<use xlink:href="#glyph-3-13" x="548.042969" y="256.711914"/>
<use xlink:href="#glyph-3-14" x="551.042969" y="256.711914"/>
<use xlink:href="#glyph-3-21" x="554.042969" y="256.711914"/>
<use xlink:href="#glyph-3-16" x="560.042969" y="256.711914"/>
</g>
<g fill="rgb(0%, 0%, 0%)" fill-opacity="1">
<use xlink:href="#glyph-2-9" x="5.976562" y="35.197266"/>
<use xlink:href="#glyph-2-2" x="12.976562" y="35.197266"/>
<use xlink:href="#glyph-2-10" x="19.976562" y="35.197266"/>
<use xlink:href="#glyph-2-11" x="23.976562" y="35.197266"/>
<use xlink:href="#glyph-2-12" x="29.976562" y="35.197266"/>
<use xlink:href="#glyph-2-5" x="35.976562" y="35.197266"/>
<use xlink:href="#glyph-2-13" x="38.976562" y="35.197266"/>
<use xlink:href="#glyph-2-10" x="45.976562" y="35.197266"/>
<use xlink:href="#glyph-2-4" x="49.976562" y="35.197266"/>
<use xlink:href="#glyph-2-5" x="56.976562" y="35.197266"/>
<use xlink:href="#glyph-2-14" x="59.976562" y="35.197266"/>
<use xlink:href="#glyph-2-2" x="68.976562" y="35.197266"/>
<use xlink:href="#glyph-2-15" x="75.976562" y="35.197266"/>
<use xlink:href="#glyph-2-16" x="82.976562" y="35.197266"/>
<use xlink:href="#glyph-2-2" x="85.976562" y="35.197266"/>
<use xlink:href="#glyph-2-17" x="92.976562" y="35.197266"/>
<use xlink:href="#glyph-2-15" x="99.976562" y="35.197266"/>
<use xlink:href="#glyph-2-3" x="106.976562" y="35.197266"/>
<use xlink:href="#glyph-2-4" x="113.976562" y="35.197266"/>
<use xlink:href="#glyph-2-10" x="120.976562" y="35.197266"/>
<use xlink:href="#glyph-2-12" x="124.976562" y="35.197266"/>
<use xlink:href="#glyph-2-5" x="130.976562" y="35.197266"/>
<use xlink:href="#glyph-2-18" x="133.976562" y="35.197266"/>
<use xlink:href="#glyph-2-19" x="137.976562" y="35.197266"/>
<use xlink:href="#glyph-2-10" x="146.976562" y="35.197266"/>
<use xlink:href="#glyph-2-13" x="150.976562" y="35.197266"/>
<use xlink:href="#glyph-2-7" x="157.976562" y="35.197266"/>
<use xlink:href="#glyph-2-20" x="163.976562" y="35.197266"/>
<use xlink:href="#glyph-2-21" x="167.976562" y="35.197266"/>
<use xlink:href="#glyph-2-5" x="170.976562" y="35.197266"/>
<use xlink:href="#glyph-2-22" x="173.976562" y="35.197266"/>
<use xlink:href="#glyph-2-5" x="181.976562" y="35.197266"/>
<use xlink:href="#glyph-2-23" x="184.976562" y="35.197266"/>
<use xlink:href="#glyph-2-12" x="187.976562" y="35.197266"/>
<use xlink:href="#glyph-2-5" x="193.976562" y="35.197266"/>
<use xlink:href="#glyph-2-24" x="196.976562" y="35.197266"/>
<use xlink:href="#glyph-2-25" x="204.976562" y="35.197266"/>
<use xlink:href="#glyph-2-17" x="207.976562" y="35.197266"/>
<use xlink:href="#glyph-2-4" x="214.976562" y="35.197266"/>
<use xlink:href="#glyph-2-26" x="221.976562" y="35.197266"/>
<use xlink:href="#glyph-2-5" x="224.976562" y="35.197266"/>
<use xlink:href="#glyph-2-27" x="227.976562" y="35.197266"/>
<use xlink:href="#glyph-2-5" x="235.976562" y="35.197266"/>
<use xlink:href="#glyph-2-23" x="238.976562" y="35.197266"/>
<use xlink:href="#glyph-2-12" x="241.976562" y="35.197266"/>
<use xlink:href="#glyph-2-5" x="247.976562" y="35.197266"/>
<use xlink:href="#glyph-2-28" x="250.976562" y="35.197266"/>
<use xlink:href="#glyph-2-4" x="259.976562" y="35.197266"/>
<use xlink:href="#glyph-2-3" x="266.976562" y="35.197266"/>
<use xlink:href="#glyph-2-21" x="273.976562" y="35.197266"/>
</g>
<g fill="rgb(0%, 0%, 0%)" fill-opacity="1">
<use xlink:href="#glyph-4-1" x="5.976562" y="16.064453"/>
<use xlink:href="#glyph-4-2" x="15.976562" y="16.064453"/>
<use xlink:href="#glyph-4-3" x="23.976562" y="16.064453"/>
<use xlink:href="#glyph-4-4" x="31.976562" y="16.064453"/>
<use xlink:href="#glyph-4-2" x="38.976562" y="16.064453"/>
<use xlink:href="#glyph-4-5" x="46.976562" y="16.064453"/>
<use xlink:href="#glyph-4-6" x="49.976562" y="16.064453"/>
<use xlink:href="#glyph-4-7" x="53.976562" y="16.064453"/>
<use xlink:href="#glyph-4-8" x="63.976562" y="16.064453"/>
<use xlink:href="#glyph-4-9" x="67.976562" y="16.064453"/>
<use xlink:href="#glyph-4-3" x="72.976562" y="16.064453"/>
<use xlink:href="#glyph-4-10" x="80.976562" y="16.064453"/>
<use xlink:href="#glyph-4-8" x="87.976562" y="16.064453"/>
<use xlink:href="#glyph-4-3" x="91.976562" y="16.064453"/>
<use xlink:href="#glyph-4-9" x="99.976562" y="16.064453"/>
<use xlink:href="#glyph-4-11" x="104.976562" y="16.064453"/>
<use xlink:href="#glyph-4-12" x="112.976562" y="16.064453"/>
<use xlink:href="#glyph-4-6" x="116.976562" y="16.064453"/>
<use xlink:href="#glyph-4-13" x="120.976562" y="16.064453"/>
<use xlink:href="#glyph-4-14" x="130.976562" y="16.064453"/>
<use xlink:href="#glyph-4-11" x="137.976562" y="16.064453"/>
<use xlink:href="#glyph-4-9" x="145.976562" y="16.064453"/>
<use xlink:href="#glyph-4-10" x="150.976562" y="16.064453"/>
<use xlink:href="#glyph-4-15" x="157.976562" y="16.064453"/>
<use xlink:href="#glyph-4-4" x="160.976562" y="16.064453"/>
<use xlink:href="#glyph-4-11" x="167.976562" y="16.064453"/>
<use xlink:href="#glyph-4-6" x="175.976562" y="16.064453"/>
<use xlink:href="#glyph-4-16" x="179.976562" y="16.064453"/>
<use xlink:href="#glyph-4-17" x="184.976562" y="16.064453"/>
<use xlink:href="#glyph-4-18" x="194.976562" y="16.064453"/>
<use xlink:href="#glyph-4-6" x="199.976562" y="16.064453"/>
<use xlink:href="#glyph-4-2" x="203.976562" y="16.064453"/>
<use xlink:href="#glyph-4-19" x="211.976562" y="16.064453"/>
<use xlink:href="#glyph-4-20" x="219.976562" y="16.064453"/>
<use xlink:href="#glyph-4-6" x="227.976562" y="16.064453"/>
<use xlink:href="#glyph-4-21" x="231.976562" y="16.064453"/>
<use xlink:href="#glyph-4-5" x="241.976562" y="16.064453"/>
<use xlink:href="#glyph-4-22" x="244.976562" y="16.064453"/>
<use xlink:href="#glyph-4-22" x="252.976562" y="16.064453"/>
<use xlink:href="#glyph-4-20" x="260.976562" y="16.064453"/>
<use xlink:href="#glyph-4-6" x="268.976562" y="16.064453"/>
<use xlink:href="#glyph-4-23" x="272.976562" y="16.064453"/>
<use xlink:href="#glyph-4-9" x="282.976562" y="16.064453"/>
<use xlink:href="#glyph-4-11" x="287.976562" y="16.064453"/>
<use xlink:href="#glyph-4-4" x="295.976562" y="16.064453"/>
<use xlink:href="#glyph-4-4" x="302.976562" y="16.064453"/>
<use xlink:href="#glyph-4-3" x="309.976562" y="16.064453"/>
<use xlink:href="#glyph-4-9" x="317.976562" y="16.064453"/>
<use xlink:href="#glyph-4-11" x="322.976562" y="16.064453"/>
<use xlink:href="#glyph-4-6" x="330.976562" y="16.064453"/>
<use xlink:href="#glyph-4-16" x="334.976562" y="16.064453"/>
<use xlink:href="#glyph-4-24" x="339.976562" y="16.064453"/>
<use xlink:href="#glyph-4-18" x="349.976562" y="16.064453"/>
</g>
</svg>
