<?xml version="1.0" encoding="UTF-8"?>
<svg xmlns="http://www.w3.org/2000/svg" xmlns:xlink="http://www.w3.org/1999/xlink" width="576" height="324" viewBox="0 0 576 324">
<defs>
<g>
<g id="glyph-0-0">
<path d="M 0.828125 -7.953125 L 7.234375 -7.953125 L 7.234375 0 L 0.828125 0 Z M 6.234375 -1 L 6.234375 -6.953125 L 1.828125 -6.953125 L 1.828125 -1 Z M 6.234375 -1 "/>
</g>
<g id="glyph-0-1">
<path d="M 2.359375 0 L 0.8125 0 L 0.8125 -7.953125 L 3.234375 -7.953125 L 4.671875 -1.703125 L 6.109375 -7.953125 L 8.5 -7.953125 L 8.5 0 L 6.953125 0 L 6.953125 -5.375 C 6.953125 -5.53125 6.953125 -5.75 6.953125 -6.03125 C 6.960938 -6.3125 6.96875 -6.523438 6.96875 -6.671875 L 5.453125 0 L 3.84375 0 L 2.359375 -6.671875 C 2.359375 -6.523438 2.359375 -6.3125 2.359375 -6.03125 C 2.359375 -5.75 2.359375 -5.53125 2.359375 -5.375 Z M 2.359375 0 "/>
</g>
<g id="glyph-0-2">
<path d="M 7.234375 0 L 5.21875 0 L 3.703125 -2.703125 L 2.109375 0 L 0.171875 0 L 2.734375 -4.046875 L 0.296875 -7.953125 L 2.28125 -7.953125 L 3.703125 -5.359375 L 5.15625 -7.953125 L 7.078125 -7.953125 L 4.65625 -4.109375 Z M 7.234375 0 "/>
</g>
<g id="glyph-0-3">
<path d="M 7.265625 -7.953125 L 4.59375 -2.984375 L 4.59375 0 L 2.9375 0 L 2.9375 -2.984375 L 0.1875 -7.953125 L 2.140625 -7.953125 L 3.796875 -4.484375 L 5.375 -7.953125 Z M 7.265625 -7.953125 "/>
</g>
<g id="glyph-1-0">
<path d="M 0.28125 0 L 0.28125 -6.3125 L 5.296875 -6.3125 L 5.296875 0 Z M 4.5 -0.796875 L 4.5 -5.515625 L 1.078125 -5.515625 L 1.078125 -0.796875 Z M 4.5 -0.796875 "/>
</g>
<g id="glyph-1-1">
<path d="M 0.359375 -2.84375 L 2.515625 -2.84375 L 2.515625 -2.046875 L 0.359375 -2.046875 Z M 0.359375 -2.84375 "/>
</g>
<g id="glyph-1-2">
<path d="M 0.28125 0 C 0.300781 -0.53125 0.40625 -0.988281 0.59375 -1.375 C 0.789062 -1.769531 1.164062 -2.128906 1.71875 -2.453125 L 2.546875 -2.921875 C 2.910156 -3.140625 3.164062 -3.328125 3.3125 -3.484375 C 3.550781 -3.710938 3.671875 -3.984375 3.671875 -4.296875 C 3.671875 -4.648438 3.5625 -4.929688 3.34375 -5.140625 C 3.132812 -5.359375 2.847656 -5.46875 2.484375 -5.46875 C 1.960938 -5.46875 1.597656 -5.265625 1.390625 -4.859375 C 1.285156 -4.648438 1.226562 -4.351562 1.21875 -3.96875 L 0.421875 -3.96875 C 0.429688 -4.5 0.53125 -4.9375 0.71875 -5.28125 C 1.050781 -5.875 1.644531 -6.171875 2.5 -6.171875 C 3.195312 -6.171875 3.707031 -5.976562 4.03125 -5.59375 C 4.363281 -5.21875 4.53125 -4.796875 4.53125 -4.328125 C 4.53125 -3.835938 4.351562 -3.414062 4 -3.0625 C 3.800781 -2.863281 3.441406 -2.617188 2.921875 -2.328125 L 2.34375 -2 C 2.0625 -1.84375 1.835938 -1.695312 1.671875 -1.5625 C 1.390625 -1.3125 1.210938 -1.035156 1.140625 -0.734375 L 4.5 -0.734375 L 4.5 0 Z M 0.28125 0 "/>
</g>
<g id="glyph-1-3">
<path d="M 0.75 -0.9375 L 1.65625 -0.9375 L 1.65625 0 L 0.75 0 Z M 0.75 -0.9375 "/>
</g>
<g id="glyph-1-4">
<path d="M 1.09375 -1.5625 C 1.132812 -1.125 1.335938 -0.820312 1.703125 -0.65625 C 1.878906 -0.570312 2.09375 -0.53125 2.34375 -0.53125 C 2.800781 -0.53125 3.140625 -0.675781 3.359375 -0.96875 C 3.578125 -1.257812 3.6875 -1.582031 3.6875 -1.9375 C 3.6875 -2.363281 3.554688 -2.691406 3.296875 -2.921875 C 3.035156 -3.160156 2.71875 -3.28125 2.34375 -3.28125 C 2.082031 -3.28125 1.851562 -3.226562 1.65625 -3.125 C 1.46875 -3.019531 1.304688 -2.878906 1.171875 -2.703125 L 0.5 -2.734375 L 0.96875 -6.046875 L 4.171875 -6.046875 L 4.171875 -5.296875 L 1.5625 -5.296875 L 1.296875 -3.59375 C 1.429688 -3.695312 1.566406 -3.773438 1.703125 -3.828125 C 1.929688 -3.929688 2.195312 -3.984375 2.5 -3.984375 C 3.0625 -3.984375 3.535156 -3.800781 3.921875 -3.4375 C 4.316406 -3.070312 4.515625 -2.609375 4.515625 -2.046875 C 4.515625 -1.460938 4.332031 -0.945312 3.96875 -0.5 C 3.613281 -0.0625 3.046875 0.15625 2.265625 0.15625 C 1.753906 0.15625 1.304688 0.0117188 0.921875 -0.265625 C 0.546875 -0.546875 0.332031 -0.976562 0.28125 -1.5625 Z M 1.09375 -1.5625 "/>
</g>
<g id="glyph-1-5">
<path d="M 2.375 -6.15625 C 3.175781 -6.15625 3.753906 -5.828125 4.109375 -5.171875 C 4.378906 -4.660156 4.515625 -3.960938 4.515625 -3.078125 C 4.515625 -2.242188 4.390625 -1.554688 4.140625 -1.015625 C 3.785156 -0.222656 3.195312 0.171875 2.375 0.171875 C 1.632812 0.171875 1.082031 -0.148438 0.71875 -0.796875 C 0.425781 -1.328125 0.28125 -2.046875 0.28125 -2.953125 C 0.28125 -3.648438 0.367188 -4.25 0.546875 -4.75 C 0.878906 -5.6875 1.488281 -6.15625 2.375 -6.15625 Z M 2.375 -0.53125 C 2.769531 -0.53125 3.085938 -0.707031 3.328125 -1.0625 C 3.566406 -1.425781 3.6875 -2.085938 3.6875 -3.046875 C 3.6875 -3.753906 3.597656 -4.332031 3.421875 -4.78125 C 3.253906 -5.226562 2.921875 -5.453125 2.421875 -5.453125 C 1.972656 -5.453125 1.640625 -5.238281 1.421875 -4.8125 C 1.210938 -4.382812 1.109375 -3.753906 1.109375 -2.921875 C 1.109375 -2.296875 1.175781 -1.789062 1.3125 -1.40625 C 1.519531 -0.820312 1.875 -0.53125 2.375 -0.53125 Z M 2.375 -0.53125 "/>
</g>
<g id="glyph-1-6">
<path d="M 0.84375 -4.359375 L 0.84375 -4.953125 C 1.394531 -5.003906 1.78125 -5.09375 2 -5.21875 C 2.226562 -5.34375 2.394531 -5.644531 2.5 -6.125 L 3.109375 -6.125 L 3.109375 0 L 2.296875 0 L 2.296875 -4.359375 Z M 0.84375 -4.359375 "/>
</g>
<g id="glyph-2-0">
<path d="M 0.359375 0 L 0.359375 -7.890625 L 6.625 -7.890625 L 6.625 0 Z M 5.625 -0.984375 L 5.625 -6.90625 L 1.34375 -6.90625 L 1.34375 -0.984375 Z M 5.625 -0.984375 "/>
</g>
<g id="glyph-2-1">
<path d="M 0.15625 -5.75 L 1.40625 -5.75 L 2.734375 -3.734375 L 4.078125 -5.75 L 5.25 -5.71875 L 3.3125 -2.953125 L 5.328125 0 L 4.09375 0 L 2.671875 -2.15625 L 1.28125 0 L 0.0625 0 L 2.078125 -2.953125 Z M 0.15625 -5.75 "/>
</g>
<g id="glyph-3-0">
<path d="M 0 -0.359375 L -7.890625 -0.359375 L -7.890625 -6.625 L 0 -6.625 Z M -0.984375 -5.625 L -6.90625 -5.625 L -6.90625 -1.34375 L -0.984375 -1.34375 Z M -0.984375 -5.625 "/>
</g>
<g id="glyph-3-1">
<path d="M -5.75 -4.296875 L -5.75 -5.375 C -5.382812 -5.238281 -4.546875 -4.9375 -3.234375 -4.46875 C -2.242188 -4.113281 -1.4375 -3.816406 -0.8125 -3.578125 C 0.652344 -3.023438 1.550781 -2.632812 1.875 -2.40625 C 2.195312 -2.175781 2.359375 -1.78125 2.359375 -1.21875 C 2.359375 -1.082031 2.351562 -0.976562 2.34375 -0.90625 C 2.332031 -0.832031 2.3125 -0.742188 2.28125 -0.640625 L 1.40625 -0.640625 C 1.445312 -0.804688 1.472656 -0.925781 1.484375 -1 C 1.492188 -1.070312 1.5 -1.140625 1.5 -1.203125 C 1.5 -1.378906 1.46875 -1.507812 1.40625 -1.59375 C 1.351562 -1.675781 1.285156 -1.75 1.203125 -1.8125 C 1.171875 -1.820312 1.019531 -1.882812 0.75 -2 C 0.488281 -2.113281 0.296875 -2.191406 0.171875 -2.234375 L -5.75 -0.109375 L -5.75 -1.203125 L -1.0625 -2.75 Z M -5.890625 -2.75 Z M -5.890625 -2.75 "/>
</g>
<g id="glyph-4-0">
<path d="M 0.421875 0 L 0.421875 -9.46875 L 7.9375 -9.46875 L 7.9375 0 Z M 6.75 -1.1875 L 6.75 -8.28125 L 1.609375 -8.28125 L 1.609375 -1.1875 Z M 6.75 -1.1875 "/>
</g>
<g id="glyph-4-1">
<path d="M 5 -9.734375 C 6.195312 -9.734375 7.125 -9.414062 7.78125 -8.78125 C 8.445312 -8.144531 8.816406 -7.425781 8.890625 -6.625 L 7.640625 -6.625 C 7.492188 -7.238281 7.207031 -7.722656 6.78125 -8.078125 C 6.363281 -8.429688 5.773438 -8.609375 5.015625 -8.609375 C 4.078125 -8.609375 3.320312 -8.28125 2.75 -7.625 C 2.175781 -6.96875 1.890625 -5.960938 1.890625 -4.609375 C 1.890625 -3.503906 2.144531 -2.609375 2.65625 -1.921875 C 3.175781 -1.234375 3.953125 -0.890625 4.984375 -0.890625 C 5.929688 -0.890625 6.648438 -1.25 7.140625 -1.96875 C 7.398438 -2.351562 7.597656 -2.859375 7.734375 -3.484375 L 8.984375 -3.484375 C 8.867188 -2.484375 8.5 -1.644531 7.875 -0.96875 C 7.125 -0.15625 6.109375 0.25 4.828125 0.25 C 3.722656 0.25 2.800781 -0.0820312 2.0625 -0.75 C 1.070312 -1.632812 0.578125 -2.992188 0.578125 -4.828125 C 0.578125 -6.234375 0.945312 -7.378906 1.6875 -8.265625 C 2.488281 -9.242188 3.59375 -9.734375 5 -9.734375 Z M 4.734375 -9.734375 Z M 4.734375 -9.734375 "/>
</g>
<g id="glyph-4-2">
<path d="M 0.84375 -9.5 L 2.015625 -9.5 L 2.015625 -5.96875 C 2.285156 -6.3125 2.53125 -6.554688 2.75 -6.703125 C 3.125 -6.953125 3.59375 -7.078125 4.15625 -7.078125 C 5.15625 -7.078125 5.832031 -6.722656 6.1875 -6.015625 C 6.382812 -5.640625 6.484375 -5.109375 6.484375 -4.421875 L 6.484375 0 L 5.28125 0 L 5.28125 -4.359375 C 5.28125 -4.859375 5.21875 -5.226562 5.09375 -5.46875 C 4.882812 -5.84375 4.488281 -6.03125 3.90625 -6.03125 C 3.425781 -6.03125 2.988281 -5.863281 2.59375 -5.53125 C 2.207031 -5.207031 2.015625 -4.582031 2.015625 -3.65625 L 2.015625 0 L 0.84375 0 Z M 0.84375 -9.5 "/>
</g>
<g id="glyph-4-3">
<path d="M 1.734375 -1.84375 C 1.734375 -1.5 1.851562 -1.226562 2.09375 -1.03125 C 2.34375 -0.84375 2.640625 -0.75 2.984375 -0.75 C 3.390625 -0.75 3.785156 -0.84375 4.171875 -1.03125 C 4.804688 -1.351562 5.125 -1.867188 5.125 -2.578125 L 5.125 -3.515625 C 4.988281 -3.421875 4.804688 -3.34375 4.578125 -3.28125 C 4.359375 -3.226562 4.140625 -3.1875 3.921875 -3.15625 L 3.21875 -3.0625 C 2.800781 -3.007812 2.488281 -2.921875 2.28125 -2.796875 C 1.914062 -2.597656 1.734375 -2.28125 1.734375 -1.84375 Z M 4.546875 -4.1875 C 4.816406 -4.21875 5 -4.328125 5.09375 -4.515625 C 5.132812 -4.617188 5.15625 -4.769531 5.15625 -4.96875 C 5.15625 -5.363281 5.015625 -5.648438 4.734375 -5.828125 C 4.453125 -6.003906 4.050781 -6.09375 3.53125 -6.09375 C 2.925781 -6.09375 2.5 -5.929688 2.25 -5.609375 C 2.101562 -5.421875 2.007812 -5.148438 1.96875 -4.796875 L 0.890625 -4.796875 C 0.910156 -5.648438 1.1875 -6.242188 1.71875 -6.578125 C 2.25 -6.910156 2.863281 -7.078125 3.5625 -7.078125 C 4.375 -7.078125 5.03125 -6.921875 5.53125 -6.609375 C 6.039062 -6.296875 6.296875 -5.8125 6.296875 -5.15625 L 6.296875 -1.1875 C 6.296875 -1.0625 6.316406 -0.960938 6.359375 -0.890625 C 6.410156 -0.816406 6.515625 -0.78125 6.671875 -0.78125 C 6.722656 -0.78125 6.78125 -0.785156 6.84375 -0.796875 C 6.914062 -0.804688 6.988281 -0.816406 7.0625 -0.828125 L 7.0625 0.03125 C 6.875 0.0820312 6.734375 0.113281 6.640625 0.125 C 6.546875 0.132812 6.421875 0.140625 6.265625 0.140625 C 5.859375 0.140625 5.566406 0 5.390625 -0.28125 C 5.296875 -0.425781 5.226562 -0.640625 5.1875 -0.921875 C 4.945312 -0.609375 4.601562 -0.335938 4.15625 -0.109375 C 3.71875 0.117188 3.234375 0.234375 2.703125 0.234375 C 2.066406 0.234375 1.546875 0.0390625 1.140625 -0.34375 C 0.734375 -0.738281 0.53125 -1.226562 0.53125 -1.8125 C 0.53125 -2.445312 0.726562 -2.941406 1.125 -3.296875 C 1.53125 -3.648438 2.054688 -3.867188 2.703125 -3.953125 Z M 3.59375 -7.078125 Z M 3.59375 -7.078125 "/>
</g>
<g id="glyph-4-4">
<path d="M 0.84375 -6.875 L 2.03125 -6.875 L 2.03125 0 L 0.84375 0 Z M 0.84375 -9.46875 L 2.03125 -9.46875 L 2.03125 -8.15625 L 0.84375 -8.15625 Z M 0.84375 -9.46875 "/>
</g>
<g id="glyph-4-5">
<path d="M 0.84375 -6.90625 L 1.953125 -6.90625 L 1.953125 -5.921875 C 2.273438 -6.328125 2.617188 -6.617188 2.984375 -6.796875 C 3.359375 -6.972656 3.765625 -7.0625 4.203125 -7.0625 C 5.179688 -7.0625 5.847656 -6.71875 6.203125 -6.03125 C 6.390625 -5.65625 6.484375 -5.117188 6.484375 -4.421875 L 6.484375 0 L 5.296875 0 L 5.296875 -4.359375 C 5.296875 -4.773438 5.234375 -5.113281 5.109375 -5.375 C 4.898438 -5.800781 4.523438 -6.015625 3.984375 -6.015625 C 3.710938 -6.015625 3.488281 -5.988281 3.3125 -5.9375 C 3 -5.84375 2.71875 -5.648438 2.46875 -5.359375 C 2.28125 -5.128906 2.15625 -4.894531 2.09375 -4.65625 C 2.039062 -4.414062 2.015625 -4.066406 2.015625 -3.609375 L 2.015625 0 L 0.84375 0 Z M 3.578125 -7.078125 Z M 3.578125 -7.078125 "/>
</g>
<g id="glyph-4-6">
</g>
<g id="glyph-4-7">
<path d="M 3.90625 -9.625 C 3.226562 -8.3125 2.789062 -7.347656 2.59375 -6.734375 C 2.289062 -5.785156 2.140625 -4.695312 2.140625 -3.46875 C 2.140625 -2.21875 2.3125 -1.078125 2.65625 -0.046875 C 2.875 0.585938 3.296875 1.5 3.921875 2.6875 L 3.140625 2.6875 C 2.515625 1.707031 2.125 1.082031 1.96875 0.8125 C 1.820312 0.539062 1.660156 0.175781 1.484375 -0.28125 C 1.242188 -0.914062 1.078125 -1.597656 0.984375 -2.328125 C 0.941406 -2.691406 0.921875 -3.046875 0.921875 -3.390625 C 0.921875 -4.660156 1.117188 -5.789062 1.515625 -6.78125 C 1.765625 -7.414062 2.289062 -8.363281 3.09375 -9.625 Z M 3.90625 -9.625 "/>
</g>
<g id="glyph-4-8">
<path d="M 0.96875 -9.46875 L 2.8125 -9.46875 L 5.53125 -1.46875 L 8.234375 -9.46875 L 10.046875 -9.46875 L 10.046875 0 L 8.828125 0 L 8.828125 -5.59375 C 8.828125 -5.78125 8.832031 -6.097656 8.84375 -6.546875 C 8.851562 -6.992188 8.859375 -7.472656 8.859375 -7.984375 L 6.15625 0 L 4.890625 0 L 2.171875 -7.984375 L 2.171875 -7.703125 C 2.171875 -7.460938 2.175781 -7.101562 2.1875 -6.625 C 2.195312 -6.15625 2.203125 -5.8125 2.203125 -5.59375 L 2.203125 0 L 0.96875 0 Z M 0.96875 -9.46875 "/>
</g>
<g id="glyph-4-9">
<path d="M 3.71875 -7.0625 C 4.21875 -7.0625 4.695312 -6.945312 5.15625 -6.71875 C 5.613281 -6.488281 5.960938 -6.191406 6.203125 -5.828125 C 6.429688 -5.472656 6.585938 -5.066406 6.671875 -4.609375 C 6.734375 -4.285156 6.765625 -3.773438 6.765625 -3.078125 L 1.703125 -3.078125 C 1.722656 -2.378906 1.890625 -1.816406 2.203125 -1.390625 C 2.515625 -0.972656 2.992188 -0.765625 3.640625 -0.765625 C 4.242188 -0.765625 4.726562 -0.960938 5.09375 -1.359375 C 5.300781 -1.585938 5.445312 -1.859375 5.53125 -2.171875 L 6.671875 -2.171875 C 6.640625 -1.910156 6.539062 -1.625 6.375 -1.3125 C 6.207031 -1 6.015625 -0.742188 5.796875 -0.546875 C 5.453125 -0.203125 5.019531 0.0234375 4.5 0.140625 C 4.21875 0.210938 3.898438 0.25 3.546875 0.25 C 2.679688 0.25 1.953125 -0.0625 1.359375 -0.6875 C 0.765625 -1.3125 0.46875 -2.1875 0.46875 -3.3125 C 0.46875 -4.425781 0.765625 -5.328125 1.359375 -6.015625 C 1.960938 -6.710938 2.75 -7.0625 3.71875 -7.0625 Z M 5.578125 -4 C 5.523438 -4.5 5.414062 -4.898438 5.25 -5.203125 C 4.925781 -5.765625 4.394531 -6.046875 3.65625 -6.046875 C 3.125 -6.046875 2.675781 -5.851562 2.3125 -5.46875 C 1.945312 -5.082031 1.753906 -4.59375 1.734375 -4 Z M 3.609375 -7.078125 Z M 3.609375 -7.078125 "/>
</g>
<g id="glyph-4-10">
<path d="M 1.578125 -3.375 C 1.578125 -2.632812 1.734375 -2.015625 2.046875 -1.515625 C 2.367188 -1.015625 2.875 -0.765625 3.5625 -0.765625 C 4.101562 -0.765625 4.546875 -0.992188 4.890625 -1.453125 C 5.234375 -1.921875 5.40625 -2.585938 5.40625 -3.453125 C 5.40625 -4.316406 5.226562 -4.957031 4.875 -5.375 C 4.519531 -5.800781 4.078125 -6.015625 3.546875 -6.015625 C 2.960938 -6.015625 2.488281 -5.789062 2.125 -5.34375 C 1.757812 -4.894531 1.578125 -4.238281 1.578125 -3.375 Z M 3.328125 -7.03125 C 3.859375 -7.03125 4.300781 -6.914062 4.65625 -6.6875 C 4.863281 -6.5625 5.097656 -6.335938 5.359375 -6.015625 L 5.359375 -9.5 L 6.484375 -9.5 L 6.484375 0 L 5.4375 0 L 5.4375 -0.953125 C 5.164062 -0.535156 4.84375 -0.226562 4.46875 -0.03125 C 4.101562 0.15625 3.679688 0.25 3.203125 0.25 C 2.429688 0.25 1.765625 -0.0703125 1.203125 -0.71875 C 0.640625 -1.375 0.359375 -2.238281 0.359375 -3.3125 C 0.359375 -4.3125 0.613281 -5.179688 1.125 -5.921875 C 1.644531 -6.660156 2.378906 -7.03125 3.328125 -7.03125 Z M 3.328125 -7.03125 "/>
</g>
<g id="glyph-4-11">
<path d="M 1.078125 -8.828125 L 2.25 -8.828125 L 2.25 -6.90625 L 3.359375 -6.90625 L 3.359375 -5.953125 L 2.25 -5.953125 L 2.25 -1.453125 C 2.25 -1.210938 2.332031 -1.050781 2.5 -0.96875 C 2.59375 -0.914062 2.742188 -0.890625 2.953125 -0.890625 C 3.003906 -0.890625 3.0625 -0.890625 3.125 -0.890625 C 3.195312 -0.898438 3.273438 -0.910156 3.359375 -0.921875 L 3.359375 0 C 3.222656 0.0390625 3.082031 0.0664062 2.9375 0.078125 C 2.800781 0.0976562 2.644531 0.109375 2.46875 0.109375 C 1.925781 0.109375 1.554688 -0.0234375 1.359375 -0.296875 C 1.171875 -0.578125 1.078125 -0.941406 1.078125 -1.390625 L 1.078125 -5.953125 L 0.140625 -5.953125 L 0.140625 -6.90625 L 1.078125 -6.90625 Z M 1.078125 -8.828125 "/>
</g>
<g id="glyph-4-12">
<path d="M 3.59375 -0.75 C 4.363281 -0.75 4.890625 -1.039062 5.171875 -1.625 C 5.460938 -2.207031 5.609375 -2.851562 5.609375 -3.5625 C 5.609375 -4.207031 5.503906 -4.734375 5.296875 -5.140625 C 4.960938 -5.773438 4.398438 -6.09375 3.609375 -6.09375 C 2.898438 -6.09375 2.382812 -5.820312 2.0625 -5.28125 C 1.738281 -4.738281 1.578125 -4.082031 1.578125 -3.3125 C 1.578125 -2.582031 1.738281 -1.972656 2.0625 -1.484375 C 2.382812 -0.992188 2.894531 -0.75 3.59375 -0.75 Z M 3.640625 -7.109375 C 4.523438 -7.109375 5.273438 -6.8125 5.890625 -6.21875 C 6.503906 -5.625 6.8125 -4.75 6.8125 -3.59375 C 6.8125 -2.476562 6.539062 -1.554688 6 -0.828125 C 5.457031 -0.109375 4.617188 0.25 3.484375 0.25 C 2.535156 0.25 1.78125 -0.0664062 1.21875 -0.703125 C 0.65625 -1.347656 0.375 -2.210938 0.375 -3.296875 C 0.375 -4.460938 0.664062 -5.390625 1.25 -6.078125 C 1.84375 -6.765625 2.640625 -7.109375 3.640625 -7.109375 Z M 3.59375 -7.078125 Z M 3.59375 -7.078125 "/>
</g>
<g id="glyph-4-13">
<path d="M 0.453125 2.6875 C 1.140625 1.363281 1.582031 0.394531 1.78125 -0.21875 C 2.082031 -1.144531 2.234375 -2.226562 2.234375 -3.46875 C 2.234375 -4.707031 2.054688 -5.84375 1.703125 -6.875 C 1.492188 -7.507812 1.070312 -8.425781 0.4375 -9.625 L 1.21875 -9.625 C 1.882812 -8.570312 2.285156 -7.921875 2.421875 -7.671875 C 2.554688 -7.421875 2.707031 -7.078125 2.875 -6.640625 C 3.082031 -6.109375 3.226562 -5.578125 3.3125 -5.046875 C 3.40625 -4.523438 3.453125 -4.023438 3.453125 -3.546875 C 3.453125 -2.265625 3.25 -1.128906 2.84375 -0.140625 C 2.59375 0.503906 2.066406 1.445312 1.265625 2.6875 Z M 0.453125 2.6875 "/>
</g>
<g id="glyph-4-14">
<path d="M 1.46875 -6.8125 L 2.8125 -6.8125 L 2.8125 -5.40625 L 1.46875 -5.40625 Z M 1.46875 -1.40625 L 2.8125 -1.40625 L 2.8125 0 L 1.46875 0 Z M 1.46875 -1.40625 "/>
</g>
<g id="glyph-4-15">
<path d="M 1.8125 0 L 0.265625 0 L 3.65625 -4.859375 L 0.484375 -9.46875 L 2.09375 -9.46875 L 4.5 -5.84375 L 6.90625 -9.46875 L 8.4375 -9.46875 L 5.25 -4.859375 L 8.59375 0 L 7 0 L 4.4375 -3.890625 Z M 1.8125 0 "/>
</g>
<g id="glyph-4-16">
<path d="M 0.546875 -4.28125 L 3.78125 -4.28125 L 3.78125 -3.078125 L 0.546875 -3.078125 Z M 0.546875 -4.28125 "/>
</g>
<g id="glyph-4-17">
<path d="M 7.71875 -2.828125 L 0.1875 0.125 L 0.1875 -1.03125 L 6.34375 -3.375 L 0.1875 -5.703125 L 0.1875 -6.859375 L 7.71875 -3.90625 Z M 7.71875 -2.828125 "/>
</g>
<g id="glyph-4-18">
<path d="M 0.265625 -9.46875 L 1.765625 -9.46875 L 4.484375 -4.921875 L 7.203125 -9.46875 L 8.703125 -9.46875 L 5.125 -3.8125 L 5.125 0 L 3.84375 0 L 3.84375 -3.8125 Z M 4.5 -9.46875 Z M 4.5 -9.46875 "/>
</g>
</g>
<clipPath id="clip-0">
<path clip-rule="nonzero" d="M 39.152344 23.957031 L 570.523438 23.957031 L 570.523438 290.847656 L 39.152344 290.847656 Z M 39.152344 23.957031 "/>
</clipPath>
<clipPath id="clip-1">
<path clip-rule="nonzero" d="M 39.152344 283 L 570.523438 283 L 570.523438 285 L 39.152344 285 Z M 39.152344 283 "/>
</clipPath>
<clipPath id="clip-2">
<path clip-rule="nonzero" d="M 39.152344 207 L 570.523438 207 L 570.523438 209 L 39.152344 209 Z M 39.152344 207 "/>
</clipPath>
<clipPath id="clip-3">
<path clip-rule="nonzero" d="M 39.152344 131 L 570.523438 131 L 570.523438 133 L 39.152344 133 Z M 39.152344 131 "/>
</clipPath>
<clipPath id="clip-4">
<path clip-rule="nonzero" d="M 39.152344 55 L 570.523438 55 L 570.523438 57 L 39.152344 57 Z M 39.152344 55 "/>
</clipPath>
<clipPath id="clip-5">
<path clip-rule="nonzero" d="M 65 23.957031 L 66 23.957031 L 66 290.847656 L 65 290.847656 Z M 65 23.957031 "/>
</clipPath>
<clipPath id="clip-6">
<path clip-rule="nonzero" d="M 191 23.957031 L 193 23.957031 L 193 290.847656 L 191 290.847656 Z M 191 23.957031 "/>
</clipPath>
<clipPath id="clip-7">
<path clip-rule="nonzero" d="M 317 23.957031 L 319 23.957031 L 319 290.847656 L 317 290.847656 Z M 317 23.957031 "/>
</clipPath>
<clipPath id="clip-8">
<path clip-rule="nonzero" d="M 444 23.957031 L 445 23.957031 L 445 290.847656 L 444 290.847656 Z M 444 23.957031 "/>
</clipPath>
<clipPath id="clip-9">
<path clip-rule="nonzero" d="M 39.152344 245 L 570.523438 245 L 570.523438 247 L 39.152344 247 Z M 39.152344 245 "/>
</clipPath>
<clipPath id="clip-10">
<path clip-rule="nonzero" d="M 39.152344 169 L 570.523438 169 L 570.523438 171 L 39.152344 171 Z M 39.152344 169 "/>
</clipPath>
<clipPath id="clip-11">
<path clip-rule="nonzero" d="M 39.152344 93 L 570.523438 93 L 570.523438 95 L 39.152344 95 Z M 39.152344 93 "/>
</clipPath>
<clipPath id="clip-12">
<path clip-rule="nonzero" d="M 128 23.957031 L 130 23.957031 L 130 290.847656 L 128 290.847656 Z M 128 23.957031 "/>
</clipPath>
<clipPath id="clip-13">
<path clip-rule="nonzero" d="M 254 23.957031 L 256 23.957031 L 256 290.847656 L 254 290.847656 Z M 254 23.957031 "/>
</clipPath>
<clipPath id="clip-14">
<path clip-rule="nonzero" d="M 380 23.957031 L 382 23.957031 L 382 290.847656 L 380 290.847656 Z M 380 23.957031 "/>
</clipPath>
<clipPath id="clip-15">
<path clip-rule="nonzero" d="M 507 23.957031 L 509 23.957031 L 509 290.847656 L 507 290.847656 Z M 507 23.957031 "/>
</clipPath>
</defs>
<rect x="-57.6" y="-32.4" width="691.2" height="388.8" fill="rgb(100%, 100%, 100%)" fill-opacity="1"/>
<rect x="-57.6" y="-32.4" width="691.2" height="388.8" fill="rgb(100%, 100%, 100%)" fill-opacity="1"/>
<path fill="none" stroke-width="1.066978" stroke-linecap="round" stroke-linejoin="round" stroke="rgb(100%, 100%, 100%)" stroke-opacity="1" stroke-miterlimit="10" d="M 0 324 L 576 324 L 576 0 L 0 0 Z M 0 324 "/>
<g clip-path="url(#clip-0)">
<path fill-rule="nonzero" fill="rgb(92.156863%, 92.156863%, 92.156863%)" fill-opacity="1" d="M 39.152344 290.847656 L 570.523438 290.847656 L 570.523438 23.957031 L 39.152344 23.957031 Z M 39.152344 290.847656 "/>
</g>
<g clip-path="url(#clip-1)">
<path fill="none" stroke-width="0.533489" stroke-linecap="butt" stroke-linejoin="round" stroke="rgb(100%, 100%, 100%)" stroke-opacity="1" stroke-miterlimit="10" d="M 39.152344 283.921875 L 570.519531 283.921875 "/>
</g>
<g clip-path="url(#clip-2)">
<path fill="none" stroke-width="0.533489" stroke-linecap="butt" stroke-linejoin="round" stroke="rgb(100%, 100%, 100%)" stroke-opacity="1" stroke-miterlimit="10" d="M 39.152344 207.960938 L 570.519531 207.960938 "/>
</g>
<g clip-path="url(#clip-3)">
<path fill="none" stroke-width="0.533489" stroke-linecap="butt" stroke-linejoin="round" stroke="rgb(100%, 100%, 100%)" stroke-opacity="1" stroke-miterlimit="10" d="M 39.152344 132 L 570.519531 132 "/>
</g>
<g clip-path="url(#clip-4)">
<path fill="none" stroke-width="0.533489" stroke-linecap="butt" stroke-linejoin="round" stroke="rgb(100%, 100%, 100%)" stroke-opacity="1" stroke-miterlimit="10" d="M 39.152344 56.039062 L 570.519531 56.039062 "/>
</g>
<g clip-path="url(#clip-5)">
<path fill="none" stroke-width="0.533489" stroke-linecap="butt" stroke-linejoin="round" stroke="rgb(100%, 100%, 100%)" stroke-opacity="1" stroke-miterlimit="10" d="M 65.613281 290.847656 L 65.613281 23.957031 "/>
</g>
<g clip-path="url(#clip-6)">
<path fill="none" stroke-width="0.533489" stroke-linecap="butt" stroke-linejoin="round" stroke="rgb(100%, 100%, 100%)" stroke-opacity="1" stroke-miterlimit="10" d="M 191.890625 290.847656 L 191.890625 23.957031 "/>
</g>
<g clip-path="url(#clip-7)">
<path fill="none" stroke-width="0.533489" stroke-linecap="butt" stroke-linejoin="round" stroke="rgb(100%, 100%, 100%)" stroke-opacity="1" stroke-miterlimit="10" d="M 318.167969 290.847656 L 318.167969 23.957031 "/>
</g>
<g clip-path="url(#clip-8)">
<path fill="none" stroke-width="0.533489" stroke-linecap="butt" stroke-linejoin="round" stroke="rgb(100%, 100%, 100%)" stroke-opacity="1" stroke-miterlimit="10" d="M 444.449219 290.847656 L 444.449219 23.957031 "/>
</g>
<g clip-path="url(#clip-9)">
<path fill="none" stroke-width="1.066978" stroke-linecap="butt" stroke-linejoin="round" stroke="rgb(100%, 100%, 100%)" stroke-opacity="1" stroke-miterlimit="10" d="M 39.152344 245.941406 L 570.519531 245.941406 "/>
</g>
<g clip-path="url(#clip-10)">
<path fill="none" stroke-width="1.066978" stroke-linecap="butt" stroke-linejoin="round" stroke="rgb(100%, 100%, 100%)" stroke-opacity="1" stroke-miterlimit="10" d="M 39.152344 169.980469 L 570.519531 169.980469 "/>
</g>
<g clip-path="url(#clip-11)">
<path fill="none" stroke-width="1.066978" stroke-linecap="butt" stroke-linejoin="round" stroke="rgb(100%, 100%, 100%)" stroke-opacity="1" stroke-miterlimit="10" d="M 39.152344 94.019531 L 570.519531 94.019531 "/>
</g>
<g clip-path="url(#clip-12)">
<path fill="none" stroke-width="1.066978" stroke-linecap="butt" stroke-linejoin="round" stroke="rgb(100%, 100%, 100%)" stroke-opacity="1" stroke-miterlimit="10" d="M 128.753906 290.847656 L 128.753906 23.957031 "/>
</g>
<g clip-path="url(#clip-13)">
<path fill="none" stroke-width="1.066978" stroke-linecap="butt" stroke-linejoin="round" stroke="rgb(100%, 100%, 100%)" stroke-opacity="1" stroke-miterlimit="10" d="M 255.03125 290.847656 L 255.03125 23.957031 "/>
</g>
<g clip-path="url(#clip-14)">
<path fill="none" stroke-width="1.066978" stroke-linecap="butt" stroke-linejoin="round" stroke="rgb(100%, 100%, 100%)" stroke-opacity="1" stroke-miterlimit="10" d="M 381.308594 290.847656 L 381.308594 23.957031 "/>
</g>
<g clip-path="url(#clip-15)">
<path fill="none" stroke-width="1.066978" stroke-linecap="butt" stroke-linejoin="round" stroke="rgb(100%, 100%, 100%)" stroke-opacity="1" stroke-miterlimit="10" d="M 507.585938 290.847656 L 507.585938 23.957031 "/>
</g>
<path fill="none" stroke-width="1.280374" stroke-linecap="butt" stroke-linejoin="round" stroke="rgb(0%, 0%, 0%)" stroke-opacity="1" stroke-miterlimit="1" d="M 284.324219 147.101562 L 282.25 146.058594 L 275.546875 142.695312 L 273.3125 141.570312 L 271.078125 140.449219 L 268.847656 139.328125 L 266.613281 138.207031 L 264.378906 137.082031 L 257.675781 133.71875 L 255.441406 132.59375 L 253.207031 131.472656 L 250.976562 130.351562 L 246.507812 128.109375 L 244.273438 126.984375 L 237.570312 123.621094 L 235.335938 122.496094 L 233.101562 121.375 L 230.871094 120.253906 L 228.636719 119.132812 L 226.402344 118.007812 L 219.699219 114.644531 L 217.464844 113.519531 L 215.230469 112.398438 L 213 111.277344 L 210.765625 110.15625 L 208.53125 109.03125 L 199.59375 104.546875 L 197.359375 103.421875 L 195.128906 102.300781 L 190.660156 100.058594 L 188.425781 98.933594 L 181.722656 95.570312 L 179.488281 94.445312 L 177.253906 93.324219 L 175.023438 92.203125 L 172.789062 91.082031 L 170.554688 89.957031 L 163.851562 86.59375 L 161.617188 85.46875 L 159.382812 84.347656 L 157.152344 83.226562 L 152.683594 80.984375 L 150.449219 79.859375 L 143.746094 76.496094 L 141.511719 75.371094 L 139.277344 74.25 L 137.046875 73.128906 L 134.8125 72.007812 L 132.578125 70.882812 L 125.875 67.519531 L 123.640625 66.394531 L 121.40625 65.273438 L 119.175781 64.152344 L 116.941406 63.03125 L 114.707031 61.90625 L 105.769531 57.421875 L 103.695312 56.378906 "/>
<path fill-rule="nonzero" fill="rgb(0%, 0%, 0%)" fill-opacity="1" stroke-width="1.280374" stroke-linecap="butt" stroke-linejoin="round" stroke="rgb(0%, 0%, 0%)" stroke-opacity="1" stroke-miterlimit="1" d="M 108.667969 56.089844 L 103.695312 56.378906 L 106.433594 60.539062 Z M 108.667969 56.089844 "/>
<path fill="none" stroke-width="1.280374" stroke-linecap="butt" stroke-linejoin="round" stroke="rgb(0%, 0%, 0%)" stroke-opacity="1" stroke-miterlimit="1" d="M 505.976562 258.429688 L 503.851562 257.363281 L 501.613281 256.238281 L 499.371094 255.113281 L 494.894531 252.863281 L 492.65625 251.742188 L 485.941406 248.367188 L 483.699219 247.242188 L 476.984375 243.867188 L 474.746094 242.746094 L 472.507812 241.621094 L 470.265625 240.496094 L 459.074219 234.871094 L 456.832031 233.746094 L 454.59375 232.625 L 443.402344 227 L 441.160156 225.875 L 438.921875 224.75 L 436.683594 223.628906 L 429.96875 220.253906 L 427.726562 219.128906 L 421.011719 215.753906 L 418.773438 214.632812 L 416.535156 213.507812 L 414.292969 212.382812 L 403.101562 206.757812 L 400.859375 205.636719 L 387.429688 198.886719 L 385.1875 197.761719 L 382.949219 196.636719 L 380.710938 195.515625 L 373.996094 192.140625 L 371.753906 191.015625 L 365.039062 187.640625 L 362.800781 186.519531 L 360.5625 185.394531 L 358.320312 184.269531 L 347.128906 178.644531 L 344.890625 177.523438 L 342.648438 176.398438 L 331.457031 170.773438 L 329.214844 169.648438 L 326.976562 168.523438 L 324.851562 167.457031 "/>
<path fill-rule="nonzero" fill="rgb(0%, 0%, 0%)" fill-opacity="1" stroke-width="1.280374" stroke-linecap="butt" stroke-linejoin="round" stroke="rgb(0%, 0%, 0%)" stroke-opacity="1" stroke-miterlimit="1" d="M 329.824219 167.167969 L 324.851562 167.457031 L 327.589844 171.621094 Z M 329.824219 167.167969 "/>
<path fill-rule="nonzero" fill="rgb(49.803922%, 49.803922%, 49.803922%)" fill-opacity="1" stroke-width="0.708661" stroke-linecap="round" stroke-linejoin="round" stroke="rgb(49.803922%, 49.803922%, 49.803922%)" stroke-opacity="1" stroke-miterlimit="10" d="M 322.015625 157.28125 C 322.015625 166.902344 314.210938 174.707031 304.589844 174.707031 C 294.964844 174.707031 287.164062 166.902344 287.164062 157.28125 C 287.164062 147.65625 294.964844 139.855469 304.589844 139.855469 C 314.210938 139.855469 322.015625 147.65625 322.015625 157.28125 "/>
<path fill-rule="nonzero" fill="rgb(49.803922%, 49.803922%, 49.803922%)" fill-opacity="1" stroke-width="0.708661" stroke-linecap="round" stroke-linejoin="round" stroke="rgb(49.803922%, 49.803922%, 49.803922%)" stroke-opacity="1" stroke-miterlimit="10" d="M 543.664062 268.609375 C 543.664062 278.234375 535.863281 286.035156 526.238281 286.035156 C 516.617188 286.035156 508.8125 278.234375 508.8125 268.609375 C 508.8125 258.984375 516.617188 251.183594 526.238281 251.183594 C 535.863281 251.183594 543.664062 258.984375 543.664062 268.609375 "/>
<path fill-rule="nonzero" fill="rgb(49.803922%, 49.803922%, 49.803922%)" fill-opacity="1" stroke-width="0.708661" stroke-linecap="round" stroke-linejoin="round" stroke="rgb(49.803922%, 49.803922%, 49.803922%)" stroke-opacity="1" stroke-miterlimit="10" d="M 100.859375 46.199219 C 100.859375 55.824219 93.054688 63.625 83.429688 63.625 C 73.808594 63.625 66.003906 55.824219 66.003906 46.199219 C 66.003906 36.574219 73.808594 28.773438 83.429688 28.773438 C 93.054688 28.773438 100.859375 36.574219 100.859375 46.199219 "/>
<g fill="rgb(100%, 100%, 100%)" fill-opacity="1">
<use xlink:href="#glyph-0-1" x="300.089844" y="160.78125"/>
</g>
<g fill="rgb(100%, 100%, 100%)" fill-opacity="1">
<use xlink:href="#glyph-0-2" x="522.738281" y="272.109375"/>
</g>
<g fill="rgb(100%, 100%, 100%)" fill-opacity="1">
<use xlink:href="#glyph-0-3" x="79.929688" y="49.699219"/>
</g>
<g fill="rgb(30.196078%, 30.196078%, 30.196078%)" fill-opacity="1">
<use xlink:href="#glyph-1-1" x="19.21875" y="249.217773"/>
<use xlink:href="#glyph-1-2" x="22.21875" y="249.217773"/>
<use xlink:href="#glyph-1-3" x="27.21875" y="249.217773"/>
<use xlink:href="#glyph-1-4" x="29.21875" y="249.217773"/>
</g>
<g fill="rgb(30.196078%, 30.196078%, 30.196078%)" fill-opacity="1">
<use xlink:href="#glyph-1-1" x="19.21875" y="173.256836"/>
<use xlink:href="#glyph-1-2" x="22.21875" y="173.256836"/>
<use xlink:href="#glyph-1-3" x="27.21875" y="173.256836"/>
<use xlink:href="#glyph-1-5" x="29.21875" y="173.256836"/>
</g>
<g fill="rgb(30.196078%, 30.196078%, 30.196078%)" fill-opacity="1">
<use xlink:href="#glyph-1-1" x="19.21875" y="97.295898"/>
<use xlink:href="#glyph-1-6" x="22.21875" y="97.295898"/>
<use xlink:href="#glyph-1-3" x="27.21875" y="97.295898"/>
<use xlink:href="#glyph-1-4" x="29.21875" y="97.295898"/>
</g>
<path fill="none" stroke-width="1.066978" stroke-linecap="butt" stroke-linejoin="round" stroke="rgb(20%, 20%, 20%)" stroke-opacity="1" stroke-miterlimit="10" d="M 36.410156 245.941406 L 39.152344 245.941406 "/>
<path fill="none" stroke-width="1.066978" stroke-linecap="butt" stroke-linejoin="round" stroke="rgb(20%, 20%, 20%)" stroke-opacity="1" stroke-miterlimit="10" d="M 36.410156 169.980469 L 39.152344 169.980469 "/>
<path fill="none" stroke-width="1.066978" stroke-linecap="butt" stroke-linejoin="round" stroke="rgb(20%, 20%, 20%)" stroke-opacity="1" stroke-miterlimit="10" d="M 36.410156 94.019531 L 39.152344 94.019531 "/>
<path fill="none" stroke-width="1.066978" stroke-linecap="butt" stroke-linejoin="round" stroke="rgb(20%, 20%, 20%)" stroke-opacity="1" stroke-miterlimit="10" d="M 128.753906 293.589844 L 128.753906 290.847656 "/>
<path fill="none" stroke-width="1.066978" stroke-linecap="butt" stroke-linejoin="round" stroke="rgb(20%, 20%, 20%)" stroke-opacity="1" stroke-miterlimit="10" d="M 255.03125 293.589844 L 255.03125 290.847656 "/>
<path fill="none" stroke-width="1.066978" stroke-linecap="butt" stroke-linejoin="round" stroke="rgb(20%, 20%, 20%)" stroke-opacity="1" stroke-miterlimit="10" d="M 381.308594 293.589844 L 381.308594 290.847656 "/>
<path fill="none" stroke-width="1.066978" stroke-linecap="butt" stroke-linejoin="round" stroke="rgb(20%, 20%, 20%)" stroke-opacity="1" stroke-miterlimit="10" d="M 507.585938 293.589844 L 507.585938 290.847656 "/>
<g fill="rgb(30.196078%, 30.196078%, 30.196078%)" fill-opacity="1">
<use xlink:href="#glyph-1-5" x="122.753906" y="302.557617"/>
<use xlink:href="#glyph-1-3" x="127.753906" y="302.557617"/>
<use xlink:href="#glyph-1-4" x="129.753906" y="302.557617"/>
</g>
<g fill="rgb(30.196078%, 30.196078%, 30.196078%)" fill-opacity="1">
<use xlink:href="#glyph-1-6" x="249.03125" y="302.557617"/>
<use xlink:href="#glyph-1-3" x="254.03125" y="302.557617"/>
<use xlink:href="#glyph-1-5" x="256.03125" y="302.557617"/>
</g>
<g fill="rgb(30.196078%, 30.196078%, 30.196078%)" fill-opacity="1">
<use xlink:href="#glyph-1-6" x="375.308594" y="302.557617"/>
<use xlink:href="#glyph-1-3" x="380.308594" y="302.557617"/>
<use xlink:href="#glyph-1-4" x="382.308594" y="302.557617"/>
</g>
<g fill="rgb(30.196078%, 30.196078%, 30.196078%)" fill-opacity="1">
<use xlink:href="#glyph-1-2" x="501.585938" y="302.557617"/>
<use xlink:href="#glyph-1-3" x="506.585938" y="302.557617"/>
<use xlink:href="#glyph-1-5" x="508.585938" y="302.557617"/>
</g>
<g fill="rgb(0%, 0%, 0%)" fill-opacity="1">
<use xlink:href="#glyph-2-1" x="301.835938" y="314.990234"/>
</g>
<g fill="rgb(0%, 0%, 0%)" fill-opacity="1">
<use xlink:href="#glyph-3-1" x="12.951172" y="160.402344"/>
</g>
<g fill="rgb(0%, 0%, 0%)" fill-opacity="1">
<use xlink:href="#glyph-4-1" x="39.152344" y="14.644531"/>
<use xlink:href="#glyph-4-2" x="49.152344" y="14.644531"/>
<use xlink:href="#glyph-4-3" x="56.152344" y="14.644531"/>
<use xlink:href="#glyph-4-4" x="63.152344" y="14.644531"/>
<use xlink:href="#glyph-4-5" x="66.152344" y="14.644531"/>
<use xlink:href="#glyph-4-6" x="73.152344" y="14.644531"/>
<use xlink:href="#glyph-4-7" x="77.152344" y="14.644531"/>
<use xlink:href="#glyph-4-8" x="81.152344" y="14.644531"/>
<use xlink:href="#glyph-4-9" x="92.152344" y="14.644531"/>
<use xlink:href="#glyph-4-10" x="99.152344" y="14.644531"/>
<use xlink:href="#glyph-4-4" x="106.152344" y="14.644531"/>
<use xlink:href="#glyph-4-3" x="109.152344" y="14.644531"/>
<use xlink:href="#glyph-4-11" x="116.152344" y="14.644531"/>
<use xlink:href="#glyph-4-4" x="120.152344" y="14.644531"/>
<use xlink:href="#glyph-4-12" x="123.152344" y="14.644531"/>
<use xlink:href="#glyph-4-5" x="130.152344" y="14.644531"/>
<use xlink:href="#glyph-4-13" x="137.152344" y="14.644531"/>
<use xlink:href="#glyph-4-14" x="141.152344" y="14.644531"/>
<use xlink:href="#glyph-4-6" x="145.152344" y="14.644531"/>
<use xlink:href="#glyph-4-15" x="149.152344" y="14.644531"/>
<use xlink:href="#glyph-4-6" x="158.152344" y="14.644531"/>
<use xlink:href="#glyph-4-16" x="162.152344" y="14.644531"/>
<use xlink:href="#glyph-4-17" x="166.152344" y="14.644531"/>
<use xlink:href="#glyph-4-6" x="174.152344" y="14.644531"/>
<use xlink:href="#glyph-4-8" x="178.152344" y="14.644531"/>
<use xlink:href="#glyph-4-6" x="189.152344" y="14.644531"/>
<use xlink:href="#glyph-4-16" x="193.152344" y="14.644531"/>
<use xlink:href="#glyph-4-17" x="197.152344" y="14.644531"/>
<use xlink:href="#glyph-4-6" x="205.152344" y="14.644531"/>
<use xlink:href="#glyph-4-18" x="209.152344" y="14.644531"/>
</g>
</svg>
