<?xml version="1.0" encoding="UTF-8"?>
<svg xmlns="http://www.w3.org/2000/svg" xmlns:xlink="http://www.w3.org/1999/xlink" width="504" height="396" viewBox="0 0 504 396">
<defs>
<g>
<g id="glyph-0-0">
<path d="M 0.359375 0 L 0.359375 -7.921875 L 6.640625 -7.921875 L 6.640625 0 Z M 5.65625 -1 L 5.65625 -6.9375 L 1.34375 -6.9375 L 1.34375 -1 Z M 5.65625 -1 "/>
</g>
<g id="glyph-0-1">
<path d="M 4.1875 -8.140625 C 5.1875 -8.140625 5.960938 -7.875 6.515625 -7.34375 C 7.066406 -6.8125 7.375 -6.210938 7.4375 -5.546875 L 6.390625 -5.546875 C 6.273438 -6.054688 6.039062 -6.457031 5.6875 -6.75 C 5.332031 -7.050781 4.832031 -7.203125 4.1875 -7.203125 C 3.40625 -7.203125 2.773438 -6.925781 2.296875 -6.375 C 1.816406 -5.832031 1.578125 -4.992188 1.578125 -3.859375 C 1.578125 -2.929688 1.789062 -2.175781 2.21875 -1.59375 C 2.65625 -1.019531 3.304688 -0.734375 4.171875 -0.734375 C 4.960938 -0.734375 5.5625 -1.039062 5.96875 -1.65625 C 6.195312 -1.96875 6.363281 -2.382812 6.46875 -2.90625 L 7.515625 -2.90625 C 7.421875 -2.070312 7.113281 -1.375 6.59375 -0.8125 C 5.957031 -0.132812 5.109375 0.203125 4.046875 0.203125 C 3.117188 0.203125 2.34375 -0.0703125 1.71875 -0.625 C 0.894531 -1.363281 0.484375 -2.503906 0.484375 -4.046875 C 0.484375 -5.210938 0.789062 -6.171875 1.40625 -6.921875 C 2.082031 -7.734375 3.007812 -8.140625 4.1875 -8.140625 Z M 3.96875 -8.140625 Z M 3.96875 -8.140625 "/>
</g>
<g id="glyph-0-2">
<path d="M 0.71875 -5.75 L 1.703125 -5.75 L 1.703125 0 L 0.71875 0 Z M 0.71875 -7.921875 L 1.703125 -7.921875 L 1.703125 -6.828125 L 0.71875 -6.828125 Z M 0.71875 -7.921875 "/>
</g>
<g id="glyph-0-3">
<path d="M 1.1875 -5.78125 L 2.734375 -1.078125 L 4.34375 -5.78125 L 5.40625 -5.78125 L 3.21875 0 L 2.1875 0 L 0.0625 -5.78125 Z M 1.1875 -5.78125 "/>
</g>
<g id="glyph-0-4">
<path d="M 0.734375 -7.921875 L 1.703125 -7.921875 L 1.703125 0 L 0.734375 0 Z M 0.734375 -7.921875 "/>
</g>
<g id="glyph-0-5">
<path d="M 4.53125 -4.296875 C 5.03125 -4.296875 5.425781 -4.394531 5.71875 -4.59375 C 6.007812 -4.789062 6.15625 -5.15625 6.15625 -5.6875 C 6.15625 -6.25 5.953125 -6.632812 5.546875 -6.84375 C 5.328125 -6.945312 5.035156 -7 4.671875 -7 L 2.046875 -7 L 2.046875 -4.296875 Z M 0.96875 -7.921875 L 4.640625 -7.921875 C 5.242188 -7.921875 5.742188 -7.832031 6.140625 -7.65625 C 6.878906 -7.320312 7.25 -6.695312 7.25 -5.78125 C 7.25 -5.3125 7.148438 -4.925781 6.953125 -4.625 C 6.753906 -4.320312 6.484375 -4.078125 6.140625 -3.890625 C 6.441406 -3.765625 6.671875 -3.597656 6.828125 -3.390625 C 6.984375 -3.191406 7.070312 -2.863281 7.09375 -2.40625 L 7.125 -1.34375 C 7.132812 -1.039062 7.160156 -0.8125 7.203125 -0.65625 C 7.265625 -0.40625 7.378906 -0.242188 7.546875 -0.171875 L 7.546875 0 L 6.234375 0 C 6.203125 -0.0703125 6.171875 -0.160156 6.140625 -0.265625 C 6.117188 -0.367188 6.101562 -0.578125 6.09375 -0.890625 L 6.03125 -2.21875 C 6.007812 -2.726562 5.816406 -3.070312 5.453125 -3.25 C 5.242188 -3.34375 4.921875 -3.390625 4.484375 -3.390625 L 2.046875 -3.390625 L 2.046875 0 L 0.96875 0 Z M 0.96875 -7.921875 "/>
</g>
<g id="glyph-0-6">
<path d="M 2.75 -5.875 C 3.207031 -5.875 3.601562 -5.765625 3.9375 -5.546875 C 4.125 -5.421875 4.3125 -5.238281 4.5 -5 L 4.5 -5.71875 L 5.390625 -5.71875 L 5.390625 -0.46875 C 5.390625 0.257812 5.285156 0.835938 5.078125 1.265625 C 4.671875 2.046875 3.90625 2.4375 2.78125 2.4375 C 2.164062 2.4375 1.644531 2.296875 1.21875 2.015625 C 0.789062 1.742188 0.550781 1.3125 0.5 0.71875 L 1.5 0.71875 C 1.539062 0.976562 1.632812 1.175781 1.78125 1.3125 C 2 1.53125 2.34375 1.640625 2.8125 1.640625 C 3.550781 1.640625 4.035156 1.378906 4.265625 0.859375 C 4.410156 0.546875 4.472656 -0.00390625 4.453125 -0.796875 C 4.265625 -0.503906 4.03125 -0.285156 3.75 -0.140625 C 3.476562 -0.00390625 3.117188 0.0625 2.671875 0.0625 C 2.046875 0.0625 1.5 -0.15625 1.03125 -0.59375 C 0.5625 -1.039062 0.328125 -1.773438 0.328125 -2.796875 C 0.328125 -3.765625 0.5625 -4.519531 1.03125 -5.0625 C 1.507812 -5.601562 2.082031 -5.875 2.75 -5.875 Z M 4.5 -2.90625 C 4.5 -3.625 4.347656 -4.15625 4.046875 -4.5 C 3.753906 -4.84375 3.378906 -5.015625 2.921875 -5.015625 C 2.242188 -5.015625 1.78125 -4.695312 1.53125 -4.0625 C 1.394531 -3.71875 1.328125 -3.269531 1.328125 -2.71875 C 1.328125 -2.070312 1.457031 -1.578125 1.71875 -1.234375 C 1.988281 -0.890625 2.34375 -0.71875 2.78125 -0.71875 C 3.476562 -0.71875 3.972656 -1.035156 4.265625 -1.671875 C 4.421875 -2.023438 4.5 -2.4375 4.5 -2.90625 Z M 2.859375 -5.921875 Z M 2.859375 -5.921875 "/>
</g>
<g id="glyph-0-7">
<path d="M 0.71875 -7.953125 L 1.6875 -7.953125 L 1.6875 -5 C 1.914062 -5.289062 2.117188 -5.492188 2.296875 -5.609375 C 2.609375 -5.816406 3 -5.921875 3.46875 -5.921875 C 4.3125 -5.921875 4.878906 -5.625 5.171875 -5.03125 C 5.335938 -4.71875 5.421875 -4.273438 5.421875 -3.703125 L 5.421875 0 L 4.421875 0 L 4.421875 -3.640625 C 4.421875 -4.066406 4.367188 -4.378906 4.265625 -4.578125 C 4.085938 -4.890625 3.753906 -5.046875 3.265625 -5.046875 C 2.867188 -5.046875 2.503906 -4.90625 2.171875 -4.625 C 1.847656 -4.351562 1.6875 -3.832031 1.6875 -3.0625 L 1.6875 0 L 0.71875 0 Z M 0.71875 -7.953125 "/>
</g>
<g id="glyph-0-8">
<path d="M 0.90625 -7.390625 L 1.890625 -7.390625 L 1.890625 -5.78125 L 2.8125 -5.78125 L 2.8125 -4.984375 L 1.890625 -4.984375 L 1.890625 -1.21875 C 1.890625 -1.007812 1.957031 -0.875 2.09375 -0.8125 C 2.164062 -0.769531 2.289062 -0.75 2.46875 -0.75 C 2.519531 -0.75 2.570312 -0.75 2.625 -0.75 C 2.675781 -0.75 2.738281 -0.753906 2.8125 -0.765625 L 2.8125 0 C 2.695312 0.03125 2.578125 0.0507812 2.453125 0.0625 C 2.335938 0.0820312 2.210938 0.09375 2.078125 0.09375 C 1.617188 0.09375 1.304688 -0.0195312 1.140625 -0.25 C 0.984375 -0.488281 0.90625 -0.789062 0.90625 -1.15625 L 0.90625 -4.984375 L 0.125 -4.984375 L 0.125 -5.78125 L 0.90625 -5.78125 Z M 0.90625 -7.390625 "/>
</g>
<g id="glyph-0-9">
<path d="M 1.296875 -1.8125 C 1.316406 -1.488281 1.394531 -1.238281 1.53125 -1.0625 C 1.78125 -0.75 2.207031 -0.59375 2.8125 -0.59375 C 3.164062 -0.59375 3.476562 -0.671875 3.75 -0.828125 C 4.03125 -0.984375 4.171875 -1.226562 4.171875 -1.5625 C 4.171875 -1.8125 4.054688 -2 3.828125 -2.125 C 3.691406 -2.207031 3.414062 -2.300781 3 -2.40625 L 2.234375 -2.59375 C 1.742188 -2.71875 1.378906 -2.851562 1.140625 -3 C 0.722656 -3.257812 0.515625 -3.625 0.515625 -4.09375 C 0.515625 -4.632812 0.710938 -5.070312 1.109375 -5.40625 C 1.503906 -5.75 2.035156 -5.921875 2.703125 -5.921875 C 3.566406 -5.921875 4.191406 -5.664062 4.578125 -5.15625 C 4.816406 -4.832031 4.9375 -4.484375 4.9375 -4.109375 L 4.015625 -4.109375 C 3.992188 -4.328125 3.914062 -4.53125 3.78125 -4.71875 C 3.5625 -4.96875 3.175781 -5.09375 2.625 -5.09375 C 2.257812 -5.09375 1.976562 -5.019531 1.78125 -4.875 C 1.59375 -4.738281 1.5 -4.554688 1.5 -4.328125 C 1.5 -4.078125 1.625 -3.878906 1.875 -3.734375 C 2.019531 -3.640625 2.234375 -3.554688 2.515625 -3.484375 L 3.15625 -3.328125 C 3.851562 -3.160156 4.320312 -3 4.5625 -2.84375 C 4.9375 -2.59375 5.125 -2.203125 5.125 -1.671875 C 5.125 -1.160156 4.925781 -0.71875 4.53125 -0.34375 C 4.144531 0.0273438 3.550781 0.21875 2.75 0.21875 C 1.894531 0.21875 1.285156 0.0234375 0.921875 -0.359375 C 0.566406 -0.753906 0.378906 -1.238281 0.359375 -1.8125 Z M 2.71875 -5.921875 Z M 2.71875 -5.921875 "/>
</g>
<g id="glyph-0-10">
<path d="M 0.734375 -5.78125 L 1.65625 -5.78125 L 1.65625 -4.78125 C 1.738281 -4.976562 1.925781 -5.210938 2.21875 -5.484375 C 2.507812 -5.765625 2.847656 -5.90625 3.234375 -5.90625 C 3.253906 -5.90625 3.285156 -5.898438 3.328125 -5.890625 C 3.367188 -5.890625 3.441406 -5.882812 3.546875 -5.875 L 3.546875 -4.859375 C 3.492188 -4.867188 3.441406 -4.875 3.390625 -4.875 C 3.335938 -4.875 3.285156 -4.875 3.234375 -4.875 C 2.742188 -4.875 2.363281 -4.71875 2.09375 -4.40625 C 1.832031 -4.09375 1.703125 -3.734375 1.703125 -3.328125 L 1.703125 0 L 0.734375 0 Z M 0.734375 -5.78125 "/>
</g>
<g id="glyph-0-11">
<path d="M 0.71875 -5.78125 L 1.671875 -5.78125 L 1.671875 -4.953125 C 1.898438 -5.242188 2.109375 -5.453125 2.296875 -5.578125 C 2.617188 -5.796875 2.984375 -5.90625 3.390625 -5.90625 C 3.847656 -5.90625 4.21875 -5.789062 4.5 -5.5625 C 4.65625 -5.4375 4.800781 -5.25 4.9375 -5 C 5.144531 -5.300781 5.394531 -5.523438 5.6875 -5.671875 C 5.976562 -5.828125 6.304688 -5.90625 6.671875 -5.90625 C 7.453125 -5.90625 7.984375 -5.625 8.265625 -5.0625 C 8.410156 -4.757812 8.484375 -4.351562 8.484375 -3.84375 L 8.484375 0 L 7.46875 0 L 7.46875 -4.015625 C 7.46875 -4.398438 7.375 -4.660156 7.1875 -4.796875 C 7 -4.941406 6.765625 -5.015625 6.484375 -5.015625 C 6.097656 -5.015625 5.769531 -4.882812 5.5 -4.625 C 5.226562 -4.375 5.09375 -3.953125 5.09375 -3.359375 L 5.09375 0 L 4.09375 0 L 4.09375 -3.765625 C 4.09375 -4.160156 4.046875 -4.445312 3.953125 -4.625 C 3.804688 -4.894531 3.535156 -5.03125 3.140625 -5.03125 C 2.765625 -5.03125 2.425781 -4.890625 2.125 -4.609375 C 1.832031 -4.328125 1.6875 -3.8125 1.6875 -3.0625 L 1.6875 0 L 0.71875 0 Z M 0.71875 -5.78125 "/>
</g>
<g id="glyph-0-12">
<path d="M 3.125 -5.90625 C 3.53125 -5.90625 3.925781 -5.804688 4.3125 -5.609375 C 4.695312 -5.421875 4.988281 -5.175781 5.1875 -4.875 C 5.382812 -4.582031 5.515625 -4.238281 5.578125 -3.84375 C 5.628906 -3.582031 5.65625 -3.160156 5.65625 -2.578125 L 1.421875 -2.578125 C 1.441406 -1.992188 1.582031 -1.523438 1.84375 -1.171875 C 2.101562 -0.816406 2.503906 -0.640625 3.046875 -0.640625 C 3.554688 -0.640625 3.960938 -0.804688 4.265625 -1.140625 C 4.429688 -1.328125 4.550781 -1.550781 4.625 -1.8125 L 5.578125 -1.8125 C 5.554688 -1.601562 5.472656 -1.367188 5.328125 -1.109375 C 5.191406 -0.847656 5.035156 -0.632812 4.859375 -0.46875 C 4.554688 -0.175781 4.191406 0.0195312 3.765625 0.125 C 3.523438 0.175781 3.257812 0.203125 2.96875 0.203125 C 2.25 0.203125 1.640625 -0.0546875 1.140625 -0.578125 C 0.640625 -1.097656 0.390625 -1.832031 0.390625 -2.78125 C 0.390625 -3.707031 0.640625 -4.457031 1.140625 -5.03125 C 1.648438 -5.613281 2.3125 -5.90625 3.125 -5.90625 Z M 4.671875 -3.34375 C 4.628906 -3.769531 4.535156 -4.109375 4.390625 -4.359375 C 4.117188 -4.828125 3.675781 -5.0625 3.0625 -5.0625 C 2.613281 -5.0625 2.238281 -4.898438 1.9375 -4.578125 C 1.632812 -4.253906 1.472656 -3.84375 1.453125 -3.34375 Z M 3.03125 -5.921875 Z M 3.03125 -5.921875 "/>
</g>
<g id="glyph-0-13">
</g>
<g id="glyph-0-14">
<path d="M 1.453125 -1.53125 C 1.453125 -1.25 1.554688 -1.023438 1.765625 -0.859375 C 1.972656 -0.703125 2.210938 -0.625 2.484375 -0.625 C 2.828125 -0.625 3.160156 -0.707031 3.484375 -0.875 C 4.023438 -1.132812 4.296875 -1.5625 4.296875 -2.15625 L 4.296875 -2.9375 C 4.171875 -2.863281 4.015625 -2.800781 3.828125 -2.75 C 3.640625 -2.695312 3.457031 -2.660156 3.28125 -2.640625 L 2.703125 -2.5625 C 2.347656 -2.519531 2.082031 -2.445312 1.90625 -2.34375 C 1.601562 -2.175781 1.453125 -1.90625 1.453125 -1.53125 Z M 3.8125 -3.5 C 4.03125 -3.53125 4.175781 -3.625 4.25 -3.78125 C 4.300781 -3.863281 4.328125 -3.988281 4.328125 -4.15625 C 4.328125 -4.488281 4.207031 -4.726562 3.96875 -4.875 C 3.726562 -5.019531 3.390625 -5.09375 2.953125 -5.09375 C 2.453125 -5.09375 2.09375 -4.957031 1.875 -4.6875 C 1.757812 -4.53125 1.679688 -4.304688 1.640625 -4.015625 L 0.734375 -4.015625 C 0.753906 -4.722656 0.984375 -5.21875 1.421875 -5.5 C 1.867188 -5.78125 2.390625 -5.921875 2.984375 -5.921875 C 3.660156 -5.921875 4.210938 -5.789062 4.640625 -5.53125 C 5.054688 -5.269531 5.265625 -4.867188 5.265625 -4.328125 L 5.265625 -1 C 5.265625 -0.894531 5.285156 -0.8125 5.328125 -0.75 C 5.367188 -0.6875 5.457031 -0.65625 5.59375 -0.65625 C 5.632812 -0.65625 5.679688 -0.65625 5.734375 -0.65625 C 5.785156 -0.664062 5.84375 -0.675781 5.90625 -0.6875 L 5.90625 0.03125 C 5.757812 0.0703125 5.644531 0.0976562 5.5625 0.109375 C 5.476562 0.117188 5.367188 0.125 5.234375 0.125 C 4.898438 0.125 4.660156 0.00390625 4.515625 -0.234375 C 4.429688 -0.359375 4.375 -0.535156 4.34375 -0.765625 C 4.144531 -0.503906 3.859375 -0.28125 3.484375 -0.09375 C 3.117188 0.0898438 2.710938 0.1875 2.265625 0.1875 C 1.734375 0.1875 1.296875 0.0234375 0.953125 -0.296875 C 0.609375 -0.617188 0.4375 -1.023438 0.4375 -1.515625 C 0.4375 -2.046875 0.601562 -2.457031 0.9375 -2.75 C 1.28125 -3.050781 1.722656 -3.238281 2.265625 -3.3125 Z M 3 -5.921875 Z M 3 -5.921875 "/>
</g>
<g id="glyph-0-15">
<path d="M 0.84375 -7.921875 L 1.921875 -7.921875 L 1.921875 -0.9375 L 5.921875 -0.9375 L 5.921875 0 L 0.84375 0 Z M 0.84375 -7.921875 "/>
</g>
<g id="glyph-0-16">
<path d="M 1.15625 -5.78125 L 2.265625 -1.21875 L 3.390625 -5.78125 L 4.484375 -5.78125 L 5.625 -1.25 L 6.796875 -5.78125 L 7.765625 -5.78125 L 6.09375 0 L 5.09375 0 L 3.90625 -4.46875 L 2.765625 0 L 1.765625 0 L 0.09375 -5.78125 Z M 1.15625 -5.78125 "/>
</g>
<g id="glyph-0-17">
<path d="M 4.90625 -3.25 L 3.703125 -6.75 L 2.421875 -3.25 Z M 3.140625 -7.921875 L 4.359375 -7.921875 L 7.234375 0 L 6.0625 0 L 5.25 -2.375 L 2.125 -2.375 L 1.265625 0 L 0.15625 0 Z M 3.140625 -7.921875 "/>
</g>
<g id="glyph-0-18">
<path d="M 0.71875 -5.78125 L 1.640625 -5.78125 L 1.640625 -4.953125 C 1.910156 -5.296875 2.195312 -5.539062 2.5 -5.6875 C 2.8125 -5.832031 3.148438 -5.90625 3.515625 -5.90625 C 4.335938 -5.90625 4.894531 -5.617188 5.1875 -5.046875 C 5.34375 -4.734375 5.421875 -4.285156 5.421875 -3.703125 L 5.421875 0 L 4.4375 0 L 4.4375 -3.640625 C 4.4375 -3.992188 4.382812 -4.28125 4.28125 -4.5 C 4.101562 -4.851562 3.789062 -5.03125 3.34375 -5.03125 C 3.113281 -5.03125 2.921875 -5.007812 2.765625 -4.96875 C 2.503906 -4.882812 2.273438 -4.722656 2.078125 -4.484375 C 1.910156 -4.296875 1.800781 -4.097656 1.75 -3.890625 C 1.707031 -3.691406 1.6875 -3.40625 1.6875 -3.03125 L 1.6875 0 L 0.71875 0 Z M 3 -5.921875 Z M 3 -5.921875 "/>
</g>
<g id="glyph-0-19">
<path d="M 1.328125 -2.828125 C 1.328125 -2.203125 1.457031 -1.679688 1.71875 -1.265625 C 1.976562 -0.847656 2.398438 -0.640625 2.984375 -0.640625 C 3.429688 -0.640625 3.800781 -0.832031 4.09375 -1.21875 C 4.382812 -1.601562 4.53125 -2.160156 4.53125 -2.890625 C 4.53125 -3.617188 4.378906 -4.15625 4.078125 -4.5 C 3.773438 -4.851562 3.40625 -5.03125 2.96875 -5.03125 C 2.476562 -5.03125 2.082031 -4.84375 1.78125 -4.46875 C 1.476562 -4.09375 1.328125 -3.546875 1.328125 -2.828125 Z M 2.78125 -5.875 C 3.226562 -5.875 3.601562 -5.78125 3.90625 -5.59375 C 4.070312 -5.488281 4.265625 -5.300781 4.484375 -5.03125 L 4.484375 -7.953125 L 5.421875 -7.953125 L 5.421875 0 L 4.546875 0 L 4.546875 -0.796875 C 4.316406 -0.441406 4.046875 -0.1875 3.734375 -0.03125 C 3.429688 0.121094 3.082031 0.203125 2.6875 0.203125 C 2.039062 0.203125 1.476562 -0.0664062 1 -0.609375 C 0.53125 -1.148438 0.296875 -1.867188 0.296875 -2.765625 C 0.296875 -3.609375 0.507812 -4.335938 0.9375 -4.953125 C 1.375 -5.566406 1.988281 -5.875 2.78125 -5.875 Z M 2.78125 -5.875 "/>
</g>
<g id="glyph-0-20">
<path d="M 4.265625 -8.140625 C 5.660156 -8.140625 6.695312 -7.691406 7.375 -6.796875 C 7.894531 -6.085938 8.15625 -5.1875 8.15625 -4.09375 C 8.15625 -2.914062 7.851562 -1.9375 7.25 -1.15625 C 6.550781 -0.226562 5.546875 0.234375 4.234375 0.234375 C 3.015625 0.234375 2.054688 -0.164062 1.359375 -0.96875 C 0.742188 -1.75 0.4375 -2.734375 0.4375 -3.921875 C 0.4375 -4.992188 0.703125 -5.910156 1.234375 -6.671875 C 1.910156 -7.648438 2.921875 -8.140625 4.265625 -8.140625 Z M 4.375 -0.734375 C 5.3125 -0.734375 5.992188 -1.070312 6.421875 -1.75 C 6.847656 -2.425781 7.0625 -3.203125 7.0625 -4.078125 C 7.0625 -5.015625 6.816406 -5.765625 6.328125 -6.328125 C 5.835938 -6.898438 5.171875 -7.1875 4.328125 -7.1875 C 3.503906 -7.1875 2.832031 -6.90625 2.3125 -6.34375 C 1.800781 -5.78125 1.546875 -4.945312 1.546875 -3.84375 C 1.546875 -2.96875 1.765625 -2.226562 2.203125 -1.625 C 2.648438 -1.03125 3.375 -0.734375 4.375 -0.734375 Z M 4.296875 -8.140625 Z M 4.296875 -8.140625 "/>
</g>
<g id="glyph-0-21">
<path d="M 3 -0.625 C 3.644531 -0.625 4.085938 -0.867188 4.328125 -1.359375 C 4.566406 -1.847656 4.6875 -2.390625 4.6875 -2.984375 C 4.6875 -3.523438 4.597656 -3.960938 4.421875 -4.296875 C 4.148438 -4.828125 3.679688 -5.09375 3.015625 -5.09375 C 2.421875 -5.09375 1.988281 -4.863281 1.71875 -4.40625 C 1.445312 -3.957031 1.3125 -3.414062 1.3125 -2.78125 C 1.3125 -2.164062 1.445312 -1.648438 1.71875 -1.234375 C 1.988281 -0.828125 2.414062 -0.625 3 -0.625 Z M 3.046875 -5.9375 C 3.785156 -5.9375 4.410156 -5.6875 4.921875 -5.1875 C 5.441406 -4.695312 5.703125 -3.972656 5.703125 -3.015625 C 5.703125 -2.078125 5.472656 -1.304688 5.015625 -0.703125 C 4.566406 -0.0976562 3.863281 0.203125 2.90625 0.203125 C 2.113281 0.203125 1.484375 -0.0625 1.015625 -0.59375 C 0.546875 -1.132812 0.3125 -1.859375 0.3125 -2.765625 C 0.3125 -3.734375 0.554688 -4.503906 1.046875 -5.078125 C 1.546875 -5.648438 2.210938 -5.9375 3.046875 -5.9375 Z M 3.015625 -5.921875 Z M 3.015625 -5.921875 "/>
</g>
<g id="glyph-0-22">
<path d="M 2.9375 -5.9375 C 3.59375 -5.9375 4.125 -5.78125 4.53125 -5.46875 C 4.9375 -5.15625 5.179688 -4.609375 5.265625 -3.828125 L 4.328125 -3.828125 C 4.265625 -4.191406 4.128906 -4.488281 3.921875 -4.71875 C 3.722656 -4.957031 3.394531 -5.078125 2.9375 -5.078125 C 2.320312 -5.078125 1.878906 -4.773438 1.609375 -4.171875 C 1.441406 -3.773438 1.359375 -3.289062 1.359375 -2.71875 C 1.359375 -2.132812 1.476562 -1.644531 1.71875 -1.25 C 1.96875 -0.851562 2.351562 -0.65625 2.875 -0.65625 C 3.28125 -0.65625 3.597656 -0.78125 3.828125 -1.03125 C 4.066406 -1.28125 4.234375 -1.617188 4.328125 -2.046875 L 5.265625 -2.046875 C 5.160156 -1.273438 4.890625 -0.710938 4.453125 -0.359375 C 4.023438 -0.00390625 3.472656 0.171875 2.796875 0.171875 C 2.046875 0.171875 1.441406 -0.101562 0.984375 -0.65625 C 0.535156 -1.207031 0.3125 -1.898438 0.3125 -2.734375 C 0.3125 -3.742188 0.554688 -4.53125 1.046875 -5.09375 C 1.546875 -5.65625 2.175781 -5.9375 2.9375 -5.9375 Z M 2.78125 -5.921875 Z M 2.78125 -5.921875 "/>
</g>
<g id="glyph-0-23">
<path d="M 1.546875 -2.5625 C 1.566406 -2.101562 1.671875 -1.738281 1.859375 -1.46875 C 2.210938 -0.9375 2.84375 -0.671875 3.75 -0.671875 C 4.144531 -0.671875 4.507812 -0.726562 4.84375 -0.84375 C 5.476562 -1.070312 5.796875 -1.472656 5.796875 -2.046875 C 5.796875 -2.472656 5.664062 -2.78125 5.40625 -2.96875 C 5.125 -3.144531 4.691406 -3.300781 4.109375 -3.4375 L 3.046875 -3.671875 C 2.335938 -3.835938 1.835938 -4.015625 1.546875 -4.203125 C 1.046875 -4.535156 0.796875 -5.03125 0.796875 -5.6875 C 0.796875 -6.394531 1.039062 -6.976562 1.53125 -7.4375 C 2.03125 -7.894531 2.726562 -8.125 3.625 -8.125 C 4.457031 -8.125 5.164062 -7.921875 5.75 -7.515625 C 6.332031 -7.117188 6.625 -6.476562 6.625 -5.59375 L 5.609375 -5.59375 C 5.554688 -6.019531 5.441406 -6.347656 5.265625 -6.578125 C 4.941406 -6.992188 4.382812 -7.203125 3.59375 -7.203125 C 2.96875 -7.203125 2.515625 -7.066406 2.234375 -6.796875 C 1.953125 -6.523438 1.8125 -6.21875 1.8125 -5.875 C 1.8125 -5.476562 1.972656 -5.191406 2.296875 -5.015625 C 2.515625 -4.898438 3 -4.753906 3.75 -4.578125 L 4.859375 -4.328125 C 5.390625 -4.203125 5.800781 -4.035156 6.09375 -3.828125 C 6.59375 -3.460938 6.84375 -2.925781 6.84375 -2.21875 C 6.84375 -1.34375 6.523438 -0.710938 5.890625 -0.328125 C 5.253906 0.0429688 4.515625 0.234375 3.671875 0.234375 C 2.679688 0.234375 1.910156 -0.015625 1.359375 -0.515625 C 0.796875 -1.015625 0.519531 -1.695312 0.53125 -2.5625 Z M 3.71875 -8.140625 Z M 3.71875 -8.140625 "/>
</g>
<g id="glyph-0-24">
<path d="M 1.6875 -5.78125 L 1.6875 -1.9375 C 1.6875 -1.644531 1.734375 -1.40625 1.828125 -1.21875 C 1.992188 -0.875 2.3125 -0.703125 2.78125 -0.703125 C 3.457031 -0.703125 3.921875 -1.003906 4.171875 -1.609375 C 4.304688 -1.929688 4.375 -2.375 4.375 -2.9375 L 4.375 -5.78125 L 5.34375 -5.78125 L 5.34375 0 L 4.421875 0 L 4.4375 -0.859375 C 4.3125 -0.628906 4.15625 -0.441406 3.96875 -0.296875 C 3.59375 0.00390625 3.140625 0.15625 2.609375 0.15625 C 1.785156 0.15625 1.226562 -0.117188 0.9375 -0.671875 C 0.769531 -0.960938 0.6875 -1.351562 0.6875 -1.84375 L 0.6875 -5.78125 Z M 3.015625 -5.921875 Z M 3.015625 -5.921875 "/>
</g>
<g id="glyph-0-25">
<path d="M 0.953125 -6.65625 C 0.960938 -7.0625 1.035156 -7.359375 1.171875 -7.546875 C 1.390625 -7.867188 1.820312 -8.03125 2.46875 -8.03125 C 2.53125 -8.03125 2.59375 -8.03125 2.65625 -8.03125 C 2.726562 -8.03125 2.804688 -8.023438 2.890625 -8.015625 L 2.890625 -7.125 C 2.785156 -7.132812 2.707031 -7.140625 2.65625 -7.140625 C 2.613281 -7.140625 2.578125 -7.140625 2.546875 -7.140625 C 2.242188 -7.140625 2.0625 -7.0625 2 -6.90625 C 1.945312 -6.757812 1.921875 -6.375 1.921875 -5.75 L 2.890625 -5.75 L 2.890625 -4.984375 L 1.921875 -4.984375 L 1.921875 0 L 0.953125 0 L 0.953125 -4.984375 L 0.15625 -4.984375 L 0.15625 -5.75 L 0.953125 -5.75 Z M 0.953125 -6.65625 "/>
</g>
<g id="glyph-0-26">
<path d="M 0.9375 -7.921875 L 4.515625 -7.921875 C 5.210938 -7.921875 5.773438 -7.722656 6.203125 -7.328125 C 6.640625 -6.929688 6.859375 -6.375 6.859375 -5.65625 C 6.859375 -5.03125 6.664062 -4.488281 6.28125 -4.03125 C 5.894531 -3.570312 5.304688 -3.34375 4.515625 -3.34375 L 2.015625 -3.34375 L 2.015625 0 L 0.9375 0 Z M 5.78125 -5.640625 C 5.78125 -6.222656 5.5625 -6.617188 5.125 -6.828125 C 4.894531 -6.941406 4.570312 -7 4.15625 -7 L 2.015625 -7 L 2.015625 -4.25 L 4.15625 -4.25 C 4.632812 -4.25 5.023438 -4.351562 5.328125 -4.5625 C 5.628906 -4.769531 5.78125 -5.128906 5.78125 -5.640625 Z M 5.78125 -5.640625 "/>
</g>
<g id="glyph-0-27">
<path d="M 4.328125 -5.78125 L 5.390625 -5.78125 C 5.253906 -5.40625 4.953125 -4.554688 4.484375 -3.234375 C 4.128906 -2.242188 3.832031 -1.4375 3.59375 -0.8125 C 3.03125 0.652344 2.632812 1.550781 2.40625 1.875 C 2.175781 2.207031 1.78125 2.375 1.21875 2.375 C 1.082031 2.375 0.976562 2.363281 0.90625 2.34375 C 0.832031 2.332031 0.742188 2.316406 0.640625 2.296875 L 0.640625 1.40625 C 0.804688 1.457031 0.925781 1.488281 1 1.5 C 1.070312 1.507812 1.140625 1.515625 1.203125 1.515625 C 1.378906 1.515625 1.507812 1.484375 1.59375 1.421875 C 1.675781 1.359375 1.75 1.285156 1.8125 1.203125 C 1.832031 1.171875 1.894531 1.019531 2 0.75 C 2.113281 0.488281 2.195312 0.296875 2.25 0.171875 L 0.109375 -5.78125 L 1.21875 -5.78125 L 2.765625 -1.078125 Z M 2.75 -5.921875 Z M 2.75 -5.921875 "/>
</g>
<g id="glyph-0-28">
<path d="M 0.640625 -7.953125 L 1.578125 -7.953125 L 1.578125 -5.078125 C 1.796875 -5.347656 2.050781 -5.554688 2.34375 -5.703125 C 2.632812 -5.847656 2.953125 -5.921875 3.296875 -5.921875 C 4.015625 -5.921875 4.597656 -5.671875 5.046875 -5.171875 C 5.492188 -4.679688 5.71875 -3.957031 5.71875 -3 C 5.71875 -2.082031 5.492188 -1.320312 5.046875 -0.71875 C 4.609375 -0.113281 4 0.1875 3.21875 0.1875 C 2.78125 0.1875 2.410156 0.0742188 2.109375 -0.140625 C 1.929688 -0.265625 1.738281 -0.460938 1.53125 -0.734375 L 1.53125 0 L 0.640625 0 Z M 3.15625 -0.671875 C 3.6875 -0.671875 4.082031 -0.878906 4.34375 -1.296875 C 4.601562 -1.710938 4.734375 -2.265625 4.734375 -2.953125 C 4.734375 -3.554688 4.601562 -4.054688 4.34375 -4.453125 C 4.082031 -4.859375 3.695312 -5.0625 3.1875 -5.0625 C 2.75 -5.0625 2.363281 -4.894531 2.03125 -4.5625 C 1.695312 -4.238281 1.53125 -3.703125 1.53125 -2.953125 C 1.53125 -2.410156 1.597656 -1.96875 1.734375 -1.625 C 1.984375 -0.988281 2.457031 -0.671875 3.15625 -0.671875 Z M 3.15625 -0.671875 "/>
</g>
<g id="glyph-1-0">
<path d="M 0.46875 0 L 0.46875 -10.328125 L 8.671875 -10.328125 L 8.671875 0 Z M 7.375 -1.296875 L 7.375 -9.046875 L 1.765625 -9.046875 L 1.765625 -1.296875 Z M 7.375 -1.296875 "/>
</g>
<g id="glyph-1-1">
<path d="M 1.78125 -10.328125 L 3.734375 -1.921875 L 6.0625 -10.328125 L 7.578125 -10.328125 L 9.921875 -1.921875 L 11.859375 -10.328125 L 13.40625 -10.328125 L 10.6875 0 L 9.21875 0 L 6.828125 -8.5625 L 4.4375 0 L 2.96875 0 L 0.265625 -10.328125 Z M 1.78125 -10.328125 "/>
</g>
<g id="glyph-1-2">
<path d="M 0.921875 -10.375 L 2.1875 -10.375 L 2.1875 -6.515625 C 2.488281 -6.890625 2.757812 -7.15625 3 -7.3125 C 3.40625 -7.582031 3.914062 -7.71875 4.53125 -7.71875 C 5.625 -7.71875 6.363281 -7.332031 6.75 -6.5625 C 6.957031 -6.144531 7.0625 -5.566406 7.0625 -4.828125 L 7.0625 0 L 5.765625 0 L 5.765625 -4.75 C 5.765625 -5.300781 5.695312 -5.707031 5.5625 -5.96875 C 5.332031 -6.375 4.898438 -6.578125 4.265625 -6.578125 C 3.734375 -6.578125 3.253906 -6.394531 2.828125 -6.03125 C 2.398438 -5.675781 2.1875 -5 2.1875 -4 L 2.1875 0 L 0.921875 0 Z M 0.921875 -10.375 "/>
</g>
<g id="glyph-1-3">
<path d="M 1.90625 -2 C 1.90625 -1.632812 2.035156 -1.347656 2.296875 -1.140625 C 2.566406 -0.929688 2.882812 -0.828125 3.25 -0.828125 C 3.695312 -0.828125 4.128906 -0.925781 4.546875 -1.125 C 5.242188 -1.46875 5.59375 -2.03125 5.59375 -2.8125 L 5.59375 -3.828125 C 5.4375 -3.734375 5.238281 -3.648438 5 -3.578125 C 4.757812 -3.515625 4.519531 -3.472656 4.28125 -3.453125 L 3.515625 -3.34375 C 3.054688 -3.28125 2.710938 -3.1875 2.484375 -3.0625 C 2.097656 -2.84375 1.90625 -2.488281 1.90625 -2 Z M 4.96875 -4.5625 C 5.257812 -4.601562 5.453125 -4.726562 5.546875 -4.9375 C 5.609375 -5.039062 5.640625 -5.203125 5.640625 -5.421875 C 5.640625 -5.847656 5.484375 -6.15625 5.171875 -6.34375 C 4.867188 -6.539062 4.429688 -6.640625 3.859375 -6.640625 C 3.191406 -6.640625 2.722656 -6.460938 2.453125 -6.109375 C 2.296875 -5.910156 2.191406 -5.617188 2.140625 -5.234375 L 0.96875 -5.234375 C 0.988281 -6.160156 1.285156 -6.804688 1.859375 -7.171875 C 2.441406 -7.535156 3.117188 -7.71875 3.890625 -7.71875 C 4.773438 -7.71875 5.492188 -7.546875 6.046875 -7.203125 C 6.585938 -6.867188 6.859375 -6.347656 6.859375 -5.640625 L 6.859375 -1.296875 C 6.859375 -1.160156 6.882812 -1.050781 6.9375 -0.96875 C 7 -0.894531 7.113281 -0.859375 7.28125 -0.859375 C 7.34375 -0.859375 7.40625 -0.859375 7.46875 -0.859375 C 7.539062 -0.867188 7.617188 -0.882812 7.703125 -0.90625 L 7.703125 0.03125 C 7.503906 0.09375 7.351562 0.128906 7.25 0.140625 C 7.144531 0.148438 7.003906 0.15625 6.828125 0.15625 C 6.390625 0.15625 6.070312 0.00390625 5.875 -0.296875 C 5.769531 -0.460938 5.695312 -0.695312 5.65625 -1 C 5.40625 -0.664062 5.035156 -0.375 4.546875 -0.125 C 4.066406 0.121094 3.535156 0.25 2.953125 0.25 C 2.253906 0.25 1.679688 0.0390625 1.234375 -0.375 C 0.796875 -0.800781 0.578125 -1.335938 0.578125 -1.984375 C 0.578125 -2.679688 0.796875 -3.21875 1.234375 -3.59375 C 1.671875 -3.976562 2.242188 -4.21875 2.953125 -4.3125 Z M 3.921875 -7.71875 Z M 3.921875 -7.71875 "/>
</g>
<g id="glyph-1-4">
<path d="M 1.1875 -9.640625 L 2.46875 -9.640625 L 2.46875 -7.53125 L 3.671875 -7.53125 L 3.671875 -6.5 L 2.46875 -6.5 L 2.46875 -1.578125 C 2.46875 -1.316406 2.554688 -1.144531 2.734375 -1.0625 C 2.828125 -1.007812 2.988281 -0.984375 3.21875 -0.984375 C 3.28125 -0.984375 3.347656 -0.984375 3.421875 -0.984375 C 3.492188 -0.984375 3.578125 -0.988281 3.671875 -1 L 3.671875 0 C 3.523438 0.0390625 3.367188 0.0703125 3.203125 0.09375 C 3.046875 0.113281 2.878906 0.125 2.703125 0.125 C 2.109375 0.125 1.707031 -0.0234375 1.5 -0.328125 C 1.289062 -0.628906 1.1875 -1.023438 1.1875 -1.515625 L 1.1875 -6.5 L 0.15625 -6.5 L 0.15625 -7.53125 L 1.1875 -7.53125 Z M 1.1875 -9.640625 "/>
</g>
<g id="glyph-1-5">
</g>
<g id="glyph-1-6">
<path d="M 3.828125 -7.75 C 4.679688 -7.75 5.375 -7.539062 5.90625 -7.125 C 6.4375 -6.71875 6.753906 -6.007812 6.859375 -5 L 5.640625 -5 C 5.554688 -5.46875 5.378906 -5.851562 5.109375 -6.15625 C 4.847656 -6.46875 4.421875 -6.625 3.828125 -6.625 C 3.023438 -6.625 2.453125 -6.226562 2.109375 -5.4375 C 1.878906 -4.925781 1.765625 -4.296875 1.765625 -3.546875 C 1.765625 -2.785156 1.921875 -2.144531 2.234375 -1.625 C 2.554688 -1.113281 3.0625 -0.859375 3.75 -0.859375 C 4.269531 -0.859375 4.679688 -1.019531 4.984375 -1.34375 C 5.296875 -1.664062 5.515625 -2.109375 5.640625 -2.671875 L 6.859375 -2.671875 C 6.722656 -1.671875 6.375 -0.9375 5.8125 -0.46875 C 5.25 -0.0078125 4.53125 0.21875 3.65625 0.21875 C 2.664062 0.21875 1.878906 -0.140625 1.296875 -0.859375 C 0.710938 -1.578125 0.421875 -2.476562 0.421875 -3.5625 C 0.421875 -4.882812 0.738281 -5.910156 1.375 -6.640625 C 2.019531 -7.378906 2.835938 -7.75 3.828125 -7.75 Z M 3.640625 -7.71875 Z M 3.640625 -7.71875 "/>
</g>
<g id="glyph-1-7">
<path d="M 2.1875 -7.53125 L 2.1875 -2.53125 C 2.1875 -2.144531 2.25 -1.832031 2.375 -1.59375 C 2.601562 -1.144531 3.023438 -0.921875 3.640625 -0.921875 C 4.515625 -0.921875 5.113281 -1.3125 5.4375 -2.09375 C 5.613281 -2.519531 5.703125 -3.097656 5.703125 -3.828125 L 5.703125 -7.53125 L 6.96875 -7.53125 L 6.96875 0 L 5.765625 0 L 5.78125 -1.109375 C 5.613281 -0.828125 5.410156 -0.585938 5.171875 -0.390625 C 4.691406 0.00390625 4.101562 0.203125 3.40625 0.203125 C 2.332031 0.203125 1.601562 -0.15625 1.21875 -0.875 C 1.007812 -1.257812 0.90625 -1.769531 0.90625 -2.40625 L 0.90625 -7.53125 Z M 3.9375 -7.71875 Z M 3.9375 -7.71875 "/>
</g>
<g id="glyph-1-8">
<path d="M 1.6875 -2.359375 C 1.71875 -1.941406 1.820312 -1.617188 2 -1.390625 C 2.3125 -0.984375 2.863281 -0.78125 3.65625 -0.78125 C 4.125 -0.78125 4.535156 -0.878906 4.890625 -1.078125 C 5.253906 -1.285156 5.4375 -1.601562 5.4375 -2.03125 C 5.4375 -2.351562 5.289062 -2.597656 5 -2.765625 C 4.820312 -2.867188 4.460938 -2.988281 3.921875 -3.125 L 2.90625 -3.390625 C 2.269531 -3.546875 1.796875 -3.722656 1.484375 -3.921875 C 0.941406 -4.265625 0.671875 -4.738281 0.671875 -5.34375 C 0.671875 -6.050781 0.925781 -6.625 1.4375 -7.0625 C 1.957031 -7.507812 2.648438 -7.734375 3.515625 -7.734375 C 4.648438 -7.734375 5.46875 -7.398438 5.96875 -6.734375 C 6.28125 -6.304688 6.429688 -5.847656 6.421875 -5.359375 L 5.234375 -5.359375 C 5.210938 -5.648438 5.113281 -5.910156 4.9375 -6.140625 C 4.644531 -6.472656 4.140625 -6.640625 3.421875 -6.640625 C 2.941406 -6.640625 2.578125 -6.546875 2.328125 -6.359375 C 2.085938 -6.179688 1.96875 -5.945312 1.96875 -5.65625 C 1.96875 -5.320312 2.128906 -5.054688 2.453125 -4.859375 C 2.640625 -4.742188 2.914062 -4.640625 3.28125 -4.546875 L 4.109375 -4.34375 C 5.023438 -4.125 5.632812 -3.910156 5.9375 -3.703125 C 6.4375 -3.378906 6.6875 -2.875 6.6875 -2.1875 C 6.6875 -1.507812 6.429688 -0.925781 5.921875 -0.4375 C 5.410156 0.0390625 4.632812 0.28125 3.59375 0.28125 C 2.46875 0.28125 1.671875 0.0273438 1.203125 -0.46875 C 0.742188 -0.976562 0.5 -1.609375 0.46875 -2.359375 Z M 3.546875 -7.71875 Z M 3.546875 -7.71875 "/>
</g>
<g id="glyph-1-9">
<path d="M 4.0625 -7.703125 C 4.601562 -7.703125 5.125 -7.578125 5.625 -7.328125 C 6.125 -7.078125 6.503906 -6.753906 6.765625 -6.359375 C 7.015625 -5.972656 7.1875 -5.523438 7.28125 -5.015625 C 7.351562 -4.671875 7.390625 -4.117188 7.390625 -3.359375 L 1.859375 -3.359375 C 1.890625 -2.597656 2.070312 -1.984375 2.40625 -1.515625 C 2.738281 -1.054688 3.257812 -0.828125 3.96875 -0.828125 C 4.632812 -0.828125 5.164062 -1.046875 5.5625 -1.484375 C 5.78125 -1.734375 5.9375 -2.023438 6.03125 -2.359375 L 7.28125 -2.359375 C 7.25 -2.085938 7.140625 -1.78125 6.953125 -1.4375 C 6.765625 -1.09375 6.554688 -0.816406 6.328125 -0.609375 C 5.941406 -0.234375 5.46875 0.0195312 4.90625 0.15625 C 4.601562 0.226562 4.257812 0.265625 3.875 0.265625 C 2.9375 0.265625 2.140625 -0.0703125 1.484375 -0.75 C 0.828125 -1.4375 0.5 -2.394531 0.5 -3.625 C 0.5 -4.832031 0.828125 -5.8125 1.484375 -6.5625 C 2.140625 -7.320312 3 -7.703125 4.0625 -7.703125 Z M 6.078125 -4.375 C 6.023438 -4.914062 5.90625 -5.351562 5.71875 -5.6875 C 5.375 -6.289062 4.796875 -6.59375 3.984375 -6.59375 C 3.398438 -6.59375 2.910156 -6.382812 2.515625 -5.96875 C 2.128906 -5.550781 1.925781 -5.019531 1.90625 -4.375 Z M 3.953125 -7.71875 Z M 3.953125 -7.71875 "/>
</g>
<g id="glyph-1-10">
<path d="M 5.453125 -10.609375 C 6.765625 -10.609375 7.78125 -10.265625 8.5 -9.578125 C 9.21875 -8.890625 9.617188 -8.109375 9.703125 -7.234375 L 8.328125 -7.234375 C 8.179688 -7.898438 7.875 -8.425781 7.40625 -8.8125 C 6.945312 -9.195312 6.300781 -9.390625 5.46875 -9.390625 C 4.445312 -9.390625 3.625 -9.03125 3 -8.3125 C 2.375 -7.601562 2.0625 -6.507812 2.0625 -5.03125 C 2.0625 -3.820312 2.34375 -2.84375 2.90625 -2.09375 C 3.46875 -1.34375 4.3125 -0.96875 5.4375 -0.96875 C 6.46875 -0.96875 7.253906 -1.363281 7.796875 -2.15625 C 8.078125 -2.570312 8.289062 -3.117188 8.4375 -3.796875 L 9.796875 -3.796875 C 9.671875 -2.710938 9.269531 -1.800781 8.59375 -1.0625 C 7.769531 -0.175781 6.660156 0.265625 5.265625 0.265625 C 4.066406 0.265625 3.0625 -0.0976562 2.25 -0.828125 C 1.175781 -1.785156 0.640625 -3.269531 0.640625 -5.28125 C 0.640625 -6.800781 1.039062 -8.050781 1.84375 -9.03125 C 2.71875 -10.082031 3.921875 -10.609375 5.453125 -10.609375 Z M 5.171875 -10.609375 Z M 5.171875 -10.609375 "/>
</g>
<g id="glyph-1-11">
<path d="M 0.96875 -7.53125 L 2.171875 -7.53125 L 2.171875 -6.234375 C 2.265625 -6.484375 2.503906 -6.789062 2.890625 -7.15625 C 3.273438 -7.519531 3.71875 -7.703125 4.21875 -7.703125 C 4.238281 -7.703125 4.273438 -7.695312 4.328125 -7.6875 C 4.390625 -7.6875 4.488281 -7.679688 4.625 -7.671875 L 4.625 -6.328125 C 4.550781 -6.347656 4.484375 -6.359375 4.421875 -6.359375 C 4.359375 -6.359375 4.289062 -6.359375 4.21875 -6.359375 C 3.570312 -6.359375 3.078125 -6.15625 2.734375 -5.75 C 2.398438 -5.34375 2.234375 -4.867188 2.234375 -4.328125 L 2.234375 0 L 0.96875 0 Z M 0.96875 -7.53125 "/>
</g>
<g id="glyph-1-12">
<path d="M 0.921875 -7.5 L 2.21875 -7.5 L 2.21875 0 L 0.921875 0 Z M 0.921875 -10.328125 L 2.21875 -10.328125 L 2.21875 -8.890625 L 0.921875 -8.890625 Z M 0.921875 -10.328125 "/>
</g>
<g id="glyph-1-13">
<path d="M 0.921875 -7.53125 L 2.1875 -7.53125 L 2.1875 -6.46875 C 2.476562 -6.832031 2.75 -7.101562 3 -7.28125 C 3.414062 -7.5625 3.890625 -7.703125 4.421875 -7.703125 C 5.015625 -7.703125 5.492188 -7.554688 5.859375 -7.265625 C 6.066406 -7.085938 6.253906 -6.835938 6.421875 -6.515625 C 6.703125 -6.921875 7.03125 -7.21875 7.40625 -7.40625 C 7.789062 -7.601562 8.222656 -7.703125 8.703125 -7.703125 C 9.710938 -7.703125 10.398438 -7.335938 10.765625 -6.609375 C 10.960938 -6.210938 11.0625 -5.679688 11.0625 -5.015625 L 11.0625 0 L 9.75 0 L 9.75 -5.234375 C 9.75 -5.734375 9.625 -6.078125 9.375 -6.265625 C 9.125 -6.453125 8.816406 -6.546875 8.453125 -6.546875 C 7.953125 -6.546875 7.523438 -6.378906 7.171875 -6.046875 C 6.816406 -5.710938 6.640625 -5.15625 6.640625 -4.375 L 6.640625 0 L 5.34375 0 L 5.34375 -4.921875 C 5.34375 -5.429688 5.28125 -5.800781 5.15625 -6.03125 C 4.96875 -6.382812 4.613281 -6.5625 4.09375 -6.5625 C 3.613281 -6.5625 3.175781 -6.375 2.78125 -6 C 2.382812 -5.632812 2.1875 -4.96875 2.1875 -4 L 2.1875 0 L 0.921875 0 Z M 0.921875 -7.53125 "/>
</g>
<g id="glyph-1-14">
<path d="M 5.90625 -5.59375 C 6.5625 -5.59375 7.078125 -5.722656 7.453125 -5.984375 C 7.835938 -6.253906 8.03125 -6.734375 8.03125 -7.421875 C 8.03125 -8.148438 7.765625 -8.648438 7.234375 -8.921875 C 6.941406 -9.054688 6.554688 -9.125 6.078125 -9.125 L 2.671875 -9.125 L 2.671875 -5.59375 Z M 1.265625 -10.328125 L 6.046875 -10.328125 C 6.835938 -10.328125 7.488281 -10.210938 8 -9.984375 C 8.96875 -9.546875 9.453125 -8.734375 9.453125 -7.546875 C 9.453125 -6.929688 9.320312 -6.425781 9.0625 -6.03125 C 8.8125 -5.632812 8.457031 -5.316406 8 -5.078125 C 8.40625 -4.910156 8.707031 -4.691406 8.90625 -4.421875 C 9.113281 -4.160156 9.226562 -3.726562 9.25 -3.125 L 9.296875 -1.75 C 9.316406 -1.351562 9.347656 -1.054688 9.390625 -0.859375 C 9.484375 -0.535156 9.632812 -0.328125 9.84375 -0.234375 L 9.84375 0 L 8.125 0 C 8.082031 -0.09375 8.046875 -0.207031 8.015625 -0.34375 C 7.992188 -0.488281 7.972656 -0.757812 7.953125 -1.15625 L 7.859375 -2.890625 C 7.828125 -3.554688 7.578125 -4.003906 7.109375 -4.234375 C 6.835938 -4.367188 6.421875 -4.4375 5.859375 -4.4375 L 2.671875 -4.4375 L 2.671875 0 L 1.265625 0 Z M 1.265625 -10.328125 "/>
</g>
<g id="glyph-1-15">
<path d="M 0.921875 -7.53125 L 2.125 -7.53125 L 2.125 -6.46875 C 2.488281 -6.90625 2.867188 -7.21875 3.265625 -7.40625 C 3.660156 -7.601562 4.101562 -7.703125 4.59375 -7.703125 C 5.664062 -7.703125 6.390625 -7.328125 6.765625 -6.578125 C 6.960938 -6.171875 7.0625 -5.585938 7.0625 -4.828125 L 7.0625 0 L 5.78125 0 L 5.78125 -4.75 C 5.78125 -5.207031 5.710938 -5.578125 5.578125 -5.859375 C 5.347656 -6.328125 4.941406 -6.5625 4.359375 -6.5625 C 4.054688 -6.5625 3.804688 -6.53125 3.609375 -6.46875 C 3.265625 -6.363281 2.960938 -6.160156 2.703125 -5.859375 C 2.492188 -5.609375 2.351562 -5.347656 2.28125 -5.078125 C 2.21875 -4.816406 2.1875 -4.441406 2.1875 -3.953125 L 2.1875 0 L 0.921875 0 Z M 3.90625 -7.71875 Z M 3.90625 -7.71875 "/>
</g>
<g id="glyph-1-16">
<path d="M 3.921875 -0.8125 C 4.753906 -0.8125 5.328125 -1.128906 5.640625 -1.765625 C 5.953125 -2.398438 6.109375 -3.109375 6.109375 -3.890625 C 6.109375 -4.585938 6 -5.160156 5.78125 -5.609375 C 5.414062 -6.296875 4.800781 -6.640625 3.9375 -6.640625 C 3.15625 -6.640625 2.585938 -6.34375 2.234375 -5.75 C 1.890625 -5.164062 1.71875 -4.457031 1.71875 -3.625 C 1.71875 -2.820312 1.890625 -2.148438 2.234375 -1.609375 C 2.585938 -1.078125 3.148438 -0.8125 3.921875 -0.8125 Z M 3.96875 -7.75 C 4.9375 -7.75 5.753906 -7.425781 6.421875 -6.78125 C 7.097656 -6.132812 7.4375 -5.179688 7.4375 -3.921875 C 7.4375 -2.710938 7.140625 -1.707031 6.546875 -0.90625 C 5.953125 -0.113281 5.035156 0.28125 3.796875 0.28125 C 2.765625 0.28125 1.941406 -0.0664062 1.328125 -0.765625 C 0.722656 -1.472656 0.421875 -2.421875 0.421875 -3.609375 C 0.421875 -4.867188 0.738281 -5.875 1.375 -6.625 C 2.019531 -7.375 2.882812 -7.75 3.96875 -7.75 Z M 3.921875 -7.71875 Z M 3.921875 -7.71875 "/>
</g>
<g id="glyph-1-17">
<path d="M 5.640625 -7.53125 L 7.03125 -7.53125 C 6.851562 -7.050781 6.457031 -5.953125 5.84375 -4.234375 C 5.382812 -2.929688 5 -1.875 4.6875 -1.0625 C 3.957031 0.863281 3.441406 2.035156 3.140625 2.453125 C 2.835938 2.878906 2.320312 3.09375 1.59375 3.09375 C 1.414062 3.09375 1.28125 3.082031 1.1875 3.0625 C 1.09375 3.050781 0.972656 3.023438 0.828125 2.984375 L 0.828125 1.84375 C 1.046875 1.894531 1.203125 1.925781 1.296875 1.9375 C 1.398438 1.957031 1.488281 1.96875 1.5625 1.96875 C 1.800781 1.96875 1.972656 1.925781 2.078125 1.84375 C 2.191406 1.769531 2.285156 1.675781 2.359375 1.5625 C 2.390625 1.53125 2.472656 1.335938 2.609375 0.984375 C 2.753906 0.640625 2.863281 0.382812 2.9375 0.21875 L 0.140625 -7.53125 L 1.578125 -7.53125 L 3.609375 -1.40625 Z M 3.59375 -7.71875 Z M 3.59375 -7.71875 "/>
</g>
<g id="glyph-1-18">
<path d="M 3.46875 -1.46875 L 4.875 -1.46875 L 4.875 0 L 3.46875 0 Z M 1.09375 -7.09375 C 1.09375 -8.101562 1.378906 -8.914062 1.953125 -9.53125 C 2.523438 -10.15625 3.3125 -10.46875 4.3125 -10.46875 C 5.238281 -10.46875 5.976562 -10.203125 6.53125 -9.671875 C 7.082031 -9.148438 7.359375 -8.476562 7.359375 -7.65625 C 7.359375 -7.15625 7.253906 -6.75 7.046875 -6.4375 C 6.847656 -6.132812 6.441406 -5.679688 5.828125 -5.078125 C 5.378906 -4.640625 5.085938 -4.269531 4.953125 -3.96875 C 4.816406 -3.664062 4.75 -3.21875 4.75 -2.625 L 3.5 -2.625 C 3.5 -3.300781 3.578125 -3.84375 3.734375 -4.25 C 3.890625 -4.664062 4.238281 -5.132812 4.78125 -5.65625 L 5.34375 -6.21875 C 5.507812 -6.375 5.644531 -6.539062 5.75 -6.71875 C 5.9375 -7.019531 6.03125 -7.335938 6.03125 -7.671875 C 6.03125 -8.128906 5.894531 -8.523438 5.625 -8.859375 C 5.351562 -9.203125 4.898438 -9.375 4.265625 -9.375 C 3.484375 -9.375 2.941406 -9.082031 2.640625 -8.5 C 2.472656 -8.175781 2.375 -7.707031 2.34375 -7.09375 Z M 1.09375 -7.09375 "/>
</g>
</g>
</defs>
<rect x="-50.4" y="-39.6" width="604.8" height="475.2" fill="rgb(100%, 100%, 100%)" fill-opacity="1"/>
<path fill="none" stroke-width="1.280374" stroke-linecap="butt" stroke-linejoin="round" stroke="rgb(0%, 0%, 0%)" stroke-opacity="1" stroke-miterlimit="1" d="M 273.851562 266.996094 L 274.078125 267.109375 L 276.136719 268.117188 L 280.253906 270.140625 L 282.3125 271.148438 L 284.371094 272.160156 L 286.425781 273.171875 L 288.484375 274.179688 L 292.601562 276.203125 L 294.660156 277.210938 L 296.71875 278.222656 L 298.777344 279.230469 L 302.894531 281.253906 L 304.953125 282.261719 L 309.070312 284.285156 L 311.128906 285.292969 L 313.1875 286.304688 L 315.242188 287.316406 L 317.300781 288.324219 L 321.417969 290.347656 L 323.476562 291.355469 L 325.535156 292.367188 L 327.59375 293.375 L 331.710938 295.398438 L 333.769531 296.40625 L 337.886719 298.429688 L 339.945312 299.4375 L 342.003906 300.449219 L 344.058594 301.460938 L 346.117188 302.46875 L 350.234375 304.492188 L 352.292969 305.5 L 354.351562 306.511719 L 356.410156 307.519531 L 360.527344 309.542969 L 362.585938 310.550781 L 366.703125 312.574219 L 368.761719 313.582031 L 370.820312 314.59375 L 372.875 315.605469 L 374.933594 316.613281 L 379.050781 318.636719 L 381.109375 319.644531 L 383.167969 320.65625 L 385.226562 321.664062 L 389.34375 323.6875 L 391.402344 324.695312 L 395.519531 326.71875 L 397.578125 327.726562 L 399.636719 328.738281 L 401.691406 329.75 L 403.75 330.757812 L 407.867188 332.78125 L 409.925781 333.789062 L 411.984375 334.800781 L 414.042969 335.808594 L 418.160156 337.832031 L 420.21875 338.839844 L 424.335938 340.863281 L 426.394531 341.871094 L 428.453125 342.882812 L 430.507812 343.894531 L 432.566406 344.902344 L 436.683594 346.925781 L 436.910156 347.035156 "/>
<path fill-rule="nonzero" fill="rgb(0%, 0%, 0%)" fill-opacity="1" stroke-width="1.280374" stroke-linecap="butt" stroke-linejoin="round" stroke="rgb(0%, 0%, 0%)" stroke-opacity="1" stroke-miterlimit="1" d="M 431.941406 347.371094 L 436.910156 347.035156 L 434.136719 342.898438 Z M 431.941406 347.371094 "/>
<path fill="none" stroke-width="1.280374" stroke-linecap="butt" stroke-linejoin="round" stroke="rgb(0%, 0%, 0%)" stroke-opacity="1" stroke-miterlimit="1" d="M 65.902344 72.847656 L 66.1875 73.125 L 68.246094 75.148438 L 72.363281 79.1875 L 74.421875 81.210938 L 80.597656 87.269531 L 82.652344 89.292969 L 86.769531 93.332031 L 88.828125 95.355469 L 95.003906 101.414062 L 97.0625 103.4375 L 101.179688 107.476562 L 103.238281 109.5 L 109.414062 115.558594 L 111.46875 117.582031 L 115.585938 121.621094 L 117.644531 123.644531 L 123.820312 129.703125 L 125.878906 131.726562 L 129.996094 135.765625 L 132.054688 137.789062 L 138.230469 143.847656 L 140.285156 145.871094 L 144.402344 149.910156 L 146.460938 151.933594 L 152.636719 157.992188 L 154.695312 160.015625 L 158.8125 164.054688 L 160.871094 166.078125 L 167.046875 172.136719 L 169.101562 174.160156 L 173.21875 178.199219 L 175.277344 180.222656 L 181.453125 186.28125 L 183.511719 188.304688 L 187.628906 192.34375 L 189.6875 194.367188 L 195.863281 200.425781 L 197.917969 202.449219 L 202.035156 206.488281 L 204.09375 208.511719 L 210.269531 214.570312 L 212.328125 216.59375 L 216.445312 220.632812 L 218.503906 222.65625 L 224.679688 228.714844 L 226.734375 230.738281 L 230.851562 234.777344 L 232.910156 236.800781 L 237.027344 240.839844 L 237.3125 241.117188 "/>
<path fill-rule="nonzero" fill="rgb(0%, 0%, 0%)" fill-opacity="1" stroke-width="1.280374" stroke-linecap="butt" stroke-linejoin="round" stroke="rgb(0%, 0%, 0%)" stroke-opacity="1" stroke-miterlimit="1" d="M 232.488281 239.875 L 237.3125 241.117188 L 235.976562 236.320312 Z M 232.488281 239.875 "/>
<path fill="none" stroke-width="1.280374" stroke-linecap="butt" stroke-linejoin="round" stroke="rgb(0%, 0%, 0%)" stroke-opacity="1" stroke-miterlimit="1" d="M 57.011719 78.433594 L 57.441406 79.695312 L 57.953125 81.210938 L 58.984375 84.242188 L 59.5 85.753906 L 60.011719 87.269531 L 61.042969 90.300781 L 61.554688 91.816406 L 63.101562 96.363281 L 63.613281 97.878906 L 65.160156 102.425781 L 65.671875 103.941406 L 66.703125 106.972656 L 67.214844 108.488281 L 68.761719 113.035156 L 69.273438 114.550781 L 70.820312 119.097656 L 71.332031 120.613281 L 72.878906 125.160156 L 73.390625 126.675781 L 73.90625 128.1875 L 74.421875 129.703125 L 74.933594 131.21875 L 76.480469 135.765625 L 76.992188 137.28125 L 78.539062 141.828125 L 79.050781 143.34375 L 80.597656 147.890625 L 81.109375 149.40625 L 82.140625 152.4375 L 82.652344 153.953125 L 84.199219 158.5 L 84.710938 160.015625 L 86.257812 164.5625 L 86.769531 166.078125 L 87.285156 167.59375 L 87.800781 169.105469 L 88.316406 170.621094 L 88.828125 172.136719 L 89.859375 175.167969 L 90.371094 176.683594 L 91.917969 181.230469 L 92.429688 182.746094 L 92.945312 184.261719 L 93.375 185.519531 "/>
<path fill-rule="nonzero" fill="rgb(0%, 0%, 0%)" fill-opacity="1" stroke-width="1.280374" stroke-linecap="butt" stroke-linejoin="round" stroke="rgb(0%, 0%, 0%)" stroke-opacity="1" stroke-miterlimit="1" d="M 89.628906 182.238281 L 93.375 185.519531 L 94.34375 180.636719 Z M 89.628906 182.238281 "/>
<path fill="none" stroke-width="1.280374" stroke-linecap="butt" stroke-linejoin="round" stroke="rgb(0%, 0%, 0%)" stroke-opacity="1" stroke-miterlimit="1" d="M 49.722656 79.640625 L 49.722656 334.351562 "/>
<path fill-rule="nonzero" fill="rgb(0%, 0%, 0%)" fill-opacity="1" stroke-width="1.280374" stroke-linecap="butt" stroke-linejoin="round" stroke="rgb(0%, 0%, 0%)" stroke-opacity="1" stroke-miterlimit="1" d="M 47.230469 330.035156 L 49.722656 334.351562 L 52.210938 330.035156 Z M 47.230469 330.035156 "/>
<path fill="none" stroke-width="1.280374" stroke-linecap="butt" stroke-linejoin="round" stroke="rgb(0%, 0%, 0%)" stroke-opacity="1" stroke-miterlimit="1" d="M 457.269531 79.640625 L 457.269531 334.351562 "/>
<path fill-rule="nonzero" fill="rgb(0%, 0%, 0%)" fill-opacity="1" stroke-width="1.280374" stroke-linecap="butt" stroke-linejoin="round" stroke="rgb(0%, 0%, 0%)" stroke-opacity="1" stroke-miterlimit="1" d="M 454.777344 330.035156 L 457.269531 334.351562 L 459.757812 330.035156 Z M 454.777344 330.035156 "/>
<path fill="none" stroke-width="1.280374" stroke-linecap="butt" stroke-linejoin="round" stroke="rgb(0%, 0%, 0%)" stroke-opacity="1" stroke-miterlimit="1" d="M 434.589844 56.960938 L 276.171875 56.960938 "/>
<path fill-rule="nonzero" fill="rgb(0%, 0%, 0%)" fill-opacity="1" stroke-width="1.280374" stroke-linecap="butt" stroke-linejoin="round" stroke="rgb(0%, 0%, 0%)" stroke-opacity="1" stroke-miterlimit="1" d="M 280.484375 54.472656 L 276.171875 56.960938 L 280.484375 59.453125 Z M 280.484375 54.472656 "/>
<path fill="none" stroke-width="1.280374" stroke-linecap="butt" stroke-linejoin="round" stroke="rgb(0%, 0%, 0%)" stroke-opacity="1" stroke-miterlimit="1" d="M 439.007812 70.40625 L 436.683594 72.117188 L 432.566406 75.148438 L 428.453125 78.179688 L 420.21875 84.242188 L 416.101562 87.269531 L 403.75 96.363281 L 399.636719 99.394531 L 374.933594 117.582031 L 370.820312 120.613281 L 362.585938 126.675781 L 358.46875 129.703125 L 346.117188 138.796875 L 342.003906 141.828125 L 317.300781 160.015625 L 313.1875 163.046875 L 309.070312 166.078125 L 304.953125 169.105469 L 288.484375 181.230469 L 284.371094 184.261719 L 255.550781 205.480469 L 251.4375 208.511719 L 247.320312 211.539062 L 226.734375 226.695312 L 222.621094 229.726562 L 197.917969 247.914062 L 193.804688 250.945312 L 189.6875 253.972656 L 169.101562 269.128906 L 164.988281 272.160156 L 140.285156 290.347656 L 136.171875 293.375 L 111.46875 311.5625 L 107.355469 314.59375 L 82.652344 332.78125 L 78.539062 335.808594 L 70.304688 341.871094 L 67.980469 343.582031 "/>
<path fill-rule="nonzero" fill="rgb(0%, 0%, 0%)" fill-opacity="1" stroke-width="1.280374" stroke-linecap="butt" stroke-linejoin="round" stroke="rgb(0%, 0%, 0%)" stroke-opacity="1" stroke-miterlimit="1" d="M 69.980469 339.019531 L 67.980469 343.582031 L 72.933594 343.03125 Z M 69.980469 339.019531 "/>
<path fill="none" stroke-width="1.280374" stroke-linecap="butt" stroke-linejoin="round" stroke="rgb(0%, 0%, 0%)" stroke-opacity="1" stroke-miterlimit="1" d="M 93.375 228.46875 L 92.945312 229.726562 L 92.429688 231.242188 L 91.917969 232.757812 L 90.371094 237.304688 L 89.859375 238.820312 L 88.828125 241.851562 L 88.316406 243.367188 L 86.769531 247.914062 L 86.257812 249.429688 L 85.742188 250.945312 L 85.226562 252.457031 L 84.710938 253.972656 L 84.199219 255.488281 L 82.652344 260.035156 L 82.140625 261.550781 L 81.109375 264.582031 L 80.597656 266.097656 L 79.050781 270.644531 L 78.539062 272.160156 L 76.992188 276.707031 L 76.480469 278.222656 L 74.933594 282.769531 L 74.421875 284.285156 L 73.390625 287.316406 L 72.878906 288.832031 L 71.847656 291.863281 L 71.332031 293.375 L 70.820312 294.890625 L 69.273438 299.4375 L 68.761719 300.953125 L 67.214844 305.5 L 66.703125 307.015625 L 65.671875 310.046875 L 65.160156 311.5625 L 63.613281 316.109375 L 63.101562 317.625 L 61.554688 322.171875 L 61.042969 323.6875 L 60.011719 326.71875 L 59.5 328.234375 L 57.953125 332.78125 L 57.441406 334.292969 L 57.011719 335.554688 "/>
<path fill-rule="nonzero" fill="rgb(0%, 0%, 0%)" fill-opacity="1" stroke-width="1.280374" stroke-linecap="butt" stroke-linejoin="round" stroke="rgb(0%, 0%, 0%)" stroke-opacity="1" stroke-miterlimit="1" d="M 56.039062 330.667969 L 57.011719 335.554688 L 60.757812 332.269531 Z M 56.039062 330.667969 "/>
<path fill="none" stroke-width="1.280374" stroke-linecap="butt" stroke-linejoin="round" stroke="rgb(0%, 0%, 0%)" stroke-opacity="1" stroke-miterlimit="1" d="M 266.234375 75.722656 L 267.902344 78.179688 L 272.019531 84.242188 L 274.078125 87.269531 L 284.371094 102.425781 L 286.425781 105.457031 L 300.835938 126.675781 L 302.894531 129.703125 L 313.1875 144.859375 L 315.242188 147.890625 L 327.59375 166.078125 L 329.652344 169.105469 L 342.003906 187.292969 L 344.058594 190.324219 L 356.410156 208.511719 L 358.46875 211.539062 L 370.820312 229.726562 L 372.875 232.757812 L 385.226562 250.945312 L 387.285156 253.972656 L 399.636719 272.160156 L 401.691406 275.191406 L 411.984375 290.347656 L 414.042969 293.375 L 428.453125 314.59375 L 430.507812 317.625 L 440.800781 332.78125 L 442.859375 335.808594 L 444.527344 338.265625 "/>
<path fill-rule="nonzero" fill="rgb(0%, 0%, 0%)" fill-opacity="1" stroke-width="1.280374" stroke-linecap="butt" stroke-linejoin="round" stroke="rgb(0%, 0%, 0%)" stroke-opacity="1" stroke-miterlimit="1" d="M 440.042969 336.097656 L 444.527344 338.265625 L 444.164062 333.296875 Z M 440.042969 336.097656 "/>
<path fill="none" stroke-width="1.280374" stroke-linecap="butt" stroke-linejoin="round" stroke="rgb(0%, 0%, 0%)" stroke-opacity="1" stroke-miterlimit="1" d="M 240.753906 75.722656 L 239.085938 78.179688 L 234.96875 84.242188 L 232.910156 87.269531 L 226.734375 96.363281 L 224.679688 99.394531 L 206.152344 126.675781 L 204.09375 129.703125 L 197.917969 138.796875 L 195.863281 141.828125 L 179.394531 166.078125 L 177.335938 169.105469 L 169.101562 181.230469 L 167.046875 184.261719 L 150.578125 208.511719 L 148.519531 211.539062 L 140.285156 223.664062 L 138.230469 226.695312 L 121.761719 250.945312 L 119.703125 253.972656 L 111.46875 266.097656 L 109.414062 269.128906 L 95.003906 290.347656 L 92.945312 293.375 L 82.652344 308.53125 L 80.597656 311.5625 L 66.1875 332.78125 L 64.128906 335.808594 L 62.460938 338.265625 "/>
<path fill-rule="nonzero" fill="rgb(0%, 0%, 0%)" fill-opacity="1" stroke-width="1.280374" stroke-linecap="butt" stroke-linejoin="round" stroke="rgb(0%, 0%, 0%)" stroke-opacity="1" stroke-miterlimit="1" d="M 62.824219 333.296875 L 62.460938 338.265625 L 66.945312 336.097656 Z M 62.824219 333.296875 "/>
<path fill="none" stroke-width="1.280374" stroke-linecap="butt" stroke-linejoin="round" stroke="rgb(0%, 0%, 0%)" stroke-opacity="1" stroke-miterlimit="1" d="M 72.398438 357.027344 L 434.589844 357.027344 "/>
<path fill-rule="nonzero" fill="rgb(0%, 0%, 0%)" fill-opacity="1" stroke-width="1.280374" stroke-linecap="butt" stroke-linejoin="round" stroke="rgb(0%, 0%, 0%)" stroke-opacity="1" stroke-miterlimit="1" d="M 430.277344 359.519531 L 434.589844 357.027344 L 430.277344 354.535156 Z M 430.277344 359.519531 "/>
<path fill-rule="nonzero" fill="rgb(0%, 0%, 0%)" fill-opacity="1" stroke-width="0.708661" stroke-linecap="round" stroke-linejoin="round" stroke="rgb(0%, 0%, 0%)" stroke-opacity="1" stroke-miterlimit="10" d="M 270.921875 257.003906 C 270.921875 266.628906 263.117188 274.429688 253.496094 274.429688 C 243.871094 274.429688 236.070312 266.628906 236.070312 257.003906 C 236.070312 247.382812 243.871094 239.578125 253.496094 239.578125 C 263.117188 239.578125 270.921875 247.382812 270.921875 257.003906 "/>
<path fill-rule="nonzero" fill="rgb(0%, 0%, 0%)" fill-opacity="1" stroke-width="0.708661" stroke-linecap="round" stroke-linejoin="round" stroke="rgb(0%, 0%, 0%)" stroke-opacity="1" stroke-miterlimit="10" d="M 474.695312 357.027344 C 474.695312 366.652344 466.890625 374.453125 457.269531 374.453125 C 447.644531 374.453125 439.839844 366.652344 439.839844 357.027344 C 439.839844 347.402344 447.644531 339.601562 457.269531 339.601562 C 466.890625 339.601562 474.695312 347.402344 474.695312 357.027344 "/>
<path fill-rule="nonzero" fill="rgb(0%, 0%, 0%)" fill-opacity="1" stroke-width="0.708661" stroke-linecap="round" stroke-linejoin="round" stroke="rgb(0%, 0%, 0%)" stroke-opacity="1" stroke-miterlimit="10" d="M 67.148438 56.960938 C 67.148438 66.585938 59.34375 74.386719 49.722656 74.386719 C 40.097656 74.386719 32.296875 66.585938 32.296875 56.960938 C 32.296875 47.335938 40.097656 39.535156 49.722656 39.535156 C 59.34375 39.535156 67.148438 47.335938 67.148438 56.960938 "/>
<path fill-rule="nonzero" fill="rgb(0%, 0%, 0%)" fill-opacity="1" stroke-width="0.708661" stroke-linecap="round" stroke-linejoin="round" stroke="rgb(0%, 0%, 0%)" stroke-opacity="1" stroke-miterlimit="10" d="M 474.695312 56.960938 C 474.695312 66.585938 466.890625 74.386719 457.269531 74.386719 C 447.644531 74.386719 439.839844 66.585938 439.839844 56.960938 C 439.839844 47.335938 447.644531 39.535156 457.269531 39.535156 C 466.890625 39.535156 474.695312 47.335938 474.695312 56.960938 "/>
<path fill-rule="nonzero" fill="rgb(0%, 0%, 0%)" fill-opacity="1" stroke-width="0.708661" stroke-linecap="round" stroke-linejoin="round" stroke="rgb(0%, 0%, 0%)" stroke-opacity="1" stroke-miterlimit="10" d="M 118.089844 206.996094 C 118.089844 216.617188 110.289062 224.421875 100.664062 224.421875 C 91.039062 224.421875 83.238281 216.617188 83.238281 206.996094 C 83.238281 197.371094 91.039062 189.570312 100.664062 189.570312 C 110.289062 189.570312 118.089844 197.371094 118.089844 206.996094 "/>
<path fill-rule="nonzero" fill="rgb(0%, 0%, 0%)" fill-opacity="1" stroke-width="0.708661" stroke-linecap="round" stroke-linejoin="round" stroke="rgb(0%, 0%, 0%)" stroke-opacity="1" stroke-miterlimit="10" d="M 270.921875 56.960938 C 270.921875 66.585938 263.117188 74.386719 253.496094 74.386719 C 243.871094 74.386719 236.070312 66.585938 236.070312 56.960938 C 236.070312 47.335938 243.871094 39.535156 253.496094 39.535156 C 263.117188 39.535156 270.921875 47.335938 270.921875 56.960938 "/>
<path fill-rule="nonzero" fill="rgb(0%, 0%, 0%)" fill-opacity="1" stroke-width="0.708661" stroke-linecap="round" stroke-linejoin="round" stroke="rgb(0%, 0%, 0%)" stroke-opacity="1" stroke-miterlimit="10" d="M 67.148438 357.027344 C 67.148438 366.652344 59.34375 374.453125 49.722656 374.453125 C 40.097656 374.453125 32.296875 366.652344 32.296875 357.027344 C 32.296875 347.402344 40.097656 339.601562 49.722656 339.601562 C 59.34375 339.601562 67.148438 347.402344 67.148438 357.027344 "/>
<path fill-rule="nonzero" fill="rgb(100%, 100%, 100%)" fill-opacity="1" stroke-width="0.533489" stroke-linecap="round" stroke-linejoin="round" stroke="rgb(0%, 0%, 0%)" stroke-opacity="1" stroke-miterlimit="10" d="M 207.160156 278.871094 L 261.039062 278.871094 L 260.953125 278.871094 L 261.300781 278.855469 L 261.640625 278.789062 L 261.964844 278.664062 L 262.265625 278.492188 L 262.535156 278.269531 L 262.765625 278.011719 L 262.953125 277.714844 L 263.089844 277.398438 L 263.171875 277.058594 L 263.199219 276.714844 L 263.199219 265.832031 L 263.171875 265.488281 L 263.089844 265.148438 L 262.953125 264.828125 L 262.765625 264.535156 L 262.535156 264.273438 L 262.265625 264.054688 L 261.964844 263.882812 L 261.640625 263.757812 L 261.300781 263.6875 L 261.039062 263.671875 L 207.160156 263.671875 L 207.421875 263.6875 L 207.074219 263.675781 L 206.726562 263.714844 L 206.394531 263.8125 L 206.082031 263.960938 L 205.792969 264.160156 L 205.542969 264.402344 L 205.335938 264.679688 L 205.171875 264.984375 L 205.0625 265.316406 L 205.007812 265.660156 L 205 265.832031 L 205 276.714844 L 205.007812 276.539062 L 205.007812 276.886719 L 205.0625 277.230469 L 205.171875 277.558594 L 205.335938 277.867188 L 205.542969 278.144531 L 205.792969 278.386719 L 206.082031 278.582031 L 206.394531 278.734375 L 206.726562 278.828125 L 207.074219 278.871094 Z M 207.160156 278.871094 "/>
<g fill="rgb(0%, 0%, 0%)" fill-opacity="1">
<use xlink:href="#glyph-0-1" x="208.601562" y="274.773438"/>
<use xlink:href="#glyph-0-2" x="216.601562" y="274.773438"/>
<use xlink:href="#glyph-0-3" x="218.601562" y="274.773438"/>
<use xlink:href="#glyph-0-2" x="224.601562" y="274.773438"/>
<use xlink:href="#glyph-0-4" x="226.601562" y="274.773438"/>
<use xlink:href="#glyph-0-5" x="228.601562" y="274.773438"/>
<use xlink:href="#glyph-0-2" x="236.601562" y="274.773438"/>
<use xlink:href="#glyph-0-6" x="238.601562" y="274.773438"/>
<use xlink:href="#glyph-0-7" x="244.601562" y="274.773438"/>
<use xlink:href="#glyph-0-8" x="250.601562" y="274.773438"/>
<use xlink:href="#glyph-0-9" x="253.601562" y="274.773438"/>
</g>
<path fill-rule="nonzero" fill="rgb(100%, 100%, 100%)" fill-opacity="1" stroke-width="0.533489" stroke-linecap="round" stroke-linejoin="round" stroke="rgb(0%, 0%, 0%)" stroke-opacity="1" stroke-miterlimit="10" d="M 432.941406 350.296875 L 490.824219 350.296875 L 490.734375 350.296875 L 491.082031 350.28125 L 491.421875 350.210938 L 491.75 350.089844 L 492.050781 349.914062 L 492.320312 349.695312 L 492.550781 349.433594 L 492.734375 349.140625 L 492.871094 348.820312 L 492.953125 348.484375 L 492.980469 348.136719 L 492.980469 337.257812 L 492.953125 336.910156 L 492.871094 336.574219 L 492.734375 336.253906 L 492.550781 335.960938 L 492.320312 335.699219 L 492.050781 335.480469 L 491.75 335.304688 L 491.421875 335.183594 L 491.082031 335.113281 L 490.824219 335.097656 L 432.941406 335.097656 L 433.203125 335.113281 L 432.855469 335.097656 L 432.511719 335.140625 L 432.175781 335.238281 L 431.863281 335.386719 L 431.578125 335.585938 L 431.324219 335.824219 L 431.117188 336.101562 L 430.957031 336.410156 L 430.84375 336.742188 L 430.789062 337.085938 L 430.78125 337.257812 L 430.78125 348.136719 L 430.789062 347.964844 L 430.789062 348.3125 L 430.84375 348.65625 L 430.957031 348.984375 L 431.117188 349.292969 L 431.324219 349.570312 L 431.578125 349.8125 L 431.863281 350.007812 L 432.175781 350.15625 L 432.511719 350.253906 L 432.855469 350.296875 Z M 432.941406 350.296875 "/>
<g fill="rgb(0%, 0%, 0%)" fill-opacity="1">
<use xlink:href="#glyph-0-1" x="434.382812" y="346.199219"/>
<use xlink:href="#glyph-0-10" x="442.382812" y="346.199219"/>
<use xlink:href="#glyph-0-2" x="446.382812" y="346.199219"/>
<use xlink:href="#glyph-0-11" x="448.382812" y="346.199219"/>
<use xlink:href="#glyph-0-12" x="457.382812" y="346.199219"/>
<use xlink:href="#glyph-0-13" x="463.382812" y="346.199219"/>
<use xlink:href="#glyph-0-5" x="466.382812" y="346.199219"/>
<use xlink:href="#glyph-0-14" x="474.382812" y="346.199219"/>
<use xlink:href="#glyph-0-8" x="480.382812" y="346.199219"/>
<use xlink:href="#glyph-0-12" x="483.382812" y="346.199219"/>
</g>
<path fill-rule="nonzero" fill="rgb(100%, 100%, 100%)" fill-opacity="1" stroke-width="0.533489" stroke-linecap="round" stroke-linejoin="round" stroke="rgb(0%, 0%, 0%)" stroke-opacity="1" stroke-miterlimit="10" d="M 58.8125 64.617188 L 129.691406 64.617188 L 129.605469 64.613281 L 129.953125 64.601562 L 130.292969 64.53125 L 130.617188 64.40625 L 130.917969 64.234375 L 131.1875 64.015625 L 131.417969 63.753906 L 131.605469 63.460938 L 131.742188 63.140625 L 131.824219 62.800781 L 131.851562 62.457031 L 131.851562 51.574219 L 131.824219 51.230469 L 131.742188 50.890625 L 131.605469 50.570312 L 131.417969 50.277344 L 131.1875 50.019531 L 130.917969 49.796875 L 130.617188 49.625 L 130.292969 49.5 L 129.953125 49.433594 L 129.691406 49.414062 L 58.8125 49.414062 L 59.070312 49.433594 L 58.726562 49.417969 L 58.378906 49.460938 L 58.046875 49.554688 L 57.730469 49.707031 L 57.445312 49.902344 L 57.195312 50.144531 L 56.984375 50.421875 L 56.824219 50.730469 L 56.714844 51.058594 L 56.660156 51.402344 L 56.652344 51.574219 L 56.652344 62.457031 L 56.660156 62.28125 L 56.660156 62.628906 L 56.714844 62.972656 L 56.824219 63.300781 L 56.984375 63.609375 L 57.195312 63.886719 L 57.445312 64.128906 L 57.730469 64.328125 L 58.046875 64.476562 L 58.378906 64.574219 L 58.726562 64.613281 Z M 58.8125 64.617188 "/>
<g fill="rgb(0%, 0%, 0%)" fill-opacity="1">
<use xlink:href="#glyph-0-15" x="60.25" y="60.515625"/>
<use xlink:href="#glyph-0-14" x="66.25" y="60.515625"/>
<use xlink:href="#glyph-0-16" x="72.25" y="60.515625"/>
<use xlink:href="#glyph-0-17" x="80.25" y="60.515625"/>
<use xlink:href="#glyph-0-18" x="87.25" y="60.515625"/>
<use xlink:href="#glyph-0-19" x="93.25" y="60.515625"/>
<use xlink:href="#glyph-0-20" x="99.25" y="60.515625"/>
<use xlink:href="#glyph-0-10" x="108.25" y="60.515625"/>
<use xlink:href="#glyph-0-19" x="112.25" y="60.515625"/>
<use xlink:href="#glyph-0-12" x="118.25" y="60.515625"/>
<use xlink:href="#glyph-0-10" x="124.25" y="60.515625"/>
</g>
<path fill-rule="nonzero" fill="rgb(100%, 100%, 100%)" fill-opacity="1" stroke-width="0.533489" stroke-linecap="round" stroke-linejoin="round" stroke="rgb(0%, 0%, 0%)" stroke-opacity="1" stroke-miterlimit="10" d="M 412.367188 78.878906 L 463.246094 78.878906 L 463.160156 78.878906 L 463.507812 78.863281 L 463.847656 78.796875 L 464.171875 78.671875 L 464.476562 78.5 L 464.742188 78.277344 L 464.972656 78.019531 L 465.160156 77.722656 L 465.296875 77.40625 L 465.378906 77.066406 L 465.40625 76.71875 L 465.40625 65.839844 L 465.378906 65.492188 L 465.296875 65.15625 L 465.160156 64.835938 L 464.972656 64.542969 L 464.742188 64.28125 L 464.476562 64.0625 L 464.171875 63.890625 L 463.847656 63.765625 L 463.507812 63.695312 L 463.246094 63.679688 L 412.367188 63.679688 L 412.628906 63.695312 L 412.28125 63.683594 L 411.9375 63.722656 L 411.601562 63.820312 L 411.289062 63.96875 L 411 64.167969 L 410.75 64.40625 L 410.542969 64.6875 L 410.378906 64.992188 L 410.269531 65.324219 L 410.214844 65.667969 L 410.207031 65.839844 L 410.207031 76.71875 L 410.214844 76.546875 L 410.214844 76.894531 L 410.269531 77.238281 L 410.378906 77.566406 L 410.542969 77.875 L 410.75 78.152344 L 411 78.394531 L 411.289062 78.589844 L 411.601562 78.738281 L 411.9375 78.835938 L 412.28125 78.878906 Z M 412.367188 78.878906 "/>
<g fill="rgb(0%, 0%, 0%)" fill-opacity="1">
<use xlink:href="#glyph-0-15" x="413.808594" y="74.78125"/>
<use xlink:href="#glyph-0-21" x="419.808594" y="74.78125"/>
<use xlink:href="#glyph-0-22" x="425.808594" y="74.78125"/>
<use xlink:href="#glyph-0-14" x="431.808594" y="74.78125"/>
<use xlink:href="#glyph-0-4" x="437.808594" y="74.78125"/>
<use xlink:href="#glyph-0-23" x="439.808594" y="74.78125"/>
<use xlink:href="#glyph-0-8" x="446.808594" y="74.78125"/>
<use xlink:href="#glyph-0-24" x="449.808594" y="74.78125"/>
<use xlink:href="#glyph-0-25" x="455.808594" y="74.78125"/>
<use xlink:href="#glyph-0-25" x="458.808594" y="74.78125"/>
</g>
<path fill-rule="nonzero" fill="rgb(100%, 100%, 100%)" fill-opacity="1" stroke-width="0.533489" stroke-linecap="round" stroke-linejoin="round" stroke="rgb(0%, 0%, 0%)" stroke-opacity="1" stroke-miterlimit="10" d="M 104.113281 200.320312 L 135.992188 200.320312 L 135.90625 200.320312 L 136.253906 200.304688 L 136.59375 200.234375 L 136.917969 200.113281 L 137.21875 199.9375 L 137.488281 199.71875 L 137.71875 199.457031 L 137.90625 199.164062 L 138.042969 198.84375 L 138.125 198.507812 L 138.152344 198.160156 L 138.152344 187.28125 L 138.125 186.933594 L 138.042969 186.597656 L 137.90625 186.277344 L 137.71875 185.984375 L 137.488281 185.722656 L 137.21875 185.503906 L 136.917969 185.328125 L 136.59375 185.207031 L 136.253906 185.136719 L 135.992188 185.121094 L 104.113281 185.121094 L 104.375 185.136719 L 104.027344 185.121094 L 103.679688 185.164062 L 103.347656 185.261719 L 103.035156 185.410156 L 102.746094 185.609375 L 102.496094 185.847656 L 102.289062 186.125 L 102.125 186.433594 L 102.015625 186.765625 L 101.960938 187.105469 L 101.953125 187.28125 L 101.953125 198.160156 L 101.960938 197.988281 L 101.960938 198.335938 L 102.015625 198.679688 L 102.125 199.007812 L 102.289062 199.316406 L 102.496094 199.59375 L 102.746094 199.835938 L 103.035156 200.03125 L 103.347656 200.179688 L 103.679688 200.277344 L 104.027344 200.320312 Z M 104.113281 200.320312 "/>
<g fill="rgb(0%, 0%, 0%)" fill-opacity="1">
<use xlink:href="#glyph-0-26" x="105.554688" y="196.222656"/>
<use xlink:href="#glyph-0-21" x="112.554688" y="196.222656"/>
<use xlink:href="#glyph-0-4" x="118.554688" y="196.222656"/>
<use xlink:href="#glyph-0-2" x="120.554688" y="196.222656"/>
<use xlink:href="#glyph-0-22" x="122.554688" y="196.222656"/>
<use xlink:href="#glyph-0-12" x="128.554688" y="196.222656"/>
</g>
<path fill-rule="nonzero" fill="rgb(100%, 100%, 100%)" fill-opacity="1" stroke-width="0.533489" stroke-linecap="round" stroke-linejoin="round" stroke="rgb(0%, 0%, 0%)" stroke-opacity="1" stroke-miterlimit="10" d="M 213.601562 78.902344 L 254.480469 78.902344 L 254.394531 78.902344 L 254.742188 78.886719 L 255.082031 78.816406 L 255.40625 78.695312 L 255.707031 78.519531 L 255.976562 78.300781 L 256.207031 78.039062 L 256.394531 77.746094 L 256.53125 77.425781 L 256.613281 77.089844 L 256.640625 76.742188 L 256.640625 65.863281 L 256.613281 65.515625 L 256.53125 65.179688 L 256.394531 64.859375 L 256.207031 64.566406 L 255.976562 64.304688 L 255.707031 64.085938 L 255.40625 63.910156 L 255.082031 63.789062 L 254.742188 63.71875 L 254.480469 63.703125 L 213.601562 63.703125 L 213.863281 63.71875 L 213.515625 63.703125 L 213.167969 63.746094 L 212.835938 63.84375 L 212.519531 63.992188 L 212.234375 64.191406 L 211.984375 64.429688 L 211.777344 64.707031 L 211.613281 65.015625 L 211.503906 65.347656 L 211.449219 65.6875 L 211.441406 65.863281 L 211.441406 76.742188 L 211.449219 76.570312 L 211.449219 76.917969 L 211.503906 77.261719 L 211.613281 77.589844 L 211.777344 77.898438 L 211.984375 78.175781 L 212.234375 78.417969 L 212.519531 78.613281 L 212.835938 78.761719 L 213.167969 78.859375 L 213.515625 78.902344 Z M 213.601562 78.902344 "/>
<g fill="rgb(0%, 0%, 0%)" fill-opacity="1">
<use xlink:href="#glyph-0-26" x="215.042969" y="74.804688"/>
<use xlink:href="#glyph-0-21" x="222.042969" y="74.804688"/>
<use xlink:href="#glyph-0-3" x="228.042969" y="74.804688"/>
<use xlink:href="#glyph-0-12" x="234.042969" y="74.804688"/>
<use xlink:href="#glyph-0-10" x="240.042969" y="74.804688"/>
<use xlink:href="#glyph-0-8" x="244.042969" y="74.804688"/>
<use xlink:href="#glyph-0-27" x="247.042969" y="74.804688"/>
</g>
<path fill-rule="nonzero" fill="rgb(100%, 100%, 100%)" fill-opacity="1" stroke-width="0.533489" stroke-linecap="round" stroke-linejoin="round" stroke="rgb(0%, 0%, 0%)" stroke-opacity="1" stroke-miterlimit="10" d="M 16.203125 378.957031 L 72.082031 378.957031 L 71.996094 378.953125 L 72.34375 378.941406 L 72.683594 378.871094 L 73.007812 378.746094 L 73.308594 378.574219 L 73.578125 378.351562 L 73.808594 378.09375 L 73.996094 377.800781 L 74.128906 377.480469 L 74.214844 377.140625 L 74.242188 376.796875 L 74.242188 365.914062 L 74.214844 365.570312 L 74.128906 365.230469 L 73.996094 364.910156 L 73.808594 364.617188 L 73.578125 364.359375 L 73.308594 364.136719 L 73.007812 363.964844 L 72.683594 363.839844 L 72.34375 363.769531 L 72.082031 363.753906 L 16.203125 363.753906 L 16.460938 363.769531 L 16.113281 363.757812 L 15.769531 363.800781 L 15.4375 363.894531 L 15.121094 364.046875 L 14.835938 364.242188 L 14.585938 364.484375 L 14.375 364.761719 L 14.214844 365.070312 L 14.105469 365.398438 L 14.050781 365.742188 L 14.042969 365.914062 L 14.042969 376.796875 L 14.050781 376.621094 L 14.050781 376.96875 L 14.105469 377.3125 L 14.214844 377.640625 L 14.375 377.949219 L 14.585938 378.226562 L 14.835938 378.46875 L 15.121094 378.667969 L 15.4375 378.816406 L 15.769531 378.910156 L 16.113281 378.953125 Z M 16.203125 378.957031 "/>
<g fill="rgb(0%, 0%, 0%)" fill-opacity="1">
<use xlink:href="#glyph-0-26" x="17.640625" y="374.855469"/>
<use xlink:href="#glyph-0-10" x="24.640625" y="374.855469"/>
<use xlink:href="#glyph-0-21" x="28.640625" y="374.855469"/>
<use xlink:href="#glyph-0-28" x="34.640625" y="374.855469"/>
<use xlink:href="#glyph-0-17" x="40.640625" y="374.855469"/>
<use xlink:href="#glyph-0-10" x="47.640625" y="374.855469"/>
<use xlink:href="#glyph-0-10" x="51.640625" y="374.855469"/>
<use xlink:href="#glyph-0-12" x="55.640625" y="374.855469"/>
<use xlink:href="#glyph-0-9" x="61.640625" y="374.855469"/>
<use xlink:href="#glyph-0-8" x="67.640625" y="374.855469"/>
</g>
<g fill="rgb(0%, 0%, 0%)" fill-opacity="1">
<use xlink:href="#glyph-1-1" x="8.964844" y="16.064453"/>
<use xlink:href="#glyph-1-2" x="22.964844" y="16.064453"/>
<use xlink:href="#glyph-1-3" x="30.964844" y="16.064453"/>
<use xlink:href="#glyph-1-4" x="38.964844" y="16.064453"/>
<use xlink:href="#glyph-1-5" x="42.964844" y="16.064453"/>
<use xlink:href="#glyph-1-6" x="46.964844" y="16.064453"/>
<use xlink:href="#glyph-1-3" x="53.964844" y="16.064453"/>
<use xlink:href="#glyph-1-7" x="61.964844" y="16.064453"/>
<use xlink:href="#glyph-1-8" x="69.964844" y="16.064453"/>
<use xlink:href="#glyph-1-9" x="76.964844" y="16.064453"/>
<use xlink:href="#glyph-1-8" x="84.964844" y="16.064453"/>
<use xlink:href="#glyph-1-5" x="91.964844" y="16.064453"/>
<use xlink:href="#glyph-1-4" x="95.964844" y="16.064453"/>
<use xlink:href="#glyph-1-2" x="99.964844" y="16.064453"/>
<use xlink:href="#glyph-1-9" x="107.964844" y="16.064453"/>
<use xlink:href="#glyph-1-5" x="115.964844" y="16.064453"/>
<use xlink:href="#glyph-1-10" x="119.964844" y="16.064453"/>
<use xlink:href="#glyph-1-11" x="129.964844" y="16.064453"/>
<use xlink:href="#glyph-1-12" x="134.964844" y="16.064453"/>
<use xlink:href="#glyph-1-13" x="137.964844" y="16.064453"/>
<use xlink:href="#glyph-1-9" x="149.964844" y="16.064453"/>
<use xlink:href="#glyph-1-5" x="157.964844" y="16.064453"/>
<use xlink:href="#glyph-1-14" x="161.964844" y="16.064453"/>
<use xlink:href="#glyph-1-3" x="171.964844" y="16.064453"/>
<use xlink:href="#glyph-1-4" x="179.964844" y="16.064453"/>
<use xlink:href="#glyph-1-9" x="183.964844" y="16.064453"/>
<use xlink:href="#glyph-1-5" x="191.964844" y="16.064453"/>
<use xlink:href="#glyph-1-12" x="195.964844" y="16.064453"/>
<use xlink:href="#glyph-1-15" x="198.964844" y="16.064453"/>
<use xlink:href="#glyph-1-5" x="206.964844" y="16.064453"/>
<use xlink:href="#glyph-1-10" x="210.964844" y="16.064453"/>
<use xlink:href="#glyph-1-16" x="220.964844" y="16.064453"/>
<use xlink:href="#glyph-1-7" x="228.964844" y="16.064453"/>
<use xlink:href="#glyph-1-15" x="236.964844" y="16.064453"/>
<use xlink:href="#glyph-1-4" x="244.964844" y="16.064453"/>
<use xlink:href="#glyph-1-17" x="248.964844" y="16.064453"/>
<use xlink:href="#glyph-1-5" x="255.964844" y="16.064453"/>
<use xlink:href="#glyph-1-12" x="259.964844" y="16.064453"/>
<use xlink:href="#glyph-1-18" x="262.964844" y="16.064453"/>
</g>
</svg>
