<?xml version="1.0" encoding="UTF-8"?>
<svg xmlns="http://www.w3.org/2000/svg" xmlns:xlink="http://www.w3.org/1999/xlink" width="504" height="360" viewBox="0 0 504 360">
<defs>
<g>
<g id="glyph-0-0">
<path d="M 0.40625 0 L 0.40625 -9.171875 L 7.703125 -9.171875 L 7.703125 0 Z M 6.546875 -1.15625 L 6.546875 -8.03125 L 1.5625 -8.03125 L 1.5625 -1.15625 Z M 6.546875 -1.15625 "/>
</g>
<g id="glyph-0-1">
<path d="M 3.46875 -8.953125 C 4.625 -8.953125 5.457031 -8.472656 5.96875 -7.515625 C 6.375 -6.773438 6.578125 -5.765625 6.578125 -4.484375 C 6.578125 -3.265625 6.394531 -2.257812 6.03125 -1.46875 C 5.507812 -0.320312 4.648438 0.25 3.453125 0.25 C 2.378906 0.25 1.582031 -0.21875 1.0625 -1.15625 C 0.625 -1.9375 0.40625 -2.984375 0.40625 -4.296875 C 0.40625 -5.304688 0.535156 -6.175781 0.796875 -6.90625 C 1.285156 -8.269531 2.175781 -8.953125 3.46875 -8.953125 Z M 3.453125 -0.78125 C 4.035156 -0.78125 4.5 -1.035156 4.84375 -1.546875 C 5.1875 -2.066406 5.359375 -3.03125 5.359375 -4.4375 C 5.359375 -5.457031 5.234375 -6.296875 4.984375 -6.953125 C 4.734375 -7.609375 4.25 -7.9375 3.53125 -7.9375 C 2.863281 -7.9375 2.378906 -7.625 2.078125 -7 C 1.773438 -6.375 1.625 -5.457031 1.625 -4.25 C 1.625 -3.332031 1.71875 -2.597656 1.90625 -2.046875 C 2.207031 -1.203125 2.722656 -0.78125 3.453125 -0.78125 Z M 3.453125 -0.78125 "/>
</g>
<g id="glyph-0-2">
<path d="M 1.09375 -1.359375 L 2.40625 -1.359375 L 2.40625 0 L 1.09375 0 Z M 1.09375 -1.359375 "/>
</g>
<g id="glyph-0-3">
<path d="M 0.40625 0 C 0.445312 -0.769531 0.601562 -1.441406 0.875 -2.015625 C 1.15625 -2.585938 1.695312 -3.101562 2.5 -3.5625 L 3.703125 -4.265625 C 4.234375 -4.578125 4.609375 -4.84375 4.828125 -5.0625 C 5.171875 -5.40625 5.34375 -5.800781 5.34375 -6.25 C 5.34375 -6.769531 5.1875 -7.179688 4.875 -7.484375 C 4.5625 -7.796875 4.144531 -7.953125 3.625 -7.953125 C 2.851562 -7.953125 2.320312 -7.660156 2.03125 -7.078125 C 1.863281 -6.765625 1.773438 -6.332031 1.765625 -5.78125 L 0.625 -5.78125 C 0.632812 -6.550781 0.773438 -7.179688 1.046875 -7.671875 C 1.535156 -8.546875 2.394531 -8.984375 3.625 -8.984375 C 4.65625 -8.984375 5.40625 -8.703125 5.875 -8.140625 C 6.34375 -7.585938 6.578125 -6.972656 6.578125 -6.296875 C 6.578125 -5.578125 6.328125 -4.96875 5.828125 -4.46875 C 5.535156 -4.164062 5.015625 -3.804688 4.265625 -3.390625 L 3.40625 -2.90625 C 3 -2.6875 2.675781 -2.472656 2.4375 -2.265625 C 2.019531 -1.898438 1.757812 -1.5 1.65625 -1.0625 L 6.546875 -1.0625 L 6.546875 0 Z M 0.40625 0 "/>
</g>
<g id="glyph-0-4">
<path d="M 3.328125 0.25 C 2.265625 0.25 1.492188 -0.0390625 1.015625 -0.625 C 0.546875 -1.207031 0.3125 -1.914062 0.3125 -2.75 L 1.484375 -2.75 C 1.535156 -2.164062 1.644531 -1.742188 1.8125 -1.484375 C 2.101562 -1.015625 2.628906 -0.78125 3.390625 -0.78125 C 3.984375 -0.78125 4.457031 -0.9375 4.8125 -1.25 C 5.164062 -1.570312 5.34375 -1.984375 5.34375 -2.484375 C 5.34375 -3.097656 5.15625 -3.523438 4.78125 -3.765625 C 4.40625 -4.015625 3.882812 -4.140625 3.21875 -4.140625 C 3.132812 -4.140625 3.054688 -4.140625 2.984375 -4.140625 C 2.910156 -4.140625 2.832031 -4.132812 2.75 -4.125 L 2.75 -5.125 C 2.863281 -5.113281 2.957031 -5.101562 3.03125 -5.09375 C 3.113281 -5.09375 3.203125 -5.09375 3.296875 -5.09375 C 3.722656 -5.09375 4.070312 -5.160156 4.34375 -5.296875 C 4.8125 -5.523438 5.046875 -5.941406 5.046875 -6.546875 C 5.046875 -6.984375 4.882812 -7.320312 4.5625 -7.5625 C 4.25 -7.8125 3.882812 -7.9375 3.46875 -7.9375 C 2.71875 -7.9375 2.195312 -7.6875 1.90625 -7.1875 C 1.75 -6.90625 1.660156 -6.515625 1.640625 -6.015625 L 0.53125 -6.015625 C 0.53125 -6.679688 0.664062 -7.242188 0.9375 -7.703125 C 1.394531 -8.535156 2.195312 -8.953125 3.34375 -8.953125 C 4.257812 -8.953125 4.96875 -8.75 5.46875 -8.34375 C 5.96875 -7.9375 6.21875 -7.347656 6.21875 -6.578125 C 6.21875 -6.035156 6.070312 -5.59375 5.78125 -5.25 C 5.59375 -5.039062 5.351562 -4.875 5.0625 -4.75 C 5.53125 -4.625 5.894531 -4.375 6.15625 -4 C 6.425781 -3.632812 6.5625 -3.1875 6.5625 -2.65625 C 6.5625 -1.800781 6.28125 -1.101562 5.71875 -0.5625 C 5.15625 -0.0195312 4.359375 0.25 3.328125 0.25 Z M 3.328125 0.25 "/>
</g>
<g id="glyph-0-5">
<path d="M 4.234375 -3.171875 L 4.234375 -7.21875 L 1.359375 -3.171875 Z M 4.25 0 L 4.25 -2.1875 L 0.328125 -2.1875 L 0.328125 -3.28125 L 4.421875 -8.96875 L 5.375 -8.96875 L 5.375 -3.171875 L 6.6875 -3.171875 L 6.6875 -2.1875 L 5.375 -2.1875 L 5.375 0 Z M 4.25 0 "/>
</g>
<g id="glyph-0-6">
<path d="M 1.21875 -6.34375 L 1.21875 -7.203125 C 2.03125 -7.273438 2.597656 -7.40625 2.921875 -7.59375 C 3.242188 -7.78125 3.484375 -8.21875 3.640625 -8.90625 L 4.53125 -8.90625 L 4.53125 0 L 3.328125 0 L 3.328125 -6.34375 Z M 1.21875 -6.34375 "/>
</g>
<g id="glyph-0-7">
<path d="M 1.578125 -2.28125 C 1.648438 -1.632812 1.945312 -1.191406 2.46875 -0.953125 C 2.738281 -0.828125 3.050781 -0.765625 3.40625 -0.765625 C 4.070312 -0.765625 4.5625 -0.972656 4.875 -1.390625 C 5.195312 -1.816406 5.359375 -2.289062 5.359375 -2.8125 C 5.359375 -3.4375 5.164062 -3.921875 4.78125 -4.265625 C 4.40625 -4.609375 3.953125 -4.78125 3.421875 -4.78125 C 3.035156 -4.78125 2.703125 -4.703125 2.421875 -4.546875 C 2.140625 -4.398438 1.90625 -4.191406 1.71875 -3.921875 L 0.734375 -3.984375 L 1.421875 -8.796875 L 6.0625 -8.796875 L 6.0625 -7.703125 L 2.265625 -7.703125 L 1.875 -5.21875 C 2.082031 -5.382812 2.28125 -5.503906 2.46875 -5.578125 C 2.800781 -5.710938 3.1875 -5.78125 3.625 -5.78125 C 4.445312 -5.78125 5.144531 -5.515625 5.71875 -4.984375 C 6.289062 -4.460938 6.578125 -3.796875 6.578125 -2.984375 C 6.578125 -2.140625 6.3125 -1.394531 5.78125 -0.75 C 5.257812 -0.101562 4.425781 0.21875 3.28125 0.21875 C 2.550781 0.21875 1.90625 0.0117188 1.34375 -0.390625 C 0.789062 -0.796875 0.476562 -1.425781 0.40625 -2.28125 Z M 1.578125 -2.28125 "/>
</g>
<g id="glyph-1-0">
<path d="M 0.515625 0 L 0.515625 -11.484375 L 9.625 -11.484375 L 9.625 0 Z M 8.1875 -1.4375 L 8.1875 -10.046875 L 1.953125 -10.046875 L 1.953125 -1.4375 Z M 8.1875 -1.4375 "/>
</g>
<g id="glyph-1-1">
<path d="M 1.375 -11.484375 L 6.53125 -11.484375 C 7.550781 -11.484375 8.375 -11.191406 9 -10.609375 C 9.625 -10.035156 9.9375 -9.226562 9.9375 -8.1875 C 9.9375 -7.289062 9.65625 -6.507812 9.09375 -5.84375 C 8.539062 -5.1875 7.6875 -4.859375 6.53125 -4.859375 L 2.921875 -4.859375 L 2.921875 0 L 1.375 0 Z M 8.375 -8.1875 C 8.375 -9.03125 8.0625 -9.601562 7.4375 -9.90625 C 7.09375 -10.0625 6.617188 -10.140625 6.015625 -10.140625 L 2.921875 -10.140625 L 2.921875 -6.171875 L 6.015625 -6.171875 C 6.710938 -6.171875 7.28125 -6.316406 7.71875 -6.609375 C 8.15625 -6.910156 8.375 -7.4375 8.375 -8.1875 Z M 8.375 -8.1875 "/>
</g>
<g id="glyph-1-2">
<path d="M 1.078125 -8.375 L 2.40625 -8.375 L 2.40625 -6.921875 C 2.519531 -7.203125 2.789062 -7.546875 3.21875 -7.953125 C 3.644531 -8.359375 4.132812 -8.5625 4.6875 -8.5625 C 4.71875 -8.5625 4.765625 -8.554688 4.828125 -8.546875 C 4.890625 -8.546875 4.992188 -8.535156 5.140625 -8.515625 L 5.140625 -7.03125 C 5.054688 -7.050781 4.976562 -7.0625 4.90625 -7.0625 C 4.84375 -7.070312 4.769531 -7.078125 4.6875 -7.078125 C 3.976562 -7.078125 3.429688 -6.847656 3.046875 -6.390625 C 2.671875 -5.929688 2.484375 -5.40625 2.484375 -4.8125 L 2.484375 0 L 1.078125 0 Z M 1.078125 -8.375 "/>
</g>
<g id="glyph-1-3">
<path d="M 4.359375 -0.90625 C 5.285156 -0.90625 5.921875 -1.257812 6.265625 -1.96875 C 6.617188 -2.675781 6.796875 -3.460938 6.796875 -4.328125 C 6.796875 -5.109375 6.671875 -5.742188 6.421875 -6.234375 C 6.023438 -7.003906 5.34375 -7.390625 4.375 -7.390625 C 3.507812 -7.390625 2.878906 -7.0625 2.484375 -6.40625 C 2.097656 -5.75 1.90625 -4.957031 1.90625 -4.03125 C 1.90625 -3.132812 2.097656 -2.390625 2.484375 -1.796875 C 2.878906 -1.203125 3.503906 -0.90625 4.359375 -0.90625 Z M 4.40625 -8.609375 C 5.488281 -8.609375 6.398438 -8.25 7.140625 -7.53125 C 7.890625 -6.8125 8.265625 -5.753906 8.265625 -4.359375 C 8.265625 -3.015625 7.9375 -1.898438 7.28125 -1.015625 C 6.625 -0.128906 5.601562 0.3125 4.21875 0.3125 C 3.070312 0.3125 2.160156 -0.078125 1.484375 -0.859375 C 0.804688 -1.640625 0.46875 -2.6875 0.46875 -4 C 0.46875 -5.40625 0.820312 -6.523438 1.53125 -7.359375 C 2.25 -8.191406 3.207031 -8.609375 4.40625 -8.609375 Z M 4.359375 -8.578125 Z M 4.359375 -8.578125 "/>
</g>
<g id="glyph-1-4">
<path d="M 0.921875 -11.515625 L 2.296875 -11.515625 L 2.296875 -7.359375 C 2.597656 -7.753906 2.960938 -8.054688 3.390625 -8.265625 C 3.816406 -8.484375 4.28125 -8.59375 4.78125 -8.59375 C 5.820312 -8.59375 6.664062 -8.234375 7.3125 -7.515625 C 7.96875 -6.796875 8.296875 -5.738281 8.296875 -4.34375 C 8.296875 -3.019531 7.972656 -1.921875 7.328125 -1.046875 C 6.691406 -0.171875 5.804688 0.265625 4.671875 0.265625 C 4.035156 0.265625 3.5 0.105469 3.0625 -0.203125 C 2.800781 -0.378906 2.519531 -0.671875 2.21875 -1.078125 L 2.21875 0 L 0.921875 0 Z M 4.578125 -0.984375 C 5.335938 -0.984375 5.90625 -1.285156 6.28125 -1.890625 C 6.664062 -2.492188 6.859375 -3.289062 6.859375 -4.28125 C 6.859375 -5.15625 6.664062 -5.878906 6.28125 -6.453125 C 5.90625 -7.035156 5.351562 -7.328125 4.625 -7.328125 C 3.976562 -7.328125 3.414062 -7.085938 2.9375 -6.609375 C 2.457031 -6.140625 2.21875 -5.363281 2.21875 -4.28125 C 2.21875 -3.488281 2.316406 -2.847656 2.515625 -2.359375 C 2.878906 -1.441406 3.566406 -0.984375 4.578125 -0.984375 Z M 4.578125 -0.984375 "/>
</g>
<g id="glyph-1-5">
<path d="M 2.109375 -2.234375 C 2.109375 -1.828125 2.253906 -1.503906 2.546875 -1.265625 C 2.847656 -1.035156 3.203125 -0.921875 3.609375 -0.921875 C 4.109375 -0.921875 4.585938 -1.035156 5.046875 -1.265625 C 5.828125 -1.640625 6.21875 -2.257812 6.21875 -3.125 L 6.21875 -4.265625 C 6.050781 -4.148438 5.832031 -4.054688 5.5625 -3.984375 C 5.289062 -3.910156 5.023438 -3.859375 4.765625 -3.828125 L 3.90625 -3.71875 C 3.394531 -3.65625 3.015625 -3.550781 2.765625 -3.40625 C 2.328125 -3.15625 2.109375 -2.765625 2.109375 -2.234375 Z M 5.515625 -5.078125 C 5.835938 -5.117188 6.054688 -5.253906 6.171875 -5.484375 C 6.234375 -5.609375 6.265625 -5.785156 6.265625 -6.015625 C 6.265625 -6.492188 6.09375 -6.84375 5.75 -7.0625 C 5.40625 -7.28125 4.914062 -7.390625 4.28125 -7.390625 C 3.550781 -7.390625 3.03125 -7.191406 2.71875 -6.796875 C 2.550781 -6.578125 2.441406 -6.25 2.390625 -5.8125 L 1.078125 -5.8125 C 1.097656 -6.84375 1.429688 -7.5625 2.078125 -7.96875 C 2.722656 -8.375 3.46875 -8.578125 4.3125 -8.578125 C 5.300781 -8.578125 6.101562 -8.390625 6.71875 -8.015625 C 7.320312 -7.640625 7.625 -7.054688 7.625 -6.265625 L 7.625 -1.4375 C 7.625 -1.289062 7.65625 -1.171875 7.71875 -1.078125 C 7.78125 -0.992188 7.90625 -0.953125 8.09375 -0.953125 C 8.15625 -0.953125 8.222656 -0.957031 8.296875 -0.96875 C 8.378906 -0.976562 8.46875 -0.988281 8.5625 -1 L 8.5625 0.046875 C 8.34375 0.109375 8.175781 0.144531 8.0625 0.15625 C 7.945312 0.175781 7.789062 0.1875 7.59375 0.1875 C 7.101562 0.1875 6.75 0.0078125 6.53125 -0.34375 C 6.414062 -0.519531 6.335938 -0.773438 6.296875 -1.109375 C 6.003906 -0.734375 5.585938 -0.40625 5.046875 -0.125 C 4.515625 0.144531 3.925781 0.28125 3.28125 0.28125 C 2.507812 0.28125 1.875 0.0429688 1.375 -0.421875 C 0.882812 -0.898438 0.640625 -1.492188 0.640625 -2.203125 C 0.640625 -2.972656 0.878906 -3.570312 1.359375 -4 C 1.847656 -4.425781 2.488281 -4.691406 3.28125 -4.796875 Z M 4.359375 -8.578125 Z M 4.359375 -8.578125 "/>
</g>
<g id="glyph-1-6">
<path d="M 1.03125 -8.328125 L 2.46875 -8.328125 L 2.46875 0 L 1.03125 0 Z M 1.03125 -11.484375 L 2.46875 -11.484375 L 2.46875 -9.890625 L 1.03125 -9.890625 Z M 1.03125 -11.484375 "/>
</g>
<g id="glyph-1-7">
<path d="M 1.078125 -11.484375 L 2.484375 -11.484375 L 2.484375 0 L 1.078125 0 Z M 1.078125 -11.484375 "/>
</g>
<g id="glyph-1-8">
<path d="M 1.3125 -10.703125 L 2.734375 -10.703125 L 2.734375 -8.375 L 4.078125 -8.375 L 4.078125 -7.21875 L 2.734375 -7.21875 L 2.734375 -1.765625 C 2.734375 -1.472656 2.832031 -1.273438 3.03125 -1.171875 C 3.144531 -1.117188 3.328125 -1.09375 3.578125 -1.09375 C 3.648438 -1.09375 3.722656 -1.09375 3.796875 -1.09375 C 3.878906 -1.09375 3.972656 -1.097656 4.078125 -1.109375 L 4.078125 0 C 3.910156 0.0507812 3.738281 0.0859375 3.5625 0.109375 C 3.394531 0.128906 3.207031 0.140625 3 0.140625 C 2.34375 0.140625 1.894531 -0.0234375 1.65625 -0.359375 C 1.425781 -0.703125 1.3125 -1.144531 1.3125 -1.6875 L 1.3125 -7.21875 L 0.1875 -7.21875 L 0.1875 -8.375 L 1.3125 -8.375 Z M 1.3125 -10.703125 "/>
</g>
<g id="glyph-1-9">
<path d="M 6.265625 -8.375 L 7.8125 -8.375 C 7.613281 -7.832031 7.175781 -6.609375 6.5 -4.703125 C 5.988281 -3.265625 5.5625 -2.09375 5.21875 -1.1875 C 4.40625 0.957031 3.832031 2.265625 3.5 2.734375 C 3.164062 3.203125 2.59375 3.4375 1.78125 3.4375 C 1.582031 3.4375 1.425781 3.425781 1.3125 3.40625 C 1.207031 3.394531 1.078125 3.367188 0.921875 3.328125 L 0.921875 2.046875 C 1.171875 2.109375 1.347656 2.144531 1.453125 2.15625 C 1.566406 2.175781 1.664062 2.1875 1.75 2.1875 C 2.007812 2.1875 2.195312 2.144531 2.3125 2.0625 C 2.4375 1.976562 2.539062 1.875 2.625 1.75 C 2.65625 1.707031 2.75 1.492188 2.90625 1.109375 C 3.070312 0.722656 3.191406 0.4375 3.265625 0.25 L 0.171875 -8.375 L 1.765625 -8.375 L 4 -1.5625 Z M 4 -8.578125 Z M 4 -8.578125 "/>
</g>
<g id="glyph-1-10">
</g>
<g id="glyph-1-11">
<path d="M 1.390625 -9.640625 C 1.410156 -10.222656 1.507812 -10.648438 1.6875 -10.921875 C 2.019531 -11.398438 2.65625 -11.640625 3.59375 -11.640625 C 3.675781 -11.640625 3.765625 -11.632812 3.859375 -11.625 C 3.953125 -11.625 4.0625 -11.617188 4.1875 -11.609375 L 4.1875 -10.328125 C 4.039062 -10.335938 3.929688 -10.34375 3.859375 -10.34375 C 3.796875 -10.351562 3.738281 -10.359375 3.6875 -10.359375 C 3.257812 -10.359375 3.003906 -10.242188 2.921875 -10.015625 C 2.835938 -9.796875 2.796875 -9.234375 2.796875 -8.328125 L 4.1875 -8.328125 L 4.1875 -7.21875 L 2.78125 -7.21875 L 2.78125 0 L 1.390625 0 L 1.390625 -7.21875 L 0.21875 -7.21875 L 0.21875 -8.328125 L 1.390625 -8.328125 Z M 1.390625 -9.640625 "/>
</g>
<g id="glyph-1-12">
<path d="M 7.109375 -4.703125 L 5.375 -9.78125 L 3.515625 -4.703125 Z M 4.5625 -11.484375 L 6.3125 -11.484375 L 10.484375 0 L 8.78125 0 L 7.609375 -3.4375 L 3.078125 -3.4375 L 1.828125 0 L 0.234375 0 Z M 4.5625 -11.484375 "/>
</g>
<g id="glyph-1-13">
<path d="M 4.515625 -8.5625 C 5.109375 -8.5625 5.679688 -8.421875 6.234375 -8.140625 C 6.796875 -7.859375 7.222656 -7.5 7.515625 -7.0625 C 7.796875 -6.632812 7.984375 -6.140625 8.078125 -5.578125 C 8.160156 -5.191406 8.203125 -4.578125 8.203125 -3.734375 L 2.078125 -3.734375 C 2.097656 -2.890625 2.296875 -2.207031 2.671875 -1.6875 C 3.046875 -1.175781 3.628906 -0.921875 4.421875 -0.921875 C 5.148438 -0.921875 5.734375 -1.164062 6.171875 -1.65625 C 6.421875 -1.9375 6.597656 -2.257812 6.703125 -2.625 L 8.09375 -2.625 C 8.050781 -2.320312 7.925781 -1.976562 7.71875 -1.59375 C 7.519531 -1.21875 7.289062 -0.910156 7.03125 -0.671875 C 6.601562 -0.253906 6.078125 0.0234375 5.453125 0.171875 C 5.109375 0.253906 4.722656 0.296875 4.296875 0.296875 C 3.253906 0.296875 2.367188 -0.0820312 1.640625 -0.84375 C 0.921875 -1.601562 0.5625 -2.664062 0.5625 -4.03125 C 0.5625 -5.375 0.925781 -6.460938 1.65625 -7.296875 C 2.382812 -8.140625 3.335938 -8.5625 4.515625 -8.5625 Z M 6.765625 -4.859375 C 6.703125 -5.460938 6.566406 -5.945312 6.359375 -6.3125 C 5.972656 -6.988281 5.332031 -7.328125 4.4375 -7.328125 C 3.789062 -7.328125 3.25 -7.09375 2.8125 -6.625 C 2.375 -6.164062 2.140625 -5.578125 2.109375 -4.859375 Z M 4.390625 -8.578125 Z M 4.390625 -8.578125 "/>
</g>
<g id="glyph-1-14">
<path d="M 1.875 -2.625 C 1.914062 -2.15625 2.03125 -1.796875 2.21875 -1.546875 C 2.570312 -1.097656 3.1875 -0.875 4.0625 -0.875 C 4.582031 -0.875 5.039062 -0.984375 5.4375 -1.203125 C 5.832031 -1.429688 6.03125 -1.785156 6.03125 -2.265625 C 6.03125 -2.617188 5.875 -2.890625 5.5625 -3.078125 C 5.351562 -3.191406 4.953125 -3.328125 4.359375 -3.484375 L 3.234375 -3.765625 C 2.523438 -3.941406 2 -4.140625 1.65625 -4.359375 C 1.050781 -4.734375 0.75 -5.257812 0.75 -5.9375 C 0.75 -6.726562 1.035156 -7.367188 1.609375 -7.859375 C 2.179688 -8.347656 2.945312 -8.59375 3.90625 -8.59375 C 5.164062 -8.59375 6.078125 -8.222656 6.640625 -7.484375 C 6.984375 -7.015625 7.148438 -6.507812 7.140625 -5.96875 L 5.8125 -5.96875 C 5.789062 -6.28125 5.679688 -6.566406 5.484375 -6.828125 C 5.160156 -7.203125 4.597656 -7.390625 3.796875 -7.390625 C 3.265625 -7.390625 2.863281 -7.285156 2.59375 -7.078125 C 2.320312 -6.878906 2.1875 -6.613281 2.1875 -6.28125 C 2.1875 -5.914062 2.363281 -5.625 2.71875 -5.40625 C 2.925781 -5.269531 3.234375 -5.15625 3.640625 -5.0625 L 4.578125 -4.828125 C 5.585938 -4.585938 6.265625 -4.351562 6.609375 -4.125 C 7.148438 -3.757812 7.421875 -3.191406 7.421875 -2.421875 C 7.421875 -1.679688 7.140625 -1.035156 6.578125 -0.484375 C 6.015625 0.0546875 5.15625 0.328125 4 0.328125 C 2.75 0.328125 1.863281 0.0429688 1.34375 -0.515625 C 0.832031 -1.085938 0.554688 -1.789062 0.515625 -2.625 Z M 3.953125 -8.578125 Z M 3.953125 -8.578125 "/>
</g>
<g id="glyph-1-15">
<path d="M 6.0625 -11.796875 C 7.507812 -11.796875 8.632812 -11.410156 9.4375 -10.640625 C 10.238281 -9.878906 10.6875 -9.007812 10.78125 -8.03125 L 9.265625 -8.03125 C 9.085938 -8.769531 8.742188 -9.351562 8.234375 -9.78125 C 7.722656 -10.21875 7.003906 -10.4375 6.078125 -10.4375 C 4.941406 -10.4375 4.023438 -10.039062 3.328125 -9.25 C 2.640625 -8.457031 2.296875 -7.238281 2.296875 -5.59375 C 2.296875 -4.25 2.609375 -3.160156 3.234375 -2.328125 C 3.859375 -1.492188 4.796875 -1.078125 6.046875 -1.078125 C 7.191406 -1.078125 8.0625 -1.515625 8.65625 -2.390625 C 8.976562 -2.859375 9.21875 -3.46875 9.375 -4.21875 L 10.890625 -4.21875 C 10.753906 -3.007812 10.304688 -2 9.546875 -1.1875 C 8.628906 -0.195312 7.398438 0.296875 5.859375 0.296875 C 4.523438 0.296875 3.40625 -0.109375 2.5 -0.921875 C 1.300781 -1.984375 0.703125 -3.628906 0.703125 -5.859375 C 0.703125 -7.554688 1.148438 -8.945312 2.046875 -10.03125 C 3.015625 -11.207031 4.351562 -11.796875 6.0625 -11.796875 Z M 5.75 -11.796875 Z M 5.75 -11.796875 "/>
</g>
<g id="glyph-1-16">
<path d="M 2.4375 -8.375 L 2.4375 -2.8125 C 2.4375 -2.382812 2.503906 -2.035156 2.640625 -1.765625 C 2.890625 -1.265625 3.359375 -1.015625 4.046875 -1.015625 C 5.023438 -1.015625 5.691406 -1.453125 6.046875 -2.328125 C 6.234375 -2.796875 6.328125 -3.441406 6.328125 -4.265625 L 6.328125 -8.375 L 7.734375 -8.375 L 7.734375 0 L 6.40625 0 L 6.421875 -1.234375 C 6.242188 -0.921875 6.019531 -0.65625 5.75 -0.4375 C 5.207031 0.0078125 4.554688 0.234375 3.796875 0.234375 C 2.597656 0.234375 1.785156 -0.164062 1.359375 -0.96875 C 1.117188 -1.394531 1 -1.96875 1 -2.6875 L 1 -8.375 Z M 4.375 -8.578125 Z M 4.375 -8.578125 "/>
</g>
<g id="glyph-1-17">
<path d="M 1.03125 -8.375 L 2.375 -8.375 L 2.375 -7.1875 C 2.769531 -7.675781 3.1875 -8.023438 3.625 -8.234375 C 4.070312 -8.453125 4.566406 -8.5625 5.109375 -8.5625 C 6.296875 -8.5625 7.097656 -8.144531 7.515625 -7.3125 C 7.742188 -6.863281 7.859375 -6.21875 7.859375 -5.375 L 7.859375 0 L 6.421875 0 L 6.421875 -5.28125 C 6.421875 -5.789062 6.347656 -6.203125 6.203125 -6.515625 C 5.953125 -7.035156 5.5 -7.296875 4.84375 -7.296875 C 4.507812 -7.296875 4.234375 -7.257812 4.015625 -7.1875 C 3.628906 -7.070312 3.289062 -6.84375 3 -6.5 C 2.769531 -6.226562 2.617188 -5.941406 2.546875 -5.640625 C 2.472656 -5.347656 2.4375 -4.929688 2.4375 -4.390625 L 2.4375 0 L 1.03125 0 Z M 4.34375 -8.578125 Z M 4.34375 -8.578125 "/>
</g>
<g id="glyph-2-0">
<path d="M 0 -0.515625 L -11.484375 -0.515625 L -11.484375 -9.625 L 0 -9.625 Z M -1.4375 -8.1875 L -10.046875 -8.1875 L -10.046875 -1.953125 L -1.4375 -1.953125 Z M -1.4375 -8.1875 "/>
</g>
<g id="glyph-2-1">
<path d="M -11.796875 -6.0625 C -11.796875 -7.507812 -11.410156 -8.632812 -10.640625 -9.4375 C -9.878906 -10.238281 -9.007812 -10.6875 -8.03125 -10.78125 L -8.03125 -9.265625 C -8.769531 -9.085938 -9.351562 -8.742188 -9.78125 -8.234375 C -10.21875 -7.722656 -10.4375 -7.003906 -10.4375 -6.078125 C -10.4375 -4.941406 -10.039062 -4.023438 -9.25 -3.328125 C -8.457031 -2.640625 -7.238281 -2.296875 -5.59375 -2.296875 C -4.25 -2.296875 -3.160156 -2.609375 -2.328125 -3.234375 C -1.492188 -3.859375 -1.078125 -4.796875 -1.078125 -6.046875 C -1.078125 -7.191406 -1.515625 -8.0625 -2.390625 -8.65625 C -2.859375 -8.976562 -3.46875 -9.21875 -4.21875 -9.375 L -4.21875 -10.890625 C -3.007812 -10.753906 -2 -10.304688 -1.1875 -9.546875 C -0.195312 -8.628906 0.296875 -7.398438 0.296875 -5.859375 C 0.296875 -4.523438 -0.109375 -3.40625 -0.921875 -2.5 C -1.984375 -1.300781 -3.628906 -0.703125 -5.859375 -0.703125 C -7.554688 -0.703125 -8.945312 -1.148438 -10.03125 -2.046875 C -11.207031 -3.015625 -11.796875 -4.351562 -11.796875 -6.0625 Z M -11.796875 -5.75 Z M -11.796875 -5.75 "/>
</g>
<g id="glyph-2-2">
<path d="M -8.375 -1.078125 L -8.375 -2.40625 L -6.921875 -2.40625 C -7.203125 -2.519531 -7.546875 -2.789062 -7.953125 -3.21875 C -8.359375 -3.644531 -8.5625 -4.132812 -8.5625 -4.6875 C -8.5625 -4.71875 -8.554688 -4.765625 -8.546875 -4.828125 C -8.546875 -4.890625 -8.535156 -4.992188 -8.515625 -5.140625 L -7.03125 -5.140625 C -7.050781 -5.054688 -7.0625 -4.976562 -7.0625 -4.90625 C -7.070312 -4.84375 -7.078125 -4.769531 -7.078125 -4.6875 C -7.078125 -3.976562 -6.847656 -3.429688 -6.390625 -3.046875 C -5.929688 -2.671875 -5.40625 -2.484375 -4.8125 -2.484375 L 0 -2.484375 L 0 -1.078125 Z M -8.375 -1.078125 "/>
</g>
<g id="glyph-2-3">
<path d="M -8.328125 -1.03125 L -8.328125 -2.46875 L 0 -2.46875 L 0 -1.03125 Z M -11.484375 -1.03125 L -11.484375 -2.46875 L -9.890625 -2.46875 L -9.890625 -1.03125 Z M -11.484375 -1.03125 "/>
</g>
<g id="glyph-2-4">
<path d="M -8.375 -1.03125 L -8.375 -2.421875 L -7.1875 -2.421875 C -7.59375 -2.753906 -7.890625 -3.054688 -8.078125 -3.328125 C -8.398438 -3.796875 -8.5625 -4.320312 -8.5625 -4.90625 C -8.5625 -5.570312 -8.394531 -6.109375 -8.0625 -6.515625 C -7.875 -6.742188 -7.597656 -6.953125 -7.234375 -7.140625 C -7.679688 -7.453125 -8.015625 -7.816406 -8.234375 -8.234375 C -8.453125 -8.660156 -8.5625 -9.140625 -8.5625 -9.671875 C -8.5625 -10.796875 -8.15625 -11.5625 -7.34375 -11.96875 C -6.90625 -12.1875 -6.316406 -12.296875 -5.578125 -12.296875 L 0 -12.296875 L 0 -10.828125 L -5.8125 -10.828125 C -6.375 -10.828125 -6.757812 -10.6875 -6.96875 -10.40625 C -7.175781 -10.132812 -7.28125 -9.796875 -7.28125 -9.390625 C -7.28125 -8.835938 -7.09375 -8.363281 -6.71875 -7.96875 C -6.351562 -7.570312 -5.738281 -7.375 -4.875 -7.375 L 0 -7.375 L 0 -5.9375 L -5.46875 -5.9375 C -6.03125 -5.9375 -6.441406 -5.867188 -6.703125 -5.734375 C -7.097656 -5.523438 -7.296875 -5.128906 -7.296875 -4.546875 C -7.296875 -4.015625 -7.085938 -3.53125 -6.671875 -3.09375 C -6.265625 -2.65625 -5.519531 -2.4375 -4.4375 -2.4375 L 0 -2.4375 L 0 -1.03125 Z M -8.375 -1.03125 "/>
</g>
<g id="glyph-2-5">
<path d="M -8.5625 -4.515625 C -8.5625 -5.109375 -8.421875 -5.679688 -8.140625 -6.234375 C -7.859375 -6.796875 -7.5 -7.222656 -7.0625 -7.515625 C -6.632812 -7.796875 -6.140625 -7.984375 -5.578125 -8.078125 C -5.191406 -8.160156 -4.578125 -8.203125 -3.734375 -8.203125 L -3.734375 -2.078125 C -2.890625 -2.097656 -2.207031 -2.296875 -1.6875 -2.671875 C -1.175781 -3.046875 -0.921875 -3.628906 -0.921875 -4.421875 C -0.921875 -5.148438 -1.164062 -5.734375 -1.65625 -6.171875 C -1.9375 -6.421875 -2.257812 -6.597656 -2.625 -6.703125 L -2.625 -8.09375 C -2.320312 -8.050781 -1.976562 -7.925781 -1.59375 -7.71875 C -1.21875 -7.519531 -0.910156 -7.289062 -0.671875 -7.03125 C -0.253906 -6.601562 0.0234375 -6.078125 0.171875 -5.453125 C 0.253906 -5.109375 0.296875 -4.722656 0.296875 -4.296875 C 0.296875 -3.253906 -0.0820312 -2.367188 -0.84375 -1.640625 C -1.601562 -0.921875 -2.664062 -0.5625 -4.03125 -0.5625 C -5.375 -0.5625 -6.460938 -0.925781 -7.296875 -1.65625 C -8.140625 -2.382812 -8.5625 -3.335938 -8.5625 -4.515625 Z M -4.859375 -6.765625 C -5.460938 -6.703125 -5.945312 -6.566406 -6.3125 -6.359375 C -6.988281 -5.972656 -7.328125 -5.332031 -7.328125 -4.4375 C -7.328125 -3.789062 -7.09375 -3.25 -6.625 -2.8125 C -6.164062 -2.375 -5.578125 -2.140625 -4.859375 -2.109375 Z M -8.578125 -4.390625 Z M -8.578125 -4.390625 "/>
</g>
<g id="glyph-2-6">
</g>
<g id="glyph-2-7">
<path d="M -6.21875 -6.5625 C -6.21875 -7.289062 -6.363281 -7.863281 -6.65625 -8.28125 C -6.945312 -8.707031 -7.472656 -8.921875 -8.234375 -8.921875 C -9.054688 -8.921875 -9.613281 -8.625 -9.90625 -8.03125 C -10.0625 -7.71875 -10.140625 -7.296875 -10.140625 -6.765625 L -10.140625 -2.96875 L -6.21875 -2.96875 Z M -11.484375 -1.40625 L -11.484375 -6.71875 C -11.484375 -7.59375 -11.351562 -8.316406 -11.09375 -8.890625 C -10.601562 -9.960938 -9.703125 -10.5 -8.390625 -10.5 C -7.703125 -10.5 -7.140625 -10.359375 -6.703125 -10.078125 C -6.265625 -9.796875 -5.910156 -9.398438 -5.640625 -8.890625 C -5.460938 -9.335938 -5.222656 -9.671875 -4.921875 -9.890625 C -4.628906 -10.117188 -4.148438 -10.25 -3.484375 -10.28125 L -1.9375 -10.328125 C -1.5 -10.347656 -1.175781 -10.382812 -0.96875 -10.4375 C -0.601562 -10.53125 -0.367188 -10.695312 -0.265625 -10.9375 L 0 -10.9375 L 0 -9.03125 C -0.101562 -8.976562 -0.234375 -8.9375 -0.390625 -8.90625 C -0.546875 -8.875 -0.847656 -8.847656 -1.296875 -8.828125 L -3.203125 -8.734375 C -3.953125 -8.703125 -4.457031 -8.425781 -4.71875 -7.90625 C -4.851562 -7.601562 -4.921875 -7.132812 -4.921875 -6.5 L -4.921875 -2.96875 L 0 -2.96875 L 0 -1.40625 Z M -11.484375 -1.40625 "/>
</g>
<g id="glyph-2-8">
<path d="M -2.234375 -2.109375 C -1.828125 -2.109375 -1.503906 -2.253906 -1.265625 -2.546875 C -1.035156 -2.847656 -0.921875 -3.203125 -0.921875 -3.609375 C -0.921875 -4.109375 -1.035156 -4.585938 -1.265625 -5.046875 C -1.640625 -5.828125 -2.257812 -6.21875 -3.125 -6.21875 L -4.265625 -6.21875 C -4.148438 -6.050781 -4.054688 -5.832031 -3.984375 -5.5625 C -3.910156 -5.289062 -3.859375 -5.023438 -3.828125 -4.765625 L -3.71875 -3.90625 C -3.65625 -3.394531 -3.550781 -3.015625 -3.40625 -2.765625 C -3.15625 -2.328125 -2.765625 -2.109375 -2.234375 -2.109375 Z M -5.078125 -5.515625 C -5.117188 -5.835938 -5.253906 -6.054688 -5.484375 -6.171875 C -5.609375 -6.234375 -5.785156 -6.265625 -6.015625 -6.265625 C -6.492188 -6.265625 -6.84375 -6.09375 -7.0625 -5.75 C -7.28125 -5.40625 -7.390625 -4.914062 -7.390625 -4.28125 C -7.390625 -3.550781 -7.191406 -3.03125 -6.796875 -2.71875 C -6.578125 -2.550781 -6.25 -2.441406 -5.8125 -2.390625 L -5.8125 -1.078125 C -6.84375 -1.097656 -7.5625 -1.429688 -7.96875 -2.078125 C -8.375 -2.722656 -8.578125 -3.46875 -8.578125 -4.3125 C -8.578125 -5.300781 -8.390625 -6.101562 -8.015625 -6.71875 C -7.640625 -7.320312 -7.054688 -7.625 -6.265625 -7.625 L -1.4375 -7.625 C -1.289062 -7.625 -1.171875 -7.65625 -1.078125 -7.71875 C -0.992188 -7.78125 -0.953125 -7.90625 -0.953125 -8.09375 C -0.953125 -8.15625 -0.957031 -8.222656 -0.96875 -8.296875 C -0.976562 -8.378906 -0.988281 -8.46875 -1 -8.5625 L 0.046875 -8.5625 C 0.109375 -8.34375 0.144531 -8.175781 0.15625 -8.0625 C 0.175781 -7.945312 0.1875 -7.789062 0.1875 -7.59375 C 0.1875 -7.101562 0.0078125 -6.75 -0.34375 -6.53125 C -0.519531 -6.414062 -0.773438 -6.335938 -1.109375 -6.296875 C -0.734375 -6.003906 -0.40625 -5.585938 -0.125 -5.046875 C 0.144531 -4.515625 0.28125 -3.925781 0.28125 -3.28125 C 0.28125 -2.507812 0.0429688 -1.875 -0.421875 -1.375 C -0.898438 -0.882812 -1.492188 -0.640625 -2.203125 -0.640625 C -2.972656 -0.640625 -3.570312 -0.878906 -4 -1.359375 C -4.425781 -1.847656 -4.691406 -2.488281 -4.796875 -3.28125 Z M -8.578125 -4.359375 Z M -8.578125 -4.359375 "/>
</g>
<g id="glyph-2-9">
<path d="M -10.703125 -1.3125 L -10.703125 -2.734375 L -8.375 -2.734375 L -8.375 -4.078125 L -7.21875 -4.078125 L -7.21875 -2.734375 L -1.765625 -2.734375 C -1.472656 -2.734375 -1.273438 -2.832031 -1.171875 -3.03125 C -1.117188 -3.144531 -1.09375 -3.328125 -1.09375 -3.578125 C -1.09375 -3.648438 -1.09375 -3.722656 -1.09375 -3.796875 C -1.09375 -3.878906 -1.097656 -3.972656 -1.109375 -4.078125 L 0 -4.078125 C 0.0507812 -3.910156 0.0859375 -3.738281 0.109375 -3.5625 C 0.128906 -3.394531 0.140625 -3.207031 0.140625 -3 C 0.140625 -2.34375 -0.0234375 -1.894531 -0.359375 -1.65625 C -0.703125 -1.425781 -1.144531 -1.3125 -1.6875 -1.3125 L -7.21875 -1.3125 L -7.21875 -0.1875 L -8.375 -0.1875 L -8.375 -1.3125 Z M -10.703125 -1.3125 "/>
</g>
</g>
<clipPath id="clip-0">
<path clip-rule="nonzero" d="M 60.128906 7.96875 L 413.148438 7.96875 L 413.148438 311.871094 L 60.128906 311.871094 Z M 60.128906 7.96875 "/>
</clipPath>
<clipPath id="clip-1">
<path clip-rule="nonzero" d="M 60.128906 268 L 413.148438 268 L 413.148438 270 L 60.128906 270 Z M 60.128906 268 "/>
</clipPath>
<clipPath id="clip-2">
<path clip-rule="nonzero" d="M 60.128906 169 L 413.148438 169 L 413.148438 170 L 60.128906 170 Z M 60.128906 169 "/>
</clipPath>
<clipPath id="clip-3">
<path clip-rule="nonzero" d="M 60.128906 69 L 413.148438 69 L 413.148438 71 L 60.128906 71 Z M 60.128906 69 "/>
</clipPath>
<clipPath id="clip-4">
<path clip-rule="nonzero" d="M 96 7.96875 L 98 7.96875 L 98 311.871094 L 96 311.871094 Z M 96 7.96875 "/>
</clipPath>
<clipPath id="clip-5">
<path clip-rule="nonzero" d="M 211 7.96875 L 213 7.96875 L 213 311.871094 L 211 311.871094 Z M 211 7.96875 "/>
</clipPath>
<clipPath id="clip-6">
<path clip-rule="nonzero" d="M 326 7.96875 L 328 7.96875 L 328 311.871094 L 326 311.871094 Z M 326 7.96875 "/>
</clipPath>
<clipPath id="clip-7">
<path clip-rule="nonzero" d="M 60.128906 218 L 413.148438 218 L 413.148438 220 L 60.128906 220 Z M 60.128906 218 "/>
</clipPath>
<clipPath id="clip-8">
<path clip-rule="nonzero" d="M 60.128906 119 L 413.148438 119 L 413.148438 121 L 60.128906 121 Z M 60.128906 119 "/>
</clipPath>
<clipPath id="clip-9">
<path clip-rule="nonzero" d="M 60.128906 19 L 413.148438 19 L 413.148438 22 L 60.128906 22 Z M 60.128906 19 "/>
</clipPath>
<clipPath id="clip-10">
<path clip-rule="nonzero" d="M 153 7.96875 L 156 7.96875 L 156 311.871094 L 153 311.871094 Z M 153 7.96875 "/>
</clipPath>
<clipPath id="clip-11">
<path clip-rule="nonzero" d="M 268 7.96875 L 271 7.96875 L 271 311.871094 L 268 311.871094 Z M 268 7.96875 "/>
</clipPath>
<clipPath id="clip-12">
<path clip-rule="nonzero" d="M 383 7.96875 L 386 7.96875 L 386 311.871094 L 383 311.871094 Z M 383 7.96875 "/>
</clipPath>
<clipPath id="clip-13">
<path clip-rule="nonzero" d="M 60.128906 7.96875 L 413.148438 7.96875 L 413.148438 311.871094 L 60.128906 311.871094 Z M 60.128906 7.96875 "/>
</clipPath>
</defs>
<rect x="-50.4" y="-36" width="604.8" height="432" fill="rgb(100%, 100%, 100%)" fill-opacity="1"/>
<rect x="-50.4" y="-36" width="604.8" height="432" fill="rgb(100%, 100%, 100%)" fill-opacity="1"/>
<path fill="none" stroke-width="1.551969" stroke-linecap="round" stroke-linejoin="round" stroke="rgb(100%, 100%, 100%)" stroke-opacity="1" stroke-miterlimit="10" d="M 0 360 L 504 360 L 504 0 L 0 0 Z M 0 360 "/>
<g clip-path="url(#clip-0)">
<path fill-rule="nonzero" fill="rgb(100%, 100%, 100%)" fill-opacity="1" d="M 60.128906 311.871094 L 413.148438 311.871094 L 413.148438 7.96875 L 60.128906 7.96875 Z M 60.128906 311.871094 "/>
</g>
<g clip-path="url(#clip-1)">
<path fill="none" stroke-width="0.775984" stroke-linecap="butt" stroke-linejoin="round" stroke="rgb(92.156863%, 92.156863%, 92.156863%)" stroke-opacity="1" stroke-miterlimit="10" d="M 60.128906 268.640625 L 413.148438 268.640625 "/>
</g>
<g clip-path="url(#clip-2)">
<path fill="none" stroke-width="0.775984" stroke-linecap="butt" stroke-linejoin="round" stroke="rgb(92.156863%, 92.156863%, 92.156863%)" stroke-opacity="1" stroke-miterlimit="10" d="M 60.128906 169.441406 L 413.148438 169.441406 "/>
</g>
<g clip-path="url(#clip-3)">
<path fill="none" stroke-width="0.775984" stroke-linecap="butt" stroke-linejoin="round" stroke="rgb(92.156863%, 92.156863%, 92.156863%)" stroke-opacity="1" stroke-miterlimit="10" d="M 60.128906 70.242188 L 413.148438 70.242188 "/>
</g>
<g clip-path="url(#clip-4)">
<path fill="none" stroke-width="0.775984" stroke-linecap="butt" stroke-linejoin="round" stroke="rgb(92.156863%, 92.156863%, 92.156863%)" stroke-opacity="1" stroke-miterlimit="10" d="M 96.847656 311.871094 L 96.847656 7.96875 "/>
</g>
<g clip-path="url(#clip-5)">
<path fill="none" stroke-width="0.775984" stroke-linecap="butt" stroke-linejoin="round" stroke="rgb(92.156863%, 92.156863%, 92.156863%)" stroke-opacity="1" stroke-miterlimit="10" d="M 211.878906 311.871094 L 211.878906 7.96875 "/>
</g>
<g clip-path="url(#clip-6)">
<path fill="none" stroke-width="0.775984" stroke-linecap="butt" stroke-linejoin="round" stroke="rgb(92.156863%, 92.156863%, 92.156863%)" stroke-opacity="1" stroke-miterlimit="10" d="M 326.914062 311.871094 L 326.914062 7.96875 "/>
</g>
<g clip-path="url(#clip-7)">
<path fill="none" stroke-width="1.551969" stroke-linecap="butt" stroke-linejoin="round" stroke="rgb(92.156863%, 92.156863%, 92.156863%)" stroke-opacity="1" stroke-miterlimit="10" d="M 60.128906 219.042969 L 413.148438 219.042969 "/>
</g>
<g clip-path="url(#clip-8)">
<path fill="none" stroke-width="1.551969" stroke-linecap="butt" stroke-linejoin="round" stroke="rgb(92.156863%, 92.156863%, 92.156863%)" stroke-opacity="1" stroke-miterlimit="10" d="M 60.128906 119.839844 L 413.148438 119.839844 "/>
</g>
<g clip-path="url(#clip-9)">
<path fill="none" stroke-width="1.551969" stroke-linecap="butt" stroke-linejoin="round" stroke="rgb(92.156863%, 92.156863%, 92.156863%)" stroke-opacity="1" stroke-miterlimit="10" d="M 60.128906 20.640625 L 413.148438 20.640625 "/>
</g>
<g clip-path="url(#clip-10)">
<path fill="none" stroke-width="1.551969" stroke-linecap="butt" stroke-linejoin="round" stroke="rgb(92.156863%, 92.156863%, 92.156863%)" stroke-opacity="1" stroke-miterlimit="10" d="M 154.363281 311.871094 L 154.363281 7.96875 "/>
</g>
<g clip-path="url(#clip-11)">
<path fill="none" stroke-width="1.551969" stroke-linecap="butt" stroke-linejoin="round" stroke="rgb(92.156863%, 92.156863%, 92.156863%)" stroke-opacity="1" stroke-miterlimit="10" d="M 269.398438 311.871094 L 269.398438 7.96875 "/>
</g>
<g clip-path="url(#clip-12)">
<path fill="none" stroke-width="1.551969" stroke-linecap="butt" stroke-linejoin="round" stroke="rgb(92.156863%, 92.156863%, 92.156863%)" stroke-opacity="1" stroke-miterlimit="10" d="M 384.429688 311.871094 L 384.429688 7.96875 "/>
</g>
<path fill-rule="nonzero" fill="rgb(97.254902%, 46.27451%, 42.745098%)" fill-opacity="1" stroke-width="1.03078" stroke-linecap="round" stroke-linejoin="round" stroke="rgb(97.254902%, 46.27451%, 42.745098%)" stroke-opacity="1" stroke-miterlimit="10" d="M 261.261719 21.785156 C 261.261719 26.738281 253.828125 26.738281 253.828125 21.785156 C 253.828125 16.828125 261.261719 16.828125 261.261719 21.785156 "/>
<path fill-rule="nonzero" fill="rgb(97.254902%, 46.27451%, 42.745098%)" fill-opacity="1" stroke-width="1.03078" stroke-linecap="round" stroke-linejoin="round" stroke="rgb(97.254902%, 46.27451%, 42.745098%)" stroke-opacity="1" stroke-miterlimit="10" d="M 316.953125 37.0625 C 316.953125 42.015625 309.519531 42.015625 309.519531 37.0625 C 309.519531 32.105469 316.953125 32.105469 316.953125 37.0625 "/>
<path fill-rule="nonzero" fill="rgb(97.254902%, 46.27451%, 42.745098%)" fill-opacity="1" stroke-width="1.03078" stroke-linecap="round" stroke-linejoin="round" stroke="rgb(97.254902%, 46.27451%, 42.745098%)" stroke-opacity="1" stroke-miterlimit="10" d="M 308.140625 116.816406 C 308.140625 121.773438 300.707031 121.773438 300.707031 116.816406 C 300.707031 111.863281 308.140625 111.863281 308.140625 116.816406 "/>
<path fill-rule="nonzero" fill="rgb(97.254902%, 46.27451%, 42.745098%)" fill-opacity="1" stroke-width="1.03078" stroke-linecap="round" stroke-linejoin="round" stroke="rgb(97.254902%, 46.27451%, 42.745098%)" stroke-opacity="1" stroke-miterlimit="10" d="M 345.039062 72.960938 C 345.039062 77.917969 337.605469 77.917969 337.605469 72.960938 C 337.605469 68.003906 345.039062 68.003906 345.039062 72.960938 "/>
<path fill-rule="nonzero" fill="rgb(97.254902%, 46.27451%, 42.745098%)" fill-opacity="1" stroke-width="1.03078" stroke-linecap="round" stroke-linejoin="round" stroke="rgb(97.254902%, 46.27451%, 42.745098%)" stroke-opacity="1" stroke-miterlimit="10" d="M 302.324219 54.636719 C 302.324219 59.59375 294.894531 59.59375 294.894531 54.636719 C 294.894531 49.683594 302.324219 49.683594 302.324219 54.636719 "/>
<path fill-rule="nonzero" fill="rgb(97.254902%, 46.27451%, 42.745098%)" fill-opacity="1" stroke-width="1.03078" stroke-linecap="round" stroke-linejoin="round" stroke="rgb(97.254902%, 46.27451%, 42.745098%)" stroke-opacity="1" stroke-miterlimit="10" d="M 303.09375 72.699219 C 303.09375 77.652344 295.660156 77.652344 295.660156 72.699219 C 295.660156 67.742188 303.09375 67.742188 303.09375 72.699219 "/>
<path fill-rule="nonzero" fill="rgb(97.254902%, 46.27451%, 42.745098%)" fill-opacity="1" stroke-width="1.03078" stroke-linecap="round" stroke-linejoin="round" stroke="rgb(97.254902%, 46.27451%, 42.745098%)" stroke-opacity="1" stroke-miterlimit="10" d="M 271.125 64.253906 C 271.125 69.210938 263.691406 69.210938 263.691406 64.253906 C 263.691406 59.300781 271.125 59.300781 271.125 64.253906 "/>
<path fill-rule="nonzero" fill="rgb(48.627451%, 68.235294%, 0%)" fill-opacity="1" stroke-width="1.03078" stroke-linecap="round" stroke-linejoin="round" stroke="rgb(48.627451%, 68.235294%, 0%)" stroke-opacity="1" stroke-miterlimit="10" d="M 161.414062 254.832031 C 161.414062 259.785156 153.980469 259.785156 153.980469 254.832031 C 153.980469 249.875 161.414062 249.875 161.414062 254.832031 "/>
<path fill-rule="nonzero" fill="rgb(48.627451%, 68.235294%, 0%)" fill-opacity="1" stroke-width="1.03078" stroke-linecap="round" stroke-linejoin="round" stroke="rgb(48.627451%, 68.235294%, 0%)" stroke-opacity="1" stroke-miterlimit="10" d="M 114.617188 228.316406 C 114.617188 233.269531 107.1875 233.269531 107.1875 228.316406 C 107.1875 223.359375 114.617188 223.359375 114.617188 228.316406 "/>
<path fill-rule="nonzero" fill="rgb(48.627451%, 68.235294%, 0%)" fill-opacity="1" stroke-width="1.03078" stroke-linecap="round" stroke-linejoin="round" stroke="rgb(48.627451%, 68.235294%, 0%)" stroke-opacity="1" stroke-miterlimit="10" d="M 136.898438 267.160156 C 136.898438 272.117188 129.464844 272.117188 129.464844 267.160156 C 129.464844 262.207031 136.898438 262.207031 136.898438 267.160156 "/>
<path fill-rule="nonzero" fill="rgb(48.627451%, 68.235294%, 0%)" fill-opacity="1" stroke-width="1.03078" stroke-linecap="round" stroke-linejoin="round" stroke="rgb(48.627451%, 68.235294%, 0%)" stroke-opacity="1" stroke-miterlimit="10" d="M 152.3125 281.914062 C 152.3125 286.867188 144.878906 286.867188 144.878906 281.914062 C 144.878906 276.957031 152.3125 276.957031 152.3125 281.914062 "/>
<path fill-rule="nonzero" fill="rgb(48.627451%, 68.235294%, 0%)" fill-opacity="1" stroke-width="1.03078" stroke-linecap="round" stroke-linejoin="round" stroke="rgb(48.627451%, 68.235294%, 0%)" stroke-opacity="1" stroke-miterlimit="10" d="M 166.015625 298.058594 C 166.015625 303.011719 158.582031 303.011719 158.582031 298.058594 C 158.582031 293.101562 166.015625 293.101562 166.015625 298.058594 "/>
<path fill-rule="nonzero" fill="rgb(48.627451%, 68.235294%, 0%)" fill-opacity="1" stroke-width="1.03078" stroke-linecap="round" stroke-linejoin="round" stroke="rgb(48.627451%, 68.235294%, 0%)" stroke-opacity="1" stroke-miterlimit="10" d="M 107.546875 288.5 C 107.546875 293.453125 100.113281 293.453125 100.113281 288.5 C 100.113281 283.542969 107.546875 283.542969 107.546875 288.5 "/>
<path fill-rule="nonzero" fill="rgb(48.627451%, 68.235294%, 0%)" fill-opacity="1" stroke-width="1.03078" stroke-linecap="round" stroke-linejoin="round" stroke="rgb(48.627451%, 68.235294%, 0%)" stroke-opacity="1" stroke-miterlimit="10" d="M 79.890625 266.128906 C 79.890625 271.085938 72.457031 271.085938 72.457031 266.128906 C 72.457031 261.175781 79.890625 261.175781 79.890625 266.128906 "/>
<path fill-rule="nonzero" fill="rgb(0%, 74.901961%, 76.862745%)" fill-opacity="1" stroke-width="1.03078" stroke-linecap="round" stroke-linejoin="round" stroke="rgb(0%, 74.901961%, 76.862745%)" stroke-opacity="1" stroke-miterlimit="10" d="M 151.527344 100.820312 C 151.527344 105.773438 144.09375 105.773438 144.09375 100.820312 C 144.09375 95.863281 151.527344 95.863281 151.527344 100.820312 "/>
<path fill-rule="nonzero" fill="rgb(0%, 74.901961%, 76.862745%)" fill-opacity="1" stroke-width="1.03078" stroke-linecap="round" stroke-linejoin="round" stroke="rgb(0%, 74.901961%, 76.862745%)" stroke-opacity="1" stroke-miterlimit="10" d="M 257.742188 129.550781 C 257.742188 134.507812 250.3125 134.507812 250.3125 129.550781 C 250.3125 124.597656 257.742188 124.597656 257.742188 129.550781 "/>
<path fill-rule="nonzero" fill="rgb(0%, 74.901961%, 76.862745%)" fill-opacity="1" stroke-width="1.03078" stroke-linecap="round" stroke-linejoin="round" stroke="rgb(0%, 74.901961%, 76.862745%)" stroke-opacity="1" stroke-miterlimit="10" d="M 250.707031 133.566406 C 250.707031 138.523438 243.273438 138.523438 243.273438 133.566406 C 243.273438 128.613281 250.707031 128.613281 250.707031 133.566406 "/>
<path fill-rule="nonzero" fill="rgb(0%, 74.901961%, 76.862745%)" fill-opacity="1" stroke-width="1.03078" stroke-linecap="round" stroke-linejoin="round" stroke="rgb(0%, 74.901961%, 76.862745%)" stroke-opacity="1" stroke-miterlimit="10" d="M 312.933594 144.144531 C 312.933594 149.101562 305.5 149.101562 305.5 144.144531 C 305.5 139.191406 312.933594 139.191406 312.933594 144.144531 "/>
<path fill-rule="nonzero" fill="rgb(0%, 74.901961%, 76.862745%)" fill-opacity="1" stroke-width="1.03078" stroke-linecap="round" stroke-linejoin="round" stroke="rgb(0%, 74.901961%, 76.862745%)" stroke-opacity="1" stroke-miterlimit="10" d="M 258.667969 126.691406 C 258.667969 131.648438 251.234375 131.648438 251.234375 126.691406 C 251.234375 121.738281 258.667969 121.738281 258.667969 126.691406 "/>
<path fill-rule="nonzero" fill="rgb(0%, 74.901961%, 76.862745%)" fill-opacity="1" stroke-width="1.03078" stroke-linecap="round" stroke-linejoin="round" stroke="rgb(0%, 74.901961%, 76.862745%)" stroke-opacity="1" stroke-miterlimit="10" d="M 278.378906 163.242188 C 278.378906 168.199219 270.945312 168.199219 270.945312 163.242188 C 270.945312 158.289062 278.378906 158.289062 278.378906 163.242188 "/>
<path fill-rule="nonzero" fill="rgb(0%, 74.901961%, 76.862745%)" fill-opacity="1" stroke-width="1.03078" stroke-linecap="round" stroke-linejoin="round" stroke="rgb(0%, 74.901961%, 76.862745%)" stroke-opacity="1" stroke-miterlimit="10" d="M 260.597656 149.765625 C 260.597656 154.71875 253.167969 154.71875 253.167969 149.765625 C 253.167969 144.808594 260.597656 144.808594 260.597656 149.765625 "/>
<path fill-rule="nonzero" fill="rgb(78.039216%, 48.627451%, 100%)" fill-opacity="1" stroke-width="1.03078" stroke-linecap="round" stroke-linejoin="round" stroke="rgb(78.039216%, 48.627451%, 100%)" stroke-opacity="1" stroke-miterlimit="10" d="M 170.332031 134.683594 C 170.332031 139.636719 162.898438 139.636719 162.898438 134.683594 C 162.898438 129.726562 170.332031 129.726562 170.332031 134.683594 "/>
<path fill-rule="nonzero" fill="rgb(78.039216%, 48.627451%, 100%)" fill-opacity="1" stroke-width="1.03078" stroke-linecap="round" stroke-linejoin="round" stroke="rgb(78.039216%, 48.627451%, 100%)" stroke-opacity="1" stroke-miterlimit="10" d="M 312.144531 46.886719 C 312.144531 51.839844 304.710938 51.839844 304.710938 46.886719 C 304.710938 41.929688 312.144531 41.929688 312.144531 46.886719 "/>
<path fill-rule="nonzero" fill="rgb(78.039216%, 48.627451%, 100%)" fill-opacity="1" stroke-width="1.03078" stroke-linecap="round" stroke-linejoin="round" stroke="rgb(78.039216%, 48.627451%, 100%)" stroke-opacity="1" stroke-miterlimit="10" d="M 375.746094 144.023438 C 375.746094 148.980469 368.316406 148.980469 368.316406 144.023438 C 368.316406 139.070312 375.746094 139.070312 375.746094 144.023438 "/>
<path fill-rule="nonzero" fill="rgb(78.039216%, 48.627451%, 100%)" fill-opacity="1" stroke-width="1.03078" stroke-linecap="round" stroke-linejoin="round" stroke="rgb(78.039216%, 48.627451%, 100%)" stroke-opacity="1" stroke-miterlimit="10" d="M 400.820312 186.601562 C 400.820312 191.554688 393.386719 191.554688 393.386719 186.601562 C 393.386719 181.644531 400.820312 181.644531 400.820312 186.601562 "/>
<path fill-rule="nonzero" fill="rgb(78.039216%, 48.627451%, 100%)" fill-opacity="1" stroke-width="1.03078" stroke-linecap="round" stroke-linejoin="round" stroke="rgb(78.039216%, 48.627451%, 100%)" stroke-opacity="1" stroke-miterlimit="10" d="M 367.308594 148.605469 C 367.308594 153.558594 359.875 153.558594 359.875 148.605469 C 359.875 143.648438 367.308594 143.648438 367.308594 148.605469 "/>
<path fill-rule="nonzero" fill="rgb(78.039216%, 48.627451%, 100%)" fill-opacity="1" stroke-width="1.03078" stroke-linecap="round" stroke-linejoin="round" stroke="rgb(78.039216%, 48.627451%, 100%)" stroke-opacity="1" stroke-miterlimit="10" d="M 354.773438 162.007812 C 354.773438 166.960938 347.339844 166.960938 347.339844 162.007812 C 347.339844 157.050781 354.773438 157.050781 354.773438 162.007812 "/>
<path fill-rule="nonzero" fill="rgb(78.039216%, 48.627451%, 100%)" fill-opacity="1" stroke-width="1.03078" stroke-linecap="round" stroke-linejoin="round" stroke="rgb(78.039216%, 48.627451%, 100%)" stroke-opacity="1" stroke-miterlimit="10" d="M 336.074219 119.984375 C 336.074219 124.941406 328.640625 124.941406 328.640625 119.984375 C 328.640625 115.03125 336.074219 115.03125 336.074219 119.984375 "/>
<path fill="none" stroke-width="4.267913" stroke-linecap="butt" stroke-linejoin="round" stroke="rgb(20%, 40%, 100%)" stroke-opacity="1" stroke-miterlimit="10" d="M 76.175781 247.902344 L 92.425781 238.824219 L 96.488281 236.550781 L 104.613281 232.011719 L 108.671875 229.742188 L 116.796875 225.203125 L 120.859375 222.929688 L 145.234375 209.3125 L 149.296875 207.039062 L 169.609375 195.691406 L 173.671875 193.417969 L 198.046875 179.800781 L 202.109375 177.527344 L 226.484375 163.910156 L 230.546875 161.636719 L 242.734375 154.828125 L 246.792969 152.558594 L 250.855469 150.289062 L 254.917969 148.015625 L 279.292969 134.398438 L 283.355469 132.125 L 303.667969 120.777344 L 307.730469 118.503906 L 332.105469 104.886719 L 336.167969 102.613281 L 356.480469 91.265625 L 360.542969 88.992188 L 376.792969 79.914062 L 380.851562 77.644531 L 384.914062 75.375 L 388.976562 73.101562 L 397.101562 68.5625 "/>
<g clip-path="url(#clip-13)">
<path fill="none" stroke-width="1.551969" stroke-linecap="round" stroke-linejoin="round" stroke="rgb(20%, 20%, 20%)" stroke-opacity="1" stroke-miterlimit="10" d="M 60.128906 311.871094 L 413.148438 311.871094 L 413.148438 7.96875 L 60.128906 7.96875 Z M 60.128906 311.871094 "/>
</g>
<g fill="rgb(30.196078%, 30.196078%, 30.196078%)" fill-opacity="1">
<use xlink:href="#glyph-0-1" x="27.957031" y="223.899414"/>
<use xlink:href="#glyph-0-2" x="34.957031" y="223.899414"/>
<use xlink:href="#glyph-0-1" x="38.957031" y="223.899414"/>
<use xlink:href="#glyph-0-3" x="45.957031" y="223.899414"/>
</g>
<g fill="rgb(30.196078%, 30.196078%, 30.196078%)" fill-opacity="1">
<use xlink:href="#glyph-0-1" x="27.957031" y="124.696289"/>
<use xlink:href="#glyph-0-2" x="34.957031" y="124.696289"/>
<use xlink:href="#glyph-0-1" x="38.957031" y="124.696289"/>
<use xlink:href="#glyph-0-4" x="45.957031" y="124.696289"/>
</g>
<g fill="rgb(30.196078%, 30.196078%, 30.196078%)" fill-opacity="1">
<use xlink:href="#glyph-0-1" x="27.957031" y="25.49707"/>
<use xlink:href="#glyph-0-2" x="34.957031" y="25.49707"/>
<use xlink:href="#glyph-0-1" x="38.957031" y="25.49707"/>
<use xlink:href="#glyph-0-5" x="45.957031" y="25.49707"/>
</g>
<path fill="none" stroke-width="1.551969" stroke-linecap="butt" stroke-linejoin="round" stroke="rgb(20%, 20%, 20%)" stroke-opacity="1" stroke-miterlimit="10" d="M 56.144531 219.042969 L 60.128906 219.042969 "/>
<path fill="none" stroke-width="1.551969" stroke-linecap="butt" stroke-linejoin="round" stroke="rgb(20%, 20%, 20%)" stroke-opacity="1" stroke-miterlimit="10" d="M 56.144531 119.839844 L 60.128906 119.839844 "/>
<path fill="none" stroke-width="1.551969" stroke-linecap="butt" stroke-linejoin="round" stroke="rgb(20%, 20%, 20%)" stroke-opacity="1" stroke-miterlimit="10" d="M 56.144531 20.640625 L 60.128906 20.640625 "/>
<path fill="none" stroke-width="1.551969" stroke-linecap="butt" stroke-linejoin="round" stroke="rgb(20%, 20%, 20%)" stroke-opacity="1" stroke-miterlimit="10" d="M 154.363281 315.855469 L 154.363281 311.871094 "/>
<path fill="none" stroke-width="1.551969" stroke-linecap="butt" stroke-linejoin="round" stroke="rgb(20%, 20%, 20%)" stroke-opacity="1" stroke-miterlimit="10" d="M 269.398438 315.855469 L 269.398438 311.871094 "/>
<path fill="none" stroke-width="1.551969" stroke-linecap="butt" stroke-linejoin="round" stroke="rgb(20%, 20%, 20%)" stroke-opacity="1" stroke-miterlimit="10" d="M 384.429688 315.855469 L 384.429688 311.871094 "/>
<g fill="rgb(30.196078%, 30.196078%, 30.196078%)" fill-opacity="1">
<use xlink:href="#glyph-0-1" x="145.363281" y="328.899414"/>
<use xlink:href="#glyph-0-2" x="152.363281" y="328.899414"/>
<use xlink:href="#glyph-0-3" x="156.363281" y="328.899414"/>
</g>
<g fill="rgb(30.196078%, 30.196078%, 30.196078%)" fill-opacity="1">
<use xlink:href="#glyph-0-1" x="260.398438" y="328.899414"/>
<use xlink:href="#glyph-0-2" x="267.398438" y="328.899414"/>
<use xlink:href="#glyph-0-4" x="271.398438" y="328.899414"/>
</g>
<g fill="rgb(30.196078%, 30.196078%, 30.196078%)" fill-opacity="1">
<use xlink:href="#glyph-0-1" x="375.429688" y="328.899414"/>
<use xlink:href="#glyph-0-2" x="382.429688" y="328.899414"/>
<use xlink:href="#glyph-0-5" x="386.429688" y="328.899414"/>
</g>
<g fill="rgb(0%, 0%, 0%)" fill-opacity="1">
<use xlink:href="#glyph-1-1" x="167.640625" y="347.351562"/>
<use xlink:href="#glyph-1-2" x="178.640625" y="347.351562"/>
<use xlink:href="#glyph-1-3" x="183.640625" y="347.351562"/>
<use xlink:href="#glyph-1-4" x="192.640625" y="347.351562"/>
<use xlink:href="#glyph-1-5" x="201.640625" y="347.351562"/>
<use xlink:href="#glyph-1-4" x="210.640625" y="347.351562"/>
<use xlink:href="#glyph-1-6" x="219.640625" y="347.351562"/>
<use xlink:href="#glyph-1-7" x="223.640625" y="347.351562"/>
<use xlink:href="#glyph-1-6" x="227.640625" y="347.351562"/>
<use xlink:href="#glyph-1-8" x="231.640625" y="347.351562"/>
<use xlink:href="#glyph-1-9" x="235.640625" y="347.351562"/>
<use xlink:href="#glyph-1-10" x="243.640625" y="347.351562"/>
<use xlink:href="#glyph-1-3" x="247.640625" y="347.351562"/>
<use xlink:href="#glyph-1-11" x="256.640625" y="347.351562"/>
<use xlink:href="#glyph-1-10" x="260.640625" y="347.351562"/>
<use xlink:href="#glyph-1-12" x="264.640625" y="347.351562"/>
<use xlink:href="#glyph-1-2" x="274.640625" y="347.351562"/>
<use xlink:href="#glyph-1-2" x="279.640625" y="347.351562"/>
<use xlink:href="#glyph-1-13" x="284.640625" y="347.351562"/>
<use xlink:href="#glyph-1-14" x="293.640625" y="347.351562"/>
<use xlink:href="#glyph-1-8" x="301.640625" y="347.351562"/>
</g>
<g fill="rgb(0%, 0%, 0%)" fill-opacity="1">
<use xlink:href="#glyph-2-1" x="19.289063" y="200.421875"/>
<use xlink:href="#glyph-2-2" x="19.289063" y="188.421875"/>
<use xlink:href="#glyph-2-3" x="19.289063" y="183.421875"/>
<use xlink:href="#glyph-2-4" x="19.289063" y="179.421875"/>
<use xlink:href="#glyph-2-5" x="19.289063" y="166.421875"/>
<use xlink:href="#glyph-2-6" x="19.289063" y="157.421875"/>
<use xlink:href="#glyph-2-7" x="19.289063" y="153.421875"/>
<use xlink:href="#glyph-2-8" x="19.289063" y="141.421875"/>
<use xlink:href="#glyph-2-9" x="19.289063" y="132.421875"/>
<use xlink:href="#glyph-2-5" x="19.289063" y="128.421875"/>
</g>
<path fill-rule="nonzero" fill="rgb(100%, 100%, 100%)" fill-opacity="1" d="M 429.089844 214.4375 L 496.03125 214.4375 L 496.03125 105.40625 L 429.089844 105.40625 Z M 429.089844 214.4375 "/>
<g fill="rgb(0%, 0%, 0%)" fill-opacity="1">
<use xlink:href="#glyph-1-15" x="437.058594" y="126.695312"/>
<use xlink:href="#glyph-1-3" x="449.058594" y="126.695312"/>
<use xlink:href="#glyph-1-16" x="458.058594" y="126.695312"/>
<use xlink:href="#glyph-1-17" x="467.058594" y="126.695312"/>
<use xlink:href="#glyph-1-8" x="476.058594" y="126.695312"/>
<use xlink:href="#glyph-1-9" x="480.058594" y="126.695312"/>
</g>
<path fill-rule="nonzero" fill="rgb(100%, 100%, 100%)" fill-opacity="1" d="M 437.058594 154.625 L 454.339844 154.625 L 454.339844 137.34375 L 437.058594 137.34375 Z M 437.058594 154.625 "/>
<path fill-rule="nonzero" fill="rgb(97.254902%, 46.27451%, 42.745098%)" fill-opacity="1" stroke-width="1.03078" stroke-linecap="round" stroke-linejoin="round" stroke="rgb(97.254902%, 46.27451%, 42.745098%)" stroke-opacity="1" stroke-miterlimit="10" d="M 449.417969 145.984375 C 449.417969 150.941406 441.984375 150.941406 441.984375 145.984375 C 441.984375 141.03125 449.417969 141.03125 449.417969 145.984375 "/>
<path fill-rule="nonzero" fill="rgb(100%, 100%, 100%)" fill-opacity="1" d="M 437.058594 171.90625 L 454.339844 171.90625 L 454.339844 154.625 L 437.058594 154.625 Z M 437.058594 171.90625 "/>
<path fill-rule="nonzero" fill="rgb(48.627451%, 68.235294%, 0%)" fill-opacity="1" stroke-width="1.03078" stroke-linecap="round" stroke-linejoin="round" stroke="rgb(48.627451%, 68.235294%, 0%)" stroke-opacity="1" stroke-miterlimit="10" d="M 449.417969 163.265625 C 449.417969 168.222656 441.984375 168.222656 441.984375 163.265625 C 441.984375 158.3125 449.417969 158.3125 449.417969 163.265625 "/>
<path fill-rule="nonzero" fill="rgb(100%, 100%, 100%)" fill-opacity="1" d="M 437.058594 189.1875 L 454.339844 189.1875 L 454.339844 171.90625 L 437.058594 171.90625 Z M 437.058594 189.1875 "/>
<path fill-rule="nonzero" fill="rgb(0%, 74.901961%, 76.862745%)" fill-opacity="1" stroke-width="1.03078" stroke-linecap="round" stroke-linejoin="round" stroke="rgb(0%, 74.901961%, 76.862745%)" stroke-opacity="1" stroke-miterlimit="10" d="M 449.417969 180.546875 C 449.417969 185.5 441.984375 185.5 441.984375 180.546875 C 441.984375 175.589844 449.417969 175.589844 449.417969 180.546875 "/>
<path fill-rule="nonzero" fill="rgb(100%, 100%, 100%)" fill-opacity="1" d="M 437.058594 206.464844 L 454.339844 206.464844 L 454.339844 189.183594 L 437.058594 189.183594 Z M 437.058594 206.464844 "/>
<path fill-rule="nonzero" fill="rgb(78.039216%, 48.627451%, 100%)" fill-opacity="1" stroke-width="1.03078" stroke-linecap="round" stroke-linejoin="round" stroke="rgb(78.039216%, 48.627451%, 100%)" stroke-opacity="1" stroke-miterlimit="10" d="M 449.417969 197.824219 C 449.417969 202.78125 441.984375 202.78125 441.984375 197.824219 C 441.984375 192.871094 449.417969 192.871094 449.417969 197.824219 "/>
<g fill="rgb(0%, 0%, 0%)" fill-opacity="1">
<use xlink:href="#glyph-0-6" x="462.308594" y="150.84082"/>
</g>
<g fill="rgb(0%, 0%, 0%)" fill-opacity="1">
<use xlink:href="#glyph-0-4" x="462.308594" y="168.12207"/>
</g>
<g fill="rgb(0%, 0%, 0%)" fill-opacity="1">
<use xlink:href="#glyph-0-3" x="462.308594" y="185.40332"/>
<use xlink:href="#glyph-0-4" x="469.308594" y="185.40332"/>
</g>
<g fill="rgb(0%, 0%, 0%)" fill-opacity="1">
<use xlink:href="#glyph-0-6" x="462.308594" y="202.680664"/>
<use xlink:href="#glyph-0-5" x="469.308594" y="202.680664"/>
<use xlink:href="#glyph-0-7" x="476.308594" y="202.680664"/>
</g>
</svg>
