<?xml version="1.0" encoding="UTF-8"?>
<svg xmlns="http://www.w3.org/2000/svg" xmlns:xlink="http://www.w3.org/1999/xlink" width="756" height="288" viewBox="0 0 756 288">
<rect x="-75.6" y="-28.8" width="907.2" height="345.6" fill="rgb(100%, 100%, 100%)" fill-opacity="1"/>
<path fill="none" stroke-width="1.066978" stroke-linecap="butt" stroke-linejoin="round" stroke="rgb(0%, 0%, 0%)" stroke-opacity="0.2" stroke-miterlimit="10" d="M 367.234375 136.507812 L 367.234375 97.21875 "/>
<path fill="none" stroke-width="1.066978" stroke-linecap="butt" stroke-linejoin="round" stroke="rgb(0%, 0%, 0%)" stroke-opacity="0.2" stroke-miterlimit="10" d="M 189.476562 128.355469 L 189.476562 110.445312 "/>
<path fill="none" stroke-width="1.066978" stroke-linecap="butt" stroke-linejoin="round" stroke="rgb(0%, 0%, 0%)" stroke-opacity="0.2" stroke-miterlimit="10" d="M 445.359375 288.65625 L 445.359375 91.410156 "/>
<path fill="none" stroke-width="1.066978" stroke-linecap="butt" stroke-linejoin="round" stroke="rgb(0%, 0%, 0%)" stroke-opacity="0.2" stroke-miterlimit="10" d="M 389.390625 193.769531 L 389.390625 95.570312 "/>
<path fill="none" stroke-width="1.066978" stroke-linecap="butt" stroke-linejoin="round" stroke="rgb(0%, 0%, 0%)" stroke-opacity="0.2" stroke-miterlimit="10" d="M 306.941406 120.355469 L 306.941406 101.707031 "/>
<path fill="none" stroke-width="1.066978" stroke-linecap="butt" stroke-linejoin="round" stroke="rgb(0%, 0%, 0%)" stroke-opacity="0.2" stroke-miterlimit="10" d="M 394.792969 176.675781 L 394.792969 95.171875 "/>
<path fill="none" stroke-width="1.066978" stroke-linecap="butt" stroke-linejoin="round" stroke="rgb(0%, 0%, 0%)" stroke-opacity="0.2" stroke-miterlimit="10" d="M 388.179688 121.535156 L 388.179688 95.664062 "/>
<path fill="none" stroke-width="1.066978" stroke-linecap="butt" stroke-linejoin="round" stroke="rgb(0%, 0%, 0%)" stroke-opacity="0.2" stroke-miterlimit="10" d="M 274.824219 237.347656 L 274.824219 104.09375 "/>
<path fill="none" stroke-width="1.066978" stroke-linecap="butt" stroke-linejoin="round" stroke="rgb(0%, 0%, 0%)" stroke-opacity="0.2" stroke-miterlimit="10" d="M 476.203125 155.695312 L 476.203125 89.113281 "/>
<path fill="none" stroke-width="1.066978" stroke-linecap="butt" stroke-linejoin="round" stroke="rgb(0%, 0%, 0%)" stroke-opacity="0.2" stroke-miterlimit="10" d="M 574.777344 56.03125 L 574.777344 81.78125 "/>
<path fill="none" stroke-width="1.066978" stroke-linecap="butt" stroke-linejoin="round" stroke="rgb(0%, 0%, 0%)" stroke-opacity="0.2" stroke-miterlimit="10" d="M 293.164062 251.464844 L 293.164062 102.730469 "/>
<path fill="none" stroke-width="1.066978" stroke-linecap="butt" stroke-linejoin="round" stroke="rgb(0%, 0%, 0%)" stroke-opacity="0.2" stroke-miterlimit="10" d="M 248.972656 151.277344 L 248.972656 106.019531 "/>
<path fill="none" stroke-width="1.066978" stroke-linecap="butt" stroke-linejoin="round" stroke="rgb(0%, 0%, 0%)" stroke-opacity="0.2" stroke-miterlimit="10" d="M 395.292969 191.957031 L 395.292969 95.132812 "/>
<path fill="none" stroke-width="1.066978" stroke-linecap="butt" stroke-linejoin="round" stroke="rgb(0%, 0%, 0%)" stroke-opacity="0.2" stroke-miterlimit="10" d="M 301.746094 186.46875 L 301.746094 102.09375 "/>
<path fill="none" stroke-width="1.066978" stroke-linecap="butt" stroke-linejoin="round" stroke="rgb(0%, 0%, 0%)" stroke-opacity="0.2" stroke-miterlimit="10" d="M 585.644531 123.355469 L 585.644531 80.972656 "/>
<path fill="none" stroke-width="1.066978" stroke-linecap="butt" stroke-linejoin="round" stroke="rgb(0%, 0%, 0%)" stroke-opacity="0.2" stroke-miterlimit="10" d="M 290.578125 94.503906 L 290.578125 102.921875 "/>
<path fill="none" stroke-width="1.066978" stroke-linecap="butt" stroke-linejoin="round" stroke="rgb(0%, 0%, 0%)" stroke-opacity="0.2" stroke-miterlimit="10" d="M 463.320312 120.125 L 463.320312 90.074219 "/>
<path fill="none" stroke-width="1.066978" stroke-linecap="butt" stroke-linejoin="round" stroke="rgb(0%, 0%, 0%)" stroke-opacity="0.2" stroke-miterlimit="10" d="M 560.628906 179.8125 L 560.628906 82.832031 "/>
<path fill="none" stroke-width="1.066978" stroke-linecap="butt" stroke-linejoin="round" stroke="rgb(0%, 0%, 0%)" stroke-opacity="0.2" stroke-miterlimit="10" d="M 720.980469 68.675781 L 720.980469 70.90625 "/>
<path fill="none" stroke-width="1.066978" stroke-linecap="butt" stroke-linejoin="round" stroke="rgb(0%, 0%, 0%)" stroke-opacity="0.2" stroke-miterlimit="10" d="M 417.945312 183.804688 L 417.945312 93.449219 "/>
<path fill="none" stroke-width="1.066978" stroke-linecap="butt" stroke-linejoin="round" stroke="rgb(0%, 0%, 0%)" stroke-opacity="0.2" stroke-miterlimit="10" d="M 607.621094 145.660156 L 607.621094 79.335938 "/>
<path fill="none" stroke-width="1.066978" stroke-linecap="butt" stroke-linejoin="round" stroke="rgb(0%, 0%, 0%)" stroke-opacity="0.2" stroke-miterlimit="10" d="M 442.425781 197.675781 L 442.425781 91.625 "/>
<path fill="none" stroke-width="1.066978" stroke-linecap="butt" stroke-linejoin="round" stroke="rgb(0%, 0%, 0%)" stroke-opacity="0.2" stroke-miterlimit="10" d="M 382.902344 185.386719 L 382.902344 96.054688 "/>
<path fill="none" stroke-width="1.066978" stroke-linecap="butt" stroke-linejoin="round" stroke="rgb(0%, 0%, 0%)" stroke-opacity="0.2" stroke-miterlimit="10" d="M 418.148438 171.046875 L 418.148438 93.433594 "/>
<path fill="none" stroke-width="1.066978" stroke-linecap="butt" stroke-linejoin="round" stroke="rgb(0%, 0%, 0%)" stroke-opacity="0.2" stroke-miterlimit="10" d="M 563.035156 151.941406 L 563.035156 82.65625 "/>
<path fill="none" stroke-width="1.066978" stroke-linecap="butt" stroke-linejoin="round" stroke="rgb(0%, 0%, 0%)" stroke-opacity="0.2" stroke-miterlimit="10" d="M 400.765625 164.535156 L 400.765625 94.726562 "/>
<path fill="none" stroke-width="1.066978" stroke-linecap="butt" stroke-linejoin="round" stroke="rgb(0%, 0%, 0%)" stroke-opacity="0.2" stroke-miterlimit="10" d="M 352.726562 119.105469 L 352.726562 98.300781 "/>
<path fill="none" stroke-width="1.066978" stroke-linecap="butt" stroke-linejoin="round" stroke="rgb(0%, 0%, 0%)" stroke-opacity="0.2" stroke-miterlimit="10" d="M 258.289062 173.199219 L 258.289062 105.324219 "/>
<path fill="none" stroke-width="1.066978" stroke-linecap="butt" stroke-linejoin="round" stroke="rgb(0%, 0%, 0%)" stroke-opacity="0.2" stroke-miterlimit="10" d="M 119.765625 255.273438 L 119.765625 115.628906 "/>
<path fill="none" stroke-width="1.066978" stroke-linecap="butt" stroke-linejoin="round" stroke="rgb(0%, 0%, 0%)" stroke-opacity="0.2" stroke-miterlimit="10" d="M 536.390625 40.261719 L 536.390625 84.636719 "/>
<path fill="none" stroke-width="1.066978" stroke-linecap="butt" stroke-linejoin="round" stroke="rgb(0%, 0%, 0%)" stroke-opacity="0.2" stroke-miterlimit="10" d="M 282.457031 162.058594 L 282.457031 103.527344 "/>
<path fill="none" stroke-width="1.066978" stroke-linecap="butt" stroke-linejoin="round" stroke="rgb(0%, 0%, 0%)" stroke-opacity="0.2" stroke-miterlimit="10" d="M 431.554688 207.320312 L 431.554688 92.433594 "/>
<path fill="none" stroke-width="1.066978" stroke-linecap="butt" stroke-linejoin="round" stroke="rgb(0%, 0%, 0%)" stroke-opacity="0.2" stroke-miterlimit="10" d="M 478.320312 120.128906 L 478.320312 88.957031 "/>
<path fill="none" stroke-width="1.066978" stroke-linecap="butt" stroke-linejoin="round" stroke="rgb(0%, 0%, 0%)" stroke-opacity="0.2" stroke-miterlimit="10" d="M 504.621094 121.160156 L 504.621094 87 "/>
<path fill="none" stroke-width="1.066978" stroke-linecap="butt" stroke-linejoin="round" stroke="rgb(0%, 0%, 0%)" stroke-opacity="0.2" stroke-miterlimit="10" d="M 246.652344 237.335938 L 246.652344 106.191406 "/>
<path fill="none" stroke-width="1.066978" stroke-linecap="butt" stroke-linejoin="round" stroke="rgb(0%, 0%, 0%)" stroke-opacity="0.2" stroke-miterlimit="10" d="M 648.132812 13.746094 L 648.132812 76.324219 "/>
<path fill="none" stroke-width="1.066978" stroke-linecap="butt" stroke-linejoin="round" stroke="rgb(0%, 0%, 0%)" stroke-opacity="0.2" stroke-miterlimit="10" d="M 649.636719 88.535156 L 649.636719 76.210938 "/>
<path fill="none" stroke-width="1.066978" stroke-linecap="butt" stroke-linejoin="round" stroke="rgb(0%, 0%, 0%)" stroke-opacity="0.2" stroke-miterlimit="10" d="M 574.21875 95.089844 L 574.21875 81.824219 "/>
<path fill="none" stroke-width="1.066978" stroke-linecap="butt" stroke-linejoin="round" stroke="rgb(0%, 0%, 0%)" stroke-opacity="0.2" stroke-miterlimit="10" d="M 471.667969 164.339844 L 471.667969 89.453125 "/>
<path fill="none" stroke-width="1.066978" stroke-linecap="butt" stroke-linejoin="round" stroke="rgb(0%, 0%, 0%)" stroke-opacity="0.2" stroke-miterlimit="10" d="M 385.703125 144.878906 L 385.703125 95.847656 "/>
<path fill="none" stroke-width="1.066978" stroke-linecap="butt" stroke-linejoin="round" stroke="rgb(0%, 0%, 0%)" stroke-opacity="0.2" stroke-miterlimit="10" d="M 472.871094 124.324219 L 472.871094 89.363281 "/>
<path fill="none" stroke-width="1.066978" stroke-linecap="butt" stroke-linejoin="round" stroke="rgb(0%, 0%, 0%)" stroke-opacity="0.2" stroke-miterlimit="10" d="M 503.554688 99.972656 L 503.554688 87.078125 "/>
<path fill="none" stroke-width="1.066978" stroke-linecap="butt" stroke-linejoin="round" stroke="rgb(0%, 0%, 0%)" stroke-opacity="0.2" stroke-miterlimit="10" d="M 548.136719 166.003906 L 548.136719 83.761719 "/>
<path fill="none" stroke-width="1.066978" stroke-linecap="butt" stroke-linejoin="round" stroke="rgb(0%, 0%, 0%)" stroke-opacity="0.2" stroke-miterlimit="10" d="M 323.648438 162.386719 L 323.648438 100.460938 "/>
<path fill="none" stroke-width="1.066978" stroke-linecap="butt" stroke-linejoin="round" stroke="rgb(0%, 0%, 0%)" stroke-opacity="0.2" stroke-miterlimit="10" d="M 333.292969 184.183594 L 333.292969 99.746094 "/>
<path fill="none" stroke-width="1.066978" stroke-linecap="butt" stroke-linejoin="round" stroke="rgb(0%, 0%, 0%)" stroke-opacity="0.2" stroke-miterlimit="10" d="M 352.40625 186.765625 L 352.40625 98.324219 "/>
<path fill="none" stroke-width="1.066978" stroke-linecap="butt" stroke-linejoin="round" stroke="rgb(0%, 0%, 0%)" stroke-opacity="0.2" stroke-miterlimit="10" d="M 234.125 158.0625 L 234.125 107.121094 "/>
<path fill="none" stroke-width="1.066978" stroke-linecap="butt" stroke-linejoin="round" stroke="rgb(0%, 0%, 0%)" stroke-opacity="0.2" stroke-miterlimit="10" d="M 459.863281 90.320312 L 459.863281 90.328125 "/>
<path fill="none" stroke-width="1.066978" stroke-linecap="butt" stroke-linejoin="round" stroke="rgb(0%, 0%, 0%)" stroke-opacity="0.2" stroke-miterlimit="10" d="M 467.40625 147.722656 L 467.40625 89.769531 "/>
<path fill="none" stroke-width="1.066978" stroke-linecap="butt" stroke-linejoin="round" stroke="rgb(0%, 0%, 0%)" stroke-opacity="0.2" stroke-miterlimit="10" d="M 614.066406 136.625 L 614.066406 78.859375 "/>
<path fill="none" stroke-width="1.066978" stroke-linecap="butt" stroke-linejoin="round" stroke="rgb(0%, 0%, 0%)" stroke-opacity="0.2" stroke-miterlimit="10" d="M 304.710938 161.589844 L 304.710938 101.871094 "/>
<path fill="none" stroke-width="1.066978" stroke-linecap="butt" stroke-linejoin="round" stroke="rgb(0%, 0%, 0%)" stroke-opacity="0.2" stroke-miterlimit="10" d="M 230.890625 220.90625 L 230.890625 107.363281 "/>
<path fill="none" stroke-width="1.066978" stroke-linecap="butt" stroke-linejoin="round" stroke="rgb(0%, 0%, 0%)" stroke-opacity="0.2" stroke-miterlimit="10" d="M 540.660156 143.894531 L 540.660156 84.320312 "/>
<path fill="none" stroke-width="1.066978" stroke-linecap="butt" stroke-linejoin="round" stroke="rgb(0%, 0%, 0%)" stroke-opacity="0.2" stroke-miterlimit="10" d="M 465.914062 189.8125 L 465.914062 89.878906 "/>
<path fill="none" stroke-width="1.066978" stroke-linecap="butt" stroke-linejoin="round" stroke="rgb(0%, 0%, 0%)" stroke-opacity="0.2" stroke-miterlimit="10" d="M 295.207031 207.550781 L 295.207031 102.578125 "/>
<path fill="none" stroke-width="1.066978" stroke-linecap="butt" stroke-linejoin="round" stroke="rgb(0%, 0%, 0%)" stroke-opacity="0.2" stroke-miterlimit="10" d="M 449.652344 165.023438 L 449.652344 91.089844 "/>
<path fill="none" stroke-width="1.066978" stroke-linecap="butt" stroke-linejoin="round" stroke="rgb(0%, 0%, 0%)" stroke-opacity="0.2" stroke-miterlimit="10" d="M 527.382812 74.335938 L 527.382812 85.308594 "/>
<path fill="none" stroke-width="1.066978" stroke-linecap="butt" stroke-linejoin="round" stroke="rgb(0%, 0%, 0%)" stroke-opacity="0.2" stroke-miterlimit="10" d="M 304.554688 111.070312 L 304.554688 101.882812 "/>
<path fill="none" stroke-width="1.066978" stroke-linecap="butt" stroke-linejoin="round" stroke="rgb(0%, 0%, 0%)" stroke-opacity="0.2" stroke-miterlimit="10" d="M 588.804688 113.164062 L 588.804688 80.738281 "/>
<path fill="none" stroke-width="1.066978" stroke-linecap="butt" stroke-linejoin="round" stroke="rgb(0%, 0%, 0%)" stroke-opacity="0.2" stroke-miterlimit="10" d="M 426.972656 165.523438 L 426.972656 92.777344 "/>
<path fill="none" stroke-width="1.066978" stroke-linecap="butt" stroke-linejoin="round" stroke="rgb(0%, 0%, 0%)" stroke-opacity="0.2" stroke-miterlimit="10" d="M 37.652344 263.941406 L 37.652344 121.738281 "/>
<path fill="none" stroke-width="1.066978" stroke-linecap="butt" stroke-linejoin="round" stroke="rgb(0%, 0%, 0%)" stroke-opacity="0.2" stroke-miterlimit="10" d="M 71.144531 254.980469 L 71.144531 119.246094 "/>
<path fill="none" stroke-width="1.066978" stroke-linecap="butt" stroke-linejoin="round" stroke="rgb(0%, 0%, 0%)" stroke-opacity="0.2" stroke-miterlimit="10" d="M 436.960938 121.796875 L 436.960938 92.035156 "/>
<path fill="none" stroke-width="1.066978" stroke-linecap="butt" stroke-linejoin="round" stroke="rgb(0%, 0%, 0%)" stroke-opacity="0.2" stroke-miterlimit="10" d="M 289.769531 135.316406 L 289.769531 102.984375 "/>
<path fill="none" stroke-width="1.066978" stroke-linecap="butt" stroke-linejoin="round" stroke="rgb(0%, 0%, 0%)" stroke-opacity="0.2" stroke-miterlimit="10" d="M 331.980469 189.34375 L 331.980469 99.84375 "/>
<path fill="none" stroke-width="1.066978" stroke-linecap="butt" stroke-linejoin="round" stroke="rgb(0%, 0%, 0%)" stroke-opacity="0.2" stroke-miterlimit="10" d="M 407.667969 103.765625 L 407.667969 94.210938 "/>
<path fill="none" stroke-width="1.066978" stroke-linecap="butt" stroke-linejoin="round" stroke="rgb(0%, 0%, 0%)" stroke-opacity="0.2" stroke-miterlimit="10" d="M 371.742188 162.523438 L 371.742188 96.886719 "/>
<path fill="none" stroke-width="1.066978" stroke-linecap="butt" stroke-linejoin="round" stroke="rgb(0%, 0%, 0%)" stroke-opacity="0.2" stroke-miterlimit="10" d="M 279.359375 235.667969 L 279.359375 103.757812 "/>
<path fill="none" stroke-width="1.066978" stroke-linecap="butt" stroke-linejoin="round" stroke="rgb(0%, 0%, 0%)" stroke-opacity="0.2" stroke-miterlimit="10" d="M 239.042969 194.003906 L 239.042969 106.757812 "/>
<path fill="none" stroke-width="1.066978" stroke-linecap="butt" stroke-linejoin="round" stroke="rgb(0%, 0%, 0%)" stroke-opacity="0.2" stroke-miterlimit="10" d="M 341.792969 157.121094 L 341.792969 99.113281 "/>
<path fill="none" stroke-width="1.066978" stroke-linecap="butt" stroke-linejoin="round" stroke="rgb(0%, 0%, 0%)" stroke-opacity="0.2" stroke-miterlimit="10" d="M 642.058594 140.40625 L 642.058594 76.777344 "/>
<path fill="none" stroke-width="1.066978" stroke-linecap="butt" stroke-linejoin="round" stroke="rgb(0%, 0%, 0%)" stroke-opacity="0.2" stroke-miterlimit="10" d="M 581.523438 146.976562 L 581.523438 81.277344 "/>
<path fill="none" stroke-width="1.066978" stroke-linecap="butt" stroke-linejoin="round" stroke="rgb(0%, 0%, 0%)" stroke-opacity="0.2" stroke-miterlimit="10" d="M 380.261719 110.992188 L 380.261719 96.25 "/>
<path fill="none" stroke-width="1.066978" stroke-linecap="butt" stroke-linejoin="round" stroke="rgb(0%, 0%, 0%)" stroke-opacity="0.2" stroke-miterlimit="10" d="M 340.5 116.070312 L 340.5 99.210938 "/>
<path fill="none" stroke-width="1.066978" stroke-linecap="butt" stroke-linejoin="round" stroke="rgb(0%, 0%, 0%)" stroke-opacity="0.2" stroke-miterlimit="10" d="M 110.730469 134.917969 L 110.730469 116.300781 "/>
<path fill="none" stroke-width="1.066978" stroke-linecap="butt" stroke-linejoin="round" stroke="rgb(0%, 0%, 0%)" stroke-opacity="0.2" stroke-miterlimit="10" d="M 352.8125 210.871094 L 352.8125 98.292969 "/>
<path fill="none" stroke-width="1.066978" stroke-linecap="butt" stroke-linejoin="round" stroke="rgb(0%, 0%, 0%)" stroke-opacity="0.2" stroke-miterlimit="10" d="M 466.773438 141.023438 L 466.773438 89.816406 "/>
<path fill="none" stroke-width="1.066978" stroke-linecap="butt" stroke-linejoin="round" stroke="rgb(0%, 0%, 0%)" stroke-opacity="0.2" stroke-miterlimit="10" d="M 195.171875 161.230469 L 195.171875 110.019531 "/>
<path fill="none" stroke-width="1.066978" stroke-linecap="butt" stroke-linejoin="round" stroke="rgb(0%, 0%, 0%)" stroke-opacity="0.2" stroke-miterlimit="10" d="M 492.074219 100.75 L 492.074219 87.933594 "/>
<path fill="none" stroke-width="1.066978" stroke-linecap="butt" stroke-linejoin="round" stroke="rgb(0%, 0%, 0%)" stroke-opacity="0.2" stroke-miterlimit="10" d="M 500.746094 139.382812 L 500.746094 87.289062 "/>
<path fill="none" stroke-width="1.066978" stroke-linecap="butt" stroke-linejoin="round" stroke="rgb(0%, 0%, 0%)" stroke-opacity="0.2" stroke-miterlimit="10" d="M 204.058594 127.152344 L 204.058594 109.359375 "/>
<path fill="none" stroke-width="1.066978" stroke-linecap="butt" stroke-linejoin="round" stroke="rgb(0%, 0%, 0%)" stroke-opacity="0.2" stroke-miterlimit="10" d="M 533.210938 19.472656 L 533.210938 84.875 "/>
<path fill="none" stroke-width="1.066978" stroke-linecap="butt" stroke-linejoin="round" stroke="rgb(0%, 0%, 0%)" stroke-opacity="0.2" stroke-miterlimit="10" d="M 322.617188 172.410156 L 322.617188 100.539062 "/>
<path fill="none" stroke-width="1.066978" stroke-linecap="butt" stroke-linejoin="round" stroke="rgb(0%, 0%, 0%)" stroke-opacity="0.2" stroke-miterlimit="10" d="M 299.601562 223.160156 L 299.601562 102.25 "/>
<path fill="none" stroke-width="1.066978" stroke-linecap="butt" stroke-linejoin="round" stroke="rgb(0%, 0%, 0%)" stroke-opacity="0.2" stroke-miterlimit="10" d="M 501.605469 131.941406 L 501.605469 87.222656 "/>
<path fill="none" stroke-width="1.066978" stroke-linecap="butt" stroke-linejoin="round" stroke="rgb(0%, 0%, 0%)" stroke-opacity="0.2" stroke-miterlimit="10" d="M 426.441406 218.234375 L 426.441406 92.816406 "/>
<path fill="none" stroke-width="1.066978" stroke-linecap="butt" stroke-linejoin="round" stroke="rgb(0%, 0%, 0%)" stroke-opacity="0.2" stroke-miterlimit="10" d="M 313.503906 139.160156 L 313.503906 101.21875 "/>
<path fill="none" stroke-width="1.066978" stroke-linecap="butt" stroke-linejoin="round" stroke="rgb(0%, 0%, 0%)" stroke-opacity="0.2" stroke-miterlimit="10" d="M 191.511719 240.863281 L 191.511719 110.292969 "/>
<path fill="none" stroke-width="1.066978" stroke-linecap="butt" stroke-linejoin="round" stroke="rgb(0%, 0%, 0%)" stroke-opacity="0.2" stroke-miterlimit="10" d="M 509.949219 93.699219 L 509.949219 86.601562 "/>
<path fill="none" stroke-width="1.066978" stroke-linecap="butt" stroke-linejoin="round" stroke="rgb(0%, 0%, 0%)" stroke-opacity="0.2" stroke-miterlimit="10" d="M 205.035156 207.246094 L 205.035156 109.285156 "/>
<path fill="none" stroke-width="1.066978" stroke-linecap="butt" stroke-linejoin="round" stroke="rgb(0%, 0%, 0%)" stroke-opacity="0.2" stroke-miterlimit="10" d="M 85.113281 218.945312 L 85.113281 118.207031 "/>
<path fill="none" stroke-width="1.066978" stroke-linecap="butt" stroke-linejoin="round" stroke="rgb(0%, 0%, 0%)" stroke-opacity="0.2" stroke-miterlimit="10" d="M 515.453125 168.796875 L 515.453125 86.195312 "/>
<path fill="none" stroke-width="1.066978" stroke-linecap="butt" stroke-linejoin="round" stroke="rgb(0%, 0%, 0%)" stroke-opacity="0.2" stroke-miterlimit="10" d="M 500.179688 117.4375 L 500.179688 87.332031 "/>
<path fill="none" stroke-width="1.066978" stroke-linecap="butt" stroke-linejoin="round" stroke="rgb(0%, 0%, 0%)" stroke-opacity="0.2" stroke-miterlimit="10" d="M 455.734375 153.496094 L 455.734375 90.636719 "/>
<path fill="none" stroke-width="1.066978" stroke-linecap="butt" stroke-linejoin="round" stroke="rgb(0%, 0%, 0%)" stroke-opacity="0.2" stroke-miterlimit="10" d="M 20.617188 239.523438 L 20.617188 123.003906 "/>
<path fill="none" stroke-width="1.066978" stroke-linecap="butt" stroke-linejoin="round" stroke="rgb(0%, 0%, 0%)" stroke-opacity="0.2" stroke-miterlimit="10" d="M 328.890625 170.679688 L 328.890625 100.074219 "/>
<path fill="none" stroke-width="1.066978" stroke-linecap="butt" stroke-linejoin="round" stroke="rgb(0%, 0%, 0%)" stroke-opacity="0.2" stroke-miterlimit="10" d="M 382.722656 111.808594 L 382.722656 96.066406 "/>
<path fill="none" stroke-width="1.066978" stroke-linecap="butt" stroke-linejoin="round" stroke="rgb(0%, 0%, 0%)" stroke-opacity="0.2" stroke-miterlimit="10" d="M 549.410156 170 L 549.410156 83.667969 "/>
<path fill="none" stroke-width="1.066978" stroke-linecap="butt" stroke-linejoin="round" stroke="rgb(0%, 0%, 0%)" stroke-opacity="0.2" stroke-miterlimit="10" d="M 415.679688 152.542969 L 415.679688 93.617188 "/>
<path fill="none" stroke-width="1.066978" stroke-linecap="butt" stroke-linejoin="round" stroke="rgb(0%, 0%, 0%)" stroke-opacity="0.2" stroke-miterlimit="10" d="M 178.9375 202.859375 L 178.9375 111.226562 "/>
<path fill-rule="nonzero" fill="rgb(18.431373%, 30.980392%, 30.980392%)" fill-opacity="0.901961" stroke-width="0.708661" stroke-linecap="round" stroke-linejoin="round" stroke="rgb(18.431373%, 30.980392%, 30.980392%)" stroke-opacity="0.901961" stroke-miterlimit="10" d="M 372.925781 136.507812 C 372.925781 139.652344 370.378906 142.199219 367.234375 142.199219 C 364.09375 142.199219 361.546875 139.652344 361.546875 136.507812 C 361.546875 133.367188 364.09375 130.820312 367.234375 130.820312 C 370.378906 130.820312 372.925781 133.367188 372.925781 136.507812 "/>
<path fill-rule="nonzero" fill="rgb(18.431373%, 30.980392%, 30.980392%)" fill-opacity="0.901961" stroke-width="0.708661" stroke-linecap="round" stroke-linejoin="round" stroke="rgb(18.431373%, 30.980392%, 30.980392%)" stroke-opacity="0.901961" stroke-miterlimit="10" d="M 195.164062 128.355469 C 195.164062 131.496094 192.617188 134.042969 189.476562 134.042969 C 186.332031 134.042969 183.785156 131.496094 183.785156 128.355469 C 183.785156 125.210938 186.332031 122.664062 189.476562 122.664062 C 192.617188 122.664062 195.164062 125.210938 195.164062 128.355469 "/>
<path fill-rule="nonzero" fill="rgb(18.431373%, 30.980392%, 30.980392%)" fill-opacity="0.901961" stroke-width="0.708661" stroke-linecap="round" stroke-linejoin="round" stroke="rgb(18.431373%, 30.980392%, 30.980392%)" stroke-opacity="0.901961" stroke-miterlimit="10" d="M 451.050781 288.65625 C 451.050781 291.796875 448.503906 294.34375 445.359375 294.34375 C 442.21875 294.34375 439.671875 291.796875 439.671875 288.65625 C 439.671875 285.511719 442.21875 282.964844 445.359375 282.964844 C 448.503906 282.964844 451.050781 285.511719 451.050781 288.65625 "/>
<path fill-rule="nonzero" fill="rgb(18.431373%, 30.980392%, 30.980392%)" fill-opacity="0.901961" stroke-width="0.708661" stroke-linecap="round" stroke-linejoin="round" stroke="rgb(18.431373%, 30.980392%, 30.980392%)" stroke-opacity="0.901961" stroke-miterlimit="10" d="M 395.078125 193.769531 C 395.078125 196.910156 392.53125 199.457031 389.390625 199.457031 C 386.25 199.457031 383.703125 196.910156 383.703125 193.769531 C 383.703125 190.625 386.25 188.078125 389.390625 188.078125 C 392.53125 188.078125 395.078125 190.625 395.078125 193.769531 "/>
<path fill-rule="nonzero" fill="rgb(18.431373%, 30.980392%, 30.980392%)" fill-opacity="0.901961" stroke-width="0.708661" stroke-linecap="round" stroke-linejoin="round" stroke="rgb(18.431373%, 30.980392%, 30.980392%)" stroke-opacity="0.901961" stroke-miterlimit="10" d="M 312.628906 120.355469 C 312.628906 123.496094 310.082031 126.042969 306.941406 126.042969 C 303.800781 126.042969 301.253906 123.496094 301.253906 120.355469 C 301.253906 117.210938 303.800781 114.664062 306.941406 114.664062 C 310.082031 114.664062 312.628906 117.210938 312.628906 120.355469 "/>
<path fill-rule="nonzero" fill="rgb(18.431373%, 30.980392%, 30.980392%)" fill-opacity="0.901961" stroke-width="0.708661" stroke-linecap="round" stroke-linejoin="round" stroke="rgb(18.431373%, 30.980392%, 30.980392%)" stroke-opacity="0.901961" stroke-miterlimit="10" d="M 400.480469 176.675781 C 400.480469 179.816406 397.933594 182.363281 394.792969 182.363281 C 391.652344 182.363281 389.105469 179.816406 389.105469 176.675781 C 389.105469 173.53125 391.652344 170.984375 394.792969 170.984375 C 397.933594 170.984375 400.480469 173.53125 400.480469 176.675781 "/>
<path fill-rule="nonzero" fill="rgb(18.431373%, 30.980392%, 30.980392%)" fill-opacity="0.901961" stroke-width="0.708661" stroke-linecap="round" stroke-linejoin="round" stroke="rgb(18.431373%, 30.980392%, 30.980392%)" stroke-opacity="0.901961" stroke-miterlimit="10" d="M 393.871094 121.535156 C 393.871094 124.679688 391.324219 127.226562 388.179688 127.226562 C 385.039062 127.226562 382.492188 124.679688 382.492188 121.535156 C 382.492188 118.394531 385.039062 115.847656 388.179688 115.847656 C 391.324219 115.847656 393.871094 118.394531 393.871094 121.535156 "/>
<path fill-rule="nonzero" fill="rgb(18.431373%, 30.980392%, 30.980392%)" fill-opacity="0.901961" stroke-width="0.708661" stroke-linecap="round" stroke-linejoin="round" stroke="rgb(18.431373%, 30.980392%, 30.980392%)" stroke-opacity="0.901961" stroke-miterlimit="10" d="M 280.515625 237.347656 C 280.515625 240.488281 277.96875 243.035156 274.824219 243.035156 C 271.683594 243.035156 269.136719 240.488281 269.136719 237.347656 C 269.136719 234.207031 271.683594 231.660156 274.824219 231.660156 C 277.96875 231.660156 280.515625 234.207031 280.515625 237.347656 "/>
<path fill-rule="nonzero" fill="rgb(18.431373%, 30.980392%, 30.980392%)" fill-opacity="0.901961" stroke-width="0.708661" stroke-linecap="round" stroke-linejoin="round" stroke="rgb(18.431373%, 30.980392%, 30.980392%)" stroke-opacity="0.901961" stroke-miterlimit="10" d="M 481.894531 155.695312 C 481.894531 158.835938 479.347656 161.382812 476.203125 161.382812 C 473.0625 161.382812 470.515625 158.835938 470.515625 155.695312 C 470.515625 152.554688 473.0625 150.007812 476.203125 150.007812 C 479.347656 150.007812 481.894531 152.554688 481.894531 155.695312 "/>
<path fill-rule="nonzero" fill="rgb(18.431373%, 30.980392%, 30.980392%)" fill-opacity="0.901961" stroke-width="0.708661" stroke-linecap="round" stroke-linejoin="round" stroke="rgb(18.431373%, 30.980392%, 30.980392%)" stroke-opacity="0.901961" stroke-miterlimit="10" d="M 580.46875 56.03125 C 580.46875 59.171875 577.921875 61.71875 574.777344 61.71875 C 571.636719 61.71875 569.089844 59.171875 569.089844 56.03125 C 569.089844 52.890625 571.636719 50.339844 574.777344 50.339844 C 577.921875 50.339844 580.46875 52.890625 580.46875 56.03125 "/>
<path fill-rule="nonzero" fill="rgb(18.431373%, 30.980392%, 30.980392%)" fill-opacity="0.901961" stroke-width="0.708661" stroke-linecap="round" stroke-linejoin="round" stroke="rgb(18.431373%, 30.980392%, 30.980392%)" stroke-opacity="0.901961" stroke-miterlimit="10" d="M 298.851562 251.464844 C 298.851562 254.605469 296.304688 257.152344 293.164062 257.152344 C 290.023438 257.152344 287.476562 254.605469 287.476562 251.464844 C 287.476562 248.320312 290.023438 245.773438 293.164062 245.773438 C 296.304688 245.773438 298.851562 248.320312 298.851562 251.464844 "/>
<path fill-rule="nonzero" fill="rgb(18.431373%, 30.980392%, 30.980392%)" fill-opacity="0.901961" stroke-width="0.708661" stroke-linecap="round" stroke-linejoin="round" stroke="rgb(18.431373%, 30.980392%, 30.980392%)" stroke-opacity="0.901961" stroke-miterlimit="10" d="M 254.660156 151.277344 C 254.660156 154.421875 252.113281 156.96875 248.972656 156.96875 C 245.832031 156.96875 243.28125 154.421875 243.28125 151.277344 C 243.28125 148.136719 245.832031 145.589844 248.972656 145.589844 C 252.113281 145.589844 254.660156 148.136719 254.660156 151.277344 "/>
<path fill-rule="nonzero" fill="rgb(18.431373%, 30.980392%, 30.980392%)" fill-opacity="0.901961" stroke-width="0.708661" stroke-linecap="round" stroke-linejoin="round" stroke="rgb(18.431373%, 30.980392%, 30.980392%)" stroke-opacity="0.901961" stroke-miterlimit="10" d="M 400.984375 191.957031 C 400.984375 195.097656 398.4375 197.644531 395.292969 197.644531 C 392.152344 197.644531 389.605469 195.097656 389.605469 191.957031 C 389.605469 188.8125 392.152344 186.265625 395.292969 186.265625 C 398.4375 186.265625 400.984375 188.8125 400.984375 191.957031 "/>
<path fill-rule="nonzero" fill="rgb(18.431373%, 30.980392%, 30.980392%)" fill-opacity="0.901961" stroke-width="0.708661" stroke-linecap="round" stroke-linejoin="round" stroke="rgb(18.431373%, 30.980392%, 30.980392%)" stroke-opacity="0.901961" stroke-miterlimit="10" d="M 307.4375 186.46875 C 307.4375 189.613281 304.890625 192.160156 301.746094 192.160156 C 298.605469 192.160156 296.058594 189.613281 296.058594 186.46875 C 296.058594 183.328125 298.605469 180.78125 301.746094 180.78125 C 304.890625 180.78125 307.4375 183.328125 307.4375 186.46875 "/>
<path fill-rule="nonzero" fill="rgb(18.431373%, 30.980392%, 30.980392%)" fill-opacity="0.901961" stroke-width="0.708661" stroke-linecap="round" stroke-linejoin="round" stroke="rgb(18.431373%, 30.980392%, 30.980392%)" stroke-opacity="0.901961" stroke-miterlimit="10" d="M 591.332031 123.355469 C 591.332031 126.496094 588.785156 129.042969 585.644531 129.042969 C 582.5 129.042969 579.953125 126.496094 579.953125 123.355469 C 579.953125 120.210938 582.5 117.664062 585.644531 117.664062 C 588.785156 117.664062 591.332031 120.210938 591.332031 123.355469 "/>
<path fill-rule="nonzero" fill="rgb(18.431373%, 30.980392%, 30.980392%)" fill-opacity="0.901961" stroke-width="0.708661" stroke-linecap="round" stroke-linejoin="round" stroke="rgb(18.431373%, 30.980392%, 30.980392%)" stroke-opacity="0.901961" stroke-miterlimit="10" d="M 296.265625 94.503906 C 296.265625 97.644531 293.71875 100.191406 290.578125 100.191406 C 287.433594 100.191406 284.886719 97.644531 284.886719 94.503906 C 284.886719 91.359375 287.433594 88.8125 290.578125 88.8125 C 293.71875 88.8125 296.265625 91.359375 296.265625 94.503906 "/>
<path fill-rule="nonzero" fill="rgb(18.431373%, 30.980392%, 30.980392%)" fill-opacity="0.901961" stroke-width="0.708661" stroke-linecap="round" stroke-linejoin="round" stroke="rgb(18.431373%, 30.980392%, 30.980392%)" stroke-opacity="0.901961" stroke-miterlimit="10" d="M 469.011719 120.125 C 469.011719 123.265625 466.464844 125.8125 463.320312 125.8125 C 460.179688 125.8125 457.632812 123.265625 457.632812 120.125 C 457.632812 116.980469 460.179688 114.433594 463.320312 114.433594 C 466.464844 114.433594 469.011719 116.980469 469.011719 120.125 "/>
<path fill-rule="nonzero" fill="rgb(18.431373%, 30.980392%, 30.980392%)" fill-opacity="0.901961" stroke-width="0.708661" stroke-linecap="round" stroke-linejoin="round" stroke="rgb(18.431373%, 30.980392%, 30.980392%)" stroke-opacity="0.901961" stroke-miterlimit="10" d="M 566.316406 179.8125 C 566.316406 182.953125 563.769531 185.5 560.628906 185.5 C 557.484375 185.5 554.9375 182.953125 554.9375 179.8125 C 554.9375 176.671875 557.484375 174.121094 560.628906 174.121094 C 563.769531 174.121094 566.316406 176.671875 566.316406 179.8125 "/>
<path fill-rule="nonzero" fill="rgb(18.431373%, 30.980392%, 30.980392%)" fill-opacity="0.901961" stroke-width="0.708661" stroke-linecap="round" stroke-linejoin="round" stroke="rgb(18.431373%, 30.980392%, 30.980392%)" stroke-opacity="0.901961" stroke-miterlimit="10" d="M 726.671875 68.675781 C 726.671875 71.816406 724.125 74.363281 720.980469 74.363281 C 717.839844 74.363281 715.292969 71.816406 715.292969 68.675781 C 715.292969 65.53125 717.839844 62.984375 720.980469 62.984375 C 724.125 62.984375 726.671875 65.53125 726.671875 68.675781 "/>
<path fill-rule="nonzero" fill="rgb(18.431373%, 30.980392%, 30.980392%)" fill-opacity="0.901961" stroke-width="0.708661" stroke-linecap="round" stroke-linejoin="round" stroke="rgb(18.431373%, 30.980392%, 30.980392%)" stroke-opacity="0.901961" stroke-miterlimit="10" d="M 423.636719 183.804688 C 423.636719 186.945312 421.089844 189.492188 417.945312 189.492188 C 414.804688 189.492188 412.257812 186.945312 412.257812 183.804688 C 412.257812 180.660156 414.804688 178.113281 417.945312 178.113281 C 421.089844 178.113281 423.636719 180.660156 423.636719 183.804688 "/>
<path fill-rule="nonzero" fill="rgb(18.431373%, 30.980392%, 30.980392%)" fill-opacity="0.901961" stroke-width="0.708661" stroke-linecap="round" stroke-linejoin="round" stroke="rgb(18.431373%, 30.980392%, 30.980392%)" stroke-opacity="0.901961" stroke-miterlimit="10" d="M 613.308594 145.660156 C 613.308594 148.800781 610.761719 151.351562 607.621094 151.351562 C 604.480469 151.351562 601.929688 148.800781 601.929688 145.660156 C 601.929688 142.519531 604.480469 139.972656 607.621094 139.972656 C 610.761719 139.972656 613.308594 142.519531 613.308594 145.660156 "/>
<path fill-rule="nonzero" fill="rgb(18.431373%, 30.980392%, 30.980392%)" fill-opacity="0.901961" stroke-width="0.708661" stroke-linecap="round" stroke-linejoin="round" stroke="rgb(18.431373%, 30.980392%, 30.980392%)" stroke-opacity="0.901961" stroke-miterlimit="10" d="M 448.113281 197.675781 C 448.113281 200.816406 445.566406 203.363281 442.425781 203.363281 C 439.285156 203.363281 436.738281 200.816406 436.738281 197.675781 C 436.738281 194.53125 439.285156 191.984375 442.425781 191.984375 C 445.566406 191.984375 448.113281 194.53125 448.113281 197.675781 "/>
<path fill-rule="nonzero" fill="rgb(18.431373%, 30.980392%, 30.980392%)" fill-opacity="0.901961" stroke-width="0.708661" stroke-linecap="round" stroke-linejoin="round" stroke="rgb(18.431373%, 30.980392%, 30.980392%)" stroke-opacity="0.901961" stroke-miterlimit="10" d="M 388.589844 185.386719 C 388.589844 188.527344 386.042969 191.074219 382.902344 191.074219 C 379.757812 191.074219 377.210938 188.527344 377.210938 185.386719 C 377.210938 182.242188 379.757812 179.695312 382.902344 179.695312 C 386.042969 179.695312 388.589844 182.242188 388.589844 185.386719 "/>
<path fill-rule="nonzero" fill="rgb(18.431373%, 30.980392%, 30.980392%)" fill-opacity="0.901961" stroke-width="0.708661" stroke-linecap="round" stroke-linejoin="round" stroke="rgb(18.431373%, 30.980392%, 30.980392%)" stroke-opacity="0.901961" stroke-miterlimit="10" d="M 423.835938 171.046875 C 423.835938 174.191406 421.289062 176.738281 418.148438 176.738281 C 415.003906 176.738281 412.457031 174.191406 412.457031 171.046875 C 412.457031 167.90625 415.003906 165.359375 418.148438 165.359375 C 421.289062 165.359375 423.835938 167.90625 423.835938 171.046875 "/>
<path fill-rule="nonzero" fill="rgb(18.431373%, 30.980392%, 30.980392%)" fill-opacity="0.901961" stroke-width="0.708661" stroke-linecap="round" stroke-linejoin="round" stroke="rgb(18.431373%, 30.980392%, 30.980392%)" stroke-opacity="0.901961" stroke-miterlimit="10" d="M 568.722656 151.941406 C 568.722656 155.082031 566.175781 157.628906 563.035156 157.628906 C 559.890625 157.628906 557.34375 155.082031 557.34375 151.941406 C 557.34375 148.800781 559.890625 146.253906 563.035156 146.253906 C 566.175781 146.253906 568.722656 148.800781 568.722656 151.941406 "/>
<path fill-rule="nonzero" fill="rgb(18.431373%, 30.980392%, 30.980392%)" fill-opacity="0.901961" stroke-width="0.708661" stroke-linecap="round" stroke-linejoin="round" stroke="rgb(18.431373%, 30.980392%, 30.980392%)" stroke-opacity="0.901961" stroke-miterlimit="10" d="M 406.457031 164.535156 C 406.457031 167.679688 403.910156 170.226562 400.765625 170.226562 C 397.625 170.226562 395.078125 167.679688 395.078125 164.535156 C 395.078125 161.394531 397.625 158.847656 400.765625 158.847656 C 403.910156 158.847656 406.457031 161.394531 406.457031 164.535156 "/>
<path fill-rule="nonzero" fill="rgb(18.431373%, 30.980392%, 30.980392%)" fill-opacity="0.901961" stroke-width="0.708661" stroke-linecap="round" stroke-linejoin="round" stroke="rgb(18.431373%, 30.980392%, 30.980392%)" stroke-opacity="0.901961" stroke-miterlimit="10" d="M 358.414062 119.105469 C 358.414062 122.246094 355.867188 124.792969 352.726562 124.792969 C 349.582031 124.792969 347.035156 122.246094 347.035156 119.105469 C 347.035156 115.960938 349.582031 113.414062 352.726562 113.414062 C 355.867188 113.414062 358.414062 115.960938 358.414062 119.105469 "/>
<path fill-rule="nonzero" fill="rgb(18.431373%, 30.980392%, 30.980392%)" fill-opacity="0.901961" stroke-width="0.708661" stroke-linecap="round" stroke-linejoin="round" stroke="rgb(18.431373%, 30.980392%, 30.980392%)" stroke-opacity="0.901961" stroke-miterlimit="10" d="M 263.980469 173.199219 C 263.980469 176.34375 261.433594 178.890625 258.289062 178.890625 C 255.148438 178.890625 252.601562 176.34375 252.601562 173.199219 C 252.601562 170.058594 255.148438 167.511719 258.289062 167.511719 C 261.433594 167.511719 263.980469 170.058594 263.980469 173.199219 "/>
<path fill-rule="nonzero" fill="rgb(18.431373%, 30.980392%, 30.980392%)" fill-opacity="0.901961" stroke-width="0.708661" stroke-linecap="round" stroke-linejoin="round" stroke="rgb(18.431373%, 30.980392%, 30.980392%)" stroke-opacity="0.901961" stroke-miterlimit="10" d="M 125.453125 255.273438 C 125.453125 258.414062 122.90625 260.960938 119.765625 260.960938 C 116.621094 260.960938 114.074219 258.414062 114.074219 255.273438 C 114.074219 252.128906 116.621094 249.582031 119.765625 249.582031 C 122.90625 249.582031 125.453125 252.128906 125.453125 255.273438 "/>
<path fill-rule="nonzero" fill="rgb(18.431373%, 30.980392%, 30.980392%)" fill-opacity="0.901961" stroke-width="0.708661" stroke-linecap="round" stroke-linejoin="round" stroke="rgb(18.431373%, 30.980392%, 30.980392%)" stroke-opacity="0.901961" stroke-miterlimit="10" d="M 542.078125 40.261719 C 542.078125 43.40625 539.53125 45.953125 536.390625 45.953125 C 533.246094 45.953125 530.699219 43.40625 530.699219 40.261719 C 530.699219 37.121094 533.246094 34.574219 536.390625 34.574219 C 539.53125 34.574219 542.078125 37.121094 542.078125 40.261719 "/>
<path fill-rule="nonzero" fill="rgb(18.431373%, 30.980392%, 30.980392%)" fill-opacity="0.901961" stroke-width="0.708661" stroke-linecap="round" stroke-linejoin="round" stroke="rgb(18.431373%, 30.980392%, 30.980392%)" stroke-opacity="0.901961" stroke-miterlimit="10" d="M 288.148438 162.058594 C 288.148438 165.199219 285.601562 167.746094 282.457031 167.746094 C 279.316406 167.746094 276.769531 165.199219 276.769531 162.058594 C 276.769531 158.914062 279.316406 156.367188 282.457031 156.367188 C 285.601562 156.367188 288.148438 158.914062 288.148438 162.058594 "/>
<path fill-rule="nonzero" fill="rgb(18.431373%, 30.980392%, 30.980392%)" fill-opacity="0.901961" stroke-width="0.708661" stroke-linecap="round" stroke-linejoin="round" stroke="rgb(18.431373%, 30.980392%, 30.980392%)" stroke-opacity="0.901961" stroke-miterlimit="10" d="M 437.246094 207.320312 C 437.246094 210.464844 434.699219 213.011719 431.554688 213.011719 C 428.414062 213.011719 425.867188 210.464844 425.867188 207.320312 C 425.867188 204.179688 428.414062 201.632812 431.554688 201.632812 C 434.699219 201.632812 437.246094 204.179688 437.246094 207.320312 "/>
<path fill-rule="nonzero" fill="rgb(18.431373%, 30.980392%, 30.980392%)" fill-opacity="0.901961" stroke-width="0.708661" stroke-linecap="round" stroke-linejoin="round" stroke="rgb(18.431373%, 30.980392%, 30.980392%)" stroke-opacity="0.901961" stroke-miterlimit="10" d="M 484.007812 120.128906 C 484.007812 123.269531 481.460938 125.816406 478.320312 125.816406 C 475.175781 125.816406 472.628906 123.269531 472.628906 120.128906 C 472.628906 116.988281 475.175781 114.441406 478.320312 114.441406 C 481.460938 114.441406 484.007812 116.988281 484.007812 120.128906 "/>
<path fill-rule="nonzero" fill="rgb(18.431373%, 30.980392%, 30.980392%)" fill-opacity="0.901961" stroke-width="0.708661" stroke-linecap="round" stroke-linejoin="round" stroke="rgb(18.431373%, 30.980392%, 30.980392%)" stroke-opacity="0.901961" stroke-miterlimit="10" d="M 510.3125 121.160156 C 510.3125 124.300781 507.765625 126.847656 504.621094 126.847656 C 501.480469 126.847656 498.933594 124.300781 498.933594 121.160156 C 498.933594 118.015625 501.480469 115.46875 504.621094 115.46875 C 507.765625 115.46875 510.3125 118.015625 510.3125 121.160156 "/>
<path fill-rule="nonzero" fill="rgb(18.431373%, 30.980392%, 30.980392%)" fill-opacity="0.901961" stroke-width="0.708661" stroke-linecap="round" stroke-linejoin="round" stroke="rgb(18.431373%, 30.980392%, 30.980392%)" stroke-opacity="0.901961" stroke-miterlimit="10" d="M 252.34375 237.335938 C 252.34375 240.476562 249.796875 243.023438 246.652344 243.023438 C 243.511719 243.023438 240.964844 240.476562 240.964844 237.335938 C 240.964844 234.195312 243.511719 231.644531 246.652344 231.644531 C 249.796875 231.644531 252.34375 234.195312 252.34375 237.335938 "/>
<path fill-rule="nonzero" fill="rgb(18.431373%, 30.980392%, 30.980392%)" fill-opacity="0.901961" stroke-width="0.708661" stroke-linecap="round" stroke-linejoin="round" stroke="rgb(18.431373%, 30.980392%, 30.980392%)" stroke-opacity="0.901961" stroke-miterlimit="10" d="M 653.820312 13.746094 C 653.820312 16.886719 651.273438 19.433594 648.132812 19.433594 C 644.988281 19.433594 642.441406 16.886719 642.441406 13.746094 C 642.441406 10.601562 644.988281 8.054688 648.132812 8.054688 C 651.273438 8.054688 653.820312 10.601562 653.820312 13.746094 "/>
<path fill-rule="nonzero" fill="rgb(18.431373%, 30.980392%, 30.980392%)" fill-opacity="0.901961" stroke-width="0.708661" stroke-linecap="round" stroke-linejoin="round" stroke="rgb(18.431373%, 30.980392%, 30.980392%)" stroke-opacity="0.901961" stroke-miterlimit="10" d="M 655.328125 88.535156 C 655.328125 91.679688 652.78125 94.226562 649.636719 94.226562 C 646.496094 94.226562 643.949219 91.679688 643.949219 88.535156 C 643.949219 85.394531 646.496094 82.847656 649.636719 82.847656 C 652.78125 82.847656 655.328125 85.394531 655.328125 88.535156 "/>
<path fill-rule="nonzero" fill="rgb(18.431373%, 30.980392%, 30.980392%)" fill-opacity="0.901961" stroke-width="0.708661" stroke-linecap="round" stroke-linejoin="round" stroke="rgb(18.431373%, 30.980392%, 30.980392%)" stroke-opacity="0.901961" stroke-miterlimit="10" d="M 579.910156 95.089844 C 579.910156 98.230469 577.363281 100.777344 574.21875 100.777344 C 571.078125 100.777344 568.53125 98.230469 568.53125 95.089844 C 568.53125 91.945312 571.078125 89.398438 574.21875 89.398438 C 577.363281 89.398438 579.910156 91.945312 579.910156 95.089844 "/>
<path fill-rule="nonzero" fill="rgb(18.431373%, 30.980392%, 30.980392%)" fill-opacity="0.901961" stroke-width="0.708661" stroke-linecap="round" stroke-linejoin="round" stroke="rgb(18.431373%, 30.980392%, 30.980392%)" stroke-opacity="0.901961" stroke-miterlimit="10" d="M 477.359375 164.339844 C 477.359375 167.480469 474.8125 170.027344 471.667969 170.027344 C 468.527344 170.027344 465.980469 167.480469 465.980469 164.339844 C 465.980469 161.195312 468.527344 158.648438 471.667969 158.648438 C 474.8125 158.648438 477.359375 161.195312 477.359375 164.339844 "/>
<path fill-rule="nonzero" fill="rgb(18.431373%, 30.980392%, 30.980392%)" fill-opacity="0.901961" stroke-width="0.708661" stroke-linecap="round" stroke-linejoin="round" stroke="rgb(18.431373%, 30.980392%, 30.980392%)" stroke-opacity="0.901961" stroke-miterlimit="10" d="M 391.390625 144.878906 C 391.390625 148.019531 388.84375 150.566406 385.703125 150.566406 C 382.558594 150.566406 380.011719 148.019531 380.011719 144.878906 C 380.011719 141.734375 382.558594 139.1875 385.703125 139.1875 C 388.84375 139.1875 391.390625 141.734375 391.390625 144.878906 "/>
<path fill-rule="nonzero" fill="rgb(18.431373%, 30.980392%, 30.980392%)" fill-opacity="0.901961" stroke-width="0.708661" stroke-linecap="round" stroke-linejoin="round" stroke="rgb(18.431373%, 30.980392%, 30.980392%)" stroke-opacity="0.901961" stroke-miterlimit="10" d="M 478.5625 124.324219 C 478.5625 127.464844 476.015625 130.011719 472.871094 130.011719 C 469.730469 130.011719 467.183594 127.464844 467.183594 124.324219 C 467.183594 121.179688 469.730469 118.632812 472.871094 118.632812 C 476.015625 118.632812 478.5625 121.179688 478.5625 124.324219 "/>
<path fill-rule="nonzero" fill="rgb(18.431373%, 30.980392%, 30.980392%)" fill-opacity="0.901961" stroke-width="0.708661" stroke-linecap="round" stroke-linejoin="round" stroke="rgb(18.431373%, 30.980392%, 30.980392%)" stroke-opacity="0.901961" stroke-miterlimit="10" d="M 509.246094 99.972656 C 509.246094 103.113281 506.699219 105.664062 503.554688 105.664062 C 500.414062 105.664062 497.867188 103.113281 497.867188 99.972656 C 497.867188 96.832031 500.414062 94.285156 503.554688 94.285156 C 506.699219 94.285156 509.246094 96.832031 509.246094 99.972656 "/>
<path fill-rule="nonzero" fill="rgb(18.431373%, 30.980392%, 30.980392%)" fill-opacity="0.901961" stroke-width="0.708661" stroke-linecap="round" stroke-linejoin="round" stroke="rgb(18.431373%, 30.980392%, 30.980392%)" stroke-opacity="0.901961" stroke-miterlimit="10" d="M 553.824219 166.003906 C 553.824219 169.148438 551.277344 171.695312 548.136719 171.695312 C 544.992188 171.695312 542.445312 169.148438 542.445312 166.003906 C 542.445312 162.863281 544.992188 160.316406 548.136719 160.316406 C 551.277344 160.316406 553.824219 162.863281 553.824219 166.003906 "/>
<path fill-rule="nonzero" fill="rgb(18.431373%, 30.980392%, 30.980392%)" fill-opacity="0.901961" stroke-width="0.708661" stroke-linecap="round" stroke-linejoin="round" stroke="rgb(18.431373%, 30.980392%, 30.980392%)" stroke-opacity="0.901961" stroke-miterlimit="10" d="M 329.335938 162.386719 C 329.335938 165.53125 326.789062 168.078125 323.648438 168.078125 C 320.507812 168.078125 317.960938 165.53125 317.960938 162.386719 C 317.960938 159.246094 320.507812 156.699219 323.648438 156.699219 C 326.789062 156.699219 329.335938 159.246094 329.335938 162.386719 "/>
<path fill-rule="nonzero" fill="rgb(18.431373%, 30.980392%, 30.980392%)" fill-opacity="0.901961" stroke-width="0.708661" stroke-linecap="round" stroke-linejoin="round" stroke="rgb(18.431373%, 30.980392%, 30.980392%)" stroke-opacity="0.901961" stroke-miterlimit="10" d="M 338.980469 184.183594 C 338.980469 187.324219 336.433594 189.871094 333.292969 189.871094 C 330.148438 189.871094 327.601562 187.324219 327.601562 184.183594 C 327.601562 181.042969 330.148438 178.492188 333.292969 178.492188 C 336.433594 178.492188 338.980469 181.042969 338.980469 184.183594 "/>
<path fill-rule="nonzero" fill="rgb(18.431373%, 30.980392%, 30.980392%)" fill-opacity="0.901961" stroke-width="0.708661" stroke-linecap="round" stroke-linejoin="round" stroke="rgb(18.431373%, 30.980392%, 30.980392%)" stroke-opacity="0.901961" stroke-miterlimit="10" d="M 358.09375 186.765625 C 358.09375 189.910156 355.546875 192.457031 352.40625 192.457031 C 349.261719 192.457031 346.714844 189.910156 346.714844 186.765625 C 346.714844 183.625 349.261719 181.078125 352.40625 181.078125 C 355.546875 181.078125 358.09375 183.625 358.09375 186.765625 "/>
<path fill-rule="nonzero" fill="rgb(18.431373%, 30.980392%, 30.980392%)" fill-opacity="0.901961" stroke-width="0.708661" stroke-linecap="round" stroke-linejoin="round" stroke="rgb(18.431373%, 30.980392%, 30.980392%)" stroke-opacity="0.901961" stroke-miterlimit="10" d="M 239.8125 158.0625 C 239.8125 161.203125 237.265625 163.75 234.125 163.75 C 230.984375 163.75 228.4375 161.203125 228.4375 158.0625 C 228.4375 154.917969 230.984375 152.371094 234.125 152.371094 C 237.265625 152.371094 239.8125 154.917969 239.8125 158.0625 "/>
<path fill-rule="nonzero" fill="rgb(18.431373%, 30.980392%, 30.980392%)" fill-opacity="0.901961" stroke-width="0.708661" stroke-linecap="round" stroke-linejoin="round" stroke="rgb(18.431373%, 30.980392%, 30.980392%)" stroke-opacity="0.901961" stroke-miterlimit="10" d="M 465.550781 90.320312 C 465.550781 93.464844 463.003906 96.011719 459.863281 96.011719 C 456.722656 96.011719 454.175781 93.464844 454.175781 90.320312 C 454.175781 87.179688 456.722656 84.632812 459.863281 84.632812 C 463.003906 84.632812 465.550781 87.179688 465.550781 90.320312 "/>
<path fill-rule="nonzero" fill="rgb(18.431373%, 30.980392%, 30.980392%)" fill-opacity="0.901961" stroke-width="0.708661" stroke-linecap="round" stroke-linejoin="round" stroke="rgb(18.431373%, 30.980392%, 30.980392%)" stroke-opacity="0.901961" stroke-miterlimit="10" d="M 473.097656 147.722656 C 473.097656 150.867188 470.546875 153.414062 467.40625 153.414062 C 464.265625 153.414062 461.71875 150.867188 461.71875 147.722656 C 461.71875 144.582031 464.265625 142.035156 467.40625 142.035156 C 470.546875 142.035156 473.097656 144.582031 473.097656 147.722656 "/>
<path fill-rule="nonzero" fill="rgb(18.431373%, 30.980392%, 30.980392%)" fill-opacity="0.901961" stroke-width="0.708661" stroke-linecap="round" stroke-linejoin="round" stroke="rgb(18.431373%, 30.980392%, 30.980392%)" stroke-opacity="0.901961" stroke-miterlimit="10" d="M 619.757812 136.625 C 619.757812 139.769531 617.210938 142.316406 614.066406 142.316406 C 610.925781 142.316406 608.378906 139.769531 608.378906 136.625 C 608.378906 133.484375 610.925781 130.9375 614.066406 130.9375 C 617.210938 130.9375 619.757812 133.484375 619.757812 136.625 "/>
<path fill-rule="nonzero" fill="rgb(18.431373%, 30.980392%, 30.980392%)" fill-opacity="0.901961" stroke-width="0.708661" stroke-linecap="round" stroke-linejoin="round" stroke="rgb(18.431373%, 30.980392%, 30.980392%)" stroke-opacity="0.901961" stroke-miterlimit="10" d="M 310.398438 161.589844 C 310.398438 164.730469 307.851562 167.277344 304.710938 167.277344 C 301.566406 167.277344 299.019531 164.730469 299.019531 161.589844 C 299.019531 158.445312 301.566406 155.898438 304.710938 155.898438 C 307.851562 155.898438 310.398438 158.445312 310.398438 161.589844 "/>
<path fill-rule="nonzero" fill="rgb(18.431373%, 30.980392%, 30.980392%)" fill-opacity="0.901961" stroke-width="0.708661" stroke-linecap="round" stroke-linejoin="round" stroke="rgb(18.431373%, 30.980392%, 30.980392%)" stroke-opacity="0.901961" stroke-miterlimit="10" d="M 236.582031 220.90625 C 236.582031 224.046875 234.035156 226.59375 230.890625 226.59375 C 227.75 226.59375 225.203125 224.046875 225.203125 220.90625 C 225.203125 217.765625 227.75 215.21875 230.890625 215.21875 C 234.035156 215.21875 236.582031 217.765625 236.582031 220.90625 "/>
<path fill-rule="nonzero" fill="rgb(18.431373%, 30.980392%, 30.980392%)" fill-opacity="0.901961" stroke-width="0.708661" stroke-linecap="round" stroke-linejoin="round" stroke="rgb(18.431373%, 30.980392%, 30.980392%)" stroke-opacity="0.901961" stroke-miterlimit="10" d="M 546.347656 143.894531 C 546.347656 147.035156 543.800781 149.582031 540.660156 149.582031 C 537.515625 149.582031 534.96875 147.035156 534.96875 143.894531 C 534.96875 140.75 537.515625 138.203125 540.660156 138.203125 C 543.800781 138.203125 546.347656 140.75 546.347656 143.894531 "/>
<path fill-rule="nonzero" fill="rgb(18.431373%, 30.980392%, 30.980392%)" fill-opacity="0.901961" stroke-width="0.708661" stroke-linecap="round" stroke-linejoin="round" stroke="rgb(18.431373%, 30.980392%, 30.980392%)" stroke-opacity="0.901961" stroke-miterlimit="10" d="M 471.605469 189.8125 C 471.605469 192.953125 469.058594 195.5 465.914062 195.5 C 462.773438 195.5 460.226562 192.953125 460.226562 189.8125 C 460.226562 186.667969 462.773438 184.121094 465.914062 184.121094 C 469.058594 184.121094 471.605469 186.667969 471.605469 189.8125 "/>
<path fill-rule="nonzero" fill="rgb(18.431373%, 30.980392%, 30.980392%)" fill-opacity="0.901961" stroke-width="0.708661" stroke-linecap="round" stroke-linejoin="round" stroke="rgb(18.431373%, 30.980392%, 30.980392%)" stroke-opacity="0.901961" stroke-miterlimit="10" d="M 300.894531 207.550781 C 300.894531 210.691406 298.347656 213.238281 295.207031 213.238281 C 292.0625 213.238281 289.515625 210.691406 289.515625 207.550781 C 289.515625 204.40625 292.0625 201.859375 295.207031 201.859375 C 298.347656 201.859375 300.894531 204.40625 300.894531 207.550781 "/>
<path fill-rule="nonzero" fill="rgb(18.431373%, 30.980392%, 30.980392%)" fill-opacity="0.901961" stroke-width="0.708661" stroke-linecap="round" stroke-linejoin="round" stroke="rgb(18.431373%, 30.980392%, 30.980392%)" stroke-opacity="0.901961" stroke-miterlimit="10" d="M 455.339844 165.023438 C 455.339844 168.164062 452.792969 170.710938 449.652344 170.710938 C 446.507812 170.710938 443.960938 168.164062 443.960938 165.023438 C 443.960938 161.878906 446.507812 159.332031 449.652344 159.332031 C 452.792969 159.332031 455.339844 161.878906 455.339844 165.023438 "/>
<path fill-rule="nonzero" fill="rgb(18.431373%, 30.980392%, 30.980392%)" fill-opacity="0.901961" stroke-width="0.708661" stroke-linecap="round" stroke-linejoin="round" stroke="rgb(18.431373%, 30.980392%, 30.980392%)" stroke-opacity="0.901961" stroke-miterlimit="10" d="M 533.070312 74.335938 C 533.070312 77.476562 530.523438 80.023438 527.382812 80.023438 C 524.238281 80.023438 521.691406 77.476562 521.691406 74.335938 C 521.691406 71.195312 524.238281 68.648438 527.382812 68.648438 C 530.523438 68.648438 533.070312 71.195312 533.070312 74.335938 "/>
<path fill-rule="nonzero" fill="rgb(18.431373%, 30.980392%, 30.980392%)" fill-opacity="0.901961" stroke-width="0.708661" stroke-linecap="round" stroke-linejoin="round" stroke="rgb(18.431373%, 30.980392%, 30.980392%)" stroke-opacity="0.901961" stroke-miterlimit="10" d="M 310.242188 111.070312 C 310.242188 114.214844 307.695312 116.761719 304.554688 116.761719 C 301.414062 116.761719 298.867188 114.214844 298.867188 111.070312 C 298.867188 107.929688 301.414062 105.382812 304.554688 105.382812 C 307.695312 105.382812 310.242188 107.929688 310.242188 111.070312 "/>
<path fill-rule="nonzero" fill="rgb(18.431373%, 30.980392%, 30.980392%)" fill-opacity="0.901961" stroke-width="0.708661" stroke-linecap="round" stroke-linejoin="round" stroke="rgb(18.431373%, 30.980392%, 30.980392%)" stroke-opacity="0.901961" stroke-miterlimit="10" d="M 594.496094 113.164062 C 594.496094 116.308594 591.949219 118.855469 588.804688 118.855469 C 585.664062 118.855469 583.117188 116.308594 583.117188 113.164062 C 583.117188 110.023438 585.664062 107.476562 588.804688 107.476562 C 591.949219 107.476562 594.496094 110.023438 594.496094 113.164062 "/>
<path fill-rule="nonzero" fill="rgb(18.431373%, 30.980392%, 30.980392%)" fill-opacity="0.901961" stroke-width="0.708661" stroke-linecap="round" stroke-linejoin="round" stroke="rgb(18.431373%, 30.980392%, 30.980392%)" stroke-opacity="0.901961" stroke-miterlimit="10" d="M 432.660156 165.523438 C 432.660156 168.667969 430.113281 171.214844 426.972656 171.214844 C 423.828125 171.214844 421.28125 168.667969 421.28125 165.523438 C 421.28125 162.382812 423.828125 159.835938 426.972656 159.835938 C 430.113281 159.835938 432.660156 162.382812 432.660156 165.523438 "/>
<path fill-rule="nonzero" fill="rgb(18.431373%, 30.980392%, 30.980392%)" fill-opacity="0.901961" stroke-width="0.708661" stroke-linecap="round" stroke-linejoin="round" stroke="rgb(18.431373%, 30.980392%, 30.980392%)" stroke-opacity="0.901961" stroke-miterlimit="10" d="M 43.34375 263.941406 C 43.34375 267.082031 40.796875 269.628906 37.652344 269.628906 C 34.511719 269.628906 31.964844 267.082031 31.964844 263.941406 C 31.964844 260.796875 34.511719 258.25 37.652344 258.25 C 40.796875 258.25 43.34375 260.796875 43.34375 263.941406 "/>
<path fill-rule="nonzero" fill="rgb(18.431373%, 30.980392%, 30.980392%)" fill-opacity="0.901961" stroke-width="0.708661" stroke-linecap="round" stroke-linejoin="round" stroke="rgb(18.431373%, 30.980392%, 30.980392%)" stroke-opacity="0.901961" stroke-miterlimit="10" d="M 76.835938 254.980469 C 76.835938 258.125 74.289062 260.671875 71.144531 260.671875 C 68.003906 260.671875 65.457031 258.125 65.457031 254.980469 C 65.457031 251.839844 68.003906 249.292969 71.144531 249.292969 C 74.289062 249.292969 76.835938 251.839844 76.835938 254.980469 "/>
<path fill-rule="nonzero" fill="rgb(18.431373%, 30.980392%, 30.980392%)" fill-opacity="0.901961" stroke-width="0.708661" stroke-linecap="round" stroke-linejoin="round" stroke="rgb(18.431373%, 30.980392%, 30.980392%)" stroke-opacity="0.901961" stroke-miterlimit="10" d="M 442.652344 121.796875 C 442.652344 124.941406 440.101562 127.488281 436.960938 127.488281 C 433.820312 127.488281 431.273438 124.941406 431.273438 121.796875 C 431.273438 118.65625 433.820312 116.109375 436.960938 116.109375 C 440.101562 116.109375 442.652344 118.65625 442.652344 121.796875 "/>
<path fill-rule="nonzero" fill="rgb(18.431373%, 30.980392%, 30.980392%)" fill-opacity="0.901961" stroke-width="0.708661" stroke-linecap="round" stroke-linejoin="round" stroke="rgb(18.431373%, 30.980392%, 30.980392%)" stroke-opacity="0.901961" stroke-miterlimit="10" d="M 295.460938 135.316406 C 295.460938 138.460938 292.914062 141.007812 289.769531 141.007812 C 286.628906 141.007812 284.082031 138.460938 284.082031 135.316406 C 284.082031 132.175781 286.628906 129.628906 289.769531 129.628906 C 292.914062 129.628906 295.460938 132.175781 295.460938 135.316406 "/>
<path fill-rule="nonzero" fill="rgb(18.431373%, 30.980392%, 30.980392%)" fill-opacity="0.901961" stroke-width="0.708661" stroke-linecap="round" stroke-linejoin="round" stroke="rgb(18.431373%, 30.980392%, 30.980392%)" stroke-opacity="0.901961" stroke-miterlimit="10" d="M 337.667969 189.34375 C 337.667969 192.484375 335.121094 195.03125 331.980469 195.03125 C 328.835938 195.03125 326.289062 192.484375 326.289062 189.34375 C 326.289062 186.203125 328.835938 183.65625 331.980469 183.65625 C 335.121094 183.65625 337.667969 186.203125 337.667969 189.34375 "/>
<path fill-rule="nonzero" fill="rgb(18.431373%, 30.980392%, 30.980392%)" fill-opacity="0.901961" stroke-width="0.708661" stroke-linecap="round" stroke-linejoin="round" stroke="rgb(18.431373%, 30.980392%, 30.980392%)" stroke-opacity="0.901961" stroke-miterlimit="10" d="M 413.355469 103.765625 C 413.355469 106.90625 410.808594 109.453125 407.667969 109.453125 C 404.523438 109.453125 401.976562 106.90625 401.976562 103.765625 C 401.976562 100.621094 404.523438 98.074219 407.667969 98.074219 C 410.808594 98.074219 413.355469 100.621094 413.355469 103.765625 "/>
<path fill-rule="nonzero" fill="rgb(18.431373%, 30.980392%, 30.980392%)" fill-opacity="0.901961" stroke-width="0.708661" stroke-linecap="round" stroke-linejoin="round" stroke="rgb(18.431373%, 30.980392%, 30.980392%)" stroke-opacity="0.901961" stroke-miterlimit="10" d="M 377.429688 162.523438 C 377.429688 165.664062 374.882812 168.210938 371.742188 168.210938 C 368.601562 168.210938 366.050781 165.664062 366.050781 162.523438 C 366.050781 159.378906 368.601562 156.832031 371.742188 156.832031 C 374.882812 156.832031 377.429688 159.378906 377.429688 162.523438 "/>
<path fill-rule="nonzero" fill="rgb(18.431373%, 30.980392%, 30.980392%)" fill-opacity="0.901961" stroke-width="0.708661" stroke-linecap="round" stroke-linejoin="round" stroke="rgb(18.431373%, 30.980392%, 30.980392%)" stroke-opacity="0.901961" stroke-miterlimit="10" d="M 285.050781 235.667969 C 285.050781 238.808594 282.503906 241.359375 279.359375 241.359375 C 276.21875 241.359375 273.671875 238.808594 273.671875 235.667969 C 273.671875 232.527344 276.21875 229.980469 279.359375 229.980469 C 282.503906 229.980469 285.050781 232.527344 285.050781 235.667969 "/>
<path fill-rule="nonzero" fill="rgb(18.431373%, 30.980392%, 30.980392%)" fill-opacity="0.901961" stroke-width="0.708661" stroke-linecap="round" stroke-linejoin="round" stroke="rgb(18.431373%, 30.980392%, 30.980392%)" stroke-opacity="0.901961" stroke-miterlimit="10" d="M 244.730469 194.003906 C 244.730469 197.144531 242.183594 199.691406 239.042969 199.691406 C 235.898438 199.691406 233.351562 197.144531 233.351562 194.003906 C 233.351562 190.859375 235.898438 188.3125 239.042969 188.3125 C 242.183594 188.3125 244.730469 190.859375 244.730469 194.003906 "/>
<path fill-rule="nonzero" fill="rgb(18.431373%, 30.980392%, 30.980392%)" fill-opacity="0.901961" stroke-width="0.708661" stroke-linecap="round" stroke-linejoin="round" stroke="rgb(18.431373%, 30.980392%, 30.980392%)" stroke-opacity="0.901961" stroke-miterlimit="10" d="M 347.484375 157.121094 C 347.484375 160.265625 344.9375 162.8125 341.792969 162.8125 C 338.652344 162.8125 336.105469 160.265625 336.105469 157.121094 C 336.105469 153.980469 338.652344 151.433594 341.792969 151.433594 C 344.9375 151.433594 347.484375 153.980469 347.484375 157.121094 "/>
<path fill-rule="nonzero" fill="rgb(18.431373%, 30.980392%, 30.980392%)" fill-opacity="0.901961" stroke-width="0.708661" stroke-linecap="round" stroke-linejoin="round" stroke="rgb(18.431373%, 30.980392%, 30.980392%)" stroke-opacity="0.901961" stroke-miterlimit="10" d="M 647.746094 140.40625 C 647.746094 143.546875 645.199219 146.09375 642.058594 146.09375 C 638.917969 146.09375 636.371094 143.546875 636.371094 140.40625 C 636.371094 137.265625 638.917969 134.71875 642.058594 134.71875 C 645.199219 134.71875 647.746094 137.265625 647.746094 140.40625 "/>
<path fill-rule="nonzero" fill="rgb(18.431373%, 30.980392%, 30.980392%)" fill-opacity="0.901961" stroke-width="0.708661" stroke-linecap="round" stroke-linejoin="round" stroke="rgb(18.431373%, 30.980392%, 30.980392%)" stroke-opacity="0.901961" stroke-miterlimit="10" d="M 587.214844 146.976562 C 587.214844 150.121094 584.667969 152.667969 581.523438 152.667969 C 578.382812 152.667969 575.835938 150.121094 575.835938 146.976562 C 575.835938 143.835938 578.382812 141.289062 581.523438 141.289062 C 584.667969 141.289062 587.214844 143.835938 587.214844 146.976562 "/>
<path fill-rule="nonzero" fill="rgb(18.431373%, 30.980392%, 30.980392%)" fill-opacity="0.901961" stroke-width="0.708661" stroke-linecap="round" stroke-linejoin="round" stroke="rgb(18.431373%, 30.980392%, 30.980392%)" stroke-opacity="0.901961" stroke-miterlimit="10" d="M 385.953125 110.992188 C 385.953125 114.132812 383.40625 116.679688 380.261719 116.679688 C 377.121094 116.679688 374.574219 114.132812 374.574219 110.992188 C 374.574219 107.851562 377.121094 105.304688 380.261719 105.304688 C 383.40625 105.304688 385.953125 107.851562 385.953125 110.992188 "/>
<path fill-rule="nonzero" fill="rgb(18.431373%, 30.980392%, 30.980392%)" fill-opacity="0.901961" stroke-width="0.708661" stroke-linecap="round" stroke-linejoin="round" stroke="rgb(18.431373%, 30.980392%, 30.980392%)" stroke-opacity="0.901961" stroke-miterlimit="10" d="M 346.191406 116.070312 C 346.191406 119.214844 343.644531 121.761719 340.5 121.761719 C 337.359375 121.761719 334.8125 119.214844 334.8125 116.070312 C 334.8125 112.929688 337.359375 110.382812 340.5 110.382812 C 343.644531 110.382812 346.191406 112.929688 346.191406 116.070312 "/>
<path fill-rule="nonzero" fill="rgb(18.431373%, 30.980392%, 30.980392%)" fill-opacity="0.901961" stroke-width="0.708661" stroke-linecap="round" stroke-linejoin="round" stroke="rgb(18.431373%, 30.980392%, 30.980392%)" stroke-opacity="0.901961" stroke-miterlimit="10" d="M 116.421875 134.917969 C 116.421875 138.0625 113.871094 140.609375 110.730469 140.609375 C 107.589844 140.609375 105.042969 138.0625 105.042969 134.917969 C 105.042969 131.777344 107.589844 129.230469 110.730469 129.230469 C 113.871094 129.230469 116.421875 131.777344 116.421875 134.917969 "/>
<path fill-rule="nonzero" fill="rgb(18.431373%, 30.980392%, 30.980392%)" fill-opacity="0.901961" stroke-width="0.708661" stroke-linecap="round" stroke-linejoin="round" stroke="rgb(18.431373%, 30.980392%, 30.980392%)" stroke-opacity="0.901961" stroke-miterlimit="10" d="M 358.5 210.871094 C 358.5 214.015625 355.953125 216.5625 352.8125 216.5625 C 349.667969 216.5625 347.121094 214.015625 347.121094 210.871094 C 347.121094 207.730469 349.667969 205.183594 352.8125 205.183594 C 355.953125 205.183594 358.5 207.730469 358.5 210.871094 "/>
<path fill-rule="nonzero" fill="rgb(18.431373%, 30.980392%, 30.980392%)" fill-opacity="0.901961" stroke-width="0.708661" stroke-linecap="round" stroke-linejoin="round" stroke="rgb(18.431373%, 30.980392%, 30.980392%)" stroke-opacity="0.901961" stroke-miterlimit="10" d="M 472.460938 141.023438 C 472.460938 144.164062 469.914062 146.710938 466.773438 146.710938 C 463.632812 146.710938 461.082031 144.164062 461.082031 141.023438 C 461.082031 137.878906 463.632812 135.332031 466.773438 135.332031 C 469.914062 135.332031 472.460938 137.878906 472.460938 141.023438 "/>
<path fill-rule="nonzero" fill="rgb(18.431373%, 30.980392%, 30.980392%)" fill-opacity="0.901961" stroke-width="0.708661" stroke-linecap="round" stroke-linejoin="round" stroke="rgb(18.431373%, 30.980392%, 30.980392%)" stroke-opacity="0.901961" stroke-miterlimit="10" d="M 200.863281 161.230469 C 200.863281 164.375 198.316406 166.921875 195.171875 166.921875 C 192.03125 166.921875 189.484375 164.375 189.484375 161.230469 C 189.484375 158.089844 192.03125 155.542969 195.171875 155.542969 C 198.316406 155.542969 200.863281 158.089844 200.863281 161.230469 "/>
<path fill-rule="nonzero" fill="rgb(18.431373%, 30.980392%, 30.980392%)" fill-opacity="0.901961" stroke-width="0.708661" stroke-linecap="round" stroke-linejoin="round" stroke="rgb(18.431373%, 30.980392%, 30.980392%)" stroke-opacity="0.901961" stroke-miterlimit="10" d="M 497.761719 100.75 C 497.761719 103.890625 495.214844 106.4375 492.074219 106.4375 C 488.933594 106.4375 486.382812 103.890625 486.382812 100.75 C 486.382812 97.605469 488.933594 95.058594 492.074219 95.058594 C 495.214844 95.058594 497.761719 97.605469 497.761719 100.75 "/>
<path fill-rule="nonzero" fill="rgb(18.431373%, 30.980392%, 30.980392%)" fill-opacity="0.901961" stroke-width="0.708661" stroke-linecap="round" stroke-linejoin="round" stroke="rgb(18.431373%, 30.980392%, 30.980392%)" stroke-opacity="0.901961" stroke-miterlimit="10" d="M 506.433594 139.382812 C 506.433594 142.527344 503.886719 145.074219 500.746094 145.074219 C 497.605469 145.074219 495.058594 142.527344 495.058594 139.382812 C 495.058594 136.242188 497.605469 133.695312 500.746094 133.695312 C 503.886719 133.695312 506.433594 136.242188 506.433594 139.382812 "/>
<path fill-rule="nonzero" fill="rgb(18.431373%, 30.980392%, 30.980392%)" fill-opacity="0.901961" stroke-width="0.708661" stroke-linecap="round" stroke-linejoin="round" stroke="rgb(18.431373%, 30.980392%, 30.980392%)" stroke-opacity="0.901961" stroke-miterlimit="10" d="M 209.746094 127.152344 C 209.746094 130.292969 207.199219 132.839844 204.058594 132.839844 C 200.917969 132.839844 198.367188 130.292969 198.367188 127.152344 C 198.367188 124.011719 200.917969 121.464844 204.058594 121.464844 C 207.199219 121.464844 209.746094 124.011719 209.746094 127.152344 "/>
<path fill-rule="nonzero" fill="rgb(18.431373%, 30.980392%, 30.980392%)" fill-opacity="0.901961" stroke-width="0.708661" stroke-linecap="round" stroke-linejoin="round" stroke="rgb(18.431373%, 30.980392%, 30.980392%)" stroke-opacity="0.901961" stroke-miterlimit="10" d="M 538.898438 19.472656 C 538.898438 22.613281 536.351562 25.160156 533.210938 25.160156 C 530.070312 25.160156 527.523438 22.613281 527.523438 19.472656 C 527.523438 16.332031 530.070312 13.78125 533.210938 13.78125 C 536.351562 13.78125 538.898438 16.332031 538.898438 19.472656 "/>
<path fill-rule="nonzero" fill="rgb(18.431373%, 30.980392%, 30.980392%)" fill-opacity="0.901961" stroke-width="0.708661" stroke-linecap="round" stroke-linejoin="round" stroke="rgb(18.431373%, 30.980392%, 30.980392%)" stroke-opacity="0.901961" stroke-miterlimit="10" d="M 328.308594 172.410156 C 328.308594 175.550781 325.761719 178.097656 322.617188 178.097656 C 319.476562 178.097656 316.929688 175.550781 316.929688 172.410156 C 316.929688 169.269531 319.476562 166.722656 322.617188 166.722656 C 325.761719 166.722656 328.308594 169.269531 328.308594 172.410156 "/>
<path fill-rule="nonzero" fill="rgb(18.431373%, 30.980392%, 30.980392%)" fill-opacity="0.901961" stroke-width="0.708661" stroke-linecap="round" stroke-linejoin="round" stroke="rgb(18.431373%, 30.980392%, 30.980392%)" stroke-opacity="0.901961" stroke-miterlimit="10" d="M 305.289062 223.160156 C 305.289062 226.300781 302.742188 228.847656 299.601562 228.847656 C 296.460938 228.847656 293.910156 226.300781 293.910156 223.160156 C 293.910156 220.015625 296.460938 217.46875 299.601562 217.46875 C 302.742188 217.46875 305.289062 220.015625 305.289062 223.160156 "/>
<path fill-rule="nonzero" fill="rgb(18.431373%, 30.980392%, 30.980392%)" fill-opacity="0.901961" stroke-width="0.708661" stroke-linecap="round" stroke-linejoin="round" stroke="rgb(18.431373%, 30.980392%, 30.980392%)" stroke-opacity="0.901961" stroke-miterlimit="10" d="M 507.296875 131.941406 C 507.296875 135.085938 504.746094 137.632812 501.605469 137.632812 C 498.464844 137.632812 495.917969 135.085938 495.917969 131.941406 C 495.917969 128.800781 498.464844 126.253906 501.605469 126.253906 C 504.746094 126.253906 507.296875 128.800781 507.296875 131.941406 "/>
<path fill-rule="nonzero" fill="rgb(18.431373%, 30.980392%, 30.980392%)" fill-opacity="0.901961" stroke-width="0.708661" stroke-linecap="round" stroke-linejoin="round" stroke="rgb(18.431373%, 30.980392%, 30.980392%)" stroke-opacity="0.901961" stroke-miterlimit="10" d="M 432.132812 218.234375 C 432.132812 221.378906 429.585938 223.925781 426.441406 223.925781 C 423.300781 223.925781 420.753906 221.378906 420.753906 218.234375 C 420.753906 215.09375 423.300781 212.546875 426.441406 212.546875 C 429.585938 212.546875 432.132812 215.09375 432.132812 218.234375 "/>
<path fill-rule="nonzero" fill="rgb(18.431373%, 30.980392%, 30.980392%)" fill-opacity="0.901961" stroke-width="0.708661" stroke-linecap="round" stroke-linejoin="round" stroke="rgb(18.431373%, 30.980392%, 30.980392%)" stroke-opacity="0.901961" stroke-miterlimit="10" d="M 319.191406 139.160156 C 319.191406 142.300781 316.644531 144.847656 313.503906 144.847656 C 310.359375 144.847656 307.8125 142.300781 307.8125 139.160156 C 307.8125 136.019531 310.359375 133.472656 313.503906 133.472656 C 316.644531 133.472656 319.191406 136.019531 319.191406 139.160156 "/>
<path fill-rule="nonzero" fill="rgb(18.431373%, 30.980392%, 30.980392%)" fill-opacity="0.901961" stroke-width="0.708661" stroke-linecap="round" stroke-linejoin="round" stroke="rgb(18.431373%, 30.980392%, 30.980392%)" stroke-opacity="0.901961" stroke-miterlimit="10" d="M 197.203125 240.863281 C 197.203125 244.003906 194.65625 246.550781 191.511719 246.550781 C 188.371094 246.550781 185.824219 244.003906 185.824219 240.863281 C 185.824219 237.71875 188.371094 235.171875 191.511719 235.171875 C 194.65625 235.171875 197.203125 237.71875 197.203125 240.863281 "/>
<path fill-rule="nonzero" fill="rgb(18.431373%, 30.980392%, 30.980392%)" fill-opacity="0.901961" stroke-width="0.708661" stroke-linecap="round" stroke-linejoin="round" stroke="rgb(18.431373%, 30.980392%, 30.980392%)" stroke-opacity="0.901961" stroke-miterlimit="10" d="M 515.640625 93.699219 C 515.640625 96.839844 513.09375 99.386719 509.949219 99.386719 C 506.808594 99.386719 504.261719 96.839844 504.261719 93.699219 C 504.261719 90.554688 506.808594 88.007812 509.949219 88.007812 C 513.09375 88.007812 515.640625 90.554688 515.640625 93.699219 "/>
<path fill-rule="nonzero" fill="rgb(18.431373%, 30.980392%, 30.980392%)" fill-opacity="0.901961" stroke-width="0.708661" stroke-linecap="round" stroke-linejoin="round" stroke="rgb(18.431373%, 30.980392%, 30.980392%)" stroke-opacity="0.901961" stroke-miterlimit="10" d="M 210.722656 207.246094 C 210.722656 210.386719 208.175781 212.933594 205.035156 212.933594 C 201.894531 212.933594 199.347656 210.386719 199.347656 207.246094 C 199.347656 204.101562 201.894531 201.554688 205.035156 201.554688 C 208.175781 201.554688 210.722656 204.101562 210.722656 207.246094 "/>
<path fill-rule="nonzero" fill="rgb(18.431373%, 30.980392%, 30.980392%)" fill-opacity="0.901961" stroke-width="0.708661" stroke-linecap="round" stroke-linejoin="round" stroke="rgb(18.431373%, 30.980392%, 30.980392%)" stroke-opacity="0.901961" stroke-miterlimit="10" d="M 90.800781 218.945312 C 90.800781 222.085938 88.253906 224.632812 85.113281 224.632812 C 81.96875 224.632812 79.421875 222.085938 79.421875 218.945312 C 79.421875 215.800781 81.96875 213.253906 85.113281 213.253906 C 88.253906 213.253906 90.800781 215.800781 90.800781 218.945312 "/>
<path fill-rule="nonzero" fill="rgb(18.431373%, 30.980392%, 30.980392%)" fill-opacity="0.901961" stroke-width="0.708661" stroke-linecap="round" stroke-linejoin="round" stroke="rgb(18.431373%, 30.980392%, 30.980392%)" stroke-opacity="0.901961" stroke-miterlimit="10" d="M 521.144531 168.796875 C 521.144531 171.941406 518.59375 174.488281 515.453125 174.488281 C 512.3125 174.488281 509.765625 171.941406 509.765625 168.796875 C 509.765625 165.65625 512.3125 163.109375 515.453125 163.109375 C 518.59375 163.109375 521.144531 165.65625 521.144531 168.796875 "/>
<path fill-rule="nonzero" fill="rgb(18.431373%, 30.980392%, 30.980392%)" fill-opacity="0.901961" stroke-width="0.708661" stroke-linecap="round" stroke-linejoin="round" stroke="rgb(18.431373%, 30.980392%, 30.980392%)" stroke-opacity="0.901961" stroke-miterlimit="10" d="M 505.867188 117.4375 C 505.867188 120.582031 503.320312 123.128906 500.179688 123.128906 C 497.035156 123.128906 494.488281 120.582031 494.488281 117.4375 C 494.488281 114.296875 497.035156 111.75 500.179688 111.75 C 503.320312 111.75 505.867188 114.296875 505.867188 117.4375 "/>
<path fill-rule="nonzero" fill="rgb(18.431373%, 30.980392%, 30.980392%)" fill-opacity="0.901961" stroke-width="0.708661" stroke-linecap="round" stroke-linejoin="round" stroke="rgb(18.431373%, 30.980392%, 30.980392%)" stroke-opacity="0.901961" stroke-miterlimit="10" d="M 461.425781 153.496094 C 461.425781 156.640625 458.878906 159.1875 455.734375 159.1875 C 452.59375 159.1875 450.046875 156.640625 450.046875 153.496094 C 450.046875 150.355469 452.59375 147.808594 455.734375 147.808594 C 458.878906 147.808594 461.425781 150.355469 461.425781 153.496094 "/>
<path fill-rule="nonzero" fill="rgb(18.431373%, 30.980392%, 30.980392%)" fill-opacity="0.901961" stroke-width="0.708661" stroke-linecap="round" stroke-linejoin="round" stroke="rgb(18.431373%, 30.980392%, 30.980392%)" stroke-opacity="0.901961" stroke-miterlimit="10" d="M 26.308594 239.523438 C 26.308594 242.664062 23.761719 245.210938 20.617188 245.210938 C 17.476562 245.210938 14.929688 242.664062 14.929688 239.523438 C 14.929688 236.378906 17.476562 233.832031 20.617188 233.832031 C 23.761719 233.832031 26.308594 236.378906 26.308594 239.523438 "/>
<path fill-rule="nonzero" fill="rgb(18.431373%, 30.980392%, 30.980392%)" fill-opacity="0.901961" stroke-width="0.708661" stroke-linecap="round" stroke-linejoin="round" stroke="rgb(18.431373%, 30.980392%, 30.980392%)" stroke-opacity="0.901961" stroke-miterlimit="10" d="M 334.582031 170.679688 C 334.582031 173.820312 332.035156 176.367188 328.890625 176.367188 C 325.75 176.367188 323.203125 173.820312 323.203125 170.679688 C 323.203125 167.539062 325.75 164.988281 328.890625 164.988281 C 332.035156 164.988281 334.582031 167.539062 334.582031 170.679688 "/>
<path fill-rule="nonzero" fill="rgb(18.431373%, 30.980392%, 30.980392%)" fill-opacity="0.901961" stroke-width="0.708661" stroke-linecap="round" stroke-linejoin="round" stroke="rgb(18.431373%, 30.980392%, 30.980392%)" stroke-opacity="0.901961" stroke-miterlimit="10" d="M 388.414062 111.808594 C 388.414062 114.953125 385.867188 117.5 382.722656 117.5 C 379.582031 117.5 377.035156 114.953125 377.035156 111.808594 C 377.035156 108.667969 379.582031 106.121094 382.722656 106.121094 C 385.867188 106.121094 388.414062 108.667969 388.414062 111.808594 "/>
<path fill-rule="nonzero" fill="rgb(18.431373%, 30.980392%, 30.980392%)" fill-opacity="0.901961" stroke-width="0.708661" stroke-linecap="round" stroke-linejoin="round" stroke="rgb(18.431373%, 30.980392%, 30.980392%)" stroke-opacity="0.901961" stroke-miterlimit="10" d="M 555.097656 170 C 555.097656 173.140625 552.550781 175.6875 549.410156 175.6875 C 546.265625 175.6875 543.71875 173.140625 543.71875 170 C 543.71875 166.859375 546.265625 164.308594 549.410156 164.308594 C 552.550781 164.308594 555.097656 166.859375 555.097656 170 "/>
<path fill-rule="nonzero" fill="rgb(18.431373%, 30.980392%, 30.980392%)" fill-opacity="0.901961" stroke-width="0.708661" stroke-linecap="round" stroke-linejoin="round" stroke="rgb(18.431373%, 30.980392%, 30.980392%)" stroke-opacity="0.901961" stroke-miterlimit="10" d="M 421.367188 152.542969 C 421.367188 155.683594 418.820312 158.230469 415.679688 158.230469 C 412.535156 158.230469 409.988281 155.683594 409.988281 152.542969 C 409.988281 149.402344 412.535156 146.851562 415.679688 146.851562 C 418.820312 146.851562 421.367188 149.402344 421.367188 152.542969 "/>
<path fill-rule="nonzero" fill="rgb(18.431373%, 30.980392%, 30.980392%)" fill-opacity="0.901961" stroke-width="0.708661" stroke-linecap="round" stroke-linejoin="round" stroke="rgb(18.431373%, 30.980392%, 30.980392%)" stroke-opacity="0.901961" stroke-miterlimit="10" d="M 184.625 202.859375 C 184.625 206 182.078125 208.550781 178.9375 208.550781 C 175.792969 208.550781 173.246094 206 173.246094 202.859375 C 173.246094 199.71875 175.792969 197.171875 178.9375 197.171875 C 182.078125 197.171875 184.625 199.71875 184.625 202.859375 "/>
<path fill="none" stroke-width="4.267913" stroke-linecap="butt" stroke-linejoin="round" stroke="rgb(100%, 64.705882%, 0%)" stroke-opacity="0.901961" stroke-miterlimit="10" d="M -784.800781 182.921875 L 1526.398438 10.988281 "/>
</svg>
