<?xml version="1.0" encoding="UTF-8"?>
<svg xmlns="http://www.w3.org/2000/svg" xmlns:xlink="http://www.w3.org/1999/xlink" width="504" height="288" viewBox="0 0 504 288">
<defs>
<g>
<g id="glyph-0-0">
<path d="M 0.359375 0 L 0.359375 -8.03125 L 6.734375 -8.03125 L 6.734375 0 Z M 5.734375 -1 L 5.734375 -7.03125 L 1.375 -7.03125 L 1.375 -1 Z M 5.734375 -1 "/>
</g>
<g id="glyph-0-1">
<path d="M 3.03125 -7.828125 C 4.039062 -7.828125 4.773438 -7.410156 5.234375 -6.578125 C 5.578125 -5.929688 5.75 -5.046875 5.75 -3.921875 C 5.75 -2.859375 5.59375 -1.976562 5.28125 -1.28125 C 4.820312 -0.28125 4.070312 0.21875 3.03125 0.21875 C 2.082031 0.21875 1.378906 -0.191406 0.921875 -1.015625 C 0.535156 -1.691406 0.34375 -2.609375 0.34375 -3.765625 C 0.34375 -4.648438 0.457031 -5.410156 0.6875 -6.046875 C 1.125 -7.234375 1.90625 -7.828125 3.03125 -7.828125 Z M 3.015625 -0.6875 C 3.523438 -0.6875 3.929688 -0.910156 4.234375 -1.359375 C 4.535156 -1.816406 4.6875 -2.660156 4.6875 -3.890625 C 4.6875 -4.773438 4.578125 -5.503906 4.359375 -6.078125 C 4.140625 -6.660156 3.71875 -6.953125 3.09375 -6.953125 C 2.507812 -6.953125 2.082031 -6.675781 1.8125 -6.125 C 1.550781 -5.582031 1.421875 -4.78125 1.421875 -3.71875 C 1.421875 -2.914062 1.503906 -2.273438 1.671875 -1.796875 C 1.929688 -1.054688 2.378906 -0.6875 3.015625 -0.6875 Z M 3.015625 -0.6875 "/>
</g>
<g id="glyph-0-2">
<path d="M 0.953125 -1.1875 L 2.09375 -1.1875 L 2.09375 0 L 0.953125 0 Z M 0.953125 -1.1875 "/>
</g>
<g id="glyph-0-3">
<path d="M 0.34375 0 C 0.382812 -0.675781 0.523438 -1.265625 0.765625 -1.765625 C 1.003906 -2.265625 1.476562 -2.71875 2.1875 -3.125 L 3.234375 -3.734375 C 3.703125 -4.003906 4.035156 -4.238281 4.234375 -4.4375 C 4.523438 -4.738281 4.671875 -5.082031 4.671875 -5.46875 C 4.671875 -5.925781 4.535156 -6.285156 4.265625 -6.546875 C 3.992188 -6.816406 3.628906 -6.953125 3.171875 -6.953125 C 2.492188 -6.953125 2.023438 -6.695312 1.765625 -6.1875 C 1.628906 -5.914062 1.554688 -5.535156 1.546875 -5.046875 L 0.546875 -5.046875 C 0.554688 -5.734375 0.679688 -6.289062 0.921875 -6.71875 C 1.347656 -7.476562 2.097656 -7.859375 3.171875 -7.859375 C 4.078125 -7.859375 4.734375 -7.613281 5.140625 -7.125 C 5.554688 -6.644531 5.765625 -6.109375 5.765625 -5.515625 C 5.765625 -4.890625 5.546875 -4.351562 5.109375 -3.90625 C 4.847656 -3.644531 4.390625 -3.332031 3.734375 -2.96875 L 2.984375 -2.546875 C 2.617188 -2.347656 2.335938 -2.160156 2.140625 -1.984375 C 1.773438 -1.671875 1.546875 -1.320312 1.453125 -0.9375 L 5.734375 -0.9375 L 5.734375 0 Z M 0.34375 0 "/>
</g>
<g id="glyph-0-4">
<path d="M 1.390625 -2 C 1.453125 -1.4375 1.710938 -1.046875 2.171875 -0.828125 C 2.398438 -0.722656 2.664062 -0.671875 2.96875 -0.671875 C 3.550781 -0.671875 3.984375 -0.851562 4.265625 -1.21875 C 4.546875 -1.59375 4.6875 -2.007812 4.6875 -2.46875 C 4.6875 -3.007812 4.519531 -3.425781 4.1875 -3.71875 C 3.851562 -4.019531 3.457031 -4.171875 3 -4.171875 C 2.65625 -4.171875 2.359375 -4.101562 2.109375 -3.96875 C 1.867188 -3.84375 1.664062 -3.664062 1.5 -3.4375 L 0.640625 -3.484375 L 1.234375 -7.703125 L 5.3125 -7.703125 L 5.3125 -6.75 L 1.984375 -6.75 L 1.640625 -4.578125 C 1.828125 -4.710938 2.003906 -4.816406 2.171875 -4.890625 C 2.460938 -5.003906 2.796875 -5.0625 3.171875 -5.0625 C 3.890625 -5.0625 4.5 -4.828125 5 -4.359375 C 5.5 -3.898438 5.75 -3.316406 5.75 -2.609375 C 5.75 -1.867188 5.519531 -1.210938 5.0625 -0.640625 C 4.601562 -0.078125 3.875 0.203125 2.875 0.203125 C 2.238281 0.203125 1.675781 0.0234375 1.1875 -0.328125 C 0.695312 -0.691406 0.421875 -1.25 0.359375 -2 Z M 1.390625 -2 "/>
</g>
<g id="glyph-0-5">
<path d="M 5.859375 -7.703125 L 5.859375 -6.84375 C 5.609375 -6.601562 5.273438 -6.175781 4.859375 -5.5625 C 4.441406 -4.957031 4.070312 -4.304688 3.75 -3.609375 C 3.425781 -2.929688 3.1875 -2.3125 3.03125 -1.75 C 2.914062 -1.382812 2.773438 -0.800781 2.609375 0 L 1.53125 0 C 1.769531 -1.5 2.316406 -2.988281 3.171875 -4.46875 C 3.671875 -5.332031 4.195312 -6.082031 4.75 -6.71875 L 0.40625 -6.71875 L 0.40625 -7.703125 Z M 5.859375 -7.703125 "/>
</g>
<g id="glyph-0-6">
<path d="M 1.078125 -5.546875 L 1.078125 -6.296875 C 1.785156 -6.367188 2.28125 -6.484375 2.5625 -6.640625 C 2.84375 -6.804688 3.050781 -7.191406 3.1875 -7.796875 L 3.96875 -7.796875 L 3.96875 0 L 2.921875 0 L 2.921875 -5.546875 Z M 1.078125 -5.546875 "/>
</g>
<g id="glyph-1-0">
<path d="M 0.453125 0 L 0.453125 -10.046875 L 8.421875 -10.046875 L 8.421875 0 Z M 7.171875 -1.265625 L 7.171875 -8.78125 L 1.703125 -8.78125 L 1.703125 -1.265625 Z M 7.171875 -1.265625 "/>
</g>
<g id="glyph-1-1">
<path d="M 0.203125 -7.328125 L 1.796875 -7.328125 L 3.484375 -4.75 L 5.1875 -7.328125 L 6.671875 -7.28125 L 4.21875 -3.75 L 6.78125 0 L 5.21875 0 L 3.390625 -2.75 L 1.640625 0 L 0.078125 0 L 2.65625 -3.75 Z M 0.203125 -7.328125 "/>
</g>
<g id="glyph-2-0">
<path d="M 0 -0.453125 L -10.046875 -0.453125 L -10.046875 -8.421875 L 0 -8.421875 Z M -1.265625 -7.171875 L -8.78125 -7.171875 L -8.78125 -1.703125 L -1.265625 -1.703125 Z M -1.265625 -7.171875 "/>
</g>
<g id="glyph-2-1">
<path d="M -7.328125 -5.46875 L -7.328125 -6.84375 C -6.859375 -6.664062 -5.785156 -6.28125 -4.109375 -5.6875 C -2.847656 -5.238281 -1.820312 -4.863281 -1.03125 -4.5625 C 0.832031 -3.851562 1.96875 -3.351562 2.375 -3.0625 C 2.789062 -2.769531 3 -2.265625 3 -1.546875 C 3 -1.378906 2.988281 -1.25 2.96875 -1.15625 C 2.957031 -1.0625 2.9375 -0.945312 2.90625 -0.8125 L 1.78125 -0.8125 C 1.84375 -1.019531 1.878906 -1.171875 1.890625 -1.265625 C 1.910156 -1.367188 1.921875 -1.457031 1.921875 -1.53125 C 1.921875 -1.75 1.878906 -1.910156 1.796875 -2.015625 C 1.722656 -2.128906 1.632812 -2.222656 1.53125 -2.296875 C 1.488281 -2.316406 1.296875 -2.394531 0.953125 -2.53125 C 0.617188 -2.675781 0.375 -2.78125 0.21875 -2.84375 L -7.328125 -0.140625 L -7.328125 -1.53125 L -1.359375 -3.5 Z M -7.5 -3.5 Z M -7.5 -3.5 "/>
</g>
</g>
<clipPath id="clip-0">
<path clip-rule="nonzero" d="M 52.738281 6.972656 L 497.027344 6.972656 L 497.027344 244.261719 L 52.738281 244.261719 Z M 52.738281 6.972656 "/>
</clipPath>
<clipPath id="clip-1">
<path clip-rule="nonzero" d="M 52.738281 206 L 497.027344 206 L 497.027344 207 L 52.738281 207 Z M 52.738281 206 "/>
</clipPath>
<clipPath id="clip-2">
<path clip-rule="nonzero" d="M 52.738281 152 L 497.027344 152 L 497.027344 153 L 52.738281 153 Z M 52.738281 152 "/>
</clipPath>
<clipPath id="clip-3">
<path clip-rule="nonzero" d="M 52.738281 98 L 497.027344 98 L 497.027344 99 L 52.738281 99 Z M 52.738281 98 "/>
</clipPath>
<clipPath id="clip-4">
<path clip-rule="nonzero" d="M 52.738281 44 L 497.027344 44 L 497.027344 46 L 52.738281 46 Z M 52.738281 44 "/>
</clipPath>
<clipPath id="clip-5">
<path clip-rule="nonzero" d="M 123 6.972656 L 124 6.972656 L 124 244.261719 L 123 244.261719 Z M 123 6.972656 "/>
</clipPath>
<clipPath id="clip-6">
<path clip-rule="nonzero" d="M 224 6.972656 L 225 6.972656 L 225 244.261719 L 224 244.261719 Z M 224 6.972656 "/>
</clipPath>
<clipPath id="clip-7">
<path clip-rule="nonzero" d="M 325 6.972656 L 326 6.972656 L 326 244.261719 L 325 244.261719 Z M 325 6.972656 "/>
</clipPath>
<clipPath id="clip-8">
<path clip-rule="nonzero" d="M 426 6.972656 L 427 6.972656 L 427 244.261719 L 426 244.261719 Z M 426 6.972656 "/>
</clipPath>
<clipPath id="clip-9">
<path clip-rule="nonzero" d="M 52.738281 232 L 497.027344 232 L 497.027344 235 L 52.738281 235 Z M 52.738281 232 "/>
</clipPath>
<clipPath id="clip-10">
<path clip-rule="nonzero" d="M 52.738281 178 L 497.027344 178 L 497.027344 181 L 52.738281 181 Z M 52.738281 178 "/>
</clipPath>
<clipPath id="clip-11">
<path clip-rule="nonzero" d="M 52.738281 124 L 497.027344 124 L 497.027344 127 L 52.738281 127 Z M 52.738281 124 "/>
</clipPath>
<clipPath id="clip-12">
<path clip-rule="nonzero" d="M 52.738281 71 L 497.027344 71 L 497.027344 73 L 52.738281 73 Z M 52.738281 71 "/>
</clipPath>
<clipPath id="clip-13">
<path clip-rule="nonzero" d="M 52.738281 17 L 497.027344 17 L 497.027344 19 L 52.738281 19 Z M 52.738281 17 "/>
</clipPath>
<clipPath id="clip-14">
<path clip-rule="nonzero" d="M 72 6.972656 L 74 6.972656 L 74 244.261719 L 72 244.261719 Z M 72 6.972656 "/>
</clipPath>
<clipPath id="clip-15">
<path clip-rule="nonzero" d="M 173 6.972656 L 175 6.972656 L 175 244.261719 L 173 244.261719 Z M 173 6.972656 "/>
</clipPath>
<clipPath id="clip-16">
<path clip-rule="nonzero" d="M 274 6.972656 L 276 6.972656 L 276 244.261719 L 274 244.261719 Z M 274 6.972656 "/>
</clipPath>
<clipPath id="clip-17">
<path clip-rule="nonzero" d="M 375 6.972656 L 377 6.972656 L 377 244.261719 L 375 244.261719 Z M 375 6.972656 "/>
</clipPath>
<clipPath id="clip-18">
<path clip-rule="nonzero" d="M 476 6.972656 L 478 6.972656 L 478 244.261719 L 476 244.261719 Z M 476 6.972656 "/>
</clipPath>
<clipPath id="clip-19">
<path clip-rule="nonzero" d="M 52.738281 6.972656 L 497.027344 6.972656 L 497.027344 244.261719 L 52.738281 244.261719 Z M 52.738281 6.972656 "/>
</clipPath>
</defs>
<rect x="-50.4" y="-28.8" width="604.8" height="345.6" fill="rgb(100%, 100%, 100%)" fill-opacity="1"/>
<rect x="-50.4" y="-28.8" width="604.8" height="345.6" fill="rgb(100%, 100%, 100%)" fill-opacity="1"/>
<path fill="none" stroke-width="1.357972" stroke-linecap="round" stroke-linejoin="round" stroke="rgb(100%, 100%, 100%)" stroke-opacity="1" stroke-miterlimit="10" d="M 0 288 L 504 288 L 504 0 L 0 0 Z M 0 288 "/>
<g clip-path="url(#clip-0)">
<path fill-rule="nonzero" fill="rgb(100%, 100%, 100%)" fill-opacity="1" d="M 52.738281 244.261719 L 497.027344 244.261719 L 497.027344 6.972656 L 52.738281 6.972656 Z M 52.738281 244.261719 "/>
</g>
<g clip-path="url(#clip-1)">
<path fill="none" stroke-width="0.678986" stroke-linecap="butt" stroke-linejoin="round" stroke="rgb(92.156863%, 92.156863%, 92.156863%)" stroke-opacity="1" stroke-miterlimit="10" d="M 52.738281 206.511719 L 497.027344 206.511719 "/>
</g>
<g clip-path="url(#clip-2)">
<path fill="none" stroke-width="0.678986" stroke-linecap="butt" stroke-linejoin="round" stroke="rgb(92.156863%, 92.156863%, 92.156863%)" stroke-opacity="1" stroke-miterlimit="10" d="M 52.738281 152.582031 L 497.027344 152.582031 "/>
</g>
<g clip-path="url(#clip-3)">
<path fill="none" stroke-width="0.678986" stroke-linecap="butt" stroke-linejoin="round" stroke="rgb(92.156863%, 92.156863%, 92.156863%)" stroke-opacity="1" stroke-miterlimit="10" d="M 52.738281 98.652344 L 497.027344 98.652344 "/>
</g>
<g clip-path="url(#clip-4)">
<path fill="none" stroke-width="0.678986" stroke-linecap="butt" stroke-linejoin="round" stroke="rgb(92.156863%, 92.156863%, 92.156863%)" stroke-opacity="1" stroke-miterlimit="10" d="M 52.738281 44.722656 L 497.027344 44.722656 "/>
</g>
<g clip-path="url(#clip-5)">
<path fill="none" stroke-width="0.678986" stroke-linecap="butt" stroke-linejoin="round" stroke="rgb(92.156863%, 92.156863%, 92.156863%)" stroke-opacity="1" stroke-miterlimit="10" d="M 123.417969 244.261719 L 123.417969 6.972656 "/>
</g>
<g clip-path="url(#clip-6)">
<path fill="none" stroke-width="0.678986" stroke-linecap="butt" stroke-linejoin="round" stroke="rgb(92.156863%, 92.156863%, 92.156863%)" stroke-opacity="1" stroke-miterlimit="10" d="M 224.394531 244.261719 L 224.394531 6.972656 "/>
</g>
<g clip-path="url(#clip-7)">
<path fill="none" stroke-width="0.678986" stroke-linecap="butt" stroke-linejoin="round" stroke="rgb(92.156863%, 92.156863%, 92.156863%)" stroke-opacity="1" stroke-miterlimit="10" d="M 325.367188 244.261719 L 325.367188 6.972656 "/>
</g>
<g clip-path="url(#clip-8)">
<path fill="none" stroke-width="0.678986" stroke-linecap="butt" stroke-linejoin="round" stroke="rgb(92.156863%, 92.156863%, 92.156863%)" stroke-opacity="1" stroke-miterlimit="10" d="M 426.34375 244.261719 L 426.34375 6.972656 "/>
</g>
<g clip-path="url(#clip-9)">
<path fill="none" stroke-width="1.357972" stroke-linecap="butt" stroke-linejoin="round" stroke="rgb(92.156863%, 92.156863%, 92.156863%)" stroke-opacity="1" stroke-miterlimit="10" d="M 52.738281 233.476562 L 497.027344 233.476562 "/>
</g>
<g clip-path="url(#clip-10)">
<path fill="none" stroke-width="1.357972" stroke-linecap="butt" stroke-linejoin="round" stroke="rgb(92.156863%, 92.156863%, 92.156863%)" stroke-opacity="1" stroke-miterlimit="10" d="M 52.738281 179.546875 L 497.027344 179.546875 "/>
</g>
<g clip-path="url(#clip-11)">
<path fill="none" stroke-width="1.357972" stroke-linecap="butt" stroke-linejoin="round" stroke="rgb(92.156863%, 92.156863%, 92.156863%)" stroke-opacity="1" stroke-miterlimit="10" d="M 52.738281 125.617188 L 497.027344 125.617188 "/>
</g>
<g clip-path="url(#clip-12)">
<path fill="none" stroke-width="1.357972" stroke-linecap="butt" stroke-linejoin="round" stroke="rgb(92.156863%, 92.156863%, 92.156863%)" stroke-opacity="1" stroke-miterlimit="10" d="M 52.738281 71.6875 L 497.027344 71.6875 "/>
</g>
<g clip-path="url(#clip-13)">
<path fill="none" stroke-width="1.357972" stroke-linecap="butt" stroke-linejoin="round" stroke="rgb(92.156863%, 92.156863%, 92.156863%)" stroke-opacity="1" stroke-miterlimit="10" d="M 52.738281 17.757812 L 497.027344 17.757812 "/>
</g>
<g clip-path="url(#clip-14)">
<path fill="none" stroke-width="1.357972" stroke-linecap="butt" stroke-linejoin="round" stroke="rgb(92.156863%, 92.156863%, 92.156863%)" stroke-opacity="1" stroke-miterlimit="10" d="M 72.933594 244.261719 L 72.933594 6.972656 "/>
</g>
<g clip-path="url(#clip-15)">
<path fill="none" stroke-width="1.357972" stroke-linecap="butt" stroke-linejoin="round" stroke="rgb(92.156863%, 92.156863%, 92.156863%)" stroke-opacity="1" stroke-miterlimit="10" d="M 173.90625 244.261719 L 173.90625 6.972656 "/>
</g>
<g clip-path="url(#clip-16)">
<path fill="none" stroke-width="1.357972" stroke-linecap="butt" stroke-linejoin="round" stroke="rgb(92.156863%, 92.156863%, 92.156863%)" stroke-opacity="1" stroke-miterlimit="10" d="M 274.882812 244.261719 L 274.882812 6.972656 "/>
</g>
<g clip-path="url(#clip-17)">
<path fill="none" stroke-width="1.357972" stroke-linecap="butt" stroke-linejoin="round" stroke="rgb(92.156863%, 92.156863%, 92.156863%)" stroke-opacity="1" stroke-miterlimit="10" d="M 375.855469 244.261719 L 375.855469 6.972656 "/>
</g>
<g clip-path="url(#clip-18)">
<path fill="none" stroke-width="1.357972" stroke-linecap="butt" stroke-linejoin="round" stroke="rgb(92.156863%, 92.156863%, 92.156863%)" stroke-opacity="1" stroke-miterlimit="10" d="M 476.832031 244.261719 L 476.832031 6.972656 "/>
</g>
<path fill-rule="nonzero" fill="rgb(0%, 0%, 0%)" fill-opacity="1" stroke-width="0.901933" stroke-linecap="round" stroke-linejoin="round" stroke="rgb(0%, 0%, 0%)" stroke-opacity="1" stroke-miterlimit="10" d="M 343.582031 90.253906 C 343.582031 93.570312 338.609375 93.570312 338.609375 90.253906 C 338.609375 86.9375 343.582031 86.9375 343.582031 90.253906 "/>
<path fill-rule="nonzero" fill="rgb(0%, 0%, 0%)" fill-opacity="1" stroke-width="0.901933" stroke-linecap="round" stroke-linejoin="round" stroke="rgb(0%, 0%, 0%)" stroke-opacity="1" stroke-miterlimit="10" d="M 334.117188 95.308594 C 334.117188 98.625 329.144531 98.625 329.144531 95.308594 C 329.144531 91.992188 334.117188 91.992188 334.117188 95.308594 "/>
<path fill-rule="nonzero" fill="rgb(0%, 0%, 0%)" fill-opacity="1" stroke-width="0.901933" stroke-linecap="round" stroke-linejoin="round" stroke="rgb(0%, 0%, 0%)" stroke-opacity="1" stroke-miterlimit="10" d="M 390.277344 65.316406 C 390.277344 68.632812 385.300781 68.632812 385.300781 65.316406 C 385.300781 61.996094 390.277344 61.996094 390.277344 65.316406 "/>
<path fill-rule="nonzero" fill="rgb(0%, 0%, 0%)" fill-opacity="1" stroke-width="0.901933" stroke-linecap="round" stroke-linejoin="round" stroke="rgb(0%, 0%, 0%)" stroke-opacity="1" stroke-miterlimit="10" d="M 204.527344 164.523438 C 204.527344 167.839844 199.550781 167.839844 199.550781 164.523438 C 199.550781 161.207031 204.527344 161.207031 204.527344 164.523438 "/>
<path fill-rule="nonzero" fill="rgb(0%, 0%, 0%)" fill-opacity="1" stroke-width="0.901933" stroke-linecap="round" stroke-linejoin="round" stroke="rgb(0%, 0%, 0%)" stroke-opacity="1" stroke-miterlimit="10" d="M 351.929688 85.796875 C 351.929688 89.113281 346.953125 89.113281 346.953125 85.796875 C 346.953125 82.480469 351.929688 82.480469 351.929688 85.796875 "/>
<path fill-rule="nonzero" fill="rgb(0%, 0%, 0%)" fill-opacity="1" stroke-width="0.901933" stroke-linecap="round" stroke-linejoin="round" stroke="rgb(0%, 0%, 0%)" stroke-opacity="1" stroke-miterlimit="10" d="M 184.089844 175.4375 C 184.089844 178.753906 179.113281 178.753906 179.113281 175.4375 C 179.113281 172.121094 184.089844 172.121094 184.089844 175.4375 "/>
<path fill-rule="nonzero" fill="rgb(0%, 0%, 0%)" fill-opacity="1" stroke-width="0.901933" stroke-linecap="round" stroke-linejoin="round" stroke="rgb(0%, 0%, 0%)" stroke-opacity="1" stroke-miterlimit="10" d="M 365.132812 78.746094 C 365.132812 82.0625 360.160156 82.0625 360.160156 78.746094 C 360.160156 75.425781 365.132812 75.425781 365.132812 78.746094 "/>
<path fill-rule="nonzero" fill="rgb(0%, 0%, 0%)" fill-opacity="1" stroke-width="0.901933" stroke-linecap="round" stroke-linejoin="round" stroke="rgb(0%, 0%, 0%)" stroke-opacity="1" stroke-miterlimit="10" d="M 405.363281 57.257812 C 405.363281 60.578125 400.386719 60.578125 400.386719 57.257812 C 400.386719 53.941406 405.363281 53.941406 405.363281 57.257812 "/>
<path fill-rule="nonzero" fill="rgb(0%, 0%, 0%)" fill-opacity="1" stroke-width="0.901933" stroke-linecap="round" stroke-linejoin="round" stroke="rgb(0%, 0%, 0%)" stroke-opacity="1" stroke-miterlimit="10" d="M 138.847656 199.601562 C 138.847656 202.917969 133.871094 202.917969 133.871094 199.601562 C 133.871094 196.285156 138.847656 196.285156 138.847656 199.601562 "/>
<path fill-rule="nonzero" fill="rgb(0%, 0%, 0%)" fill-opacity="1" stroke-width="0.901933" stroke-linecap="round" stroke-linejoin="round" stroke="rgb(0%, 0%, 0%)" stroke-opacity="1" stroke-miterlimit="10" d="M 134.53125 201.90625 C 134.53125 205.222656 129.554688 205.222656 129.554688 201.90625 C 129.554688 198.589844 134.53125 198.589844 134.53125 201.90625 "/>
<path fill-rule="nonzero" fill="rgb(0%, 0%, 0%)" fill-opacity="1" stroke-width="0.901933" stroke-linecap="round" stroke-linejoin="round" stroke="rgb(0%, 0%, 0%)" stroke-opacity="1" stroke-miterlimit="10" d="M 102.484375 219.023438 C 102.484375 222.339844 97.507812 222.339844 97.507812 219.023438 C 97.507812 215.703125 102.484375 215.703125 102.484375 219.023438 "/>
<path fill-rule="nonzero" fill="rgb(0%, 0%, 0%)" fill-opacity="1" stroke-width="0.901933" stroke-linecap="round" stroke-linejoin="round" stroke="rgb(0%, 0%, 0%)" stroke-opacity="1" stroke-miterlimit="10" d="M 97.847656 221.496094 C 97.847656 224.816406 92.875 224.816406 92.875 221.496094 C 92.875 218.179688 97.847656 218.179688 97.847656 221.496094 "/>
<path fill-rule="nonzero" fill="rgb(0%, 0%, 0%)" fill-opacity="1" stroke-width="0.901933" stroke-linecap="round" stroke-linejoin="round" stroke="rgb(0%, 0%, 0%)" stroke-opacity="1" stroke-miterlimit="10" d="M 383.101562 69.148438 C 383.101562 72.464844 378.125 72.464844 378.125 69.148438 C 378.125 65.832031 383.101562 65.832031 383.101562 69.148438 "/>
<path fill-rule="nonzero" fill="rgb(0%, 0%, 0%)" fill-opacity="1" stroke-width="0.901933" stroke-linecap="round" stroke-linejoin="round" stroke="rgb(0%, 0%, 0%)" stroke-opacity="1" stroke-miterlimit="10" d="M 414.050781 52.617188 C 414.050781 55.9375 409.074219 55.9375 409.074219 52.617188 C 409.074219 49.300781 414.050781 49.300781 414.050781 52.617188 "/>
<path fill-rule="nonzero" fill="rgb(0%, 0%, 0%)" fill-opacity="1" stroke-width="0.901933" stroke-linecap="round" stroke-linejoin="round" stroke="rgb(0%, 0%, 0%)" stroke-opacity="1" stroke-miterlimit="10" d="M 442.800781 37.265625 C 442.800781 40.582031 437.824219 40.582031 437.824219 37.265625 C 437.824219 33.949219 442.800781 33.949219 442.800781 37.265625 "/>
<path fill-rule="nonzero" fill="rgb(0%, 0%, 0%)" fill-opacity="1" stroke-width="0.901933" stroke-linecap="round" stroke-linejoin="round" stroke="rgb(0%, 0%, 0%)" stroke-opacity="1" stroke-miterlimit="10" d="M 476.453125 19.289062 C 476.453125 22.609375 471.476562 22.609375 471.476562 19.289062 C 471.476562 15.972656 476.453125 15.972656 476.453125 19.289062 "/>
<path fill-rule="nonzero" fill="rgb(0%, 0%, 0%)" fill-opacity="1" stroke-width="0.901933" stroke-linecap="round" stroke-linejoin="round" stroke="rgb(0%, 0%, 0%)" stroke-opacity="1" stroke-miterlimit="10" d="M 435.78125 41.011719 C 435.78125 44.328125 430.808594 44.328125 430.808594 41.011719 C 430.808594 37.695312 435.78125 37.695312 435.78125 41.011719 "/>
<path fill-rule="nonzero" fill="rgb(0%, 0%, 0%)" fill-opacity="1" stroke-width="0.901933" stroke-linecap="round" stroke-linejoin="round" stroke="rgb(0%, 0%, 0%)" stroke-opacity="1" stroke-miterlimit="10" d="M 433.902344 42.015625 C 433.902344 45.335938 428.925781 45.335938 428.925781 42.015625 C 428.925781 38.699219 433.902344 38.699219 433.902344 42.015625 "/>
<path fill-rule="nonzero" fill="rgb(0%, 0%, 0%)" fill-opacity="1" stroke-width="0.901933" stroke-linecap="round" stroke-linejoin="round" stroke="rgb(0%, 0%, 0%)" stroke-opacity="1" stroke-miterlimit="10" d="M 452.324219 32.179688 C 452.324219 35.496094 447.347656 35.496094 447.347656 32.179688 C 447.347656 28.859375 452.324219 28.859375 452.324219 32.179688 "/>
<path fill-rule="nonzero" fill="rgb(0%, 0%, 0%)" fill-opacity="1" stroke-width="0.901933" stroke-linecap="round" stroke-linejoin="round" stroke="rgb(0%, 0%, 0%)" stroke-opacity="1" stroke-miterlimit="10" d="M 395.117188 62.730469 C 395.117188 66.046875 390.140625 66.046875 390.140625 62.730469 C 390.140625 59.414062 395.117188 59.414062 395.117188 62.730469 "/>
<path fill-rule="nonzero" fill="rgb(0%, 0%, 0%)" fill-opacity="1" stroke-width="0.901933" stroke-linecap="round" stroke-linejoin="round" stroke="rgb(0%, 0%, 0%)" stroke-opacity="1" stroke-miterlimit="10" d="M 205.921875 163.777344 C 205.921875 167.09375 200.949219 167.09375 200.949219 163.777344 C 200.949219 160.460938 205.921875 160.460938 205.921875 163.777344 "/>
<path fill-rule="nonzero" fill="rgb(0%, 0%, 0%)" fill-opacity="1" stroke-width="0.901933" stroke-linecap="round" stroke-linejoin="round" stroke="rgb(0%, 0%, 0%)" stroke-opacity="1" stroke-miterlimit="10" d="M 132.394531 203.046875 C 132.394531 206.363281 127.417969 206.363281 127.417969 203.046875 C 127.417969 199.730469 132.394531 199.730469 132.394531 203.046875 "/>
<path fill-rule="nonzero" fill="rgb(0%, 0%, 0%)" fill-opacity="1" stroke-width="0.901933" stroke-linecap="round" stroke-linejoin="round" stroke="rgb(0%, 0%, 0%)" stroke-opacity="1" stroke-miterlimit="10" d="M 406.875 56.449219 C 406.875 59.769531 401.898438 59.769531 401.898438 56.449219 C 401.898438 53.132812 406.875 53.132812 406.875 56.449219 "/>
<path fill-rule="nonzero" fill="rgb(0%, 0%, 0%)" fill-opacity="1" stroke-width="0.901933" stroke-linecap="round" stroke-linejoin="round" stroke="rgb(0%, 0%, 0%)" stroke-opacity="1" stroke-miterlimit="10" d="M 190.058594 172.25 C 190.058594 175.566406 185.082031 175.566406 185.082031 172.25 C 185.082031 168.933594 190.058594 168.933594 190.058594 172.25 "/>
<path fill-rule="nonzero" fill="rgb(0%, 0%, 0%)" fill-opacity="1" stroke-width="0.901933" stroke-linecap="round" stroke-linejoin="round" stroke="rgb(0%, 0%, 0%)" stroke-opacity="1" stroke-miterlimit="10" d="M 119.753906 209.800781 C 119.753906 213.117188 114.777344 213.117188 114.777344 209.800781 C 114.777344 206.480469 119.753906 206.480469 119.753906 209.800781 "/>
<path fill-rule="nonzero" fill="rgb(0%, 0%, 0%)" fill-opacity="1" stroke-width="0.901933" stroke-linecap="round" stroke-linejoin="round" stroke="rgb(0%, 0%, 0%)" stroke-opacity="1" stroke-miterlimit="10" d="M 79.089844 231.515625 C 79.089844 234.832031 74.113281 234.832031 74.113281 231.515625 C 74.113281 228.199219 79.089844 228.199219 79.089844 231.515625 "/>
<path fill-rule="nonzero" fill="rgb(0%, 0%, 0%)" fill-opacity="1" stroke-width="0.901933" stroke-linecap="round" stroke-linejoin="round" stroke="rgb(0%, 0%, 0%)" stroke-opacity="1" stroke-miterlimit="10" d="M 345.820312 89.0625 C 345.820312 92.378906 340.84375 92.378906 340.84375 89.0625 C 340.84375 85.742188 345.820312 85.742188 345.820312 89.0625 "/>
<path fill-rule="nonzero" fill="rgb(0%, 0%, 0%)" fill-opacity="1" stroke-width="0.901933" stroke-linecap="round" stroke-linejoin="round" stroke="rgb(0%, 0%, 0%)" stroke-opacity="1" stroke-miterlimit="10" d="M 432.566406 42.730469 C 432.566406 46.046875 427.589844 46.046875 427.589844 42.730469 C 427.589844 39.414062 432.566406 39.414062 432.566406 42.730469 "/>
<path fill-rule="nonzero" fill="rgb(0%, 0%, 0%)" fill-opacity="1" stroke-width="0.901933" stroke-linecap="round" stroke-linejoin="round" stroke="rgb(0%, 0%, 0%)" stroke-opacity="1" stroke-miterlimit="10" d="M 443.382812 36.953125 C 443.382812 40.269531 438.40625 40.269531 438.40625 36.953125 C 438.40625 33.636719 443.382812 33.636719 443.382812 36.953125 "/>
<path fill-rule="nonzero" fill="rgb(0%, 0%, 0%)" fill-opacity="1" stroke-width="0.901933" stroke-linecap="round" stroke-linejoin="round" stroke="rgb(0%, 0%, 0%)" stroke-opacity="1" stroke-miterlimit="10" d="M 102.199219 219.175781 C 102.199219 222.492188 97.222656 222.492188 97.222656 219.175781 C 97.222656 215.859375 102.199219 215.859375 102.199219 219.175781 "/>
<path fill-rule="nonzero" fill="rgb(0%, 0%, 0%)" fill-opacity="1" stroke-width="0.901933" stroke-linecap="round" stroke-linejoin="round" stroke="rgb(0%, 0%, 0%)" stroke-opacity="1" stroke-miterlimit="10" d="M 292.300781 117.644531 C 292.300781 120.960938 287.324219 120.960938 287.324219 117.644531 C 287.324219 114.328125 292.300781 114.328125 292.300781 117.644531 "/>
<path fill-rule="nonzero" fill="rgb(0%, 0%, 0%)" fill-opacity="1" stroke-width="0.901933" stroke-linecap="round" stroke-linejoin="round" stroke="rgb(0%, 0%, 0%)" stroke-opacity="1" stroke-miterlimit="10" d="M 218.332031 157.148438 C 218.332031 160.464844 213.355469 160.464844 213.355469 157.148438 C 213.355469 153.832031 218.332031 153.832031 218.332031 157.148438 "/>
<path fill-rule="nonzero" fill="rgb(0%, 0%, 0%)" fill-opacity="1" stroke-width="0.901933" stroke-linecap="round" stroke-linejoin="round" stroke="rgb(0%, 0%, 0%)" stroke-opacity="1" stroke-miterlimit="10" d="M 175.570312 179.988281 C 175.570312 183.304688 170.59375 183.304688 170.59375 179.988281 C 170.59375 176.671875 175.570312 176.671875 175.570312 179.988281 "/>
<path fill-rule="nonzero" fill="rgb(0%, 0%, 0%)" fill-opacity="1" stroke-width="0.901933" stroke-linecap="round" stroke-linejoin="round" stroke="rgb(0%, 0%, 0%)" stroke-opacity="1" stroke-miterlimit="10" d="M 302.25 112.332031 C 302.25 115.648438 297.273438 115.648438 297.273438 112.332031 C 297.273438 109.015625 302.25 109.015625 302.25 112.332031 "/>
<path fill-rule="nonzero" fill="rgb(0%, 0%, 0%)" fill-opacity="1" stroke-width="0.901933" stroke-linecap="round" stroke-linejoin="round" stroke="rgb(0%, 0%, 0%)" stroke-opacity="1" stroke-miterlimit="10" d="M 214.898438 158.984375 C 214.898438 162.300781 209.921875 162.300781 209.921875 158.984375 C 209.921875 155.667969 214.898438 155.667969 214.898438 158.984375 "/>
<path fill-rule="nonzero" fill="rgb(0%, 0%, 0%)" fill-opacity="1" stroke-width="0.901933" stroke-linecap="round" stroke-linejoin="round" stroke="rgb(0%, 0%, 0%)" stroke-opacity="1" stroke-miterlimit="10" d="M 399.921875 60.164062 C 399.921875 63.480469 394.945312 63.480469 394.945312 60.164062 C 394.945312 56.847656 399.921875 56.847656 399.921875 60.164062 "/>
<path fill-rule="nonzero" fill="rgb(0%, 0%, 0%)" fill-opacity="1" stroke-width="0.901933" stroke-linecap="round" stroke-linejoin="round" stroke="rgb(0%, 0%, 0%)" stroke-opacity="1" stroke-miterlimit="10" d="M 124.855469 207.074219 C 124.855469 210.390625 119.878906 210.390625 119.878906 207.074219 C 119.878906 203.757812 124.855469 203.757812 124.855469 207.074219 "/>
<path fill-rule="nonzero" fill="rgb(0%, 0%, 0%)" fill-opacity="1" stroke-width="0.901933" stroke-linecap="round" stroke-linejoin="round" stroke="rgb(0%, 0%, 0%)" stroke-opacity="1" stroke-miterlimit="10" d="M 162.488281 186.976562 C 162.488281 190.292969 157.511719 190.292969 157.511719 186.976562 C 157.511719 183.65625 162.488281 183.65625 162.488281 186.976562 "/>
<path fill-rule="nonzero" fill="rgb(0%, 0%, 0%)" fill-opacity="1" stroke-width="0.901933" stroke-linecap="round" stroke-linejoin="round" stroke="rgb(0%, 0%, 0%)" stroke-opacity="1" stroke-miterlimit="10" d="M 453.847656 31.363281 C 453.847656 34.679688 448.871094 34.679688 448.871094 31.363281 C 448.871094 28.046875 453.847656 28.046875 453.847656 31.363281 "/>
<path fill-rule="nonzero" fill="rgb(0%, 0%, 0%)" fill-opacity="1" stroke-width="0.901933" stroke-linecap="round" stroke-linejoin="round" stroke="rgb(0%, 0%, 0%)" stroke-opacity="1" stroke-miterlimit="10" d="M 339.175781 92.609375 C 339.175781 95.925781 334.199219 95.925781 334.199219 92.609375 C 334.199219 89.292969 339.175781 89.292969 339.175781 92.609375 "/>
<path fill-rule="nonzero" fill="rgb(0%, 0%, 0%)" fill-opacity="1" stroke-width="0.901933" stroke-linecap="round" stroke-linejoin="round" stroke="rgb(0%, 0%, 0%)" stroke-opacity="1" stroke-miterlimit="10" d="M 402.503906 58.785156 C 402.503906 62.101562 397.527344 62.101562 397.527344 58.785156 C 397.527344 55.46875 402.503906 55.46875 402.503906 58.785156 "/>
<path fill-rule="nonzero" fill="rgb(0%, 0%, 0%)" fill-opacity="1" stroke-width="0.901933" stroke-linecap="round" stroke-linejoin="round" stroke="rgb(0%, 0%, 0%)" stroke-opacity="1" stroke-miterlimit="10" d="M 422.554688 48.078125 C 422.554688 51.394531 417.578125 51.394531 417.578125 48.078125 C 417.578125 44.757812 422.554688 44.757812 422.554688 48.078125 "/>
<path fill-rule="nonzero" fill="rgb(0%, 0%, 0%)" fill-opacity="1" stroke-width="0.901933" stroke-linecap="round" stroke-linejoin="round" stroke="rgb(0%, 0%, 0%)" stroke-opacity="1" stroke-miterlimit="10" d="M 358.4375 82.320312 C 358.4375 85.636719 353.460938 85.636719 353.460938 82.320312 C 353.460938 79.003906 358.4375 79.003906 358.4375 82.320312 "/>
<path fill-rule="nonzero" fill="rgb(0%, 0%, 0%)" fill-opacity="1" stroke-width="0.901933" stroke-linecap="round" stroke-linejoin="round" stroke="rgb(0%, 0%, 0%)" stroke-opacity="1" stroke-miterlimit="10" d="M 376.476562 72.6875 C 376.476562 76.003906 371.5 76.003906 371.5 72.6875 C 371.5 69.371094 376.476562 69.371094 376.476562 72.6875 "/>
<path fill-rule="nonzero" fill="rgb(0%, 0%, 0%)" fill-opacity="1" stroke-width="0.901933" stroke-linecap="round" stroke-linejoin="round" stroke="rgb(0%, 0%, 0%)" stroke-opacity="1" stroke-miterlimit="10" d="M 254.097656 138.046875 C 254.097656 141.367188 249.121094 141.367188 249.121094 138.046875 C 249.121094 134.730469 254.097656 134.730469 254.097656 138.046875 "/>
<path fill-rule="nonzero" fill="rgb(0%, 0%, 0%)" fill-opacity="1" stroke-width="0.901933" stroke-linecap="round" stroke-linejoin="round" stroke="rgb(0%, 0%, 0%)" stroke-opacity="1" stroke-miterlimit="10" d="M 380.375 70.601562 C 380.375 73.921875 375.402344 73.921875 375.402344 70.601562 C 375.402344 67.285156 380.375 67.285156 380.375 70.601562 "/>
<path fill-rule="nonzero" fill="rgb(0%, 0%, 0%)" fill-opacity="1" stroke-width="0.901933" stroke-linecap="round" stroke-linejoin="round" stroke="rgb(0%, 0%, 0%)" stroke-opacity="1" stroke-miterlimit="10" d="M 251.347656 139.515625 C 251.347656 142.832031 246.371094 142.832031 246.371094 139.515625 C 246.371094 136.199219 251.347656 136.199219 251.347656 139.515625 "/>
<path fill-rule="nonzero" fill="rgb(0%, 0%, 0%)" fill-opacity="1" stroke-width="0.901933" stroke-linecap="round" stroke-linejoin="round" stroke="rgb(0%, 0%, 0%)" stroke-opacity="1" stroke-miterlimit="10" d="M 236.167969 147.625 C 236.167969 150.941406 231.191406 150.941406 231.191406 147.625 C 231.191406 144.304688 236.167969 144.304688 236.167969 147.625 "/>
<path fill-rule="nonzero" fill="rgb(0%, 0%, 0%)" fill-opacity="1" stroke-width="0.901933" stroke-linecap="round" stroke-linejoin="round" stroke="rgb(0%, 0%, 0%)" stroke-opacity="1" stroke-miterlimit="10" d="M 200.648438 166.59375 C 200.648438 169.910156 195.671875 169.910156 195.671875 166.59375 C 195.671875 163.277344 200.648438 163.277344 200.648438 166.59375 "/>
<path fill-rule="nonzero" fill="rgb(0%, 0%, 0%)" fill-opacity="1" stroke-width="0.901933" stroke-linecap="round" stroke-linejoin="round" stroke="rgb(0%, 0%, 0%)" stroke-opacity="1" stroke-miterlimit="10" d="M 320.660156 102.496094 C 320.660156 105.816406 315.683594 105.816406 315.683594 102.496094 C 315.683594 99.179688 320.660156 99.179688 320.660156 102.496094 "/>
<g clip-path="url(#clip-19)">
<path fill="none" stroke-width="1.357972" stroke-linecap="round" stroke-linejoin="round" stroke="rgb(20%, 20%, 20%)" stroke-opacity="1" stroke-miterlimit="10" d="M 52.738281 244.261719 L 497.027344 244.261719 L 497.027344 6.972656 L 52.738281 6.972656 Z M 52.738281 244.261719 "/>
</g>
<g fill="rgb(30.196078%, 30.196078%, 30.196078%)" fill-opacity="1">
<use xlink:href="#glyph-0-1" x="25.460938" y="237.600586"/>
<use xlink:href="#glyph-0-2" x="31.460938" y="237.600586"/>
<use xlink:href="#glyph-0-1" x="34.460938" y="237.600586"/>
<use xlink:href="#glyph-0-1" x="40.460938" y="237.600586"/>
</g>
<g fill="rgb(30.196078%, 30.196078%, 30.196078%)" fill-opacity="1">
<use xlink:href="#glyph-0-1" x="25.460938" y="183.670898"/>
<use xlink:href="#glyph-0-2" x="31.460938" y="183.670898"/>
<use xlink:href="#glyph-0-3" x="34.460938" y="183.670898"/>
<use xlink:href="#glyph-0-4" x="40.460938" y="183.670898"/>
</g>
<g fill="rgb(30.196078%, 30.196078%, 30.196078%)" fill-opacity="1">
<use xlink:href="#glyph-0-1" x="25.460938" y="129.741211"/>
<use xlink:href="#glyph-0-2" x="31.460938" y="129.741211"/>
<use xlink:href="#glyph-0-4" x="34.460938" y="129.741211"/>
<use xlink:href="#glyph-0-1" x="40.460938" y="129.741211"/>
</g>
<g fill="rgb(30.196078%, 30.196078%, 30.196078%)" fill-opacity="1">
<use xlink:href="#glyph-0-1" x="25.460938" y="75.811523"/>
<use xlink:href="#glyph-0-2" x="31.460938" y="75.811523"/>
<use xlink:href="#glyph-0-5" x="34.460938" y="75.811523"/>
<use xlink:href="#glyph-0-4" x="40.460938" y="75.811523"/>
</g>
<g fill="rgb(30.196078%, 30.196078%, 30.196078%)" fill-opacity="1">
<use xlink:href="#glyph-0-6" x="25.460938" y="21.881836"/>
<use xlink:href="#glyph-0-2" x="31.460938" y="21.881836"/>
<use xlink:href="#glyph-0-1" x="34.460938" y="21.881836"/>
<use xlink:href="#glyph-0-1" x="40.460938" y="21.881836"/>
</g>
<path fill="none" stroke-width="1.357972" stroke-linecap="butt" stroke-linejoin="round" stroke="rgb(20%, 20%, 20%)" stroke-opacity="1" stroke-miterlimit="10" d="M 49.25 233.476562 L 52.738281 233.476562 "/>
<path fill="none" stroke-width="1.357972" stroke-linecap="butt" stroke-linejoin="round" stroke="rgb(20%, 20%, 20%)" stroke-opacity="1" stroke-miterlimit="10" d="M 49.25 179.546875 L 52.738281 179.546875 "/>
<path fill="none" stroke-width="1.357972" stroke-linecap="butt" stroke-linejoin="round" stroke="rgb(20%, 20%, 20%)" stroke-opacity="1" stroke-miterlimit="10" d="M 49.25 125.617188 L 52.738281 125.617188 "/>
<path fill="none" stroke-width="1.357972" stroke-linecap="butt" stroke-linejoin="round" stroke="rgb(20%, 20%, 20%)" stroke-opacity="1" stroke-miterlimit="10" d="M 49.25 71.6875 L 52.738281 71.6875 "/>
<path fill="none" stroke-width="1.357972" stroke-linecap="butt" stroke-linejoin="round" stroke="rgb(20%, 20%, 20%)" stroke-opacity="1" stroke-miterlimit="10" d="M 49.25 17.757812 L 52.738281 17.757812 "/>
<path fill="none" stroke-width="1.357972" stroke-linecap="butt" stroke-linejoin="round" stroke="rgb(20%, 20%, 20%)" stroke-opacity="1" stroke-miterlimit="10" d="M 72.933594 247.75 L 72.933594 244.261719 "/>
<path fill="none" stroke-width="1.357972" stroke-linecap="butt" stroke-linejoin="round" stroke="rgb(20%, 20%, 20%)" stroke-opacity="1" stroke-miterlimit="10" d="M 173.90625 247.75 L 173.90625 244.261719 "/>
<path fill="none" stroke-width="1.357972" stroke-linecap="butt" stroke-linejoin="round" stroke="rgb(20%, 20%, 20%)" stroke-opacity="1" stroke-miterlimit="10" d="M 274.882812 247.75 L 274.882812 244.261719 "/>
<path fill="none" stroke-width="1.357972" stroke-linecap="butt" stroke-linejoin="round" stroke="rgb(20%, 20%, 20%)" stroke-opacity="1" stroke-miterlimit="10" d="M 375.855469 247.75 L 375.855469 244.261719 "/>
<path fill="none" stroke-width="1.357972" stroke-linecap="butt" stroke-linejoin="round" stroke="rgb(20%, 20%, 20%)" stroke-opacity="1" stroke-miterlimit="10" d="M 476.832031 247.75 L 476.832031 244.261719 "/>
<g fill="rgb(30.196078%, 30.196078%, 30.196078%)" fill-opacity="1">
<use xlink:href="#glyph-0-1" x="62.433594" y="259.163086"/>
<use xlink:href="#glyph-0-2" x="68.433594" y="259.163086"/>
<use xlink:href="#glyph-0-1" x="71.433594" y="259.163086"/>
<use xlink:href="#glyph-0-1" x="77.433594" y="259.163086"/>
</g>
<g fill="rgb(30.196078%, 30.196078%, 30.196078%)" fill-opacity="1">
<use xlink:href="#glyph-0-1" x="163.40625" y="259.163086"/>
<use xlink:href="#glyph-0-2" x="169.40625" y="259.163086"/>
<use xlink:href="#glyph-0-3" x="172.40625" y="259.163086"/>
<use xlink:href="#glyph-0-4" x="178.40625" y="259.163086"/>
</g>
<g fill="rgb(30.196078%, 30.196078%, 30.196078%)" fill-opacity="1">
<use xlink:href="#glyph-0-1" x="264.382812" y="259.163086"/>
<use xlink:href="#glyph-0-2" x="270.382812" y="259.163086"/>
<use xlink:href="#glyph-0-4" x="273.382812" y="259.163086"/>
<use xlink:href="#glyph-0-1" x="279.382812" y="259.163086"/>
</g>
<g fill="rgb(30.196078%, 30.196078%, 30.196078%)" fill-opacity="1">
<use xlink:href="#glyph-0-1" x="365.355469" y="259.163086"/>
<use xlink:href="#glyph-0-2" x="371.355469" y="259.163086"/>
<use xlink:href="#glyph-0-5" x="374.355469" y="259.163086"/>
<use xlink:href="#glyph-0-4" x="380.355469" y="259.163086"/>
</g>
<g fill="rgb(30.196078%, 30.196078%, 30.196078%)" fill-opacity="1">
<use xlink:href="#glyph-0-6" x="466.332031" y="259.163086"/>
<use xlink:href="#glyph-0-2" x="472.332031" y="259.163086"/>
<use xlink:href="#glyph-0-1" x="475.332031" y="259.163086"/>
<use xlink:href="#glyph-0-1" x="481.332031" y="259.163086"/>
</g>
<g fill="rgb(0%, 0%, 0%)" fill-opacity="1">
<use xlink:href="#glyph-1-1" x="271.382812" y="276.807617"/>
</g>
<g fill="rgb(0%, 0%, 0%)" fill-opacity="1">
<use xlink:href="#glyph-2-1" x="17.75293" y="129.117188"/>
</g>
</svg>
